%TF.GenerationSoftware,KiCad,Pcbnew,10.0.1*%
%TF.CreationDate,2026-06-25T11:38:18+02:00*%
%TF.ProjectId,MMS3_hat_servo,4d4d5333-5f68-4617-945f-736572766f2e,V1.0*%
%TF.SameCoordinates,Original*%
%TF.FileFunction,Copper,L2,Bot*%
%TF.FilePolarity,Positive*%
%FSLAX46Y46*%
G04 Gerber Fmt 4.6, Leading zero omitted, Abs format (unit mm)*
G04 Created by KiCad (PCBNEW 10.0.1) date 2026-06-25 11:38:18*
%MOMM*%
%LPD*%
G01*
G04 APERTURE LIST*
G04 Aperture macros list*
%AMRoundRect*
0 Rectangle with rounded corners*
0 $1 Rounding radius*
0 $2 $3 $4 $5 $6 $7 $8 $9 X,Y pos of 4 corners*
0 Add a 4 corners polygon primitive as box body*
4,1,4,$2,$3,$4,$5,$6,$7,$8,$9,$2,$3,0*
0 Add four circle primitives for the rounded corners*
1,1,$1+$1,$2,$3*
1,1,$1+$1,$4,$5*
1,1,$1+$1,$6,$7*
1,1,$1+$1,$8,$9*
0 Add four rect primitives between the rounded corners*
20,1,$1+$1,$2,$3,$4,$5,0*
20,1,$1+$1,$4,$5,$6,$7,0*
20,1,$1+$1,$6,$7,$8,$9,0*
20,1,$1+$1,$8,$9,$2,$3,0*%
G04 Aperture macros list end*
%TA.AperFunction,ComponentPad*%
%ADD10C,3.100000*%
%TD*%
%TA.AperFunction,ComponentPad*%
%ADD11R,0.900000X2.000000*%
%TD*%
%TA.AperFunction,ComponentPad*%
%ADD12RoundRect,1.025000X1.025000X1.025000X-1.025000X1.025000X-1.025000X-1.025000X1.025000X-1.025000X0*%
%TD*%
%TA.AperFunction,ComponentPad*%
%ADD13C,4.100000*%
%TD*%
%TA.AperFunction,ComponentPad*%
%ADD14RoundRect,0.250000X-0.600000X-0.725000X0.600000X-0.725000X0.600000X0.725000X-0.600000X0.725000X0*%
%TD*%
%TA.AperFunction,ComponentPad*%
%ADD15O,1.700000X1.950000*%
%TD*%
%TA.AperFunction,ComponentPad*%
%ADD16C,0.500000*%
%TD*%
%TA.AperFunction,SMDPad,CuDef*%
%ADD17RoundRect,0.250000X-0.920000X-1.550000X0.920000X-1.550000X0.920000X1.550000X-0.920000X1.550000X0*%
%TD*%
%TA.AperFunction,ComponentPad*%
%ADD18R,1.700000X1.700000*%
%TD*%
%TA.AperFunction,ComponentPad*%
%ADD19C,1.700000*%
%TD*%
%TA.AperFunction,SMDPad,CuDef*%
%ADD20R,1.000000X3.150000*%
%TD*%
%TA.AperFunction,ViaPad*%
%ADD21C,0.500000*%
%TD*%
%TA.AperFunction,Conductor*%
%ADD22C,0.300000*%
%TD*%
%TA.AperFunction,Conductor*%
%ADD23C,0.200000*%
%TD*%
G04 APERTURE END LIST*
D10*
%TO.P,H1,1,1_1*%
%TO.N,GND*%
X82000000Y-92000000D03*
%TD*%
D11*
%TO.P,J4,*%
%TO.N,*%
X100400000Y-131600000D03*
X86900000Y-131600000D03*
D12*
%TO.P,J4,1,Pin_1_1*%
%TO.N,GND*%
X97250000Y-125600000D03*
D13*
%TO.P,J4,2,Pin_2_2*%
%TO.N,/Power Connector/VIN_BRD*%
X90050000Y-125600000D03*
%TD*%
D14*
%TO.P,J10,1,Pin_1_1*%
%TO.N,GND*%
X123738000Y-132405000D03*
D15*
%TO.P,J10,2,Pin_2_2*%
%TO.N,/Servo controller/S1*%
X126238000Y-132405000D03*
%TO.P,J10,3,Pin_3_3*%
%TO.N,/Power Connector/VIN_BRD*%
X128738000Y-132405000D03*
%TD*%
D11*
%TO.P,J5,*%
%TO.N,*%
X117000000Y-132600000D03*
X103500000Y-132600000D03*
D12*
%TO.P,J5,1,Pin_1_1*%
%TO.N,GND*%
X106650000Y-126600000D03*
D13*
%TO.P,J5,2,Pin_2_2*%
%TO.N,/Power Connector/VIN_BRD*%
X113850000Y-126600000D03*
%TD*%
D14*
%TO.P,J7,1,Pin_1_1*%
%TO.N,GND*%
X162950000Y-132405000D03*
D15*
%TO.P,J7,2,Pin_2_2*%
%TO.N,/Servo controller/S4*%
X165450000Y-132405000D03*
%TO.P,J7,3,Pin_3_3*%
%TO.N,/Power Connector/VIN_BRD*%
X167950000Y-132405000D03*
%TD*%
D14*
%TO.P,J9,1,Pin_1_1*%
%TO.N,GND*%
X136808667Y-132405000D03*
D15*
%TO.P,J9,2,Pin_2_2*%
%TO.N,/Servo controller/S2*%
X139308667Y-132405000D03*
%TO.P,J9,3,Pin_3_3*%
%TO.N,/Power Connector/VIN_BRD*%
X141808667Y-132405000D03*
%TD*%
D16*
%TO.P,U4,4,VOUT_4*%
%TO.N,+3V3*%
X108010000Y-104800000D03*
X108010000Y-105800000D03*
D17*
X108010000Y-105800000D03*
D16*
X108010000Y-106800000D03*
%TD*%
D18*
%TO.P,J3,1,Pin_1_1*%
%TO.N,/Bus_switch/Chainbus.SDA*%
X176100000Y-108800000D03*
D19*
%TO.P,J3,2,Pin_2_2*%
%TO.N,/Bus_switch/Chainbus.SCL*%
X176100000Y-106260000D03*
%TO.P,J3,3,Pin_3_3*%
%TO.N,GND*%
X176100000Y-103720000D03*
%TO.P,J3,4,Pin_4_4*%
%TO.N,+3V3*%
X176100000Y-101180000D03*
%TD*%
D14*
%TO.P,J8,1,Pin_1_1*%
%TO.N,GND*%
X149879333Y-132405000D03*
D15*
%TO.P,J8,2,Pin_2_2*%
%TO.N,/Servo controller/S3*%
X152379333Y-132405000D03*
%TO.P,J8,3,Pin_3_3*%
%TO.N,/Power Connector/VIN_BRD*%
X154879333Y-132405000D03*
%TD*%
D20*
%TO.P,J1,1,Pin_1_1*%
%TO.N,GND*%
X108940000Y-93013272D03*
%TO.P,J1,2,Pin_2_2*%
%TO.N,/Bus_switch/SEL1*%
X108940000Y-98063272D03*
%TO.P,J1,3,Pin_3_3*%
%TO.N,+5V*%
X111480000Y-93013272D03*
%TO.P,J1,4,Pin_4_4*%
%TO.N,/Interboard_connector/SEL2*%
X111480000Y-98063272D03*
%TO.P,J1,5,Pin_5_5*%
%TO.N,+5V*%
X114020000Y-93013272D03*
%TO.P,J1,6,Pin_6_6*%
%TO.N,/Interboard_connector/SEL3*%
X114020000Y-98063272D03*
%TO.P,J1,7,Pin_7_7*%
%TO.N,GND*%
X116560000Y-93013272D03*
%TO.P,J1,8,Pin_8_8*%
%TO.N,/Interboard_connector/SEL4*%
X116560000Y-98063272D03*
%TO.P,J1,9,Pin_9_9*%
%TO.N,BRD_VIN*%
X119100000Y-93013272D03*
%TO.P,J1,10,Pin_10_10*%
%TO.N,/Interboard_connector/SEL5*%
X119100000Y-98063272D03*
%TO.P,J1,11,Pin_11_11*%
%TO.N,BRD_VIN*%
X121640000Y-93013272D03*
%TO.P,J1,12,Pin_12_12*%
%TO.N,/Interboard_connector/SEL6*%
X121640000Y-98063272D03*
%TO.P,J1,13,Pin_13_13*%
%TO.N,BRD_VIN*%
X124180000Y-93013272D03*
%TO.P,J1,14,Pin_14_14*%
%TO.N,/Interboard_connector/SEL7*%
X124180000Y-98063272D03*
%TO.P,J1,15,Pin_15_15*%
%TO.N,BRD_VIN*%
X126720000Y-93013272D03*
%TO.P,J1,16,Pin_16_16*%
%TO.N,/Interboard_connector/SEL8*%
X126720000Y-98063272D03*
%TO.P,J1,17,Pin_17_17*%
%TO.N,GND*%
X129260000Y-93013272D03*
%TO.P,J1,18,Pin_18_18*%
%TO.N,/Bus_switch/Chainbus_In.SDA*%
X129260000Y-98063272D03*
%TO.P,J1,19,Pin_19_19*%
%TO.N,GND*%
X131800000Y-93013272D03*
%TO.P,J1,20,Pin_20_20*%
%TO.N,/Bus_switch/Chainbus_In.SCL*%
X131800000Y-98063272D03*
%TO.P,J1,21,Pin_21_21*%
%TO.N,GND*%
X134340000Y-93013272D03*
%TO.P,J1,22,Pin_22_22*%
%TO.N,/Bus_switch/Chainbus_In.CS*%
X134340000Y-98063272D03*
%TO.P,J1,23,Pin_23_23*%
%TO.N,GND*%
X136880000Y-93013272D03*
%TO.P,J1,24,Pin_24_24*%
%TO.N,/Bus_switch/Chainbus_In.SCK*%
X136880000Y-98063272D03*
%TO.P,J1,25,Pin_25_25*%
%TO.N,unconnected-(J1-Pin_25-Pad25)*%
X139420000Y-93013272D03*
%TO.P,J1,26,Pin_26_26*%
%TO.N,/Bus_switch/Chainbus_In.MOSI*%
X139420000Y-98063272D03*
%TO.P,J1,27,Pin_27_27*%
%TO.N,unconnected-(J1-Pin_27-Pad27)*%
X141960000Y-93013272D03*
%TO.P,J1,28,Pin_28_28*%
%TO.N,/Bus_switch/Chainbus_In.MISO*%
X141960000Y-98063272D03*
%TO.P,J1,29,Pin_29_29*%
%TO.N,+12V stby*%
X144500000Y-93013272D03*
%TO.P,J1,30,Pin_30_30*%
%TO.N,/Bus_switch/Chainbus_In.TX*%
X144500000Y-98063272D03*
%TO.P,J1,31,Pin_31_31*%
%TO.N,GND*%
X147040000Y-93013272D03*
%TO.P,J1,32,Pin_32_32*%
%TO.N,/Bus_switch/Chainbus_In.RX*%
X147040000Y-98063272D03*
%TD*%
D21*
%TO.N,+5V*%
X112660390Y-94185146D03*
X112650000Y-93150000D03*
X112737098Y-91981521D03*
%TO.N,+3V3*%
X127250000Y-103030000D03*
X133750000Y-115750000D03*
X131750000Y-114500000D03*
X123500000Y-110250000D03*
X119250000Y-108000000D03*
%TO.N,GND*%
X111250000Y-108500000D03*
X110000000Y-94050000D03*
X115550000Y-92800000D03*
X118000000Y-109500000D03*
X112000000Y-108500000D03*
X151500000Y-103250000D03*
X131750000Y-113250000D03*
X176000000Y-118500000D03*
X138195315Y-124280160D03*
X110000000Y-92000000D03*
X151750000Y-114500000D03*
X135000000Y-107250000D03*
X154500000Y-105250000D03*
X112000000Y-107750000D03*
X136750000Y-115250000D03*
X126000000Y-115500000D03*
X149098000Y-126492000D03*
X138000000Y-121250000D03*
X133500000Y-117000000D03*
X110500000Y-107750000D03*
X135500000Y-94100000D03*
X135500000Y-93050000D03*
X148050000Y-92000000D03*
X123250000Y-105250000D03*
X110500000Y-108500000D03*
X157477273Y-126544648D03*
X141732000Y-109474000D03*
X125750000Y-110500000D03*
X139700000Y-113538000D03*
X132250000Y-103750000D03*
X158000000Y-107750000D03*
X137500000Y-113500000D03*
X158250000Y-109750000D03*
X158000000Y-102000000D03*
X131250000Y-124250000D03*
X155732139Y-99195086D03*
X120250000Y-103000000D03*
X145245455Y-114562439D03*
X111250000Y-107750000D03*
X130400000Y-93000000D03*
X131500000Y-105250000D03*
X158750000Y-118750000D03*
X152750000Y-114500000D03*
X144250000Y-111500000D03*
X118500000Y-114500000D03*
X130250000Y-114500000D03*
X142000000Y-121500000D03*
X123250000Y-106500000D03*
X154000000Y-109750000D03*
X116500000Y-104750000D03*
X134750000Y-115250000D03*
X176250000Y-115750000D03*
X148050000Y-94050000D03*
X142240000Y-107950000D03*
X136000000Y-117000000D03*
X130750000Y-109750000D03*
X150750000Y-107750000D03*
X110000000Y-93000000D03*
X145307808Y-124254342D03*
X135500000Y-92050000D03*
X142750000Y-126500000D03*
X130400000Y-94050000D03*
X115550000Y-91800000D03*
X148050000Y-93000000D03*
X152750000Y-108000000D03*
X151892000Y-126492000D03*
X130400000Y-92000000D03*
X115550000Y-93850000D03*
X143002000Y-104648000D03*
X132950000Y-94150000D03*
X120250000Y-104250000D03*
X132950000Y-92100000D03*
X137250000Y-119000000D03*
X153924000Y-126492000D03*
X132950000Y-93550000D03*
X155956000Y-126492000D03*
X146050000Y-107950000D03*
X121500000Y-120250000D03*
%TO.N,/Bus_switch/Chainbus.SDA*%
X132892500Y-109720000D03*
X132900000Y-113250000D03*
%TO.N,/Servo controller/SDA_5V*%
X150210000Y-112500000D03*
X147250000Y-112750000D03*
%TO.N,BRD_VIN*%
X122800000Y-93000000D03*
X120380000Y-92958272D03*
X125350000Y-93000000D03*
X122800000Y-94000000D03*
X125457112Y-93888075D03*
X120394352Y-93898535D03*
X123000000Y-92000000D03*
X125350000Y-92000000D03*
X120383892Y-91952929D03*
%TO.N,/Bus_switch/SEL1*%
X138094500Y-109728000D03*
%TO.N,/Interboard_connector/SEL2*%
X110150000Y-98050000D03*
%TO.N,/Interboard_connector/SEL3*%
X112650000Y-98050000D03*
%TO.N,/Interboard_connector/SEL4*%
X115150000Y-98050000D03*
%TO.N,/Interboard_connector/SEL5*%
X117650000Y-98050000D03*
%TO.N,/Interboard_connector/SEL6*%
X120150000Y-98050000D03*
%TO.N,/Interboard_connector/SEL7*%
X122963272Y-98113272D03*
%TO.N,/Interboard_connector/SEL8*%
X125463272Y-98113272D03*
%TO.N,/Bus_switch/Chainbus_In.SDA*%
X130200000Y-98150000D03*
%TO.N,/Bus_switch/Chainbus_In.SCL*%
X132750000Y-98100000D03*
%TO.N,/Bus_switch/Chainbus_In.CS*%
X135300000Y-98100000D03*
%TO.N,/Bus_switch/Chainbus_In.SCK*%
X137750000Y-98100000D03*
%TO.N,/Bus_switch/Chainbus_In.MOSI*%
X140350000Y-98050000D03*
%TO.N,/Bus_switch/Chainbus_In.MISO*%
X142900000Y-98050000D03*
%TO.N,+12V stby*%
X143300000Y-93100000D03*
%TO.N,/Bus_switch/Chainbus_In.TX*%
X145550000Y-98000000D03*
%TO.N,/Bus_switch/Chainbus_In.RX*%
X148100000Y-98100000D03*
%TO.N,/Servo controller/SCL_5V*%
X130750000Y-115500000D03*
X147750000Y-116500000D03*
%TO.N,/Bus_switch/Chainbus.SCL*%
X127500000Y-110750000D03*
%TD*%
%TO.N,+3V3*%
D22*
X123500000Y-110250000D02*
X123250000Y-110000000D01*
X123250000Y-110000000D02*
X123250000Y-108000000D01*
X131750000Y-114500000D02*
X133000000Y-115750000D01*
X133000000Y-115750000D02*
X133750000Y-115750000D01*
X127250000Y-104000000D02*
X127250000Y-103030000D01*
X119250000Y-108000000D02*
X123250000Y-108000000D01*
X123250000Y-108000000D02*
X127250000Y-104000000D01*
%TO.N,GND*%
D23*
X105650000Y-125600000D02*
X106650000Y-126600000D01*
X151892000Y-126492000D02*
X149098000Y-126492000D01*
X156008648Y-126544648D02*
X155956000Y-126492000D01*
X153924000Y-126492000D02*
X155956000Y-126492000D01*
X142240000Y-107950000D02*
X146050000Y-107950000D01*
X157477273Y-126544648D02*
X156008648Y-126544648D01*
X139700000Y-113538000D02*
X141732000Y-111506000D01*
X153924000Y-126492000D02*
X151892000Y-126492000D01*
X141732000Y-111506000D02*
X141732000Y-109474000D01*
%TO.N,/Bus_switch/Chainbus.SDA*%
X135294000Y-108800000D02*
X134874000Y-109220000D01*
X139250000Y-108800000D02*
X135294000Y-108800000D01*
X138309607Y-109220000D02*
X138602500Y-109512893D01*
X138602500Y-109927107D02*
X135279607Y-113250000D01*
X176100000Y-108800000D02*
X139250000Y-108800000D01*
X135279607Y-113250000D02*
X132900000Y-113250000D01*
X139250000Y-108800000D02*
X139250000Y-108865393D01*
X138602500Y-109512893D02*
X138602500Y-109927107D01*
X134874000Y-109220000D02*
X138309607Y-109220000D01*
X133392500Y-109220000D02*
X134874000Y-109220000D01*
X139250000Y-108865393D02*
X138602500Y-109512893D01*
X132892500Y-109720000D02*
X133392500Y-109220000D01*
%TO.N,/Servo controller/SDA_5V*%
X149960000Y-112750000D02*
X150210000Y-112500000D01*
X147250000Y-112750000D02*
X149960000Y-112750000D01*
%TO.N,/Bus_switch/SEL1*%
X135972500Y-111850000D02*
X138094500Y-109728000D01*
X108940000Y-98063272D02*
X108940000Y-103190000D01*
X108940000Y-103190000D02*
X117600000Y-111850000D01*
X138094500Y-109728000D02*
X138102500Y-109720000D01*
X117600000Y-111850000D02*
X135972500Y-111850000D01*
%TO.N,/Interboard_connector/SEL2*%
X111380000Y-98113272D02*
X110213272Y-98113272D01*
X110213272Y-98113272D02*
X110150000Y-98050000D01*
%TO.N,/Interboard_connector/SEL3*%
X113920000Y-98113272D02*
X112713272Y-98113272D01*
X112713272Y-98113272D02*
X112650000Y-98050000D01*
%TO.N,/Interboard_connector/SEL4*%
X115213272Y-98113272D02*
X115150000Y-98050000D01*
X116460000Y-98113272D02*
X115213272Y-98113272D01*
%TO.N,/Interboard_connector/SEL5*%
X119000000Y-98113272D02*
X117713272Y-98113272D01*
X117713272Y-98113272D02*
X117650000Y-98050000D01*
%TO.N,/Interboard_connector/SEL6*%
X121540000Y-98113272D02*
X120213272Y-98113272D01*
X120213272Y-98113272D02*
X120150000Y-98050000D01*
%TO.N,/Interboard_connector/SEL7*%
X124080000Y-98113272D02*
X122963272Y-98113272D01*
%TO.N,/Interboard_connector/SEL8*%
X126620000Y-98113272D02*
X125463272Y-98113272D01*
%TO.N,/Bus_switch/Chainbus_In.SDA*%
X130200000Y-98150000D02*
X129196728Y-98150000D01*
X129196728Y-98150000D02*
X129160000Y-98113272D01*
%TO.N,/Bus_switch/Chainbus_In.SCL*%
X131713272Y-98100000D02*
X131700000Y-98113272D01*
X132750000Y-98100000D02*
X131713272Y-98100000D01*
%TO.N,/Bus_switch/Chainbus_In.CS*%
X135300000Y-98100000D02*
X134253272Y-98100000D01*
X134253272Y-98100000D02*
X134240000Y-98113272D01*
%TO.N,/Bus_switch/Chainbus_In.SCK*%
X137750000Y-98100000D02*
X136793272Y-98100000D01*
X136793272Y-98100000D02*
X136780000Y-98113272D01*
%TO.N,/Bus_switch/Chainbus_In.MOSI*%
X140350000Y-98050000D02*
X139383272Y-98050000D01*
X139383272Y-98050000D02*
X139320000Y-98113272D01*
%TO.N,/Bus_switch/Chainbus_In.MISO*%
X142836728Y-98113272D02*
X142900000Y-98050000D01*
X141860000Y-98113272D02*
X142836728Y-98113272D01*
%TO.N,+12V stby*%
D22*
X143336728Y-93063272D02*
X143300000Y-93100000D01*
X144400000Y-93063272D02*
X143336728Y-93063272D01*
%TO.N,/Bus_switch/Chainbus_In.TX*%
D23*
X145436728Y-98113272D02*
X145550000Y-98000000D01*
X144400000Y-98113272D02*
X145436728Y-98113272D01*
%TO.N,/Bus_switch/Chainbus_In.RX*%
X148100000Y-98100000D02*
X146953272Y-98100000D01*
X146953272Y-98100000D02*
X146940000Y-98113272D01*
%TO.N,/Servo controller/SCL_5V*%
X147250000Y-116000000D02*
X147750000Y-116500000D01*
X139707111Y-116000000D02*
X147250000Y-116000000D01*
X130750000Y-115500000D02*
X131500000Y-116250000D01*
X139457111Y-116250000D02*
X139707111Y-116000000D01*
X131500000Y-116250000D02*
X139457111Y-116250000D01*
%TO.N,/Bus_switch/Chainbus.SCL*%
X171260000Y-106260000D02*
X176100000Y-106260000D01*
X171250000Y-106250000D02*
X171260000Y-106260000D01*
X132000000Y-106250000D02*
X171250000Y-106250000D01*
X127500000Y-110750000D02*
X132000000Y-106250000D01*
%TD*%
%TA.AperFunction,Conductor*%
%TO.N,BRD_VIN*%
G36*
X127240955Y-91519685D02*
G01*
X127286710Y-91572489D01*
X127297899Y-91626066D01*
X127252032Y-94378066D01*
X127231233Y-94444769D01*
X127177674Y-94489637D01*
X127128049Y-94500000D01*
X118621951Y-94500000D01*
X118554912Y-94480315D01*
X118509157Y-94427511D01*
X118497968Y-94378066D01*
X118452101Y-91626066D01*
X118470666Y-91558708D01*
X118522700Y-91512080D01*
X118576084Y-91500000D01*
X127173916Y-91500000D01*
X127240955Y-91519685D01*
G37*
%TD.AperFunction*%
%TD*%
%TA.AperFunction,Conductor*%
%TO.N,GND*%
G36*
X110193039Y-91519685D02*
G01*
X110238794Y-91572489D01*
X110250000Y-91624000D01*
X110250000Y-94526000D01*
X110230315Y-94593039D01*
X110177511Y-94638794D01*
X110126000Y-94650000D01*
X108324000Y-94650000D01*
X108256961Y-94630315D01*
X108211206Y-94577511D01*
X108200000Y-94526000D01*
X108200000Y-91624000D01*
X108219685Y-91556961D01*
X108272489Y-91511206D01*
X108324000Y-91500000D01*
X110126000Y-91500000D01*
X110193039Y-91519685D01*
G37*
%TD.AperFunction*%
%TD*%
%TA.AperFunction,Conductor*%
%TO.N,GND*%
G36*
X117143039Y-91369685D02*
G01*
X117188794Y-91422489D01*
X117200000Y-91474000D01*
X117200000Y-94376000D01*
X117180315Y-94443039D01*
X117127511Y-94488794D01*
X117076000Y-94500000D01*
X115274000Y-94500000D01*
X115206961Y-94480315D01*
X115161206Y-94427511D01*
X115150000Y-94376000D01*
X115150000Y-91474000D01*
X115169685Y-91406961D01*
X115222489Y-91361206D01*
X115274000Y-91350000D01*
X117076000Y-91350000D01*
X117143039Y-91369685D01*
G37*
%TD.AperFunction*%
%TD*%
%TA.AperFunction,Conductor*%
%TO.N,GND*%
G36*
X137300000Y-94650000D02*
G01*
X128600000Y-94650000D01*
X128600000Y-91500000D01*
X137300000Y-91500000D01*
X137300000Y-94650000D01*
G37*
%TD.AperFunction*%
%TD*%
%TA.AperFunction,Conductor*%
%TO.N,GND*%
G36*
X175169901Y-88393825D02*
G01*
X175190639Y-88397423D01*
X175211214Y-88402846D01*
X175445401Y-88486640D01*
X175451049Y-88488818D01*
X175456694Y-88491156D01*
X175462246Y-88493617D01*
X175782838Y-88645245D01*
X175788242Y-88647964D01*
X175793642Y-88650851D01*
X175798875Y-88653816D01*
X175984308Y-88764961D01*
X176103053Y-88836134D01*
X176108171Y-88839374D01*
X176113249Y-88842767D01*
X176118212Y-88846262D01*
X176403044Y-89057509D01*
X176407842Y-89061254D01*
X176412543Y-89065112D01*
X176417151Y-89069087D01*
X176679893Y-89307222D01*
X176684301Y-89311419D01*
X176688579Y-89315697D01*
X176692776Y-89320105D01*
X176894324Y-89542479D01*
X176930911Y-89582847D01*
X176934886Y-89587455D01*
X176938744Y-89592156D01*
X176942489Y-89596954D01*
X177153736Y-89881786D01*
X177157236Y-89886757D01*
X177157253Y-89886782D01*
X177160611Y-89891807D01*
X177163864Y-89896945D01*
X177346156Y-90201080D01*
X177349154Y-90206372D01*
X177352024Y-90211741D01*
X177354763Y-90217181D01*
X177506381Y-90537751D01*
X177508848Y-90543318D01*
X177511172Y-90548929D01*
X177513361Y-90554605D01*
X177631532Y-90884871D01*
X177631537Y-90884884D01*
X177632820Y-90888471D01*
X177634720Y-90894221D01*
X177636483Y-90900030D01*
X177638111Y-90905911D01*
X177724274Y-91249892D01*
X177725607Y-91255829D01*
X177726794Y-91261796D01*
X177727835Y-91267795D01*
X177779861Y-91618537D01*
X177780606Y-91624576D01*
X177781203Y-91630637D01*
X177781651Y-91636707D01*
X177799276Y-91995452D01*
X177799387Y-91998477D01*
X177799462Y-92001515D01*
X177799500Y-92004575D01*
X177799500Y-133995423D01*
X177799462Y-133998483D01*
X177799387Y-134001521D01*
X177799276Y-134004546D01*
X177781651Y-134363291D01*
X177781203Y-134369361D01*
X177780606Y-134375422D01*
X177779861Y-134381461D01*
X177727835Y-134732203D01*
X177726794Y-134738202D01*
X177725607Y-134744169D01*
X177724274Y-134750106D01*
X177638111Y-135094087D01*
X177636484Y-135099964D01*
X177634720Y-135105777D01*
X177632814Y-135111545D01*
X177513360Y-135445395D01*
X177511173Y-135451066D01*
X177508848Y-135456680D01*
X177506379Y-135462251D01*
X177354763Y-135782817D01*
X177352024Y-135788257D01*
X177349154Y-135793626D01*
X177346156Y-135798918D01*
X177163864Y-136103053D01*
X177160611Y-136108191D01*
X177157243Y-136113232D01*
X177153736Y-136118212D01*
X176942489Y-136403044D01*
X176938744Y-136407842D01*
X176934886Y-136412543D01*
X176930911Y-136417151D01*
X176692784Y-136679885D01*
X176688587Y-136684293D01*
X176684293Y-136688587D01*
X176679885Y-136692784D01*
X176417151Y-136930911D01*
X176412543Y-136934886D01*
X176407842Y-136938744D01*
X176403044Y-136942489D01*
X176118212Y-137153736D01*
X176113232Y-137157243D01*
X176108191Y-137160611D01*
X176103053Y-137163864D01*
X175798918Y-137346156D01*
X175793626Y-137349154D01*
X175788257Y-137352024D01*
X175782817Y-137354763D01*
X175462251Y-137506379D01*
X175456680Y-137508848D01*
X175451066Y-137511173D01*
X175445395Y-137513360D01*
X175111545Y-137632814D01*
X175105777Y-137634720D01*
X175099964Y-137636484D01*
X175094087Y-137638111D01*
X174750106Y-137724274D01*
X174744169Y-137725607D01*
X174738202Y-137726794D01*
X174732203Y-137727835D01*
X174381461Y-137779861D01*
X174375422Y-137780606D01*
X174369361Y-137781203D01*
X174363291Y-137781651D01*
X174004547Y-137799276D01*
X174001522Y-137799387D01*
X173998484Y-137799462D01*
X173995424Y-137799500D01*
X172279500Y-137799500D01*
X172212461Y-137779815D01*
X172166706Y-137727011D01*
X172155500Y-137675500D01*
X172155500Y-133877973D01*
X172449500Y-133877973D01*
X172449500Y-134122027D01*
X172487679Y-134363076D01*
X172492672Y-134378444D01*
X172563097Y-134595187D01*
X172640526Y-134747152D01*
X172673896Y-134812643D01*
X172803475Y-134990994D01*
X172817339Y-135010076D01*
X172817343Y-135010081D01*
X172817348Y-135010087D01*
X172989911Y-135182650D01*
X172989915Y-135182653D01*
X172989918Y-135182656D01*
X172989923Y-135182660D01*
X173162136Y-135307779D01*
X173174748Y-135316942D01*
X173187359Y-135326105D01*
X173187361Y-135326106D01*
X173404815Y-135436904D01*
X173636924Y-135512321D01*
X173877973Y-135550500D01*
X173877974Y-135550500D01*
X174122026Y-135550500D01*
X174122027Y-135550500D01*
X174363076Y-135512321D01*
X174595185Y-135436904D01*
X174812639Y-135326106D01*
X175010083Y-135182655D01*
X175182655Y-135010083D01*
X175326106Y-134812639D01*
X175436904Y-134595185D01*
X175512321Y-134363076D01*
X175550500Y-134122027D01*
X175550500Y-133877973D01*
X175512321Y-133636924D01*
X175436904Y-133404815D01*
X175326106Y-133187361D01*
X175281600Y-133126104D01*
X175182660Y-132989923D01*
X175182656Y-132989918D01*
X175182655Y-132989917D01*
X175182648Y-132989909D01*
X175010087Y-132817348D01*
X175010082Y-132817344D01*
X175010081Y-132817343D01*
X175010076Y-132817339D01*
X174812642Y-132673896D01*
X174812641Y-132673895D01*
X174812639Y-132673894D01*
X174806557Y-132670795D01*
X174595189Y-132563097D01*
X174376603Y-132492073D01*
X174376589Y-132492069D01*
X174363076Y-132487679D01*
X174363074Y-132487678D01*
X174363072Y-132487678D01*
X174348675Y-132485397D01*
X174348668Y-132485396D01*
X174194769Y-132461021D01*
X174177905Y-132458350D01*
X174122031Y-132449500D01*
X174122027Y-132449500D01*
X173877973Y-132449500D01*
X173877969Y-132449500D01*
X173822093Y-132458350D01*
X173636930Y-132487677D01*
X173404809Y-132563098D01*
X173187353Y-132673898D01*
X172989940Y-132817326D01*
X172989911Y-132817348D01*
X172817348Y-132989911D01*
X172817326Y-132989940D01*
X172673898Y-133187353D01*
X172563098Y-133404807D01*
X172487677Y-133636926D01*
X172487677Y-133636927D01*
X172469335Y-133752742D01*
X172469335Y-133752743D01*
X172449500Y-133877973D01*
X172155500Y-133877973D01*
X172155500Y-130924010D01*
X172155433Y-130912420D01*
X172155433Y-130912412D01*
X172132519Y-130710257D01*
X172121313Y-130658746D01*
X172096784Y-130567062D01*
X172015692Y-130380473D01*
X172015691Y-130380471D01*
X172015689Y-130380468D01*
X171898705Y-130214033D01*
X171898704Y-130214032D01*
X171898700Y-130214026D01*
X171852945Y-130161222D01*
X171734517Y-130045490D01*
X171733830Y-130044819D01*
X171564738Y-129931693D01*
X171564731Y-129931690D01*
X171376328Y-129854916D01*
X171376322Y-129854914D01*
X171309293Y-129835233D01*
X171309295Y-129835233D01*
X171309290Y-129835232D01*
X171228406Y-129815083D01*
X171228402Y-129815082D01*
X171228403Y-129815082D01*
X171026001Y-129794500D01*
X171026000Y-129794500D01*
X168535465Y-129794500D01*
X168535456Y-129794500D01*
X168342829Y-129813125D01*
X168342827Y-129813125D01*
X168296177Y-129822232D01*
X168240848Y-129835145D01*
X168224719Y-129838910D01*
X168224717Y-129838910D01*
X168224716Y-129838911D01*
X168034829Y-129911933D01*
X168034823Y-129911936D01*
X167863531Y-130021684D01*
X167863509Y-130021699D01*
X167808806Y-130065142D01*
X167808793Y-130065153D01*
X167687403Y-130179167D01*
X167567138Y-130343261D01*
X167567136Y-130343265D01*
X167526878Y-130431093D01*
X167481049Y-130483833D01*
X167446252Y-130499198D01*
X167353898Y-130523945D01*
X167129790Y-130616774D01*
X167129782Y-130616778D01*
X166919706Y-130738067D01*
X166919697Y-130738073D01*
X166727270Y-130885726D01*
X166727255Y-130885740D01*
X166727247Y-130885747D01*
X166555747Y-131057247D01*
X166555740Y-131057255D01*
X166555739Y-131057256D01*
X166555733Y-131057263D01*
X166517262Y-131107398D01*
X166411341Y-131245438D01*
X166411336Y-131245444D01*
X166408069Y-131249703D01*
X166408065Y-131249708D01*
X166408064Y-131249711D01*
X166405301Y-131254496D01*
X166405286Y-131254519D01*
X166396427Y-131269866D01*
X166396425Y-131269870D01*
X166313377Y-131413711D01*
X166291560Y-131441453D01*
X166281517Y-131451029D01*
X166219414Y-131483045D01*
X166149862Y-131476404D01*
X166132760Y-131469557D01*
X166109957Y-131457542D01*
X166011185Y-131391545D01*
X166011086Y-131391480D01*
X165947598Y-131349059D01*
X165947599Y-131349059D01*
X165947597Y-131349058D01*
X165835608Y-131302670D01*
X165756420Y-131269870D01*
X165756412Y-131269868D01*
X165756404Y-131269866D01*
X165756394Y-131269864D01*
X165553471Y-131229500D01*
X165553469Y-131229500D01*
X165553465Y-131229500D01*
X165346535Y-131229500D01*
X165346530Y-131229500D01*
X165346528Y-131229500D01*
X165143604Y-131269864D01*
X165143579Y-131269870D01*
X164952404Y-131349057D01*
X164780337Y-131464027D01*
X164634025Y-131610339D01*
X164537004Y-131755543D01*
X164526202Y-131765310D01*
X164520600Y-131775305D01*
X164513421Y-131781798D01*
X164504745Y-131789049D01*
X164495505Y-131793070D01*
X164492112Y-131796140D01*
X164482209Y-131801405D01*
X164471111Y-131803689D01*
X164440682Y-131816936D01*
X164421707Y-131813861D01*
X164413775Y-131815495D01*
X164400728Y-131810462D01*
X164371711Y-131805761D01*
X164359043Y-131794383D01*
X164348587Y-131790350D01*
X164337166Y-131774734D01*
X164319735Y-131759078D01*
X164318508Y-131757092D01*
X164314854Y-131744226D01*
X164307341Y-131733953D01*
X164306101Y-131713405D01*
X164299999Y-131691917D01*
X164299999Y-131630036D01*
X164299999Y-131630028D01*
X164299998Y-131630012D01*
X164289505Y-131527302D01*
X164234358Y-131360880D01*
X164234356Y-131360875D01*
X164142315Y-131211654D01*
X164018345Y-131087684D01*
X163869124Y-130995643D01*
X163869119Y-130995641D01*
X163869110Y-130995638D01*
X163702699Y-130940494D01*
X163702694Y-130940493D01*
X163599991Y-130930000D01*
X163599986Y-130930000D01*
X163200000Y-130930000D01*
X163200000Y-131818631D01*
X163180315Y-131885670D01*
X163127511Y-131931425D01*
X163058353Y-131941369D01*
X163043908Y-131938406D01*
X163012536Y-131930000D01*
X163012535Y-131930000D01*
X162887465Y-131930000D01*
X162887463Y-131930000D01*
X162856092Y-131938406D01*
X162786242Y-131936743D01*
X162728380Y-131897579D01*
X162700877Y-131833351D01*
X162700000Y-131818631D01*
X162700000Y-130930000D01*
X162444040Y-130930000D01*
X162377001Y-130910315D01*
X162331246Y-130857511D01*
X162320147Y-130811140D01*
X162319624Y-130798545D01*
X162319624Y-130798541D01*
X162309680Y-130729383D01*
X162309679Y-130729379D01*
X162309678Y-130729371D01*
X162272407Y-130567066D01*
X162272404Y-130567056D01*
X162191315Y-130380475D01*
X162191311Y-130380468D01*
X162074327Y-130214033D01*
X162074326Y-130214032D01*
X162074322Y-130214026D01*
X162028567Y-130161222D01*
X161910139Y-130045490D01*
X161909452Y-130044819D01*
X161740360Y-129931693D01*
X161740353Y-129931690D01*
X161551950Y-129854916D01*
X161551944Y-129854914D01*
X161484915Y-129835233D01*
X161484917Y-129835233D01*
X161484912Y-129835232D01*
X161404028Y-129815083D01*
X161404024Y-129815082D01*
X161404025Y-129815082D01*
X161201623Y-129794500D01*
X161201622Y-129794500D01*
X155464798Y-129794500D01*
X155464789Y-129794500D01*
X155272162Y-129813125D01*
X155272160Y-129813125D01*
X155225510Y-129822232D01*
X155170181Y-129835145D01*
X155154052Y-129838910D01*
X155154050Y-129838910D01*
X155154049Y-129838911D01*
X154964162Y-129911933D01*
X154964156Y-129911936D01*
X154792864Y-130021684D01*
X154792842Y-130021699D01*
X154738139Y-130065142D01*
X154738126Y-130065153D01*
X154616736Y-130179167D01*
X154496471Y-130343261D01*
X154496469Y-130343265D01*
X154456211Y-130431093D01*
X154410382Y-130483833D01*
X154375585Y-130499198D01*
X154283231Y-130523945D01*
X154059123Y-130616774D01*
X154059115Y-130616778D01*
X153849039Y-130738067D01*
X153849030Y-130738073D01*
X153656603Y-130885726D01*
X153656588Y-130885740D01*
X153656580Y-130885747D01*
X153485080Y-131057247D01*
X153485073Y-131057255D01*
X153485072Y-131057256D01*
X153485066Y-131057263D01*
X153446595Y-131107398D01*
X153340674Y-131245438D01*
X153340669Y-131245444D01*
X153337402Y-131249703D01*
X153337398Y-131249708D01*
X153337397Y-131249711D01*
X153334634Y-131254496D01*
X153334619Y-131254519D01*
X153325760Y-131269866D01*
X153325758Y-131269870D01*
X153242710Y-131413711D01*
X153220893Y-131441453D01*
X153210850Y-131451029D01*
X153148747Y-131483045D01*
X153079195Y-131476404D01*
X153062093Y-131469557D01*
X153039290Y-131457542D01*
X152940518Y-131391545D01*
X152940419Y-131391480D01*
X152876931Y-131349059D01*
X152876932Y-131349059D01*
X152876930Y-131349058D01*
X152764941Y-131302670D01*
X152685753Y-131269870D01*
X152685745Y-131269868D01*
X152685737Y-131269866D01*
X152685727Y-131269864D01*
X152482804Y-131229500D01*
X152482802Y-131229500D01*
X152482798Y-131229500D01*
X152275868Y-131229500D01*
X152275863Y-131229500D01*
X152275861Y-131229500D01*
X152072937Y-131269864D01*
X152072912Y-131269870D01*
X151881737Y-131349057D01*
X151709670Y-131464027D01*
X151563358Y-131610339D01*
X151466337Y-131755543D01*
X151455535Y-131765310D01*
X151449933Y-131775305D01*
X151442754Y-131781798D01*
X151434078Y-131789049D01*
X151424838Y-131793070D01*
X151421445Y-131796140D01*
X151411542Y-131801405D01*
X151400444Y-131803689D01*
X151370015Y-131816936D01*
X151351040Y-131813861D01*
X151343108Y-131815495D01*
X151330061Y-131810462D01*
X151301044Y-131805761D01*
X151288376Y-131794383D01*
X151277920Y-131790350D01*
X151266499Y-131774734D01*
X151249068Y-131759078D01*
X151247841Y-131757092D01*
X151244187Y-131744226D01*
X151236674Y-131733953D01*
X151235434Y-131713405D01*
X151229332Y-131691917D01*
X151229332Y-131630036D01*
X151229332Y-131630028D01*
X151229331Y-131630012D01*
X151218838Y-131527302D01*
X151163691Y-131360880D01*
X151163689Y-131360875D01*
X151071648Y-131211654D01*
X150947678Y-131087684D01*
X150798457Y-130995643D01*
X150798452Y-130995641D01*
X150798443Y-130995638D01*
X150632032Y-130940494D01*
X150632027Y-130940493D01*
X150529324Y-130930000D01*
X150529319Y-130930000D01*
X150129333Y-130930000D01*
X150129333Y-131818631D01*
X150109648Y-131885670D01*
X150056844Y-131931425D01*
X149987686Y-131941369D01*
X149973241Y-131938406D01*
X149941869Y-131930000D01*
X149941868Y-131930000D01*
X149816798Y-131930000D01*
X149816796Y-131930000D01*
X149785425Y-131938406D01*
X149715575Y-131936743D01*
X149657713Y-131897579D01*
X149630210Y-131833351D01*
X149629333Y-131818631D01*
X149629333Y-130930000D01*
X149373373Y-130930000D01*
X149306334Y-130910315D01*
X149260579Y-130857511D01*
X149249480Y-130811140D01*
X149248957Y-130798545D01*
X149248957Y-130798541D01*
X149239013Y-130729383D01*
X149239012Y-130729379D01*
X149239011Y-130729371D01*
X149201740Y-130567066D01*
X149201737Y-130567056D01*
X149120648Y-130380475D01*
X149120644Y-130380468D01*
X149003660Y-130214033D01*
X149003659Y-130214032D01*
X149003655Y-130214026D01*
X148957900Y-130161222D01*
X148839472Y-130045490D01*
X148838785Y-130044819D01*
X148669693Y-129931693D01*
X148669686Y-129931690D01*
X148481283Y-129854916D01*
X148481277Y-129854914D01*
X148414248Y-129835233D01*
X148414250Y-129835233D01*
X148414245Y-129835232D01*
X148333361Y-129815083D01*
X148333357Y-129815082D01*
X148333358Y-129815082D01*
X148130956Y-129794500D01*
X148130955Y-129794500D01*
X142394132Y-129794500D01*
X142394123Y-129794500D01*
X142201496Y-129813125D01*
X142201494Y-129813125D01*
X142154844Y-129822232D01*
X142099515Y-129835145D01*
X142083386Y-129838910D01*
X142083384Y-129838910D01*
X142083383Y-129838911D01*
X141893496Y-129911933D01*
X141893490Y-129911936D01*
X141722198Y-130021684D01*
X141722176Y-130021699D01*
X141667473Y-130065142D01*
X141667460Y-130065153D01*
X141546070Y-130179167D01*
X141425805Y-130343261D01*
X141425803Y-130343265D01*
X141385545Y-130431093D01*
X141339716Y-130483833D01*
X141304919Y-130499198D01*
X141212565Y-130523945D01*
X140988457Y-130616774D01*
X140988449Y-130616778D01*
X140778373Y-130738067D01*
X140778364Y-130738073D01*
X140585937Y-130885726D01*
X140585922Y-130885740D01*
X140585914Y-130885747D01*
X140414414Y-131057247D01*
X140414407Y-131057255D01*
X140414406Y-131057256D01*
X140414400Y-131057263D01*
X140375929Y-131107398D01*
X140270008Y-131245438D01*
X140270003Y-131245444D01*
X140266736Y-131249703D01*
X140266732Y-131249708D01*
X140266731Y-131249711D01*
X140263968Y-131254496D01*
X140263953Y-131254519D01*
X140255094Y-131269866D01*
X140255092Y-131269870D01*
X140172044Y-131413711D01*
X140150227Y-131441453D01*
X140140184Y-131451029D01*
X140078081Y-131483045D01*
X140008529Y-131476404D01*
X139991427Y-131469557D01*
X139968624Y-131457542D01*
X139869852Y-131391545D01*
X139869753Y-131391480D01*
X139806265Y-131349059D01*
X139806266Y-131349059D01*
X139806264Y-131349058D01*
X139694275Y-131302670D01*
X139615087Y-131269870D01*
X139615079Y-131269868D01*
X139615071Y-131269866D01*
X139615061Y-131269864D01*
X139412138Y-131229500D01*
X139412136Y-131229500D01*
X139412132Y-131229500D01*
X139205202Y-131229500D01*
X139205197Y-131229500D01*
X139205195Y-131229500D01*
X139002271Y-131269864D01*
X139002246Y-131269870D01*
X138811071Y-131349057D01*
X138639004Y-131464027D01*
X138492692Y-131610339D01*
X138395671Y-131755543D01*
X138384869Y-131765310D01*
X138379267Y-131775305D01*
X138372088Y-131781798D01*
X138363412Y-131789049D01*
X138354172Y-131793070D01*
X138350779Y-131796140D01*
X138340876Y-131801405D01*
X138329778Y-131803689D01*
X138299349Y-131816936D01*
X138280374Y-131813861D01*
X138272442Y-131815495D01*
X138259395Y-131810462D01*
X138230378Y-131805761D01*
X138217710Y-131794383D01*
X138207254Y-131790350D01*
X138195833Y-131774734D01*
X138178402Y-131759078D01*
X138177175Y-131757092D01*
X138173521Y-131744226D01*
X138166008Y-131733953D01*
X138164768Y-131713405D01*
X138158666Y-131691917D01*
X138158666Y-131630036D01*
X138158666Y-131630028D01*
X138158665Y-131630012D01*
X138148172Y-131527302D01*
X138093025Y-131360880D01*
X138093023Y-131360875D01*
X138000982Y-131211654D01*
X137877012Y-131087684D01*
X137727791Y-130995643D01*
X137727786Y-130995641D01*
X137727777Y-130995638D01*
X137561366Y-130940494D01*
X137561361Y-130940493D01*
X137458658Y-130930000D01*
X137458653Y-130930000D01*
X137058667Y-130930000D01*
X137058667Y-131818631D01*
X137038982Y-131885670D01*
X136986178Y-131931425D01*
X136917020Y-131941369D01*
X136902575Y-131938406D01*
X136871203Y-131930000D01*
X136871202Y-131930000D01*
X136746132Y-131930000D01*
X136746130Y-131930000D01*
X136714759Y-131938406D01*
X136644909Y-131936743D01*
X136587047Y-131897579D01*
X136559544Y-131833351D01*
X136558667Y-131818631D01*
X136558667Y-130930000D01*
X136302707Y-130930000D01*
X136235668Y-130910315D01*
X136189913Y-130857511D01*
X136178814Y-130811140D01*
X136178291Y-130798545D01*
X136178291Y-130798541D01*
X136168347Y-130729383D01*
X136168346Y-130729379D01*
X136168345Y-130729371D01*
X136131074Y-130567066D01*
X136131071Y-130567056D01*
X136049982Y-130380475D01*
X136049978Y-130380468D01*
X135932994Y-130214033D01*
X135932993Y-130214032D01*
X135932989Y-130214026D01*
X135887234Y-130161222D01*
X135768806Y-130045490D01*
X135768119Y-130044819D01*
X135599027Y-129931693D01*
X135599020Y-129931690D01*
X135410617Y-129854916D01*
X135410611Y-129854914D01*
X135343582Y-129835233D01*
X135343584Y-129835233D01*
X135343579Y-129835232D01*
X135262695Y-129815083D01*
X135262691Y-129815082D01*
X135262692Y-129815082D01*
X135060290Y-129794500D01*
X135060289Y-129794500D01*
X129323465Y-129794500D01*
X129323456Y-129794500D01*
X129130829Y-129813125D01*
X129130827Y-129813125D01*
X129084177Y-129822232D01*
X129028848Y-129835145D01*
X129012719Y-129838910D01*
X129012717Y-129838910D01*
X129012716Y-129838911D01*
X128822829Y-129911933D01*
X128822823Y-129911936D01*
X128651531Y-130021684D01*
X128651509Y-130021699D01*
X128596806Y-130065142D01*
X128596793Y-130065153D01*
X128475403Y-130179167D01*
X128355138Y-130343261D01*
X128355136Y-130343265D01*
X128314878Y-130431093D01*
X128269049Y-130483833D01*
X128234252Y-130499198D01*
X128141898Y-130523945D01*
X127917790Y-130616774D01*
X127917782Y-130616778D01*
X127707706Y-130738067D01*
X127707697Y-130738073D01*
X127515270Y-130885726D01*
X127515255Y-130885740D01*
X127515247Y-130885747D01*
X127343747Y-131057247D01*
X127343740Y-131057255D01*
X127343739Y-131057256D01*
X127343733Y-131057263D01*
X127305262Y-131107398D01*
X127199341Y-131245438D01*
X127199336Y-131245444D01*
X127196069Y-131249703D01*
X127196065Y-131249708D01*
X127196064Y-131249711D01*
X127193301Y-131254496D01*
X127193286Y-131254519D01*
X127184427Y-131269866D01*
X127184425Y-131269870D01*
X127101377Y-131413711D01*
X127079560Y-131441453D01*
X127069517Y-131451029D01*
X127007414Y-131483045D01*
X126937862Y-131476404D01*
X126920760Y-131469557D01*
X126897957Y-131457542D01*
X126799185Y-131391545D01*
X126799086Y-131391480D01*
X126735598Y-131349059D01*
X126735599Y-131349059D01*
X126735597Y-131349058D01*
X126623608Y-131302670D01*
X126544420Y-131269870D01*
X126544412Y-131269868D01*
X126544404Y-131269866D01*
X126544394Y-131269864D01*
X126341471Y-131229500D01*
X126341469Y-131229500D01*
X126341465Y-131229500D01*
X126134535Y-131229500D01*
X126134530Y-131229500D01*
X126134528Y-131229500D01*
X125931604Y-131269864D01*
X125931579Y-131269870D01*
X125740404Y-131349057D01*
X125568337Y-131464027D01*
X125422025Y-131610339D01*
X125325004Y-131755543D01*
X125314202Y-131765310D01*
X125308600Y-131775305D01*
X125301421Y-131781798D01*
X125292745Y-131789049D01*
X125283505Y-131793070D01*
X125280112Y-131796140D01*
X125270209Y-131801405D01*
X125259111Y-131803689D01*
X125228682Y-131816936D01*
X125209707Y-131813861D01*
X125201775Y-131815495D01*
X125188728Y-131810462D01*
X125159711Y-131805761D01*
X125147043Y-131794383D01*
X125136587Y-131790350D01*
X125125166Y-131774734D01*
X125107735Y-131759078D01*
X125106508Y-131757092D01*
X125102854Y-131744226D01*
X125095341Y-131733953D01*
X125094101Y-131713405D01*
X125087999Y-131691917D01*
X125087999Y-131630036D01*
X125087999Y-131630028D01*
X125087998Y-131630012D01*
X125077505Y-131527302D01*
X125022358Y-131360880D01*
X125022356Y-131360875D01*
X124930315Y-131211654D01*
X124806345Y-131087684D01*
X124657124Y-130995643D01*
X124657119Y-130995641D01*
X124657110Y-130995638D01*
X124490699Y-130940494D01*
X124490694Y-130940493D01*
X124387991Y-130930000D01*
X124387986Y-130930000D01*
X123988000Y-130930000D01*
X123988000Y-131818631D01*
X123968315Y-131885670D01*
X123915511Y-131931425D01*
X123846353Y-131941369D01*
X123831908Y-131938406D01*
X123800536Y-131930000D01*
X123800535Y-131930000D01*
X123675465Y-131930000D01*
X123675463Y-131930000D01*
X123644092Y-131938406D01*
X123574242Y-131936743D01*
X123516380Y-131897579D01*
X123488877Y-131833351D01*
X123488000Y-131818631D01*
X123488000Y-130930000D01*
X123232040Y-130930000D01*
X123165001Y-130910315D01*
X123119246Y-130857511D01*
X123108147Y-130811140D01*
X123107624Y-130798545D01*
X123107624Y-130798541D01*
X123097680Y-130729383D01*
X123097679Y-130729379D01*
X123097678Y-130729371D01*
X123060407Y-130567066D01*
X123060404Y-130567056D01*
X122979315Y-130380475D01*
X122979311Y-130380468D01*
X122862327Y-130214033D01*
X122862326Y-130214032D01*
X122862322Y-130214026D01*
X122816567Y-130161222D01*
X122698139Y-130045490D01*
X122697452Y-130044819D01*
X122528360Y-129931693D01*
X122528353Y-129931690D01*
X122339950Y-129854916D01*
X122339944Y-129854914D01*
X122272915Y-129835233D01*
X122272917Y-129835233D01*
X122272912Y-129835232D01*
X122192028Y-129815083D01*
X122192024Y-129815082D01*
X122192025Y-129815082D01*
X121989623Y-129794500D01*
X121989622Y-129794500D01*
X119281863Y-129794500D01*
X119214824Y-129774815D01*
X119169069Y-129722011D01*
X119157863Y-129670500D01*
X119157863Y-124466688D01*
X119157796Y-124455098D01*
X119157796Y-124455090D01*
X119134882Y-124252935D01*
X119123676Y-124201424D01*
X119099147Y-124109740D01*
X119018055Y-123923151D01*
X119018054Y-123923149D01*
X119018052Y-123923146D01*
X118901068Y-123756711D01*
X118901067Y-123756710D01*
X118901063Y-123756704D01*
X118855308Y-123703900D01*
X118736195Y-123587499D01*
X118736193Y-123587497D01*
X118567101Y-123474371D01*
X118567094Y-123474368D01*
X118378691Y-123397594D01*
X118378685Y-123397592D01*
X118311656Y-123377911D01*
X118311658Y-123377911D01*
X118311653Y-123377910D01*
X118230769Y-123357761D01*
X118230765Y-123357760D01*
X118230766Y-123357760D01*
X118028364Y-123337178D01*
X118028363Y-123337178D01*
X115463662Y-123337178D01*
X115463655Y-123337178D01*
X115463621Y-123337179D01*
X115371524Y-123341409D01*
X115371472Y-123341412D01*
X115348872Y-123343492D01*
X115348842Y-123343496D01*
X115176203Y-123374761D01*
X115176202Y-123374761D01*
X114986370Y-123447923D01*
X114986366Y-123447924D01*
X114986366Y-123447925D01*
X114924047Y-123479518D01*
X114901915Y-123493152D01*
X114782234Y-123566877D01*
X114727042Y-123616906D01*
X114664151Y-123647345D01*
X114616171Y-123645923D01*
X114489039Y-123616906D01*
X114438024Y-123605262D01*
X114438023Y-123605261D01*
X114362954Y-123588128D01*
X114361935Y-123587885D01*
X114361770Y-123587858D01*
X114361750Y-123587855D01*
X114021324Y-123549500D01*
X114021318Y-123549500D01*
X114021312Y-123549500D01*
X113678688Y-123549500D01*
X113678681Y-123549500D01*
X113678674Y-123549500D01*
X113338245Y-123587856D01*
X113338222Y-123587859D01*
X113338181Y-123587868D01*
X113084986Y-123645658D01*
X113015247Y-123641385D01*
X112970729Y-123613452D01*
X112944171Y-123587499D01*
X112858746Y-123530348D01*
X112775077Y-123474371D01*
X112775070Y-123474368D01*
X112586667Y-123397594D01*
X112586661Y-123397592D01*
X112519632Y-123377911D01*
X112519634Y-123377911D01*
X112519629Y-123377910D01*
X112438745Y-123357761D01*
X112438741Y-123357760D01*
X112438742Y-123357760D01*
X112236340Y-123337178D01*
X112236339Y-123337178D01*
X109976363Y-123337178D01*
X109975710Y-123337181D01*
X109964783Y-123337244D01*
X109964769Y-123337245D01*
X109762617Y-123360159D01*
X109711116Y-123371363D01*
X109619421Y-123395895D01*
X109432838Y-123476984D01*
X109432831Y-123476988D01*
X109266396Y-123593972D01*
X109266383Y-123593983D01*
X109213588Y-123639730D01*
X109097182Y-123758847D01*
X108984056Y-123927939D01*
X108984053Y-123927946D01*
X108907279Y-124116349D01*
X108907277Y-124116355D01*
X108887596Y-124183384D01*
X108867445Y-124264275D01*
X108861102Y-124326655D01*
X108834736Y-124391359D01*
X108777574Y-124431537D01*
X108707764Y-124434433D01*
X108657398Y-124408563D01*
X108569299Y-124333627D01*
X108569292Y-124333622D01*
X108569293Y-124333622D01*
X108358587Y-124206245D01*
X108130172Y-124114314D01*
X107889969Y-124060217D01*
X107889962Y-124060215D01*
X107889953Y-124060214D01*
X107745270Y-124050000D01*
X107745268Y-124050000D01*
X106900000Y-124050000D01*
X106900000Y-125127582D01*
X106880315Y-125194621D01*
X106827511Y-125240376D01*
X106761147Y-125249918D01*
X106761111Y-125250382D01*
X106759049Y-125250219D01*
X106758353Y-125250320D01*
X106756611Y-125250057D01*
X106756251Y-125250000D01*
X106756247Y-125250000D01*
X106543753Y-125250000D01*
X106543749Y-125250000D01*
X106543389Y-125250057D01*
X106543249Y-125250039D01*
X106538889Y-125250382D01*
X106538816Y-125249465D01*
X106474096Y-125241097D01*
X106420648Y-125196097D01*
X106400013Y-125129344D01*
X106400000Y-125127582D01*
X106400000Y-124050000D01*
X105554731Y-124050000D01*
X105554728Y-124050000D01*
X105410045Y-124060214D01*
X105410036Y-124060215D01*
X105410029Y-124060217D01*
X105169826Y-124114314D01*
X104941411Y-124206245D01*
X104730705Y-124333622D01*
X104543152Y-124493152D01*
X104383622Y-124680705D01*
X104256245Y-124891411D01*
X104164314Y-125119826D01*
X104110217Y-125360029D01*
X104110215Y-125360036D01*
X104110214Y-125360045D01*
X104100775Y-125493753D01*
X104100000Y-125504731D01*
X104100000Y-126350000D01*
X105177583Y-126350000D01*
X105244622Y-126369685D01*
X105290377Y-126422489D01*
X105299921Y-126488865D01*
X105300382Y-126488902D01*
X105300220Y-126490949D01*
X105300321Y-126491647D01*
X105300058Y-126493389D01*
X105300000Y-126493755D01*
X105300000Y-126706244D01*
X105300058Y-126706611D01*
X105300039Y-126706752D01*
X105300382Y-126711098D01*
X105299468Y-126711169D01*
X105291098Y-126775904D01*
X105246098Y-126829352D01*
X105179345Y-126849987D01*
X105177583Y-126850000D01*
X104100000Y-126850000D01*
X104100000Y-127695270D01*
X104110214Y-127839953D01*
X104110215Y-127839962D01*
X104110217Y-127839969D01*
X104164314Y-128080172D01*
X104256245Y-128308587D01*
X104383622Y-128519293D01*
X104543152Y-128706846D01*
X104681370Y-128824412D01*
X104719681Y-128882842D01*
X104720321Y-128952708D01*
X104683087Y-129011830D01*
X104619800Y-129041436D01*
X104600990Y-129042865D01*
X101895198Y-129042023D01*
X101725597Y-129056378D01*
X101684360Y-129063422D01*
X101635338Y-129073054D01*
X101442239Y-129137089D01*
X101265968Y-129238693D01*
X101265964Y-129238696D01*
X101209295Y-129279515D01*
X101082672Y-129387723D01*
X100954842Y-129545991D01*
X100954841Y-129545992D01*
X100861476Y-129726775D01*
X100835869Y-129791759D01*
X100835860Y-129791785D01*
X100787845Y-129951258D01*
X100765877Y-130153517D01*
X100765877Y-130153519D01*
X100776328Y-130263802D01*
X100763057Y-130332398D01*
X100714806Y-130382931D01*
X100652882Y-130399500D01*
X100153321Y-130399500D01*
X100086282Y-130379815D01*
X100040527Y-130327011D01*
X100030583Y-130257853D01*
X100030936Y-130255554D01*
X100032042Y-130248765D01*
X100023673Y-130045485D01*
X100013750Y-129976324D01*
X99985911Y-129854914D01*
X99976530Y-129814002D01*
X99976149Y-129813125D01*
X99895500Y-129627388D01*
X99838327Y-129545992D01*
X99778560Y-129460902D01*
X99778557Y-129460898D01*
X99778552Y-129460892D01*
X99732818Y-129408078D01*
X99732816Y-129408075D01*
X99613738Y-129291635D01*
X99613738Y-129291634D01*
X99534663Y-129238696D01*
X99444676Y-129178452D01*
X99256293Y-129101619D01*
X99256285Y-129101616D01*
X99256279Y-129101614D01*
X99189273Y-129081917D01*
X99189274Y-129081917D01*
X99189263Y-129081914D01*
X99108385Y-129061740D01*
X98905986Y-129041094D01*
X94480215Y-129039717D01*
X94413182Y-129020012D01*
X94367444Y-128967193D01*
X94356254Y-128915680D01*
X94357342Y-125422489D01*
X94357628Y-124504731D01*
X94700000Y-124504731D01*
X94700000Y-125350000D01*
X95777583Y-125350000D01*
X95844622Y-125369685D01*
X95890377Y-125422489D01*
X95899921Y-125488865D01*
X95900382Y-125488902D01*
X95900220Y-125490949D01*
X95900321Y-125491647D01*
X95900058Y-125493389D01*
X95900000Y-125493755D01*
X95900000Y-125706244D01*
X95900058Y-125706611D01*
X95900039Y-125706752D01*
X95900382Y-125711098D01*
X95899468Y-125711169D01*
X95891098Y-125775904D01*
X95846098Y-125829352D01*
X95779345Y-125849987D01*
X95777583Y-125850000D01*
X94700000Y-125850000D01*
X94700000Y-126695270D01*
X94710214Y-126839953D01*
X94710215Y-126839962D01*
X94710217Y-126839969D01*
X94764314Y-127080172D01*
X94856245Y-127308587D01*
X94983622Y-127519293D01*
X95143152Y-127706846D01*
X95287713Y-127829807D01*
X95299640Y-127839953D01*
X95330705Y-127866376D01*
X95330710Y-127866379D01*
X95541414Y-127993755D01*
X95692901Y-128054723D01*
X95769826Y-128085684D01*
X95769830Y-128085685D01*
X95769834Y-128085686D01*
X96010031Y-128139782D01*
X96010041Y-128139784D01*
X96149137Y-128149604D01*
X96152543Y-128150000D01*
X96154734Y-128150000D01*
X97000000Y-128150000D01*
X97000000Y-127072416D01*
X97019685Y-127005377D01*
X97072489Y-126959622D01*
X97138865Y-126950077D01*
X97138902Y-126949618D01*
X97140945Y-126949778D01*
X97141647Y-126949678D01*
X97143272Y-126949923D01*
X97143753Y-126950000D01*
X97356241Y-126950000D01*
X97356247Y-126950000D01*
X97356591Y-126949945D01*
X97356723Y-126949962D01*
X97361098Y-126949618D01*
X97361170Y-126950536D01*
X97425882Y-126958892D01*
X97479339Y-127003882D01*
X97499987Y-127070631D01*
X97500000Y-127072416D01*
X97500000Y-128150000D01*
X98345266Y-128150000D01*
X98350627Y-128150000D01*
X98355263Y-128149293D01*
X98489958Y-128139784D01*
X98489968Y-128139782D01*
X98730165Y-128085686D01*
X98730172Y-128085684D01*
X98958585Y-127993755D01*
X99169289Y-127866379D01*
X99169299Y-127866372D01*
X99356846Y-127706846D01*
X99516372Y-127519299D01*
X99516379Y-127519289D01*
X99643755Y-127308585D01*
X99735684Y-127080172D01*
X99735686Y-127080165D01*
X99789782Y-126839968D01*
X99789784Y-126839958D01*
X99793318Y-126789905D01*
X99799293Y-126705266D01*
X99800000Y-126700627D01*
X99800000Y-125850000D01*
X98722417Y-125850000D01*
X98655378Y-125830315D01*
X98609623Y-125777511D01*
X98600078Y-125711134D01*
X98599618Y-125711098D01*
X98599779Y-125709050D01*
X98599679Y-125708353D01*
X98599942Y-125706611D01*
X98600000Y-125706244D01*
X98600000Y-125493755D01*
X98599942Y-125493389D01*
X98599960Y-125493247D01*
X98599618Y-125488902D01*
X98600531Y-125488830D01*
X98608902Y-125424096D01*
X98653902Y-125370648D01*
X98720655Y-125350013D01*
X98722417Y-125350000D01*
X99800000Y-125350000D01*
X99800000Y-124502543D01*
X99799603Y-124499128D01*
X99799181Y-124493153D01*
X99789784Y-124360041D01*
X99789782Y-124360031D01*
X99735686Y-124119834D01*
X99735684Y-124119827D01*
X99734284Y-124116349D01*
X99704723Y-124042901D01*
X99643755Y-123891414D01*
X99516379Y-123680710D01*
X99516376Y-123680705D01*
X99499021Y-123660302D01*
X99437631Y-123588128D01*
X99356846Y-123493152D01*
X99186892Y-123348591D01*
X99169299Y-123333627D01*
X99169298Y-123333626D01*
X99169293Y-123333622D01*
X98958587Y-123206245D01*
X98730172Y-123114314D01*
X98489969Y-123060217D01*
X98489962Y-123060215D01*
X98489953Y-123060214D01*
X98345270Y-123050000D01*
X98345268Y-123050000D01*
X97500000Y-123050000D01*
X97500000Y-124127582D01*
X97480315Y-124194621D01*
X97427511Y-124240376D01*
X97361147Y-124249918D01*
X97361111Y-124250382D01*
X97359049Y-124250219D01*
X97358353Y-124250320D01*
X97356611Y-124250057D01*
X97356251Y-124250000D01*
X97356247Y-124250000D01*
X97143753Y-124250000D01*
X97143749Y-124250000D01*
X97143389Y-124250057D01*
X97143249Y-124250039D01*
X97138889Y-124250382D01*
X97138816Y-124249465D01*
X97074096Y-124241097D01*
X97020648Y-124196097D01*
X97000013Y-124129344D01*
X97000000Y-124127582D01*
X97000000Y-123050000D01*
X96154731Y-123050000D01*
X96154728Y-123050000D01*
X96010045Y-123060214D01*
X96010036Y-123060215D01*
X96010029Y-123060217D01*
X95769826Y-123114314D01*
X95541411Y-123206245D01*
X95330705Y-123333622D01*
X95143152Y-123493152D01*
X94983622Y-123680705D01*
X94856245Y-123891411D01*
X94764314Y-124119826D01*
X94710217Y-124360029D01*
X94710215Y-124360036D01*
X94710214Y-124360045D01*
X94700157Y-124502507D01*
X94700000Y-124504731D01*
X94357628Y-124504731D01*
X94357629Y-124502507D01*
X94357707Y-124249918D01*
X94357920Y-123567030D01*
X94357855Y-123555287D01*
X94348993Y-123476988D01*
X94334973Y-123353126D01*
X94323774Y-123301612D01*
X94323767Y-123301578D01*
X94299204Y-123209740D01*
X94218112Y-123023151D01*
X94218111Y-123023149D01*
X94218109Y-123023146D01*
X94101125Y-122856711D01*
X94101124Y-122856710D01*
X94101120Y-122856704D01*
X94055365Y-122803900D01*
X93936252Y-122687499D01*
X93936250Y-122687497D01*
X93767158Y-122574371D01*
X93767151Y-122574368D01*
X93578748Y-122497594D01*
X93578742Y-122497592D01*
X93511713Y-122477911D01*
X93511715Y-122477911D01*
X93511710Y-122477910D01*
X93430826Y-122457761D01*
X93430822Y-122457760D01*
X93430823Y-122457760D01*
X93228421Y-122437178D01*
X93228420Y-122437178D01*
X91788554Y-122437178D01*
X91764691Y-122437650D01*
X91748773Y-122437965D01*
X91547357Y-122466535D01*
X91527819Y-122471363D01*
X91489596Y-122480808D01*
X91489591Y-122480809D01*
X91489585Y-122480811D01*
X91489579Y-122480812D01*
X91372152Y-122517586D01*
X91190402Y-122609010D01*
X91190393Y-122609016D01*
X91105156Y-122676370D01*
X91096428Y-122679887D01*
X91089912Y-122686676D01*
X91064543Y-122692739D01*
X91040352Y-122702490D01*
X91029300Y-122701162D01*
X91021956Y-122702918D01*
X90987323Y-122696121D01*
X90896289Y-122664267D01*
X90895833Y-122664105D01*
X90691110Y-122617378D01*
X90638024Y-122605262D01*
X90638023Y-122605261D01*
X90562954Y-122588128D01*
X90561935Y-122587885D01*
X90561770Y-122587858D01*
X90561750Y-122587855D01*
X90221324Y-122549500D01*
X90221318Y-122549500D01*
X90221312Y-122549500D01*
X89878688Y-122549500D01*
X89878681Y-122549500D01*
X89878674Y-122549500D01*
X89538245Y-122587856D01*
X89538222Y-122587859D01*
X89538197Y-122587865D01*
X89204167Y-122664105D01*
X89203708Y-122664268D01*
X89118255Y-122694168D01*
X89048476Y-122697729D01*
X89008352Y-122680188D01*
X88850188Y-122574374D01*
X88850183Y-122574371D01*
X88850181Y-122574370D01*
X88789150Y-122549500D01*
X88661773Y-122497594D01*
X88661767Y-122497592D01*
X88594738Y-122477911D01*
X88594740Y-122477911D01*
X88594735Y-122477910D01*
X88513851Y-122457761D01*
X88513847Y-122457760D01*
X88513848Y-122457760D01*
X88311446Y-122437178D01*
X88311445Y-122437178D01*
X84976363Y-122437178D01*
X84975710Y-122437181D01*
X84964783Y-122437244D01*
X84964769Y-122437245D01*
X84762617Y-122460159D01*
X84711116Y-122471363D01*
X84619421Y-122495895D01*
X84432838Y-122576984D01*
X84432831Y-122576988D01*
X84266396Y-122693972D01*
X84266383Y-122693983D01*
X84213588Y-122739730D01*
X84097182Y-122858847D01*
X83984056Y-123027939D01*
X83984053Y-123027946D01*
X83907279Y-123216349D01*
X83907277Y-123216355D01*
X83887596Y-123283384D01*
X83867445Y-123364275D01*
X83846863Y-123566676D01*
X83846863Y-137675500D01*
X83827178Y-137742539D01*
X83774374Y-137788294D01*
X83722863Y-137799500D01*
X82004576Y-137799500D01*
X82001517Y-137799462D01*
X81998478Y-137799387D01*
X81995452Y-137799276D01*
X81636707Y-137781651D01*
X81630637Y-137781203D01*
X81624576Y-137780606D01*
X81618537Y-137779861D01*
X81331910Y-137737345D01*
X81267792Y-137727834D01*
X81261796Y-137726794D01*
X81255829Y-137725607D01*
X81249892Y-137724274D01*
X80905923Y-137638114D01*
X80900057Y-137636490D01*
X80894219Y-137634719D01*
X80888460Y-137632816D01*
X80554600Y-137513359D01*
X80548929Y-137511172D01*
X80543318Y-137508848D01*
X80537751Y-137506381D01*
X80217179Y-137354762D01*
X80211748Y-137352028D01*
X80208100Y-137350078D01*
X80206383Y-137349160D01*
X80201103Y-137346169D01*
X80049657Y-137255396D01*
X79896945Y-137163864D01*
X79891816Y-137160617D01*
X79886757Y-137157236D01*
X79881786Y-137153736D01*
X79596954Y-136942489D01*
X79592156Y-136938744D01*
X79587455Y-136934886D01*
X79582847Y-136930911D01*
X79542479Y-136894324D01*
X79320105Y-136692776D01*
X79315697Y-136688579D01*
X79311419Y-136684301D01*
X79307222Y-136679893D01*
X79069087Y-136417151D01*
X79065112Y-136412543D01*
X79061254Y-136407842D01*
X79057509Y-136403044D01*
X78846262Y-136118212D01*
X78842767Y-136113249D01*
X78839378Y-136108177D01*
X78836138Y-136103059D01*
X78802037Y-136046165D01*
X78653816Y-135798875D01*
X78650851Y-135793642D01*
X78647964Y-135788242D01*
X78645245Y-135782838D01*
X78535358Y-135550500D01*
X78493608Y-135462228D01*
X78491150Y-135456680D01*
X78488819Y-135451052D01*
X78486641Y-135445403D01*
X78367173Y-135111513D01*
X78365275Y-135105767D01*
X78363512Y-135099956D01*
X78361892Y-135094107D01*
X78275714Y-134750063D01*
X78274390Y-134744168D01*
X78273202Y-134738196D01*
X78272170Y-134732248D01*
X78220134Y-134381445D01*
X78219391Y-134375412D01*
X78218795Y-134369363D01*
X78218349Y-134363342D01*
X78217637Y-134348838D01*
X78200721Y-134004509D01*
X78200611Y-134001479D01*
X78200537Y-133998437D01*
X78200500Y-133995421D01*
X78200500Y-133877973D01*
X80449500Y-133877973D01*
X80449500Y-134122027D01*
X80487679Y-134363076D01*
X80492672Y-134378444D01*
X80563097Y-134595187D01*
X80640526Y-134747152D01*
X80673896Y-134812643D01*
X80803475Y-134990994D01*
X80817339Y-135010076D01*
X80817343Y-135010081D01*
X80817348Y-135010087D01*
X80989911Y-135182650D01*
X80989915Y-135182653D01*
X80989918Y-135182656D01*
X80989923Y-135182660D01*
X81162136Y-135307779D01*
X81174748Y-135316942D01*
X81187359Y-135326105D01*
X81187361Y-135326106D01*
X81404815Y-135436904D01*
X81636924Y-135512321D01*
X81877973Y-135550500D01*
X81877974Y-135550500D01*
X82122026Y-135550500D01*
X82122027Y-135550500D01*
X82363076Y-135512321D01*
X82595185Y-135436904D01*
X82812639Y-135326106D01*
X83010083Y-135182655D01*
X83182655Y-135010083D01*
X83326106Y-134812639D01*
X83436904Y-134595185D01*
X83512321Y-134363076D01*
X83550500Y-134122027D01*
X83550500Y-133877973D01*
X83512321Y-133636924D01*
X83436904Y-133404815D01*
X83326106Y-133187361D01*
X83281600Y-133126104D01*
X83182660Y-132989923D01*
X83182656Y-132989918D01*
X83182655Y-132989917D01*
X83182648Y-132989909D01*
X83010087Y-132817348D01*
X83010082Y-132817344D01*
X83010081Y-132817343D01*
X83010076Y-132817339D01*
X82812642Y-132673896D01*
X82812641Y-132673895D01*
X82812639Y-132673894D01*
X82806557Y-132670795D01*
X82595189Y-132563097D01*
X82376603Y-132492073D01*
X82376589Y-132492069D01*
X82363076Y-132487679D01*
X82363074Y-132487678D01*
X82363072Y-132487678D01*
X82348675Y-132485397D01*
X82348668Y-132485396D01*
X82194769Y-132461021D01*
X82177905Y-132458350D01*
X82122031Y-132449500D01*
X82122027Y-132449500D01*
X81877973Y-132449500D01*
X81877969Y-132449500D01*
X81822093Y-132458350D01*
X81636930Y-132487677D01*
X81404809Y-132563098D01*
X81187353Y-132673898D01*
X80989940Y-132817326D01*
X80989911Y-132817348D01*
X80817348Y-132989911D01*
X80817326Y-132989940D01*
X80673898Y-133187353D01*
X80563098Y-133404807D01*
X80487677Y-133636926D01*
X80487677Y-133636927D01*
X80469335Y-133752742D01*
X80469335Y-133752743D01*
X80449500Y-133877973D01*
X78200500Y-133877973D01*
X78200500Y-115440691D01*
X130299500Y-115440691D01*
X130299500Y-115559309D01*
X130330201Y-115673886D01*
X130389511Y-115776613D01*
X130473387Y-115860489D01*
X130576114Y-115919799D01*
X130690691Y-115950500D01*
X130706337Y-115950500D01*
X130741269Y-115955521D01*
X130766513Y-115962934D01*
X130819259Y-115994230D01*
X131315541Y-116490512D01*
X131316058Y-116490892D01*
X131318680Y-116492303D01*
X131376757Y-116525833D01*
X131376759Y-116525834D01*
X131376758Y-116525834D01*
X131381194Y-116528395D01*
X131384011Y-116530021D01*
X131460438Y-116550500D01*
X131460440Y-116550500D01*
X139496671Y-116550500D01*
X139496673Y-116550500D01*
X139573100Y-116530021D01*
X139641622Y-116490460D01*
X139697571Y-116434511D01*
X139782663Y-116349418D01*
X139810908Y-116328275D01*
X139834000Y-116315667D01*
X139893425Y-116300500D01*
X147056338Y-116300500D01*
X147091271Y-116305522D01*
X147103607Y-116309144D01*
X147107090Y-116309901D01*
X147168409Y-116343380D01*
X147250574Y-116425545D01*
X147271723Y-116453796D01*
X147284331Y-116476885D01*
X147299500Y-116536314D01*
X147299500Y-116559309D01*
X147330201Y-116673886D01*
X147389511Y-116776613D01*
X147473387Y-116860489D01*
X147576114Y-116919799D01*
X147690691Y-116950500D01*
X147690694Y-116950500D01*
X147809306Y-116950500D01*
X147809309Y-116950500D01*
X147923886Y-116919799D01*
X148026613Y-116860489D01*
X148110489Y-116776613D01*
X148169799Y-116673886D01*
X148200500Y-116559309D01*
X148200500Y-116440691D01*
X148169799Y-116326114D01*
X148110489Y-116223387D01*
X148026613Y-116139511D01*
X147923886Y-116080201D01*
X147809309Y-116049500D01*
X147809306Y-116049500D01*
X147793663Y-116049500D01*
X147793662Y-116049499D01*
X147793662Y-116049500D01*
X147758727Y-116044477D01*
X147733485Y-116037065D01*
X147680740Y-116005769D01*
X147434516Y-115759544D01*
X147434512Y-115759541D01*
X147434504Y-115759535D01*
X147396890Y-115737819D01*
X147366872Y-115720488D01*
X147366050Y-115720004D01*
X147365995Y-115719981D01*
X147365991Y-115719980D01*
X147365990Y-115719979D01*
X147340513Y-115713152D01*
X147340509Y-115713150D01*
X147289563Y-115699500D01*
X147289562Y-115699500D01*
X139667549Y-115699500D01*
X139629335Y-115709739D01*
X139629332Y-115709739D01*
X139591121Y-115719978D01*
X139591050Y-115720008D01*
X139590241Y-115720485D01*
X139522619Y-115759526D01*
X139522594Y-115759544D01*
X139522592Y-115759545D01*
X139381563Y-115900575D01*
X139360041Y-115916687D01*
X139353311Y-115921725D01*
X139330226Y-115934331D01*
X139270797Y-115949500D01*
X134341268Y-115949500D01*
X134306334Y-115944477D01*
X134292779Y-115940497D01*
X134234001Y-115902723D01*
X134205082Y-115839891D01*
X134201868Y-115818437D01*
X134200500Y-115800069D01*
X134200500Y-115690693D01*
X134200500Y-115690691D01*
X134169799Y-115576114D01*
X134110489Y-115473387D01*
X134026613Y-115389511D01*
X133923886Y-115330201D01*
X133809309Y-115299500D01*
X133809306Y-115299500D01*
X133690694Y-115299500D01*
X133690691Y-115299500D01*
X133621944Y-115317920D01*
X133576112Y-115330201D01*
X133576111Y-115330202D01*
X133498997Y-115374724D01*
X133479961Y-115383656D01*
X133474602Y-115385635D01*
X133469371Y-115387037D01*
X133467429Y-115388284D01*
X133458443Y-115391604D01*
X133454572Y-115391868D01*
X133433200Y-115398012D01*
X133431711Y-115398227D01*
X133413990Y-115399500D01*
X133214374Y-115399500D01*
X133179438Y-115394477D01*
X133154196Y-115387065D01*
X133101451Y-115355769D01*
X132240706Y-114495024D01*
X132221004Y-114469350D01*
X132205231Y-114442030D01*
X132192846Y-114412129D01*
X132169798Y-114326112D01*
X132161851Y-114312348D01*
X132110489Y-114223387D01*
X132026613Y-114139511D01*
X131923886Y-114080201D01*
X131809309Y-114049500D01*
X131809306Y-114049500D01*
X131690691Y-114049500D01*
X131599728Y-114073873D01*
X131599723Y-114073874D01*
X131576114Y-114080201D01*
X131576112Y-114080201D01*
X131576112Y-114080202D01*
X131554947Y-114092421D01*
X131554939Y-114092425D01*
X131473386Y-114139511D01*
X131473378Y-114139517D01*
X131389517Y-114223378D01*
X131389513Y-114223383D01*
X131389511Y-114223387D01*
X131330201Y-114326114D01*
X131299500Y-114440691D01*
X131299500Y-114559309D01*
X131330201Y-114673886D01*
X131389511Y-114776613D01*
X131473387Y-114860489D01*
X131576114Y-114919799D01*
X131662129Y-114942846D01*
X131692030Y-114955231D01*
X131719350Y-114971004D01*
X131745024Y-114990706D01*
X132479529Y-115725211D01*
X132500678Y-115753461D01*
X132506099Y-115763388D01*
X132520953Y-115831661D01*
X132496539Y-115897126D01*
X132440607Y-115938999D01*
X132440603Y-115939001D01*
X132433415Y-115941682D01*
X132390081Y-115949500D01*
X131693663Y-115949500D01*
X131693662Y-115949499D01*
X131693662Y-115949500D01*
X131658727Y-115944477D01*
X131633485Y-115937065D01*
X131580740Y-115905769D01*
X131249426Y-115574455D01*
X131228274Y-115546199D01*
X131215667Y-115523110D01*
X131200500Y-115463685D01*
X131200500Y-115440693D01*
X131200500Y-115440691D01*
X131169799Y-115326114D01*
X131110489Y-115223387D01*
X131026613Y-115139511D01*
X130923886Y-115080201D01*
X130809309Y-115049500D01*
X130809306Y-115049500D01*
X130690691Y-115049500D01*
X130599728Y-115073873D01*
X130599723Y-115073874D01*
X130576114Y-115080201D01*
X130576112Y-115080201D01*
X130576112Y-115080202D01*
X130554947Y-115092421D01*
X130554939Y-115092425D01*
X130473386Y-115139511D01*
X130473378Y-115139517D01*
X130389517Y-115223378D01*
X130389513Y-115223383D01*
X130389511Y-115223387D01*
X130330201Y-115326114D01*
X130299500Y-115440691D01*
X78200500Y-115440691D01*
X78200500Y-104195730D01*
X106639500Y-104195730D01*
X106639500Y-104198124D01*
X106639500Y-107404265D01*
X106641812Y-107428929D01*
X106641978Y-107432499D01*
X106642353Y-107434703D01*
X106682522Y-107549496D01*
X106687206Y-107562880D01*
X106687207Y-107562882D01*
X106767850Y-107672150D01*
X106877117Y-107752792D01*
X106877118Y-107752793D01*
X107005299Y-107797646D01*
X107005303Y-107797647D01*
X107023742Y-107799375D01*
X107035730Y-107800500D01*
X107035734Y-107800500D01*
X107035739Y-107800500D01*
X108984270Y-107800500D01*
X108984271Y-107800500D01*
X108985576Y-107800377D01*
X109014699Y-107797646D01*
X109014701Y-107797646D01*
X109078790Y-107775219D01*
X109142882Y-107752793D01*
X109252150Y-107672150D01*
X109332793Y-107562882D01*
X109355219Y-107498790D01*
X109377646Y-107434701D01*
X109377646Y-107434699D01*
X109380500Y-107404269D01*
X109380500Y-104372662D01*
X109385521Y-104337735D01*
X109388707Y-104326882D01*
X109426477Y-104268101D01*
X109490031Y-104239072D01*
X109559186Y-104249010D01*
X109566172Y-104252200D01*
X109602342Y-104277313D01*
X117415492Y-112090463D01*
X117416172Y-112090953D01*
X117418667Y-112092295D01*
X117484004Y-112130017D01*
X117484011Y-112130021D01*
X117560438Y-112150500D01*
X135636944Y-112150500D01*
X135671871Y-112155521D01*
X135682724Y-112158707D01*
X135741505Y-112196477D01*
X135770534Y-112260031D01*
X135760595Y-112329190D01*
X135760594Y-112329192D01*
X135757409Y-112336167D01*
X135732293Y-112372342D01*
X135204062Y-112900573D01*
X135175811Y-112921722D01*
X135152723Y-112934330D01*
X135093293Y-112949500D01*
X133305794Y-112949500D01*
X133305793Y-112949499D01*
X133305793Y-112949500D01*
X133270858Y-112944477D01*
X133245616Y-112937065D01*
X133192871Y-112905769D01*
X133176615Y-112889513D01*
X133176613Y-112889511D01*
X133073886Y-112830201D01*
X132959309Y-112799500D01*
X132959306Y-112799500D01*
X132840691Y-112799500D01*
X132749728Y-112823873D01*
X132749723Y-112823874D01*
X132726114Y-112830201D01*
X132726112Y-112830201D01*
X132726112Y-112830202D01*
X132704947Y-112842421D01*
X132704939Y-112842425D01*
X132623386Y-112889511D01*
X132623378Y-112889517D01*
X132539517Y-112973378D01*
X132539513Y-112973383D01*
X132539512Y-112973385D01*
X132539511Y-112973387D01*
X132508780Y-113026615D01*
X132480201Y-113076114D01*
X132449500Y-113190691D01*
X132449500Y-113309309D01*
X132480201Y-113423886D01*
X132539511Y-113526613D01*
X132623387Y-113610489D01*
X132726114Y-113669799D01*
X132840691Y-113700500D01*
X132840694Y-113700500D01*
X132959306Y-113700500D01*
X132959309Y-113700500D01*
X133073886Y-113669799D01*
X133176613Y-113610489D01*
X133187683Y-113599418D01*
X133215928Y-113578275D01*
X133239020Y-113565667D01*
X133298445Y-113550500D01*
X135319167Y-113550500D01*
X135319169Y-113550500D01*
X135395596Y-113530021D01*
X135464118Y-113490460D01*
X135520067Y-113434511D01*
X136263887Y-112690691D01*
X146799500Y-112690691D01*
X146799500Y-112809309D01*
X146830201Y-112923886D01*
X146889511Y-113026613D01*
X146973387Y-113110489D01*
X147076114Y-113169799D01*
X147190691Y-113200500D01*
X147190694Y-113200500D01*
X147309306Y-113200500D01*
X147309309Y-113200500D01*
X147423886Y-113169799D01*
X147526613Y-113110489D01*
X147537683Y-113099418D01*
X147565928Y-113078275D01*
X147589020Y-113065667D01*
X147648445Y-113050500D01*
X149999560Y-113050500D01*
X149999562Y-113050500D01*
X150075989Y-113030021D01*
X150144511Y-112990460D01*
X150144510Y-112990460D01*
X150144745Y-112990325D01*
X150160406Y-112980127D01*
X150186891Y-112965665D01*
X150246314Y-112950500D01*
X150269306Y-112950500D01*
X150269309Y-112950500D01*
X150383886Y-112919799D01*
X150486613Y-112860489D01*
X150570489Y-112776613D01*
X150629799Y-112673886D01*
X150660500Y-112559309D01*
X150660500Y-112440691D01*
X150629799Y-112326114D01*
X150570489Y-112223387D01*
X150486613Y-112139511D01*
X150383886Y-112080201D01*
X150269309Y-112049500D01*
X150269306Y-112049500D01*
X150150691Y-112049500D01*
X150059728Y-112073873D01*
X150059723Y-112073874D01*
X150036114Y-112080201D01*
X150036112Y-112080201D01*
X150036112Y-112080202D01*
X150014947Y-112092421D01*
X150014939Y-112092425D01*
X149933386Y-112139511D01*
X149933378Y-112139517D01*
X149849514Y-112223381D01*
X149849511Y-112223387D01*
X149791495Y-112323873D01*
X149790199Y-112326117D01*
X149787455Y-112336354D01*
X149787455Y-112336357D01*
X149786377Y-112340382D01*
X149772487Y-112372816D01*
X149764352Y-112386163D01*
X149751150Y-112398164D01*
X149750007Y-112400040D01*
X149748032Y-112400998D01*
X149712655Y-112433161D01*
X149704683Y-112437034D01*
X149650497Y-112449500D01*
X147655794Y-112449500D01*
X147655793Y-112449499D01*
X147655793Y-112449500D01*
X147620858Y-112444477D01*
X147595616Y-112437065D01*
X147542871Y-112405769D01*
X147526615Y-112389513D01*
X147526613Y-112389511D01*
X147423886Y-112330201D01*
X147309309Y-112299500D01*
X147309306Y-112299500D01*
X147190691Y-112299500D01*
X147099728Y-112323873D01*
X147099723Y-112323874D01*
X147076114Y-112330201D01*
X147076112Y-112330201D01*
X147076112Y-112330202D01*
X147054947Y-112342421D01*
X147054939Y-112342425D01*
X146973386Y-112389511D01*
X146973378Y-112389517D01*
X146889517Y-112473378D01*
X146889513Y-112473383D01*
X146889511Y-112473387D01*
X146830201Y-112576114D01*
X146799500Y-112690691D01*
X136263887Y-112690691D01*
X138842960Y-110111618D01*
X138860932Y-110080489D01*
X138882521Y-110043096D01*
X138903000Y-109966669D01*
X138903000Y-109706555D01*
X138908022Y-109671622D01*
X138915434Y-109646377D01*
X138946728Y-109593635D01*
X139390940Y-109149423D01*
X139419190Y-109128275D01*
X139442282Y-109115667D01*
X139501707Y-109100500D01*
X174907671Y-109100500D01*
X174942606Y-109105523D01*
X174957604Y-109109927D01*
X175016355Y-109147672D01*
X175016379Y-109147700D01*
X175016382Y-109147702D01*
X175016383Y-109147704D01*
X175017542Y-109149041D01*
X175045018Y-109203902D01*
X175046663Y-109211460D01*
X175049500Y-109237831D01*
X175049500Y-109669752D01*
X175061131Y-109728229D01*
X175061132Y-109728230D01*
X175061132Y-109728231D01*
X175061134Y-109728233D01*
X175105447Y-109794552D01*
X175171765Y-109838864D01*
X175171767Y-109838866D01*
X175171770Y-109838868D01*
X175222612Y-109848981D01*
X175225337Y-109849703D01*
X175230249Y-109850500D01*
X176969750Y-109850500D01*
X176973873Y-109850500D01*
X176981732Y-109848116D01*
X176984568Y-109847552D01*
X177016258Y-109841249D01*
X177022354Y-109840648D01*
X177022386Y-109840639D01*
X177033311Y-109837902D01*
X177043515Y-109828654D01*
X177094552Y-109794552D01*
X177138867Y-109728231D01*
X177138867Y-109728229D01*
X177138868Y-109728229D01*
X177141030Y-109717355D01*
X177141166Y-109717090D01*
X177141249Y-109716256D01*
X177143085Y-109707028D01*
X177150072Y-109671896D01*
X177150500Y-109669931D01*
X177150500Y-107932295D01*
X177150500Y-107930249D01*
X177150499Y-107930247D01*
X177138868Y-107871770D01*
X177138867Y-107871769D01*
X177094552Y-107805447D01*
X177047822Y-107774223D01*
X177038385Y-107767917D01*
X177033641Y-107764024D01*
X177028230Y-107761132D01*
X177028229Y-107761131D01*
X176969752Y-107749500D01*
X176969750Y-107749500D01*
X175230249Y-107749500D01*
X175230247Y-107749500D01*
X175171770Y-107761131D01*
X175171769Y-107761131D01*
X175171768Y-107761132D01*
X175171765Y-107761133D01*
X175171759Y-107761138D01*
X175105447Y-107805447D01*
X175061138Y-107871759D01*
X175061133Y-107871765D01*
X175061132Y-107871768D01*
X175061132Y-107871769D01*
X175061131Y-107871770D01*
X175049500Y-107930247D01*
X175049500Y-107930249D01*
X175049500Y-108357670D01*
X175049499Y-108357676D01*
X175049500Y-108357679D01*
X175044475Y-108392614D01*
X175040070Y-108407612D01*
X175002327Y-108466355D01*
X175002292Y-108466385D01*
X175002291Y-108466387D01*
X175002289Y-108466387D01*
X175000958Y-108467542D01*
X174946097Y-108495018D01*
X174938539Y-108496663D01*
X174912168Y-108499500D01*
X135254436Y-108499500D01*
X135178011Y-108519977D01*
X135178008Y-108519978D01*
X135109499Y-108559533D01*
X135109484Y-108559543D01*
X135109482Y-108559544D01*
X134798460Y-108870566D01*
X134798459Y-108870569D01*
X134798455Y-108870571D01*
X134798454Y-108870573D01*
X134775803Y-108887530D01*
X134770205Y-108891721D01*
X134747118Y-108904329D01*
X134687686Y-108919500D01*
X133352936Y-108919500D01*
X133276511Y-108939977D01*
X133276508Y-108939978D01*
X133207999Y-108979533D01*
X133207984Y-108979543D01*
X133207982Y-108979544D01*
X132966960Y-109220566D01*
X132966959Y-109220569D01*
X132938705Y-109241721D01*
X132915618Y-109254329D01*
X132856186Y-109269500D01*
X132833191Y-109269500D01*
X132742228Y-109293873D01*
X132742223Y-109293874D01*
X132718614Y-109300201D01*
X132718612Y-109300201D01*
X132718612Y-109300202D01*
X132697447Y-109312421D01*
X132697439Y-109312425D01*
X132615886Y-109359511D01*
X132615878Y-109359517D01*
X132532017Y-109443378D01*
X132532013Y-109443383D01*
X132476124Y-109540185D01*
X132472701Y-109546114D01*
X132442000Y-109660691D01*
X132442000Y-109779309D01*
X132472701Y-109893886D01*
X132532011Y-109996613D01*
X132615887Y-110080489D01*
X132718614Y-110139799D01*
X132833191Y-110170500D01*
X132833194Y-110170500D01*
X132951806Y-110170500D01*
X132951809Y-110170500D01*
X133066386Y-110139799D01*
X133169113Y-110080489D01*
X133252989Y-109996613D01*
X133312299Y-109893886D01*
X133343000Y-109779309D01*
X133343000Y-109763660D01*
X133347263Y-109731424D01*
X133347621Y-109730092D01*
X133351644Y-109716392D01*
X133353050Y-109709925D01*
X133353831Y-109707028D01*
X133370532Y-109679700D01*
X133385879Y-109651591D01*
X133468047Y-109569423D01*
X133496297Y-109548275D01*
X133519389Y-109535667D01*
X133578814Y-109520500D01*
X137504287Y-109520500D01*
X137539221Y-109525523D01*
X137552775Y-109529503D01*
X137611553Y-109567278D01*
X137640469Y-109630096D01*
X137642709Y-109645038D01*
X137643528Y-109664631D01*
X137644000Y-109664631D01*
X137644000Y-109684337D01*
X137638976Y-109719274D01*
X137631564Y-109744515D01*
X137600269Y-109797259D01*
X135896955Y-111500573D01*
X135868704Y-111521722D01*
X135845616Y-111534330D01*
X135786186Y-111549500D01*
X117793663Y-111549500D01*
X117758727Y-111544477D01*
X117733485Y-111537065D01*
X117680740Y-111505769D01*
X114115662Y-107940691D01*
X118799500Y-107940691D01*
X118799500Y-108059309D01*
X118830201Y-108173886D01*
X118889511Y-108276613D01*
X118973387Y-108360489D01*
X119076114Y-108419799D01*
X119190691Y-108450500D01*
X119190694Y-108450500D01*
X119309306Y-108450500D01*
X119309307Y-108450500D01*
X119309309Y-108450500D01*
X119423886Y-108419799D01*
X119501010Y-108375269D01*
X119530904Y-108362888D01*
X119561375Y-108354723D01*
X119593463Y-108350500D01*
X122757670Y-108350500D01*
X122792606Y-108355523D01*
X122807604Y-108359927D01*
X122866355Y-108397672D01*
X122867542Y-108399041D01*
X122895018Y-108453902D01*
X122896663Y-108461460D01*
X122899500Y-108487831D01*
X122899500Y-110046143D01*
X122912819Y-110095850D01*
X122912819Y-110095851D01*
X122919146Y-110119467D01*
X122919148Y-110119471D01*
X122923386Y-110135288D01*
X122969531Y-110215214D01*
X122969532Y-110215215D01*
X122969533Y-110215216D01*
X123009287Y-110254969D01*
X123028996Y-110280653D01*
X123044766Y-110307968D01*
X123057152Y-110337872D01*
X123080199Y-110423882D01*
X123080200Y-110423885D01*
X123105267Y-110467302D01*
X123139511Y-110526613D01*
X123223387Y-110610489D01*
X123326114Y-110669799D01*
X123440691Y-110700500D01*
X123440694Y-110700500D01*
X123559306Y-110700500D01*
X123559309Y-110700500D01*
X123595916Y-110690691D01*
X127049500Y-110690691D01*
X127049500Y-110809309D01*
X127080201Y-110923886D01*
X127139511Y-111026613D01*
X127223387Y-111110489D01*
X127326114Y-111169799D01*
X127440691Y-111200500D01*
X127440694Y-111200500D01*
X127559306Y-111200500D01*
X127559309Y-111200500D01*
X127673886Y-111169799D01*
X127776613Y-111110489D01*
X127860489Y-111026613D01*
X127919799Y-110923886D01*
X127950500Y-110809309D01*
X127950500Y-110793662D01*
X127955522Y-110758729D01*
X127962934Y-110733484D01*
X127994228Y-110680742D01*
X132075547Y-106599423D01*
X132103797Y-106578275D01*
X132126889Y-106565667D01*
X132186314Y-106550500D01*
X171158664Y-106550500D01*
X171174838Y-106551558D01*
X171190830Y-106553663D01*
X171206743Y-106556830D01*
X171220436Y-106560500D01*
X171220438Y-106560500D01*
X171299562Y-106560500D01*
X174986735Y-106560500D01*
X175021670Y-106565523D01*
X175036668Y-106569927D01*
X175095441Y-106607696D01*
X175104360Y-106617988D01*
X175125212Y-106651743D01*
X175169058Y-106757596D01*
X175284023Y-106929655D01*
X175284027Y-106929661D01*
X175430336Y-107075970D01*
X175430340Y-107075973D01*
X175430342Y-107075975D01*
X175430345Y-107075977D01*
X175430349Y-107075980D01*
X175430348Y-107075980D01*
X175430411Y-107076032D01*
X175430448Y-107076046D01*
X175602402Y-107190941D01*
X175793580Y-107270130D01*
X175984540Y-107308114D01*
X175993559Y-107309908D01*
X175995794Y-107310409D01*
X175996532Y-107310500D01*
X176203466Y-107310500D01*
X176207586Y-107310500D01*
X176215435Y-107308118D01*
X176406420Y-107270130D01*
X176597598Y-107190941D01*
X176769655Y-107075977D01*
X176915977Y-106929655D01*
X177030941Y-106757598D01*
X177110130Y-106566420D01*
X177150500Y-106363465D01*
X177150500Y-106156535D01*
X177110130Y-105953580D01*
X177030941Y-105762402D01*
X176916046Y-105590449D01*
X176916036Y-105590417D01*
X176915980Y-105590348D01*
X176915980Y-105590349D01*
X176915977Y-105590345D01*
X176915975Y-105590342D01*
X176915973Y-105590340D01*
X176915970Y-105590336D01*
X176769662Y-105444028D01*
X176769655Y-105444022D01*
X176683626Y-105386540D01*
X176683626Y-105386541D01*
X176597598Y-105329059D01*
X176597596Y-105329058D01*
X176597593Y-105329056D01*
X176597550Y-105329033D01*
X176596917Y-105328776D01*
X176535892Y-105303499D01*
X176535891Y-105303499D01*
X176449357Y-105267655D01*
X176419009Y-105249647D01*
X176410198Y-105242548D01*
X176370353Y-105185157D01*
X176367860Y-105115332D01*
X176403511Y-105055246D01*
X176407181Y-105051830D01*
X176453347Y-105024664D01*
X176618217Y-104971095D01*
X176807554Y-104874622D01*
X176809976Y-104872862D01*
X176829121Y-104858953D01*
X176855858Y-104849412D01*
X176861717Y-104835269D01*
X176356149Y-104329702D01*
X176322664Y-104268379D01*
X176327648Y-104198688D01*
X176369519Y-104142754D01*
X176381822Y-104134639D01*
X176407007Y-104120099D01*
X176500099Y-104027007D01*
X176514634Y-104001830D01*
X176565199Y-103953616D01*
X176633805Y-103940391D01*
X176698671Y-103966358D01*
X176709702Y-103976149D01*
X177215269Y-104481717D01*
X177215269Y-104481716D01*
X177215270Y-104481717D01*
X177215270Y-104481716D01*
X177228738Y-104476137D01*
X177234955Y-104454967D01*
X177238954Y-104449118D01*
X177254621Y-104427555D01*
X177254625Y-104427548D01*
X177351095Y-104238217D01*
X177416757Y-104036130D01*
X177416757Y-104036127D01*
X177450000Y-103826246D01*
X177450000Y-103613753D01*
X177436260Y-103527007D01*
X177418284Y-103413511D01*
X177418283Y-103413505D01*
X177418283Y-103413506D01*
X177416756Y-103403865D01*
X177389473Y-103319898D01*
X177351095Y-103201782D01*
X177254624Y-103012449D01*
X177215270Y-102958282D01*
X177215269Y-102958282D01*
X177215268Y-102958282D01*
X176709702Y-103463849D01*
X176648379Y-103497334D01*
X176578687Y-103492350D01*
X176522754Y-103450478D01*
X176514634Y-103438169D01*
X176500099Y-103412993D01*
X176407007Y-103319901D01*
X176407004Y-103319899D01*
X176407000Y-103319896D01*
X176381828Y-103305363D01*
X176333613Y-103254796D01*
X176320391Y-103186189D01*
X176346359Y-103121324D01*
X176356135Y-103110310D01*
X176861716Y-102604728D01*
X176860539Y-102603873D01*
X176807550Y-102565375D01*
X176807548Y-102565374D01*
X176618220Y-102468905D01*
X176534904Y-102441834D01*
X176458978Y-102417164D01*
X176427306Y-102401591D01*
X176417970Y-102395207D01*
X176373743Y-102341118D01*
X176365779Y-102271703D01*
X176396605Y-102209008D01*
X176399997Y-102205312D01*
X176443888Y-102174608D01*
X176597598Y-102110941D01*
X176769655Y-101995977D01*
X176915977Y-101849655D01*
X177030941Y-101677598D01*
X177110130Y-101486420D01*
X177150500Y-101283465D01*
X177150500Y-101076535D01*
X177110130Y-100873580D01*
X177030941Y-100682402D01*
X176916046Y-100510449D01*
X176916036Y-100510417D01*
X176915980Y-100510348D01*
X176915980Y-100510349D01*
X176915977Y-100510345D01*
X176915975Y-100510342D01*
X176915973Y-100510340D01*
X176915970Y-100510336D01*
X176769662Y-100364028D01*
X176769655Y-100364022D01*
X176683626Y-100306540D01*
X176683625Y-100306540D01*
X176597604Y-100249062D01*
X176597595Y-100249057D01*
X176474010Y-100197867D01*
X176406420Y-100169870D01*
X176406412Y-100169868D01*
X176406404Y-100169866D01*
X176406394Y-100169864D01*
X176203471Y-100129500D01*
X176203469Y-100129500D01*
X176203465Y-100129500D01*
X175996535Y-100129500D01*
X175996530Y-100129500D01*
X175996528Y-100129500D01*
X175793604Y-100169864D01*
X175793579Y-100169870D01*
X175602404Y-100249057D01*
X175430337Y-100364027D01*
X175284027Y-100510337D01*
X175169057Y-100682404D01*
X175089870Y-100873579D01*
X175089864Y-100873604D01*
X175049500Y-101076527D01*
X175049500Y-101076530D01*
X175049500Y-101283469D01*
X175049500Y-101283471D01*
X175049499Y-101283471D01*
X175089864Y-101486394D01*
X175089868Y-101486412D01*
X175089870Y-101486420D01*
X175169058Y-101677596D01*
X175284023Y-101849655D01*
X175284027Y-101849661D01*
X175430339Y-101995973D01*
X175430342Y-101995975D01*
X175602405Y-102110943D01*
X175705043Y-102153456D01*
X175750636Y-102172341D01*
X175780986Y-102190348D01*
X175789795Y-102197446D01*
X175799963Y-102212091D01*
X175805040Y-102216182D01*
X175807098Y-102222366D01*
X175829644Y-102254836D01*
X175832139Y-102324661D01*
X175796488Y-102384751D01*
X175796477Y-102384761D01*
X175792818Y-102388167D01*
X175746650Y-102415335D01*
X175581776Y-102468906D01*
X175392438Y-102565380D01*
X175338282Y-102604727D01*
X175338282Y-102604728D01*
X175843850Y-103110296D01*
X175877335Y-103171619D01*
X175872351Y-103241311D01*
X175830479Y-103297244D01*
X175818173Y-103305362D01*
X175792996Y-103319898D01*
X175792990Y-103319903D01*
X175699903Y-103412990D01*
X175699898Y-103412996D01*
X175685362Y-103438173D01*
X175634793Y-103486387D01*
X175566185Y-103499607D01*
X175501322Y-103473637D01*
X175490296Y-103463850D01*
X174984728Y-102958282D01*
X174984727Y-102958282D01*
X174945380Y-103012438D01*
X174848903Y-103201784D01*
X174783242Y-103403865D01*
X174781798Y-103412990D01*
X174750000Y-103613753D01*
X174750000Y-103826246D01*
X174775860Y-103989519D01*
X174781715Y-104026485D01*
X174781716Y-104026493D01*
X174783242Y-104036133D01*
X174831678Y-104185202D01*
X174848904Y-104238217D01*
X174917408Y-104372662D01*
X174945374Y-104427548D01*
X174945375Y-104427550D01*
X174980674Y-104476137D01*
X174984728Y-104481716D01*
X175490297Y-103976147D01*
X175551619Y-103942663D01*
X175621311Y-103947647D01*
X175677244Y-103989519D01*
X175685363Y-104001828D01*
X175699896Y-104027000D01*
X175699899Y-104027004D01*
X175699901Y-104027007D01*
X175792993Y-104120099D01*
X175818169Y-104134634D01*
X175866384Y-104185202D01*
X175879606Y-104253809D01*
X175853638Y-104318673D01*
X175843849Y-104329702D01*
X175338282Y-104835268D01*
X175338282Y-104835269D01*
X175338282Y-104835270D01*
X175392449Y-104874624D01*
X175581782Y-104971095D01*
X175741015Y-105022833D01*
X175772684Y-105038403D01*
X175782021Y-105044787D01*
X175826252Y-105098875D01*
X175834219Y-105168288D01*
X175803394Y-105230990D01*
X175800015Y-105234672D01*
X175756107Y-105265391D01*
X175602410Y-105329053D01*
X175602392Y-105329063D01*
X175430346Y-105444020D01*
X175430338Y-105444026D01*
X175284027Y-105590337D01*
X175169060Y-105762399D01*
X175169056Y-105762407D01*
X175125948Y-105866479D01*
X175125948Y-105866481D01*
X175107938Y-105896834D01*
X175098131Y-105909004D01*
X175040745Y-105948851D01*
X175027825Y-105953152D01*
X174988659Y-105959500D01*
X171351333Y-105959500D01*
X171335148Y-105958439D01*
X171327160Y-105957387D01*
X171319174Y-105956336D01*
X171303268Y-105953172D01*
X171289564Y-105949500D01*
X171289562Y-105949500D01*
X131960438Y-105949500D01*
X131960437Y-105949500D01*
X131923412Y-105959420D01*
X131923413Y-105959421D01*
X131884009Y-105969979D01*
X131883937Y-105970009D01*
X131883130Y-105970485D01*
X131815508Y-106009526D01*
X131815483Y-106009544D01*
X131815481Y-106009545D01*
X127574455Y-110250573D01*
X127557721Y-110263100D01*
X127546204Y-110271722D01*
X127523116Y-110284330D01*
X127463686Y-110299500D01*
X127440691Y-110299500D01*
X127349728Y-110323873D01*
X127349723Y-110323874D01*
X127326114Y-110330201D01*
X127326112Y-110330201D01*
X127326112Y-110330202D01*
X127304947Y-110342421D01*
X127304939Y-110342425D01*
X127223386Y-110389511D01*
X127223378Y-110389517D01*
X127139517Y-110473378D01*
X127139513Y-110473383D01*
X127139512Y-110473385D01*
X127114640Y-110516464D01*
X127114639Y-110516466D01*
X127108780Y-110526615D01*
X127080201Y-110576114D01*
X127049500Y-110690691D01*
X123595916Y-110690691D01*
X123673886Y-110669799D01*
X123776613Y-110610489D01*
X123860489Y-110526613D01*
X123919799Y-110423886D01*
X123950500Y-110309309D01*
X123950500Y-110190691D01*
X123919799Y-110076114D01*
X123860489Y-109973387D01*
X123776613Y-109889511D01*
X123776611Y-109889510D01*
X123776609Y-109889508D01*
X123687628Y-109838135D01*
X123671820Y-109827298D01*
X123650992Y-109810513D01*
X123640973Y-109796083D01*
X123611146Y-109753123D01*
X123606846Y-109740204D01*
X123600500Y-109701044D01*
X123600500Y-108214372D01*
X123605522Y-108179439D01*
X123612934Y-108154194D01*
X123644228Y-108101452D01*
X125382216Y-106363465D01*
X127530469Y-104215212D01*
X127576614Y-104135288D01*
X127600500Y-104046144D01*
X127600500Y-103373463D01*
X127604724Y-103341374D01*
X127612888Y-103310904D01*
X127625269Y-103281010D01*
X127669799Y-103203886D01*
X127700500Y-103089309D01*
X127700500Y-102970691D01*
X127669799Y-102856114D01*
X127610489Y-102753387D01*
X127526613Y-102669511D01*
X127423886Y-102610201D01*
X127309309Y-102579500D01*
X127309306Y-102579500D01*
X127190691Y-102579500D01*
X127099728Y-102603873D01*
X127099723Y-102603874D01*
X127076114Y-102610201D01*
X127076112Y-102610201D01*
X127076112Y-102610202D01*
X127054947Y-102622421D01*
X127054939Y-102622425D01*
X126973386Y-102669511D01*
X126973378Y-102669517D01*
X126889517Y-102753378D01*
X126889513Y-102753383D01*
X126889511Y-102753387D01*
X126830201Y-102856114D01*
X126799500Y-102970691D01*
X126799500Y-103089309D01*
X126821555Y-103171619D01*
X126830202Y-103203889D01*
X126874723Y-103281001D01*
X126887110Y-103310904D01*
X126895274Y-103341369D01*
X126899500Y-103373466D01*
X126899500Y-103785626D01*
X126894476Y-103820563D01*
X126887064Y-103845804D01*
X126855769Y-103898548D01*
X123153744Y-107600573D01*
X123125493Y-107621722D01*
X123102405Y-107634330D01*
X123042975Y-107649500D01*
X119593466Y-107649500D01*
X119561369Y-107645274D01*
X119530904Y-107637110D01*
X119501001Y-107624723D01*
X119423889Y-107580202D01*
X119423890Y-107580202D01*
X119414494Y-107577684D01*
X119309309Y-107549500D01*
X119309306Y-107549500D01*
X119190691Y-107549500D01*
X119099728Y-107573873D01*
X119099723Y-107573874D01*
X119076114Y-107580201D01*
X119076112Y-107580201D01*
X119076112Y-107580202D01*
X119054947Y-107592421D01*
X119054939Y-107592425D01*
X118973386Y-107639511D01*
X118973378Y-107639517D01*
X118889517Y-107723378D01*
X118889513Y-107723383D01*
X118874434Y-107749501D01*
X118830201Y-107826113D01*
X118830201Y-107826114D01*
X118799500Y-107940691D01*
X114115662Y-107940691D01*
X109289426Y-103114455D01*
X109289421Y-103114450D01*
X109268274Y-103086199D01*
X109255667Y-103063110D01*
X109240500Y-103003685D01*
X109240500Y-99980601D01*
X109245523Y-99945665D01*
X109249927Y-99930667D01*
X109287672Y-99871916D01*
X109289041Y-99870729D01*
X109343920Y-99843249D01*
X109351479Y-99841605D01*
X109377832Y-99838772D01*
X109463873Y-99838772D01*
X109471732Y-99836388D01*
X109491381Y-99832480D01*
X109506258Y-99829521D01*
X109512354Y-99828920D01*
X109512386Y-99828911D01*
X109523311Y-99826174D01*
X109533515Y-99816926D01*
X109584552Y-99782824D01*
X109628867Y-99716503D01*
X109628867Y-99716501D01*
X109628868Y-99716501D01*
X109631030Y-99705627D01*
X109631166Y-99705362D01*
X109631249Y-99704528D01*
X109640068Y-99660189D01*
X109640500Y-99658203D01*
X109640500Y-98494793D01*
X109645521Y-98459866D01*
X109647624Y-98452701D01*
X109648707Y-98449011D01*
X109686477Y-98390232D01*
X109750031Y-98361203D01*
X109819186Y-98371141D01*
X109826172Y-98374331D01*
X109862342Y-98399444D01*
X109873387Y-98410489D01*
X109976114Y-98469799D01*
X110090691Y-98500500D01*
X110090694Y-98500500D01*
X110209306Y-98500500D01*
X110209309Y-98500500D01*
X110323886Y-98469799D01*
X110378021Y-98438543D01*
X110397044Y-98429617D01*
X110402400Y-98427638D01*
X110407641Y-98426234D01*
X110409587Y-98424983D01*
X110418559Y-98421669D01*
X110422468Y-98421401D01*
X110443950Y-98415238D01*
X110445452Y-98415022D01*
X110463023Y-98413772D01*
X110637670Y-98413772D01*
X110672606Y-98418795D01*
X110687604Y-98423199D01*
X110702594Y-98432829D01*
X110719675Y-98437839D01*
X110746355Y-98460944D01*
X110747542Y-98462313D01*
X110775018Y-98517174D01*
X110776663Y-98524732D01*
X110779500Y-98551103D01*
X110779500Y-99658024D01*
X110791131Y-99716501D01*
X110791132Y-99716502D01*
X110791132Y-99716503D01*
X110791134Y-99716505D01*
X110835447Y-99782824D01*
X110901765Y-99827136D01*
X110901767Y-99827138D01*
X110901770Y-99827140D01*
X110952612Y-99837253D01*
X110955337Y-99837975D01*
X110960249Y-99838772D01*
X111999750Y-99838772D01*
X112003873Y-99838772D01*
X112011732Y-99836388D01*
X112031381Y-99832480D01*
X112046258Y-99829521D01*
X112052354Y-99828920D01*
X112052386Y-99828911D01*
X112063311Y-99826174D01*
X112073515Y-99816926D01*
X112124552Y-99782824D01*
X112168867Y-99716503D01*
X112168867Y-99716501D01*
X112168868Y-99716501D01*
X112171030Y-99705627D01*
X112171166Y-99705362D01*
X112171249Y-99704528D01*
X112180068Y-99660189D01*
X112180500Y-99658203D01*
X112180500Y-98531728D01*
X112185522Y-98496795D01*
X112189433Y-98483476D01*
X112227206Y-98424699D01*
X112290758Y-98395674D01*
X112292386Y-98395440D01*
X112350560Y-98400995D01*
X112355310Y-98402639D01*
X112376749Y-98412430D01*
X112390030Y-98420098D01*
X112400658Y-98426234D01*
X112400659Y-98426235D01*
X112436954Y-98447190D01*
X112476108Y-98469796D01*
X112476109Y-98469797D01*
X112476111Y-98469797D01*
X112476114Y-98469799D01*
X112478060Y-98470320D01*
X112481498Y-98472187D01*
X112483626Y-98472910D01*
X112483718Y-98472948D01*
X112491874Y-98474022D01*
X112590691Y-98500500D01*
X112590694Y-98500500D01*
X112709306Y-98500500D01*
X112709309Y-98500500D01*
X112823886Y-98469799D01*
X112878021Y-98438543D01*
X112897044Y-98429617D01*
X112902400Y-98427638D01*
X112907641Y-98426234D01*
X112909587Y-98424983D01*
X112918559Y-98421669D01*
X112922468Y-98421401D01*
X112943950Y-98415238D01*
X112945452Y-98415022D01*
X112963023Y-98413772D01*
X113177670Y-98413772D01*
X113212606Y-98418795D01*
X113227604Y-98423199D01*
X113242594Y-98432829D01*
X113259675Y-98437839D01*
X113286355Y-98460944D01*
X113287542Y-98462313D01*
X113315018Y-98517174D01*
X113316663Y-98524732D01*
X113319500Y-98551103D01*
X113319500Y-99658024D01*
X113331131Y-99716501D01*
X113331132Y-99716502D01*
X113331132Y-99716503D01*
X113331134Y-99716505D01*
X113375447Y-99782824D01*
X113441765Y-99827136D01*
X113441767Y-99827138D01*
X113441770Y-99827140D01*
X113492612Y-99837253D01*
X113495337Y-99837975D01*
X113500249Y-99838772D01*
X114539750Y-99838772D01*
X114543873Y-99838772D01*
X114551732Y-99836388D01*
X114571381Y-99832480D01*
X114586258Y-99829521D01*
X114592354Y-99828920D01*
X114592386Y-99828911D01*
X114603311Y-99826174D01*
X114613515Y-99816926D01*
X114664552Y-99782824D01*
X114708867Y-99716503D01*
X114708867Y-99716501D01*
X114708868Y-99716501D01*
X114711030Y-99705627D01*
X114711166Y-99705362D01*
X114711249Y-99704528D01*
X114720068Y-99660189D01*
X114720500Y-99658203D01*
X114720500Y-98554823D01*
X114725522Y-98519890D01*
X114725549Y-98519799D01*
X114729433Y-98506571D01*
X114767206Y-98447794D01*
X114830758Y-98418769D01*
X114832399Y-98418533D01*
X114890557Y-98424088D01*
X114895302Y-98425731D01*
X114916746Y-98435523D01*
X114976114Y-98469799D01*
X115090691Y-98500500D01*
X115090694Y-98500500D01*
X115209306Y-98500500D01*
X115209309Y-98500500D01*
X115323886Y-98469799D01*
X115378021Y-98438543D01*
X115407917Y-98426160D01*
X115438388Y-98417995D01*
X115470476Y-98413772D01*
X115717670Y-98413772D01*
X115752606Y-98418795D01*
X115767604Y-98423199D01*
X115826355Y-98460944D01*
X115827542Y-98462313D01*
X115855018Y-98517174D01*
X115856663Y-98524732D01*
X115859500Y-98551103D01*
X115859500Y-99658024D01*
X115871131Y-99716501D01*
X115871132Y-99716502D01*
X115871132Y-99716503D01*
X115871134Y-99716505D01*
X115915447Y-99782824D01*
X115981765Y-99827136D01*
X115981767Y-99827138D01*
X115981770Y-99827140D01*
X116032612Y-99837253D01*
X116035337Y-99837975D01*
X116040249Y-99838772D01*
X117079750Y-99838772D01*
X117083873Y-99838772D01*
X117091732Y-99836388D01*
X117111381Y-99832480D01*
X117126258Y-99829521D01*
X117132354Y-99828920D01*
X117132386Y-99828911D01*
X117143311Y-99826174D01*
X117153515Y-99816926D01*
X117204552Y-99782824D01*
X117248867Y-99716503D01*
X117248867Y-99716501D01*
X117248868Y-99716501D01*
X117251030Y-99705627D01*
X117251166Y-99705362D01*
X117251249Y-99704528D01*
X117260068Y-99660189D01*
X117260500Y-99658203D01*
X117260500Y-98577917D01*
X117265522Y-98542984D01*
X117265815Y-98541986D01*
X117269433Y-98529665D01*
X117307206Y-98470888D01*
X117370758Y-98441863D01*
X117372386Y-98441629D01*
X117430576Y-98447189D01*
X117435317Y-98448830D01*
X117456751Y-98458619D01*
X117476114Y-98469799D01*
X117590691Y-98500500D01*
X117590694Y-98500500D01*
X117709306Y-98500500D01*
X117709309Y-98500500D01*
X117823886Y-98469799D01*
X117878021Y-98438543D01*
X117907917Y-98426160D01*
X117938388Y-98417995D01*
X117970476Y-98413772D01*
X118257670Y-98413772D01*
X118292606Y-98418795D01*
X118307604Y-98423199D01*
X118366355Y-98460944D01*
X118367542Y-98462313D01*
X118395018Y-98517174D01*
X118396663Y-98524732D01*
X118399500Y-98551103D01*
X118399500Y-99658024D01*
X118411131Y-99716501D01*
X118411132Y-99716502D01*
X118411132Y-99716503D01*
X118411134Y-99716505D01*
X118455447Y-99782824D01*
X118521765Y-99827136D01*
X118521767Y-99827138D01*
X118521770Y-99827140D01*
X118572612Y-99837253D01*
X118575337Y-99837975D01*
X118580249Y-99838772D01*
X119619750Y-99838772D01*
X119623873Y-99838772D01*
X119631732Y-99836388D01*
X119651381Y-99832480D01*
X119666258Y-99829521D01*
X119672354Y-99828920D01*
X119672386Y-99828911D01*
X119683311Y-99826174D01*
X119693515Y-99816926D01*
X119744552Y-99782824D01*
X119788867Y-99716503D01*
X119788867Y-99716501D01*
X119788868Y-99716501D01*
X119791030Y-99705627D01*
X119791166Y-99705362D01*
X119791249Y-99704528D01*
X119800068Y-99660189D01*
X119800500Y-99658203D01*
X119800500Y-98600465D01*
X119805522Y-98565532D01*
X119806039Y-98563772D01*
X119809433Y-98552213D01*
X119847206Y-98493436D01*
X119910751Y-98464412D01*
X119915506Y-98463728D01*
X119965349Y-98470814D01*
X119966324Y-98467176D01*
X119979902Y-98470814D01*
X120090691Y-98500500D01*
X120090694Y-98500500D01*
X120209306Y-98500500D01*
X120209309Y-98500500D01*
X120323886Y-98469799D01*
X120378021Y-98438543D01*
X120407917Y-98426160D01*
X120438388Y-98417995D01*
X120470476Y-98413772D01*
X120797670Y-98413772D01*
X120832606Y-98418795D01*
X120847604Y-98423199D01*
X120906355Y-98460944D01*
X120907542Y-98462313D01*
X120935018Y-98517174D01*
X120936663Y-98524732D01*
X120939500Y-98551103D01*
X120939500Y-99658024D01*
X120951131Y-99716501D01*
X120951132Y-99716502D01*
X120951132Y-99716503D01*
X120951134Y-99716505D01*
X120995447Y-99782824D01*
X121061765Y-99827136D01*
X121061767Y-99827138D01*
X121061770Y-99827140D01*
X121112612Y-99837253D01*
X121115337Y-99837975D01*
X121120249Y-99838772D01*
X122159750Y-99838772D01*
X122163873Y-99838772D01*
X122171732Y-99836388D01*
X122191381Y-99832480D01*
X122206258Y-99829521D01*
X122212354Y-99828920D01*
X122212386Y-99828911D01*
X122223311Y-99826174D01*
X122233515Y-99816926D01*
X122284552Y-99782824D01*
X122328867Y-99716503D01*
X122328867Y-99716501D01*
X122328868Y-99716501D01*
X122331030Y-99705627D01*
X122331166Y-99705362D01*
X122331249Y-99704528D01*
X122340068Y-99660189D01*
X122340500Y-99658203D01*
X122340500Y-98416201D01*
X122344737Y-98400529D01*
X122344129Y-98386422D01*
X122345521Y-98381274D01*
X122347560Y-98374328D01*
X122348707Y-98370419D01*
X122355907Y-98359215D01*
X122357394Y-98353716D01*
X122362567Y-98344849D01*
X122369112Y-98338664D01*
X122386477Y-98311640D01*
X122408225Y-98301706D01*
X122413352Y-98296862D01*
X122422664Y-98295110D01*
X122450031Y-98282611D01*
X122472214Y-98285793D01*
X122482018Y-98283950D01*
X122494416Y-98288978D01*
X122519132Y-98292524D01*
X122519695Y-98292781D01*
X122537547Y-98306472D01*
X122546765Y-98310211D01*
X122551881Y-98317465D01*
X122563863Y-98326654D01*
X122565293Y-98328386D01*
X122577059Y-98345332D01*
X122602782Y-98389884D01*
X122602783Y-98389885D01*
X122686659Y-98473761D01*
X122789386Y-98533071D01*
X122903963Y-98563772D01*
X122903966Y-98563772D01*
X123022578Y-98563772D01*
X123022581Y-98563772D01*
X123137158Y-98533071D01*
X123239885Y-98473761D01*
X123250952Y-98462693D01*
X123278892Y-98441716D01*
X123278908Y-98441706D01*
X123290482Y-98435387D01*
X123290939Y-98435093D01*
X123293217Y-98433841D01*
X123325374Y-98426749D01*
X123357267Y-98418579D01*
X123359326Y-98419262D01*
X123361447Y-98418795D01*
X123392331Y-98430214D01*
X123423581Y-98440584D01*
X123425826Y-98442599D01*
X123426981Y-98443026D01*
X123428396Y-98444905D01*
X123446667Y-98461303D01*
X123447569Y-98462344D01*
X123459549Y-98486275D01*
X123469011Y-98498840D01*
X123469564Y-98506280D01*
X123475018Y-98517174D01*
X123476663Y-98524732D01*
X123479500Y-98551103D01*
X123479500Y-99658024D01*
X123491131Y-99716501D01*
X123491132Y-99716502D01*
X123491132Y-99716503D01*
X123491134Y-99716505D01*
X123535447Y-99782824D01*
X123601765Y-99827136D01*
X123601767Y-99827138D01*
X123601770Y-99827140D01*
X123652612Y-99837253D01*
X123655337Y-99837975D01*
X123660249Y-99838772D01*
X124699750Y-99838772D01*
X124703873Y-99838772D01*
X124711732Y-99836388D01*
X124731381Y-99832480D01*
X124746258Y-99829521D01*
X124752354Y-99828920D01*
X124752386Y-99828911D01*
X124763311Y-99826174D01*
X124773515Y-99816926D01*
X124824552Y-99782824D01*
X124868867Y-99716503D01*
X124868867Y-99716501D01*
X124868868Y-99716501D01*
X124871030Y-99705627D01*
X124871166Y-99705362D01*
X124871249Y-99704528D01*
X124880068Y-99660189D01*
X124880500Y-99658203D01*
X124880500Y-98483321D01*
X124885521Y-98448394D01*
X124887564Y-98441436D01*
X124888707Y-98437539D01*
X124926477Y-98378760D01*
X124990031Y-98349731D01*
X125059183Y-98359667D01*
X125063605Y-98361687D01*
X125100928Y-98388433D01*
X125101130Y-98388232D01*
X125102351Y-98389453D01*
X125102366Y-98389463D01*
X125102434Y-98389536D01*
X125102783Y-98389885D01*
X125186659Y-98473761D01*
X125289386Y-98533071D01*
X125403963Y-98563772D01*
X125403966Y-98563772D01*
X125522578Y-98563772D01*
X125522581Y-98563772D01*
X125637158Y-98533071D01*
X125739885Y-98473761D01*
X125750952Y-98462693D01*
X125776758Y-98442917D01*
X125777962Y-98442223D01*
X125790482Y-98435387D01*
X125796035Y-98431818D01*
X125798655Y-98430310D01*
X125829785Y-98422797D01*
X125860522Y-98413772D01*
X125877670Y-98413772D01*
X125912606Y-98418795D01*
X125927604Y-98423199D01*
X125986355Y-98460944D01*
X125987542Y-98462313D01*
X126015018Y-98517174D01*
X126016663Y-98524732D01*
X126019500Y-98551103D01*
X126019500Y-99658024D01*
X126031131Y-99716501D01*
X126031132Y-99716502D01*
X126031132Y-99716503D01*
X126031134Y-99716505D01*
X126075447Y-99782824D01*
X126141765Y-99827136D01*
X126141767Y-99827138D01*
X126141770Y-99827140D01*
X126192612Y-99837253D01*
X126195337Y-99837975D01*
X126200249Y-99838772D01*
X127239750Y-99838772D01*
X127243873Y-99838772D01*
X127251732Y-99836388D01*
X127271381Y-99832480D01*
X127286258Y-99829521D01*
X127292354Y-99828920D01*
X127292386Y-99828911D01*
X127303311Y-99826174D01*
X127313515Y-99816926D01*
X127364552Y-99782824D01*
X127408867Y-99716503D01*
X127408867Y-99716501D01*
X127408868Y-99716501D01*
X127411030Y-99705627D01*
X127411166Y-99705362D01*
X127411249Y-99704528D01*
X127420068Y-99660189D01*
X127420500Y-99658203D01*
X127420500Y-96470998D01*
X127420500Y-96468521D01*
X127420499Y-96468519D01*
X128559500Y-96468519D01*
X128559500Y-99658024D01*
X128571131Y-99716501D01*
X128571132Y-99716502D01*
X128571132Y-99716503D01*
X128571134Y-99716505D01*
X128615447Y-99782824D01*
X128681765Y-99827136D01*
X128681767Y-99827138D01*
X128681770Y-99827140D01*
X128732612Y-99837253D01*
X128735337Y-99837975D01*
X128740249Y-99838772D01*
X129779750Y-99838772D01*
X129783873Y-99838772D01*
X129791732Y-99836388D01*
X129811381Y-99832480D01*
X129826258Y-99829521D01*
X129832354Y-99828920D01*
X129832386Y-99828911D01*
X129843311Y-99826174D01*
X129853515Y-99816926D01*
X129904552Y-99782824D01*
X129948867Y-99716503D01*
X129948867Y-99716501D01*
X129948868Y-99716501D01*
X129951030Y-99705627D01*
X129951166Y-99705362D01*
X129951249Y-99704528D01*
X129960068Y-99660189D01*
X129960500Y-99658203D01*
X129960500Y-98731646D01*
X129965522Y-98696713D01*
X129969433Y-98683394D01*
X130007206Y-98624617D01*
X130070758Y-98595592D01*
X130079174Y-98594382D01*
X130128920Y-98597345D01*
X130140691Y-98600500D01*
X130140693Y-98600500D01*
X130259306Y-98600500D01*
X130259309Y-98600500D01*
X130373886Y-98569799D01*
X130476613Y-98510489D01*
X130560489Y-98426613D01*
X130619799Y-98323886D01*
X130650500Y-98209309D01*
X130650500Y-98090691D01*
X130619799Y-97976114D01*
X130560489Y-97873387D01*
X130476613Y-97789511D01*
X130373886Y-97730201D01*
X130259309Y-97699500D01*
X130259306Y-97699500D01*
X130140683Y-97699500D01*
X130133803Y-97701344D01*
X130098769Y-97705532D01*
X130084897Y-97705202D01*
X130018345Y-97683929D01*
X129973859Y-97630053D01*
X129970506Y-97622221D01*
X129960500Y-97573421D01*
X129960500Y-96470998D01*
X129960500Y-96468521D01*
X129960499Y-96468519D01*
X131099500Y-96468519D01*
X131099500Y-99658024D01*
X131111131Y-99716501D01*
X131111132Y-99716502D01*
X131111132Y-99716503D01*
X131111134Y-99716505D01*
X131155447Y-99782824D01*
X131221765Y-99827136D01*
X131221767Y-99827138D01*
X131221770Y-99827140D01*
X131272612Y-99837253D01*
X131275337Y-99837975D01*
X131280249Y-99838772D01*
X132319750Y-99838772D01*
X132323873Y-99838772D01*
X132331732Y-99836388D01*
X132351381Y-99832480D01*
X132366258Y-99829521D01*
X132372354Y-99828920D01*
X132372386Y-99828911D01*
X132383311Y-99826174D01*
X132393515Y-99816926D01*
X132444552Y-99782824D01*
X132488867Y-99716503D01*
X132488867Y-99716501D01*
X132488868Y-99716501D01*
X132491030Y-99705627D01*
X132491166Y-99705362D01*
X132491249Y-99704528D01*
X132500068Y-99660189D01*
X132500500Y-99658203D01*
X132500500Y-98678967D01*
X132505522Y-98644034D01*
X132509433Y-98630715D01*
X132547206Y-98571938D01*
X132610758Y-98542913D01*
X132619181Y-98541702D01*
X132668923Y-98544666D01*
X132690691Y-98550500D01*
X132690694Y-98550500D01*
X132809306Y-98550500D01*
X132809309Y-98550500D01*
X132923886Y-98519799D01*
X133026613Y-98460489D01*
X133110489Y-98376613D01*
X133169799Y-98273886D01*
X133200500Y-98159309D01*
X133200500Y-98040691D01*
X133169799Y-97926114D01*
X133110489Y-97823387D01*
X133026613Y-97739511D01*
X132923886Y-97680201D01*
X132809309Y-97649500D01*
X132809306Y-97649500D01*
X132690680Y-97649500D01*
X132673810Y-97654021D01*
X132673809Y-97654021D01*
X132673806Y-97654023D01*
X132638761Y-97658211D01*
X132624888Y-97657880D01*
X132558337Y-97636602D01*
X132513857Y-97582726D01*
X132513515Y-97581927D01*
X132510510Y-97574910D01*
X132500500Y-97526101D01*
X132500500Y-96470998D01*
X132500500Y-96468521D01*
X132500499Y-96468519D01*
X133639500Y-96468519D01*
X133639500Y-99658024D01*
X133651131Y-99716501D01*
X133651132Y-99716502D01*
X133651132Y-99716503D01*
X133651134Y-99716505D01*
X133695447Y-99782824D01*
X133761765Y-99827136D01*
X133761767Y-99827138D01*
X133761770Y-99827140D01*
X133812612Y-99837253D01*
X133815337Y-99837975D01*
X133820249Y-99838772D01*
X134859750Y-99838772D01*
X134863873Y-99838772D01*
X134871732Y-99836388D01*
X134891381Y-99832480D01*
X134906258Y-99829521D01*
X134912354Y-99828920D01*
X134912386Y-99828911D01*
X134923311Y-99826174D01*
X134933515Y-99816926D01*
X134984552Y-99782824D01*
X135028867Y-99716503D01*
X135028867Y-99716501D01*
X135028868Y-99716501D01*
X135031030Y-99705627D01*
X135031166Y-99705362D01*
X135031249Y-99704528D01*
X135040068Y-99660189D01*
X135040500Y-99658203D01*
X135040500Y-98676287D01*
X135045522Y-98641354D01*
X135049433Y-98628035D01*
X135087206Y-98569258D01*
X135101541Y-98562711D01*
X135150755Y-98540233D01*
X135159173Y-98539023D01*
X135208916Y-98541985D01*
X135240691Y-98550500D01*
X135240693Y-98550500D01*
X135359306Y-98550500D01*
X135359309Y-98550500D01*
X135473886Y-98519799D01*
X135576613Y-98460489D01*
X135660489Y-98376613D01*
X135719799Y-98273886D01*
X135750500Y-98159309D01*
X135750500Y-98040691D01*
X135719799Y-97926114D01*
X135660489Y-97823387D01*
X135576613Y-97739511D01*
X135473886Y-97680201D01*
X135359309Y-97649500D01*
X135359306Y-97649500D01*
X135240689Y-97649500D01*
X135213809Y-97656702D01*
X135178771Y-97660891D01*
X135164898Y-97660561D01*
X135098346Y-97639288D01*
X135053860Y-97585411D01*
X135053856Y-97585403D01*
X135050509Y-97577586D01*
X135040500Y-97528779D01*
X135040500Y-96470998D01*
X135040500Y-96468521D01*
X135040499Y-96468519D01*
X136179500Y-96468519D01*
X136179500Y-99658024D01*
X136191131Y-99716501D01*
X136191132Y-99716502D01*
X136191132Y-99716503D01*
X136191134Y-99716505D01*
X136235447Y-99782824D01*
X136301765Y-99827136D01*
X136301767Y-99827138D01*
X136301770Y-99827140D01*
X136352612Y-99837253D01*
X136355337Y-99837975D01*
X136360249Y-99838772D01*
X137399750Y-99838772D01*
X137403873Y-99838772D01*
X137411732Y-99836388D01*
X137431381Y-99832480D01*
X137446258Y-99829521D01*
X137452354Y-99828920D01*
X137452386Y-99828911D01*
X137463311Y-99826174D01*
X137473515Y-99816926D01*
X137524552Y-99782824D01*
X137568867Y-99716503D01*
X137568867Y-99716501D01*
X137568868Y-99716501D01*
X137571030Y-99705627D01*
X137571166Y-99705362D01*
X137571249Y-99704528D01*
X137580068Y-99660189D01*
X137580500Y-99658203D01*
X137580500Y-98692329D01*
X137581199Y-98687470D01*
X137585523Y-98657393D01*
X137589927Y-98642395D01*
X137627672Y-98583644D01*
X137627700Y-98583619D01*
X137627699Y-98583619D01*
X137629041Y-98582456D01*
X137683920Y-98554977D01*
X137691479Y-98553333D01*
X137717832Y-98550500D01*
X137809306Y-98550500D01*
X137809309Y-98550500D01*
X137923886Y-98519799D01*
X138026613Y-98460489D01*
X138110489Y-98376613D01*
X138169799Y-98273886D01*
X138200500Y-98159309D01*
X138200500Y-98040691D01*
X138169799Y-97926114D01*
X138110489Y-97823387D01*
X138026613Y-97739511D01*
X137923886Y-97680201D01*
X137809309Y-97649500D01*
X137809306Y-97649500D01*
X137722330Y-97649500D01*
X137722325Y-97649499D01*
X137722323Y-97649500D01*
X137687389Y-97644475D01*
X137672390Y-97640070D01*
X137613644Y-97602327D01*
X137613615Y-97602293D01*
X137613614Y-97602293D01*
X137613613Y-97602291D01*
X137612457Y-97600958D01*
X137584977Y-97546083D01*
X137583332Y-97538521D01*
X137580500Y-97512168D01*
X137580500Y-96470998D01*
X137580500Y-96468521D01*
X137580499Y-96468519D01*
X138719500Y-96468519D01*
X138719500Y-99658024D01*
X138731131Y-99716501D01*
X138731132Y-99716502D01*
X138731132Y-99716503D01*
X138731134Y-99716505D01*
X138775447Y-99782824D01*
X138841765Y-99827136D01*
X138841767Y-99827138D01*
X138841770Y-99827140D01*
X138892612Y-99837253D01*
X138895337Y-99837975D01*
X138900249Y-99838772D01*
X139939750Y-99838772D01*
X139943873Y-99838772D01*
X139951732Y-99836388D01*
X139971381Y-99832480D01*
X139986258Y-99829521D01*
X139992354Y-99828920D01*
X139992386Y-99828911D01*
X140003311Y-99826174D01*
X140013515Y-99816926D01*
X140064552Y-99782824D01*
X140108867Y-99716503D01*
X140108867Y-99716501D01*
X140108868Y-99716501D01*
X140111030Y-99705627D01*
X140111166Y-99705362D01*
X140111249Y-99704528D01*
X140120068Y-99660189D01*
X140120500Y-99658203D01*
X140120500Y-98634326D01*
X140125522Y-98599393D01*
X140126123Y-98597346D01*
X140129433Y-98586074D01*
X140167206Y-98527297D01*
X140230758Y-98498272D01*
X140239174Y-98497062D01*
X140282602Y-98499649D01*
X140282630Y-98499439D01*
X140285579Y-98499827D01*
X140288924Y-98500026D01*
X140290691Y-98500500D01*
X140290694Y-98500500D01*
X140409306Y-98500500D01*
X140409309Y-98500500D01*
X140523886Y-98469799D01*
X140626613Y-98410489D01*
X140710489Y-98326613D01*
X140769799Y-98223886D01*
X140800500Y-98109309D01*
X140800500Y-97990691D01*
X140769799Y-97876114D01*
X140710489Y-97773387D01*
X140626613Y-97689511D01*
X140523886Y-97630201D01*
X140409309Y-97599500D01*
X140409306Y-97599500D01*
X140290689Y-97599500D01*
X140290688Y-97599500D01*
X140290687Y-97599500D01*
X140282631Y-97600561D01*
X140282558Y-97600009D01*
X140258761Y-97602853D01*
X140244888Y-97602522D01*
X140178337Y-97581244D01*
X140133855Y-97527363D01*
X140133057Y-97525500D01*
X140130508Y-97519547D01*
X140120500Y-97470742D01*
X140120500Y-96470998D01*
X140120500Y-96468521D01*
X140120499Y-96468519D01*
X141259500Y-96468519D01*
X141259500Y-99658024D01*
X141271131Y-99716501D01*
X141271132Y-99716502D01*
X141271132Y-99716503D01*
X141271134Y-99716505D01*
X141315447Y-99782824D01*
X141381765Y-99827136D01*
X141381767Y-99827138D01*
X141381770Y-99827140D01*
X141432612Y-99837253D01*
X141435337Y-99837975D01*
X141440249Y-99838772D01*
X142479750Y-99838772D01*
X142483873Y-99838772D01*
X142491732Y-99836388D01*
X142511381Y-99832480D01*
X142526258Y-99829521D01*
X142532354Y-99828920D01*
X142532386Y-99828911D01*
X142543311Y-99826174D01*
X142553515Y-99816926D01*
X142604552Y-99782824D01*
X142648867Y-99716503D01*
X142648867Y-99716501D01*
X142648868Y-99716501D01*
X142651030Y-99705627D01*
X142651166Y-99705362D01*
X142651249Y-99704528D01*
X142660068Y-99660189D01*
X142660500Y-99658203D01*
X142660500Y-98631646D01*
X142665522Y-98596713D01*
X142669433Y-98583394D01*
X142707206Y-98524617D01*
X142770758Y-98495592D01*
X142779174Y-98494382D01*
X142828920Y-98497345D01*
X142840691Y-98500500D01*
X142840693Y-98500500D01*
X142959306Y-98500500D01*
X142959309Y-98500500D01*
X143073886Y-98469799D01*
X143176613Y-98410489D01*
X143260489Y-98326613D01*
X143319799Y-98223886D01*
X143350500Y-98109309D01*
X143350500Y-97990691D01*
X143319799Y-97876114D01*
X143260489Y-97773387D01*
X143176613Y-97689511D01*
X143073886Y-97630201D01*
X142959309Y-97599500D01*
X142959306Y-97599500D01*
X142840683Y-97599500D01*
X142833803Y-97601344D01*
X142798769Y-97605532D01*
X142784897Y-97605202D01*
X142718345Y-97583929D01*
X142673859Y-97530053D01*
X142670506Y-97522221D01*
X142660500Y-97473421D01*
X142660500Y-96470998D01*
X142660500Y-96468521D01*
X142660499Y-96468519D01*
X143799500Y-96468519D01*
X143799500Y-99658024D01*
X143811131Y-99716501D01*
X143811132Y-99716502D01*
X143811132Y-99716503D01*
X143811134Y-99716505D01*
X143855447Y-99782824D01*
X143921765Y-99827136D01*
X143921767Y-99827138D01*
X143921770Y-99827140D01*
X143972612Y-99837253D01*
X143975337Y-99837975D01*
X143980249Y-99838772D01*
X145019750Y-99838772D01*
X145023873Y-99838772D01*
X145031732Y-99836388D01*
X145051381Y-99832480D01*
X145066258Y-99829521D01*
X145072354Y-99828920D01*
X145072386Y-99828911D01*
X145083311Y-99826174D01*
X145093515Y-99816926D01*
X145144552Y-99782824D01*
X145188867Y-99716503D01*
X145188867Y-99716501D01*
X145188868Y-99716501D01*
X145191030Y-99705627D01*
X145191166Y-99705362D01*
X145191249Y-99704528D01*
X145200068Y-99660189D01*
X145200500Y-99658203D01*
X145200500Y-98555596D01*
X145202369Y-98534147D01*
X145204006Y-98524826D01*
X145205405Y-98521996D01*
X145205522Y-98520665D01*
X145206805Y-98516295D01*
X145207776Y-98516580D01*
X145211879Y-98500507D01*
X145211187Y-98500249D01*
X145212248Y-98497403D01*
X145212891Y-98496543D01*
X145213349Y-98494750D01*
X145214587Y-98492040D01*
X145215834Y-98492610D01*
X145227965Y-98476399D01*
X145234990Y-98462202D01*
X145241520Y-98458286D01*
X145250512Y-98446270D01*
X145249612Y-98445233D01*
X145250511Y-98444453D01*
X145252581Y-98443506D01*
X145254110Y-98441463D01*
X145254147Y-98441436D01*
X145256586Y-98439611D01*
X145257736Y-98441147D01*
X145314048Y-98415388D01*
X145347947Y-98415174D01*
X145361339Y-98416937D01*
X145377220Y-98420095D01*
X145490691Y-98450500D01*
X145490694Y-98450500D01*
X145609306Y-98450500D01*
X145609309Y-98450500D01*
X145723886Y-98419799D01*
X145826613Y-98360489D01*
X145910489Y-98276613D01*
X145969799Y-98173886D01*
X146000500Y-98059309D01*
X146000500Y-97940691D01*
X145969799Y-97826114D01*
X145910489Y-97723387D01*
X145826613Y-97639511D01*
X145723886Y-97580201D01*
X145609309Y-97549500D01*
X145609306Y-97549500D01*
X145490691Y-97549500D01*
X145393473Y-97575548D01*
X145393474Y-97575549D01*
X145377434Y-97579847D01*
X145358587Y-97583362D01*
X145340420Y-97585314D01*
X145271661Y-97572904D01*
X145220527Y-97525291D01*
X145220526Y-97525288D01*
X145217853Y-97520782D01*
X145200500Y-97457518D01*
X145200500Y-96470998D01*
X145200500Y-96468521D01*
X145200499Y-96468519D01*
X146339500Y-96468519D01*
X146339500Y-99658024D01*
X146351131Y-99716501D01*
X146351132Y-99716502D01*
X146351132Y-99716503D01*
X146351134Y-99716505D01*
X146395447Y-99782824D01*
X146461765Y-99827136D01*
X146461767Y-99827138D01*
X146461770Y-99827140D01*
X146512612Y-99837253D01*
X146515337Y-99837975D01*
X146520249Y-99838772D01*
X147559750Y-99838772D01*
X147563873Y-99838772D01*
X147571732Y-99836388D01*
X147591381Y-99832480D01*
X147606258Y-99829521D01*
X147612354Y-99828920D01*
X147612386Y-99828911D01*
X147623311Y-99826174D01*
X147633515Y-99816926D01*
X147684552Y-99782824D01*
X147728867Y-99716503D01*
X147728867Y-99716501D01*
X147728868Y-99716501D01*
X147731030Y-99705627D01*
X147731166Y-99705362D01*
X147731249Y-99704528D01*
X147740068Y-99660189D01*
X147740500Y-99658203D01*
X147740500Y-98645238D01*
X147745522Y-98610305D01*
X147746357Y-98607461D01*
X147749433Y-98596986D01*
X147787206Y-98538209D01*
X147850758Y-98509184D01*
X147852374Y-98508952D01*
X147910575Y-98514510D01*
X147918382Y-98517213D01*
X147918382Y-98517212D01*
X147921587Y-98518322D01*
X147928631Y-98521128D01*
X147933530Y-98522456D01*
X147944791Y-98526354D01*
X147946592Y-98526106D01*
X147960302Y-98528959D01*
X148040691Y-98550500D01*
X148040694Y-98550500D01*
X148159306Y-98550500D01*
X148159309Y-98550500D01*
X148273886Y-98519799D01*
X148376613Y-98460489D01*
X148460489Y-98376613D01*
X148519799Y-98273886D01*
X148550500Y-98159309D01*
X148550500Y-98040691D01*
X148519799Y-97926114D01*
X148460489Y-97823387D01*
X148376613Y-97739511D01*
X148273886Y-97680201D01*
X148159309Y-97649500D01*
X148159306Y-97649500D01*
X148040689Y-97649500D01*
X147960150Y-97671079D01*
X147960151Y-97671080D01*
X147932609Y-97678460D01*
X147929745Y-97679191D01*
X147906608Y-97684802D01*
X147895682Y-97687452D01*
X147825892Y-97684126D01*
X147768981Y-97643597D01*
X147767976Y-97642319D01*
X147743687Y-97589126D01*
X147742739Y-97584205D01*
X147740500Y-97560748D01*
X147740500Y-96470567D01*
X147740500Y-96468521D01*
X147740499Y-96468519D01*
X147728868Y-96410042D01*
X147728867Y-96410041D01*
X147684552Y-96343719D01*
X147648146Y-96319393D01*
X147628385Y-96306189D01*
X147623641Y-96302296D01*
X147618230Y-96299404D01*
X147618229Y-96299403D01*
X147559752Y-96287772D01*
X147559750Y-96287772D01*
X146520249Y-96287772D01*
X146520247Y-96287772D01*
X146461770Y-96299403D01*
X146461769Y-96299403D01*
X146461768Y-96299404D01*
X146461765Y-96299405D01*
X146461759Y-96299410D01*
X146395447Y-96343719D01*
X146351138Y-96410031D01*
X146351133Y-96410037D01*
X146351132Y-96410040D01*
X146351132Y-96410041D01*
X146351131Y-96410042D01*
X146339500Y-96468519D01*
X145200499Y-96468519D01*
X145199361Y-96462800D01*
X145199360Y-96462789D01*
X145188868Y-96410042D01*
X145185975Y-96404630D01*
X145182081Y-96399885D01*
X145180956Y-96398202D01*
X145144552Y-96343719D01*
X145108146Y-96319393D01*
X145088385Y-96306189D01*
X145083641Y-96302296D01*
X145078230Y-96299404D01*
X145078229Y-96299403D01*
X145019752Y-96287772D01*
X145019750Y-96287772D01*
X143980249Y-96287772D01*
X143980247Y-96287772D01*
X143921770Y-96299403D01*
X143921769Y-96299403D01*
X143921768Y-96299404D01*
X143921765Y-96299405D01*
X143921759Y-96299410D01*
X143855447Y-96343719D01*
X143811138Y-96410031D01*
X143811133Y-96410037D01*
X143811132Y-96410040D01*
X143811132Y-96410041D01*
X143811131Y-96410042D01*
X143799500Y-96468519D01*
X142660499Y-96468519D01*
X142659361Y-96462800D01*
X142659360Y-96462789D01*
X142648868Y-96410042D01*
X142645975Y-96404630D01*
X142642081Y-96399885D01*
X142640956Y-96398202D01*
X142604552Y-96343719D01*
X142568146Y-96319393D01*
X142548385Y-96306189D01*
X142543641Y-96302296D01*
X142538230Y-96299404D01*
X142538229Y-96299403D01*
X142479752Y-96287772D01*
X142479750Y-96287772D01*
X141440249Y-96287772D01*
X141440247Y-96287772D01*
X141381770Y-96299403D01*
X141381769Y-96299403D01*
X141381768Y-96299404D01*
X141381765Y-96299405D01*
X141381759Y-96299410D01*
X141315447Y-96343719D01*
X141271138Y-96410031D01*
X141271133Y-96410037D01*
X141271132Y-96410040D01*
X141271132Y-96410041D01*
X141271131Y-96410042D01*
X141259500Y-96468519D01*
X140120499Y-96468519D01*
X140119361Y-96462800D01*
X140119360Y-96462789D01*
X140108868Y-96410042D01*
X140105975Y-96404630D01*
X140102081Y-96399885D01*
X140100956Y-96398202D01*
X140064552Y-96343719D01*
X140028146Y-96319393D01*
X140008385Y-96306189D01*
X140003641Y-96302296D01*
X139998230Y-96299404D01*
X139998229Y-96299403D01*
X139939752Y-96287772D01*
X139939750Y-96287772D01*
X138900249Y-96287772D01*
X138900247Y-96287772D01*
X138841770Y-96299403D01*
X138841769Y-96299403D01*
X138841768Y-96299404D01*
X138841765Y-96299405D01*
X138841759Y-96299410D01*
X138775447Y-96343719D01*
X138731138Y-96410031D01*
X138731133Y-96410037D01*
X138731132Y-96410040D01*
X138731132Y-96410041D01*
X138731131Y-96410042D01*
X138719500Y-96468519D01*
X137580499Y-96468519D01*
X137579361Y-96462800D01*
X137579360Y-96462789D01*
X137568868Y-96410042D01*
X137565975Y-96404630D01*
X137562081Y-96399885D01*
X137560956Y-96398202D01*
X137524552Y-96343719D01*
X137488146Y-96319393D01*
X137468385Y-96306189D01*
X137463641Y-96302296D01*
X137458230Y-96299404D01*
X137458229Y-96299403D01*
X137399752Y-96287772D01*
X137399750Y-96287772D01*
X136360249Y-96287772D01*
X136360247Y-96287772D01*
X136301770Y-96299403D01*
X136301769Y-96299403D01*
X136301768Y-96299404D01*
X136301765Y-96299405D01*
X136301759Y-96299410D01*
X136235447Y-96343719D01*
X136191138Y-96410031D01*
X136191133Y-96410037D01*
X136191132Y-96410040D01*
X136191132Y-96410041D01*
X136191131Y-96410042D01*
X136179500Y-96468519D01*
X135040499Y-96468519D01*
X135039361Y-96462800D01*
X135039360Y-96462789D01*
X135028868Y-96410042D01*
X135025975Y-96404630D01*
X135022081Y-96399885D01*
X135020956Y-96398202D01*
X134984552Y-96343719D01*
X134948146Y-96319393D01*
X134928385Y-96306189D01*
X134923641Y-96302296D01*
X134918230Y-96299404D01*
X134918229Y-96299403D01*
X134859752Y-96287772D01*
X134859750Y-96287772D01*
X133820249Y-96287772D01*
X133820247Y-96287772D01*
X133761770Y-96299403D01*
X133761769Y-96299403D01*
X133761768Y-96299404D01*
X133761765Y-96299405D01*
X133761759Y-96299410D01*
X133695447Y-96343719D01*
X133651138Y-96410031D01*
X133651133Y-96410037D01*
X133651132Y-96410040D01*
X133651132Y-96410041D01*
X133651131Y-96410042D01*
X133639500Y-96468519D01*
X132500499Y-96468519D01*
X132499361Y-96462800D01*
X132499360Y-96462789D01*
X132488868Y-96410042D01*
X132485975Y-96404630D01*
X132482081Y-96399885D01*
X132480956Y-96398202D01*
X132444552Y-96343719D01*
X132408146Y-96319393D01*
X132388385Y-96306189D01*
X132383641Y-96302296D01*
X132378230Y-96299404D01*
X132378229Y-96299403D01*
X132319752Y-96287772D01*
X132319750Y-96287772D01*
X131280249Y-96287772D01*
X131280247Y-96287772D01*
X131221770Y-96299403D01*
X131221769Y-96299403D01*
X131221768Y-96299404D01*
X131221765Y-96299405D01*
X131221759Y-96299410D01*
X131155447Y-96343719D01*
X131111138Y-96410031D01*
X131111133Y-96410037D01*
X131111132Y-96410040D01*
X131111132Y-96410041D01*
X131111131Y-96410042D01*
X131099500Y-96468519D01*
X129960499Y-96468519D01*
X129959361Y-96462800D01*
X129959360Y-96462789D01*
X129948868Y-96410042D01*
X129945975Y-96404630D01*
X129942081Y-96399885D01*
X129940956Y-96398202D01*
X129904552Y-96343719D01*
X129868146Y-96319393D01*
X129848385Y-96306189D01*
X129843641Y-96302296D01*
X129838230Y-96299404D01*
X129838229Y-96299403D01*
X129779752Y-96287772D01*
X129779750Y-96287772D01*
X128740249Y-96287772D01*
X128740247Y-96287772D01*
X128681770Y-96299403D01*
X128681769Y-96299403D01*
X128681768Y-96299404D01*
X128681765Y-96299405D01*
X128681759Y-96299410D01*
X128615447Y-96343719D01*
X128571138Y-96410031D01*
X128571133Y-96410037D01*
X128571132Y-96410040D01*
X128571132Y-96410041D01*
X128571131Y-96410042D01*
X128559500Y-96468519D01*
X127420499Y-96468519D01*
X127419361Y-96462800D01*
X127419360Y-96462789D01*
X127408868Y-96410042D01*
X127405975Y-96404630D01*
X127402081Y-96399885D01*
X127400956Y-96398202D01*
X127364552Y-96343719D01*
X127328146Y-96319393D01*
X127308385Y-96306189D01*
X127303641Y-96302296D01*
X127298230Y-96299404D01*
X127298229Y-96299403D01*
X127239752Y-96287772D01*
X127239750Y-96287772D01*
X126200249Y-96287772D01*
X126200247Y-96287772D01*
X126141770Y-96299403D01*
X126141769Y-96299403D01*
X126141768Y-96299404D01*
X126141765Y-96299405D01*
X126141759Y-96299410D01*
X126075447Y-96343719D01*
X126031138Y-96410031D01*
X126031133Y-96410037D01*
X126031132Y-96410040D01*
X126031132Y-96410041D01*
X126031131Y-96410042D01*
X126020640Y-96462789D01*
X126019500Y-96468521D01*
X126019500Y-97670938D01*
X126017631Y-97692384D01*
X126015993Y-97701712D01*
X126014592Y-97704543D01*
X126014476Y-97705876D01*
X126013193Y-97710245D01*
X126012225Y-97709960D01*
X126008111Y-97726079D01*
X126008797Y-97726335D01*
X126007734Y-97729183D01*
X126007105Y-97730022D01*
X126006659Y-97731772D01*
X126005422Y-97734481D01*
X126004189Y-97733918D01*
X125995252Y-97745859D01*
X125992406Y-97755566D01*
X125987054Y-97760206D01*
X125985011Y-97764337D01*
X125978499Y-97768241D01*
X125969399Y-97780399D01*
X125970273Y-97781409D01*
X125969217Y-97782323D01*
X125967307Y-97783194D01*
X125965910Y-97785062D01*
X125963470Y-97786890D01*
X125962385Y-97785442D01*
X125953025Y-97789715D01*
X125939619Y-97801341D01*
X125905758Y-97811296D01*
X125904322Y-97811503D01*
X125886630Y-97812772D01*
X125869066Y-97812772D01*
X125834130Y-97807749D01*
X125808888Y-97800337D01*
X125756143Y-97769041D01*
X125739887Y-97752785D01*
X125739885Y-97752783D01*
X125637158Y-97693473D01*
X125522581Y-97662772D01*
X125522578Y-97662772D01*
X125403963Y-97662772D01*
X125313000Y-97687145D01*
X125312995Y-97687146D01*
X125289386Y-97693473D01*
X125289384Y-97693473D01*
X125289384Y-97693474D01*
X125268219Y-97705693D01*
X125268211Y-97705697D01*
X125186659Y-97752782D01*
X125109768Y-97829673D01*
X125106004Y-97832326D01*
X125104644Y-97834513D01*
X125095200Y-97842143D01*
X125079332Y-97853727D01*
X125065012Y-97858872D01*
X125057647Y-97862367D01*
X125053425Y-97863036D01*
X125013580Y-97877356D01*
X124993011Y-97872622D01*
X124988640Y-97873316D01*
X124980511Y-97869745D01*
X124945490Y-97861686D01*
X124932973Y-97848865D01*
X124924669Y-97845218D01*
X124914610Y-97830056D01*
X124896682Y-97811692D01*
X124894955Y-97808436D01*
X124891767Y-97795623D01*
X124886044Y-97786996D01*
X124885821Y-97771724D01*
X124880500Y-97750334D01*
X124880500Y-96468335D01*
X124880069Y-96466353D01*
X124868868Y-96410042D01*
X124865975Y-96404630D01*
X124862081Y-96399885D01*
X124860956Y-96398202D01*
X124824552Y-96343719D01*
X124788146Y-96319393D01*
X124768385Y-96306189D01*
X124763641Y-96302296D01*
X124758230Y-96299404D01*
X124758229Y-96299403D01*
X124699752Y-96287772D01*
X124699750Y-96287772D01*
X123660249Y-96287772D01*
X123660247Y-96287772D01*
X123601770Y-96299403D01*
X123601769Y-96299403D01*
X123601768Y-96299404D01*
X123601765Y-96299405D01*
X123601759Y-96299410D01*
X123535447Y-96343719D01*
X123491138Y-96410031D01*
X123491133Y-96410037D01*
X123491132Y-96410040D01*
X123491132Y-96410041D01*
X123491131Y-96410042D01*
X123480640Y-96462789D01*
X123479500Y-96468521D01*
X123479500Y-97670938D01*
X123477631Y-97692384D01*
X123475993Y-97701712D01*
X123474592Y-97704543D01*
X123474476Y-97705876D01*
X123473193Y-97710245D01*
X123472225Y-97709960D01*
X123468106Y-97726098D01*
X123468790Y-97726354D01*
X123468464Y-97727227D01*
X123467485Y-97728532D01*
X123466659Y-97731772D01*
X123465422Y-97734481D01*
X123463639Y-97733666D01*
X123453467Y-97747243D01*
X123445011Y-97764337D01*
X123437112Y-97769073D01*
X123426571Y-97783144D01*
X123392451Y-97795855D01*
X123385089Y-97800270D01*
X123380945Y-97800141D01*
X123361097Y-97807536D01*
X123317370Y-97802827D01*
X123308895Y-97800339D01*
X123256143Y-97769041D01*
X123239887Y-97752785D01*
X123239885Y-97752783D01*
X123137158Y-97693473D01*
X123022581Y-97662772D01*
X123022578Y-97662772D01*
X122903963Y-97662772D01*
X122813000Y-97687145D01*
X122812995Y-97687146D01*
X122789386Y-97693473D01*
X122789384Y-97693473D01*
X122789384Y-97693474D01*
X122768219Y-97705693D01*
X122768211Y-97705697D01*
X122686658Y-97752783D01*
X122686650Y-97752789D01*
X122602789Y-97836650D01*
X122602784Y-97836657D01*
X122602774Y-97836673D01*
X122580797Y-97874736D01*
X122569282Y-97886195D01*
X122562740Y-97898736D01*
X122558986Y-97902471D01*
X122550800Y-97910276D01*
X122538937Y-97916392D01*
X122534892Y-97920419D01*
X122525980Y-97925507D01*
X122517229Y-97927585D01*
X122488700Y-97942294D01*
X122464871Y-97940019D01*
X122458001Y-97941651D01*
X122449069Y-97938511D01*
X122419147Y-97935655D01*
X122401524Y-97921797D01*
X122392085Y-97918479D01*
X122383843Y-97907893D01*
X122364224Y-97892466D01*
X122364177Y-97892400D01*
X122363820Y-97891898D01*
X122355234Y-97871150D01*
X122349161Y-97863350D01*
X122348363Y-97854546D01*
X122342588Y-97840590D01*
X122342216Y-97838377D01*
X122340500Y-97817821D01*
X122340500Y-96468335D01*
X122340069Y-96466353D01*
X122328868Y-96410042D01*
X122325975Y-96404630D01*
X122322081Y-96399885D01*
X122320956Y-96398202D01*
X122284552Y-96343719D01*
X122248146Y-96319393D01*
X122228385Y-96306189D01*
X122223641Y-96302296D01*
X122218230Y-96299404D01*
X122218229Y-96299403D01*
X122159752Y-96287772D01*
X122159750Y-96287772D01*
X121120249Y-96287772D01*
X121120247Y-96287772D01*
X121061770Y-96299403D01*
X121061769Y-96299403D01*
X121061768Y-96299404D01*
X121061765Y-96299405D01*
X121061759Y-96299410D01*
X120995447Y-96343719D01*
X120951138Y-96410031D01*
X120951133Y-96410037D01*
X120951132Y-96410040D01*
X120951132Y-96410041D01*
X120951131Y-96410042D01*
X120940640Y-96462789D01*
X120939500Y-96468521D01*
X120939500Y-97670938D01*
X120937631Y-97692384D01*
X120935993Y-97701712D01*
X120934592Y-97704543D01*
X120934476Y-97705876D01*
X120933193Y-97710245D01*
X120932225Y-97709960D01*
X120928111Y-97726079D01*
X120928797Y-97726335D01*
X120927734Y-97729183D01*
X120927105Y-97730022D01*
X120926659Y-97731772D01*
X120925422Y-97734481D01*
X120924189Y-97733918D01*
X120915252Y-97745859D01*
X120912406Y-97755566D01*
X120907054Y-97760206D01*
X120905011Y-97764337D01*
X120898499Y-97768241D01*
X120889399Y-97780399D01*
X120890273Y-97781409D01*
X120889217Y-97782323D01*
X120887307Y-97783194D01*
X120885910Y-97785062D01*
X120883470Y-97786890D01*
X120882385Y-97785442D01*
X120873025Y-97789715D01*
X120859619Y-97801341D01*
X120825758Y-97811296D01*
X120824322Y-97811503D01*
X120806630Y-97812772D01*
X120619066Y-97812772D01*
X120584130Y-97807749D01*
X120558888Y-97800337D01*
X120506143Y-97769041D01*
X120426615Y-97689513D01*
X120426613Y-97689511D01*
X120323886Y-97630201D01*
X120209309Y-97599500D01*
X120209306Y-97599500D01*
X120090691Y-97599500D01*
X120012355Y-97620490D01*
X120012354Y-97620490D01*
X119977431Y-97629847D01*
X119958587Y-97633362D01*
X119940421Y-97635314D01*
X119871662Y-97622905D01*
X119820528Y-97575291D01*
X119820526Y-97575288D01*
X119817853Y-97570782D01*
X119800500Y-97507518D01*
X119800500Y-96470567D01*
X119800500Y-96468521D01*
X119800499Y-96468519D01*
X119788868Y-96410042D01*
X119788867Y-96410041D01*
X119744552Y-96343719D01*
X119708146Y-96319393D01*
X119688385Y-96306189D01*
X119683641Y-96302296D01*
X119678230Y-96299404D01*
X119678229Y-96299403D01*
X119619752Y-96287772D01*
X119619750Y-96287772D01*
X118580249Y-96287772D01*
X118580247Y-96287772D01*
X118521770Y-96299403D01*
X118521769Y-96299403D01*
X118521768Y-96299404D01*
X118521765Y-96299405D01*
X118521759Y-96299410D01*
X118455447Y-96343719D01*
X118411138Y-96410031D01*
X118411133Y-96410037D01*
X118411132Y-96410040D01*
X118411132Y-96410041D01*
X118411131Y-96410042D01*
X118400640Y-96462789D01*
X118399500Y-96468521D01*
X118399500Y-97670938D01*
X118397631Y-97692384D01*
X118395993Y-97701712D01*
X118394592Y-97704543D01*
X118394476Y-97705876D01*
X118393193Y-97710245D01*
X118392225Y-97709960D01*
X118388111Y-97726079D01*
X118388797Y-97726335D01*
X118387734Y-97729183D01*
X118387105Y-97730022D01*
X118386659Y-97731772D01*
X118385422Y-97734481D01*
X118384189Y-97733918D01*
X118375252Y-97745859D01*
X118372406Y-97755566D01*
X118367054Y-97760206D01*
X118365011Y-97764337D01*
X118358499Y-97768241D01*
X118349399Y-97780399D01*
X118350273Y-97781409D01*
X118349217Y-97782323D01*
X118347307Y-97783194D01*
X118345910Y-97785062D01*
X118343470Y-97786890D01*
X118342385Y-97785442D01*
X118333025Y-97789715D01*
X118319619Y-97801341D01*
X118285758Y-97811296D01*
X118284322Y-97811503D01*
X118266630Y-97812772D01*
X118119066Y-97812772D01*
X118084130Y-97807749D01*
X118058888Y-97800337D01*
X118006143Y-97769041D01*
X117926615Y-97689513D01*
X117926613Y-97689511D01*
X117823886Y-97630201D01*
X117709309Y-97599500D01*
X117709306Y-97599500D01*
X117590691Y-97599500D01*
X117512355Y-97620490D01*
X117512354Y-97620489D01*
X117476110Y-97630201D01*
X117476107Y-97630202D01*
X117461941Y-97638380D01*
X117461941Y-97638382D01*
X117461938Y-97638383D01*
X117461935Y-97638385D01*
X117431521Y-97650561D01*
X117429176Y-97651500D01*
X117415691Y-97654772D01*
X117345900Y-97651451D01*
X117288988Y-97610928D01*
X117287973Y-97609637D01*
X117263685Y-97556437D01*
X117262735Y-97551511D01*
X117260500Y-97528072D01*
X117260500Y-96470567D01*
X117260500Y-96468521D01*
X117260499Y-96468519D01*
X117248868Y-96410042D01*
X117248867Y-96410041D01*
X117204552Y-96343719D01*
X117168146Y-96319393D01*
X117148385Y-96306189D01*
X117143641Y-96302296D01*
X117138230Y-96299404D01*
X117138229Y-96299403D01*
X117079752Y-96287772D01*
X117079750Y-96287772D01*
X116040249Y-96287772D01*
X116040247Y-96287772D01*
X115981770Y-96299403D01*
X115981769Y-96299403D01*
X115981768Y-96299404D01*
X115981765Y-96299405D01*
X115981759Y-96299410D01*
X115915447Y-96343719D01*
X115871138Y-96410031D01*
X115871133Y-96410037D01*
X115871132Y-96410040D01*
X115871132Y-96410041D01*
X115871131Y-96410042D01*
X115860640Y-96462789D01*
X115859500Y-96468521D01*
X115859500Y-97670938D01*
X115857631Y-97692384D01*
X115855993Y-97701712D01*
X115854592Y-97704543D01*
X115854476Y-97705876D01*
X115853193Y-97710245D01*
X115852225Y-97709960D01*
X115848111Y-97726079D01*
X115848797Y-97726335D01*
X115847734Y-97729183D01*
X115847105Y-97730022D01*
X115846659Y-97731772D01*
X115845422Y-97734481D01*
X115844189Y-97733918D01*
X115835252Y-97745859D01*
X115832406Y-97755566D01*
X115827054Y-97760206D01*
X115825011Y-97764337D01*
X115818499Y-97768241D01*
X115809399Y-97780399D01*
X115810273Y-97781409D01*
X115809217Y-97782323D01*
X115807307Y-97783194D01*
X115805910Y-97785062D01*
X115803470Y-97786890D01*
X115802385Y-97785442D01*
X115793025Y-97789715D01*
X115779619Y-97801341D01*
X115745758Y-97811296D01*
X115744322Y-97811503D01*
X115726630Y-97812772D01*
X115619066Y-97812772D01*
X115584130Y-97807749D01*
X115558888Y-97800337D01*
X115506143Y-97769041D01*
X115426615Y-97689513D01*
X115426613Y-97689511D01*
X115323886Y-97630201D01*
X115209309Y-97599500D01*
X115209306Y-97599500D01*
X115090691Y-97599500D01*
X115012355Y-97620490D01*
X115012354Y-97620489D01*
X114976111Y-97630201D01*
X114976106Y-97630203D01*
X114921936Y-97661479D01*
X114921935Y-97661480D01*
X114889171Y-97674596D01*
X114875685Y-97677868D01*
X114805894Y-97674543D01*
X114748982Y-97634014D01*
X114747973Y-97632731D01*
X114723685Y-97579531D01*
X114722735Y-97574605D01*
X114720500Y-97551166D01*
X114720500Y-96470567D01*
X114720500Y-96468521D01*
X114720499Y-96468519D01*
X114708868Y-96410042D01*
X114708867Y-96410041D01*
X114664552Y-96343719D01*
X114628146Y-96319393D01*
X114608385Y-96306189D01*
X114603641Y-96302296D01*
X114598230Y-96299404D01*
X114598229Y-96299403D01*
X114539752Y-96287772D01*
X114539750Y-96287772D01*
X113500249Y-96287772D01*
X113500247Y-96287772D01*
X113441770Y-96299403D01*
X113441769Y-96299403D01*
X113441768Y-96299404D01*
X113441765Y-96299405D01*
X113441759Y-96299410D01*
X113375447Y-96343719D01*
X113331138Y-96410031D01*
X113331133Y-96410037D01*
X113331132Y-96410040D01*
X113331132Y-96410041D01*
X113331131Y-96410042D01*
X113320640Y-96462789D01*
X113319500Y-96468521D01*
X113319500Y-97670938D01*
X113317631Y-97692384D01*
X113315993Y-97701712D01*
X113314592Y-97704543D01*
X113314476Y-97705876D01*
X113313193Y-97710245D01*
X113312225Y-97709960D01*
X113308111Y-97726079D01*
X113308797Y-97726335D01*
X113307734Y-97729183D01*
X113307105Y-97730022D01*
X113306659Y-97731772D01*
X113305422Y-97734481D01*
X113304189Y-97733918D01*
X113295252Y-97745859D01*
X113292406Y-97755566D01*
X113287054Y-97760206D01*
X113285011Y-97764337D01*
X113278499Y-97768241D01*
X113269399Y-97780399D01*
X113270273Y-97781409D01*
X113269217Y-97782323D01*
X113267307Y-97783194D01*
X113265910Y-97785062D01*
X113263470Y-97786890D01*
X113262385Y-97785442D01*
X113253025Y-97789715D01*
X113239619Y-97801341D01*
X113205758Y-97811296D01*
X113204322Y-97811503D01*
X113186630Y-97812772D01*
X113119066Y-97812772D01*
X113084130Y-97807749D01*
X113058888Y-97800337D01*
X113006143Y-97769041D01*
X112926615Y-97689513D01*
X112926613Y-97689511D01*
X112823886Y-97630201D01*
X112709309Y-97599500D01*
X112709306Y-97599500D01*
X112590691Y-97599500D01*
X112499732Y-97623872D01*
X112499728Y-97623873D01*
X112476114Y-97630201D01*
X112476112Y-97630201D01*
X112476112Y-97630202D01*
X112459989Y-97639511D01*
X112454942Y-97642424D01*
X112454939Y-97642426D01*
X112387521Y-97681350D01*
X112387503Y-97681357D01*
X112387504Y-97681359D01*
X112381922Y-97684581D01*
X112367526Y-97690343D01*
X112364733Y-97691600D01*
X112364727Y-97691602D01*
X112364686Y-97691480D01*
X112349174Y-97697690D01*
X112335694Y-97700961D01*
X112317904Y-97700114D01*
X112300598Y-97704320D01*
X112283728Y-97698488D01*
X112265903Y-97697640D01*
X112251387Y-97687308D01*
X112234563Y-97681492D01*
X112209010Y-97657145D01*
X112208874Y-97656972D01*
X112208003Y-97655864D01*
X112183686Y-97602630D01*
X112182737Y-97597705D01*
X112182124Y-97591289D01*
X112182014Y-97591013D01*
X112182070Y-97590719D01*
X112180500Y-97574258D01*
X112180500Y-96470567D01*
X112180500Y-96468521D01*
X112180499Y-96468519D01*
X112168868Y-96410042D01*
X112168867Y-96410041D01*
X112124552Y-96343719D01*
X112088146Y-96319393D01*
X112068385Y-96306189D01*
X112063641Y-96302296D01*
X112058230Y-96299404D01*
X112058229Y-96299403D01*
X111999752Y-96287772D01*
X111999750Y-96287772D01*
X110960249Y-96287772D01*
X110960247Y-96287772D01*
X110901770Y-96299403D01*
X110901769Y-96299403D01*
X110901768Y-96299404D01*
X110901765Y-96299405D01*
X110901759Y-96299410D01*
X110835447Y-96343719D01*
X110791138Y-96410031D01*
X110791133Y-96410037D01*
X110791132Y-96410040D01*
X110791132Y-96410041D01*
X110791131Y-96410042D01*
X110780640Y-96462789D01*
X110779500Y-96468521D01*
X110779500Y-97670938D01*
X110777631Y-97692384D01*
X110775993Y-97701712D01*
X110774592Y-97704543D01*
X110774476Y-97705876D01*
X110773193Y-97710245D01*
X110772225Y-97709960D01*
X110768111Y-97726079D01*
X110768797Y-97726335D01*
X110767734Y-97729183D01*
X110767105Y-97730022D01*
X110766659Y-97731772D01*
X110765422Y-97734481D01*
X110764189Y-97733918D01*
X110755252Y-97745859D01*
X110752406Y-97755566D01*
X110747054Y-97760206D01*
X110745011Y-97764337D01*
X110738499Y-97768241D01*
X110729399Y-97780399D01*
X110730273Y-97781409D01*
X110729217Y-97782323D01*
X110727307Y-97783194D01*
X110725910Y-97785062D01*
X110723470Y-97786890D01*
X110722385Y-97785442D01*
X110713025Y-97789715D01*
X110699619Y-97801341D01*
X110665758Y-97811296D01*
X110664322Y-97811503D01*
X110646630Y-97812772D01*
X110619066Y-97812772D01*
X110584130Y-97807749D01*
X110558888Y-97800337D01*
X110506143Y-97769041D01*
X110426615Y-97689513D01*
X110426613Y-97689511D01*
X110323886Y-97630201D01*
X110209309Y-97599500D01*
X110209306Y-97599500D01*
X110090691Y-97599500D01*
X109999728Y-97623873D01*
X109999723Y-97623874D01*
X109976114Y-97630201D01*
X109976112Y-97630201D01*
X109976112Y-97630202D01*
X109954947Y-97642421D01*
X109954939Y-97642425D01*
X109873386Y-97689511D01*
X109873383Y-97689513D01*
X109864787Y-97698110D01*
X109836533Y-97719261D01*
X109826607Y-97724681D01*
X109758334Y-97739533D01*
X109692870Y-97715116D01*
X109650999Y-97659185D01*
X109649074Y-97654023D01*
X109648313Y-97651981D01*
X109640500Y-97608661D01*
X109640500Y-96470567D01*
X109640500Y-96468521D01*
X109640499Y-96468519D01*
X109628868Y-96410042D01*
X109628867Y-96410041D01*
X109584552Y-96343719D01*
X109548146Y-96319393D01*
X109528385Y-96306189D01*
X109523641Y-96302296D01*
X109518230Y-96299404D01*
X109518229Y-96299403D01*
X109459752Y-96287772D01*
X109459750Y-96287772D01*
X108420249Y-96287772D01*
X108420247Y-96287772D01*
X108361770Y-96299403D01*
X108361769Y-96299403D01*
X108361768Y-96299404D01*
X108361765Y-96299405D01*
X108361759Y-96299410D01*
X108295447Y-96343719D01*
X108251138Y-96410031D01*
X108251133Y-96410037D01*
X108251132Y-96410040D01*
X108251132Y-96410041D01*
X108251131Y-96410042D01*
X108239500Y-96468519D01*
X108239500Y-99658024D01*
X108251131Y-99716501D01*
X108251132Y-99716502D01*
X108251132Y-99716503D01*
X108251134Y-99716505D01*
X108295447Y-99782824D01*
X108361765Y-99827136D01*
X108361767Y-99827138D01*
X108361770Y-99827140D01*
X108402819Y-99835305D01*
X108402821Y-99835305D01*
X108420247Y-99838771D01*
X108420250Y-99838772D01*
X108420252Y-99838772D01*
X108499884Y-99838772D01*
X108502096Y-99838851D01*
X108505044Y-99839832D01*
X108532606Y-99843795D01*
X108547604Y-99848199D01*
X108566332Y-99860231D01*
X108568390Y-99860916D01*
X108569454Y-99862237D01*
X108606355Y-99885944D01*
X108607542Y-99887313D01*
X108635018Y-99942174D01*
X108636663Y-99949732D01*
X108639500Y-99976103D01*
X108639500Y-103229564D01*
X108656425Y-103292726D01*
X108657072Y-103295139D01*
X108659980Y-103305992D01*
X108661233Y-103308161D01*
X108663984Y-103316992D01*
X108664001Y-103318068D01*
X108665893Y-103323796D01*
X108667272Y-103329314D01*
X108679402Y-103339881D01*
X108682297Y-103344644D01*
X108699539Y-103374510D01*
X108699541Y-103374512D01*
X108699545Y-103374517D01*
X108900240Y-103575211D01*
X108910252Y-103588585D01*
X108921389Y-103603461D01*
X108926810Y-103613388D01*
X108941664Y-103681661D01*
X108917250Y-103747126D01*
X108861318Y-103788999D01*
X108861314Y-103789001D01*
X108854126Y-103791682D01*
X108810792Y-103799500D01*
X107035730Y-103799500D01*
X107017074Y-103801249D01*
X107011069Y-103801812D01*
X107007499Y-103801978D01*
X107005297Y-103802353D01*
X106877118Y-103847206D01*
X106767849Y-103927849D01*
X106687206Y-104037118D01*
X106642353Y-104165297D01*
X106641978Y-104167499D01*
X106641877Y-104169664D01*
X106641901Y-104170070D01*
X106641850Y-104170655D01*
X106639500Y-104195730D01*
X78200500Y-104195730D01*
X78200500Y-94126623D01*
X101466120Y-94126623D01*
X101503568Y-94363057D01*
X101504298Y-94367663D01*
X101504299Y-94367666D01*
X101504300Y-94367670D01*
X101579717Y-94599779D01*
X101688174Y-94812639D01*
X101690517Y-94817236D01*
X101690520Y-94817241D01*
X101690522Y-94817244D01*
X101786635Y-94949532D01*
X101833960Y-95014670D01*
X101833964Y-95014675D01*
X101833969Y-95014681D01*
X102006532Y-95187244D01*
X102006536Y-95187247D01*
X102006539Y-95187250D01*
X102006544Y-95187254D01*
X102006561Y-95187266D01*
X102160875Y-95299381D01*
X102160876Y-95299382D01*
X102203977Y-95330697D01*
X102203979Y-95330698D01*
X102203982Y-95330700D01*
X102421436Y-95441498D01*
X102653545Y-95516915D01*
X102894594Y-95555094D01*
X102894595Y-95555094D01*
X103138647Y-95555094D01*
X103138648Y-95555094D01*
X103379697Y-95516915D01*
X103611806Y-95441498D01*
X103829260Y-95330700D01*
X104026704Y-95187249D01*
X104199276Y-95014677D01*
X104342727Y-94817233D01*
X104453525Y-94599779D01*
X104528942Y-94367670D01*
X104567121Y-94126621D01*
X104567121Y-93882567D01*
X104528942Y-93641518D01*
X104453525Y-93409409D01*
X104342861Y-93192218D01*
X104342730Y-93191959D01*
X104342725Y-93191952D01*
X104342724Y-93191950D01*
X104257428Y-93074550D01*
X104199285Y-92994522D01*
X104199280Y-92994515D01*
X104199278Y-92994513D01*
X104199269Y-92994503D01*
X104026708Y-92821942D01*
X104026703Y-92821938D01*
X104026702Y-92821937D01*
X104026697Y-92821933D01*
X103874417Y-92711296D01*
X103839860Y-92686189D01*
X103839858Y-92686188D01*
X103829263Y-92678490D01*
X103829262Y-92678489D01*
X103829260Y-92678488D01*
X103801487Y-92664337D01*
X103611810Y-92567691D01*
X103393224Y-92496667D01*
X103393210Y-92496663D01*
X103379697Y-92492273D01*
X103379695Y-92492272D01*
X103379693Y-92492272D01*
X103365296Y-92489991D01*
X103365289Y-92489990D01*
X103211390Y-92465615D01*
X103194526Y-92462944D01*
X103138652Y-92454094D01*
X103138648Y-92454094D01*
X102894594Y-92454094D01*
X102894590Y-92454094D01*
X102838714Y-92462944D01*
X102653551Y-92492271D01*
X102421430Y-92567692D01*
X102203974Y-92678492D01*
X102006561Y-92821920D01*
X102006532Y-92821942D01*
X101833969Y-92994505D01*
X101833947Y-92994534D01*
X101690519Y-93191947D01*
X101579719Y-93409401D01*
X101504299Y-93641520D01*
X101466121Y-93882567D01*
X101466121Y-94126621D01*
X101466120Y-94126623D01*
X78200500Y-94126623D01*
X78200500Y-92004577D01*
X78200537Y-92001559D01*
X78200611Y-91998519D01*
X78200723Y-91995452D01*
X78210041Y-91805798D01*
X78218336Y-91636927D01*
X78218349Y-91636666D01*
X78218795Y-91630637D01*
X78219394Y-91624550D01*
X78220129Y-91618589D01*
X78253974Y-91390418D01*
X107940000Y-91390418D01*
X107940000Y-91390427D01*
X107940000Y-92763272D01*
X108200000Y-92763272D01*
X108200000Y-93263272D01*
X107940000Y-93263272D01*
X107940000Y-94636124D01*
X107946400Y-94695642D01*
X107946402Y-94695649D01*
X107971524Y-94763004D01*
X107996645Y-94830358D01*
X107996649Y-94830365D01*
X108015465Y-94855500D01*
X108082807Y-94945457D01*
X108082813Y-94945463D01*
X108103993Y-94961318D01*
X108197906Y-95031622D01*
X108197913Y-95031626D01*
X108332620Y-95081868D01*
X108332627Y-95081870D01*
X108339468Y-95082605D01*
X108392138Y-95088270D01*
X108392155Y-95088271D01*
X108392172Y-95088272D01*
X108690000Y-95088272D01*
X108690000Y-94650000D01*
X109190000Y-94650000D01*
X109190000Y-95088272D01*
X109487828Y-95088272D01*
X109487836Y-95088272D01*
X109487847Y-95088271D01*
X109523560Y-95084430D01*
X109547372Y-95081870D01*
X109547379Y-95081868D01*
X109682086Y-95031626D01*
X109682093Y-95031622D01*
X109797187Y-94945462D01*
X109797190Y-94945459D01*
X109883350Y-94830365D01*
X109883354Y-94830358D01*
X109933596Y-94695651D01*
X109933598Y-94695644D01*
X109936732Y-94666501D01*
X109938507Y-94650000D01*
X110126000Y-94650000D01*
X110177511Y-94638794D01*
X110230315Y-94593039D01*
X110250000Y-94526000D01*
X110250000Y-91624003D01*
X110694500Y-91624003D01*
X110694500Y-94526007D01*
X110699197Y-94569686D01*
X110710397Y-94621174D01*
X110712890Y-94631372D01*
X110712891Y-94631375D01*
X110755899Y-94712083D01*
X110755901Y-94712086D01*
X110801660Y-94764895D01*
X110813656Y-94777138D01*
X110819246Y-94782843D01*
X110819247Y-94782844D01*
X110819249Y-94782845D01*
X110899059Y-94827488D01*
X110899063Y-94827490D01*
X110966102Y-94847175D01*
X111024000Y-94855500D01*
X114275991Y-94855500D01*
X114276000Y-94855500D01*
X114319684Y-94850803D01*
X114348875Y-94844452D01*
X114371174Y-94839602D01*
X114371190Y-94839598D01*
X114371195Y-94839597D01*
X114381373Y-94837110D01*
X114444747Y-94803338D01*
X114454838Y-94800464D01*
X114460434Y-94796329D01*
X114484077Y-94792137D01*
X114494967Y-94789036D01*
X114499002Y-94788772D01*
X114539750Y-94788772D01*
X114539751Y-94788771D01*
X114554568Y-94785824D01*
X114586258Y-94779521D01*
X114592354Y-94778920D01*
X114592386Y-94778911D01*
X114603311Y-94776174D01*
X114613515Y-94766926D01*
X114664552Y-94732824D01*
X114708867Y-94666503D01*
X114708867Y-94666501D01*
X114708868Y-94666501D01*
X114711030Y-94655627D01*
X114711166Y-94655362D01*
X114711249Y-94654528D01*
X114714912Y-94636116D01*
X114720072Y-94610168D01*
X114720500Y-94608203D01*
X114720500Y-91474000D01*
X115150000Y-91474000D01*
X115150000Y-94376000D01*
X115161206Y-94427511D01*
X115206961Y-94480315D01*
X115274000Y-94500000D01*
X115560000Y-94500000D01*
X115560000Y-94636124D01*
X115566400Y-94695642D01*
X115566402Y-94695649D01*
X115591524Y-94763004D01*
X115616645Y-94830358D01*
X115616649Y-94830365D01*
X115635465Y-94855500D01*
X115702807Y-94945457D01*
X115702813Y-94945463D01*
X115723993Y-94961318D01*
X115817906Y-95031622D01*
X115817913Y-95031626D01*
X115952620Y-95081868D01*
X115952627Y-95081870D01*
X115959468Y-95082605D01*
X116012138Y-95088270D01*
X116012155Y-95088271D01*
X116012172Y-95088272D01*
X116310000Y-95088272D01*
X116310000Y-94500000D01*
X116810000Y-94500000D01*
X116810000Y-95088272D01*
X117107828Y-95088272D01*
X117107836Y-95088272D01*
X117107847Y-95088271D01*
X117143560Y-95084430D01*
X117167372Y-95081870D01*
X117167379Y-95081868D01*
X117302086Y-95031626D01*
X117302093Y-95031622D01*
X117417187Y-94945462D01*
X117417188Y-94945461D01*
X117433551Y-94923602D01*
X117458506Y-94898649D01*
X117460455Y-94897190D01*
X117525919Y-94872773D01*
X117594192Y-94887625D01*
X117636212Y-94925151D01*
X117661633Y-94961318D01*
X117674296Y-94979334D01*
X117682756Y-94993226D01*
X117693958Y-95014670D01*
X117760302Y-95141679D01*
X117762167Y-95144219D01*
X117764278Y-95146555D01*
X117888887Y-95299378D01*
X117888888Y-95299379D01*
X117888890Y-95299381D01*
X117982803Y-95375956D01*
X118046593Y-95427970D01*
X118226951Y-95522181D01*
X118422582Y-95578158D01*
X118541963Y-95588772D01*
X119658036Y-95588771D01*
X119777418Y-95578158D01*
X119973049Y-95522181D01*
X119978006Y-95519592D01*
X120035418Y-95505500D01*
X120704582Y-95505500D01*
X120761994Y-95519592D01*
X120766950Y-95522181D01*
X120802552Y-95532368D01*
X120962582Y-95578158D01*
X121081963Y-95588772D01*
X122198036Y-95588771D01*
X122317418Y-95578158D01*
X122513049Y-95522181D01*
X122518006Y-95519592D01*
X122575418Y-95505500D01*
X123244582Y-95505500D01*
X123301994Y-95519592D01*
X123306950Y-95522181D01*
X123342552Y-95532368D01*
X123502582Y-95578158D01*
X123621963Y-95588772D01*
X124738036Y-95588771D01*
X124857418Y-95578158D01*
X125053049Y-95522181D01*
X125058006Y-95519592D01*
X125115418Y-95505500D01*
X125784582Y-95505500D01*
X125841994Y-95519592D01*
X125846950Y-95522181D01*
X125882552Y-95532368D01*
X126042582Y-95578158D01*
X126161963Y-95588772D01*
X127278036Y-95588771D01*
X127397418Y-95578158D01*
X127593049Y-95522181D01*
X127773407Y-95427970D01*
X127931109Y-95299381D01*
X128059698Y-95141679D01*
X128153909Y-94961321D01*
X128153912Y-94961310D01*
X128156239Y-94955487D01*
X128157216Y-94955877D01*
X128166809Y-94934477D01*
X128173538Y-94923847D01*
X128226019Y-94877730D01*
X128295107Y-94867307D01*
X128355777Y-94893338D01*
X128363434Y-94899465D01*
X128385224Y-94921968D01*
X128402812Y-94945462D01*
X128517906Y-95031622D01*
X128517913Y-95031626D01*
X128652620Y-95081868D01*
X128652627Y-95081870D01*
X128659468Y-95082605D01*
X128712138Y-95088270D01*
X128712155Y-95088271D01*
X128712172Y-95088272D01*
X129010000Y-95088272D01*
X129010000Y-94650000D01*
X129510000Y-94650000D01*
X129510000Y-95088272D01*
X129807828Y-95088272D01*
X129807836Y-95088272D01*
X129807847Y-95088271D01*
X129843560Y-95084430D01*
X129867372Y-95081870D01*
X129867379Y-95081868D01*
X130002086Y-95031626D01*
X130002093Y-95031622D01*
X130117187Y-94945462D01*
X130117190Y-94945459D01*
X130203350Y-94830365D01*
X130203354Y-94830358D01*
X130253596Y-94695651D01*
X130253598Y-94695644D01*
X130256732Y-94666501D01*
X130258507Y-94650000D01*
X130801492Y-94650000D01*
X130806400Y-94695642D01*
X130806402Y-94695649D01*
X130831524Y-94763004D01*
X130856645Y-94830358D01*
X130856649Y-94830365D01*
X130875465Y-94855500D01*
X130942807Y-94945457D01*
X130942813Y-94945463D01*
X130963993Y-94961318D01*
X131057906Y-95031622D01*
X131057913Y-95031626D01*
X131192620Y-95081868D01*
X131192627Y-95081870D01*
X131199468Y-95082605D01*
X131252138Y-95088270D01*
X131252155Y-95088271D01*
X131252172Y-95088272D01*
X131550000Y-95088272D01*
X131550000Y-94650000D01*
X132050000Y-94650000D01*
X132050000Y-95088272D01*
X132347828Y-95088272D01*
X132347836Y-95088272D01*
X132347847Y-95088271D01*
X132383560Y-95084430D01*
X132407372Y-95081870D01*
X132407379Y-95081868D01*
X132542086Y-95031626D01*
X132542093Y-95031622D01*
X132657187Y-94945462D01*
X132657190Y-94945459D01*
X132743350Y-94830365D01*
X132743354Y-94830358D01*
X132793596Y-94695651D01*
X132793598Y-94695644D01*
X132796732Y-94666501D01*
X132798507Y-94650000D01*
X133341492Y-94650000D01*
X133346400Y-94695642D01*
X133346402Y-94695649D01*
X133371524Y-94763004D01*
X133396645Y-94830358D01*
X133396649Y-94830365D01*
X133415465Y-94855500D01*
X133482807Y-94945457D01*
X133482813Y-94945463D01*
X133503993Y-94961318D01*
X133597906Y-95031622D01*
X133597913Y-95031626D01*
X133732620Y-95081868D01*
X133732627Y-95081870D01*
X133739468Y-95082605D01*
X133792138Y-95088270D01*
X133792155Y-95088271D01*
X133792172Y-95088272D01*
X134090000Y-95088272D01*
X134090000Y-94650000D01*
X134590000Y-94650000D01*
X134590000Y-95088272D01*
X134887828Y-95088272D01*
X134887836Y-95088272D01*
X134887847Y-95088271D01*
X134923560Y-95084430D01*
X134947372Y-95081870D01*
X134947379Y-95081868D01*
X135082086Y-95031626D01*
X135082093Y-95031622D01*
X135197187Y-94945462D01*
X135197190Y-94945459D01*
X135283350Y-94830365D01*
X135283354Y-94830358D01*
X135333596Y-94695651D01*
X135333598Y-94695644D01*
X135336732Y-94666501D01*
X135338507Y-94650000D01*
X135881492Y-94650000D01*
X135886400Y-94695642D01*
X135886402Y-94695649D01*
X135911524Y-94763004D01*
X135936645Y-94830358D01*
X135936649Y-94830365D01*
X135955465Y-94855500D01*
X136022807Y-94945457D01*
X136022813Y-94945463D01*
X136043993Y-94961318D01*
X136137906Y-95031622D01*
X136137913Y-95031626D01*
X136272620Y-95081868D01*
X136272627Y-95081870D01*
X136279468Y-95082605D01*
X136332138Y-95088270D01*
X136332155Y-95088271D01*
X136332172Y-95088272D01*
X136630000Y-95088272D01*
X136630000Y-94650000D01*
X137130000Y-94650000D01*
X137130000Y-95088272D01*
X137427828Y-95088272D01*
X137427836Y-95088272D01*
X137427847Y-95088271D01*
X137463560Y-95084430D01*
X137487372Y-95081870D01*
X137487379Y-95081868D01*
X137622086Y-95031626D01*
X137622093Y-95031622D01*
X137737187Y-94945462D01*
X137737190Y-94945459D01*
X137823350Y-94830365D01*
X137823354Y-94830358D01*
X137873596Y-94695651D01*
X137873598Y-94695644D01*
X137876732Y-94666501D01*
X137879998Y-94636132D01*
X137880000Y-94636099D01*
X137880000Y-93263272D01*
X137300000Y-93263272D01*
X137300000Y-92763272D01*
X137880000Y-92763272D01*
X137880000Y-91418519D01*
X138719500Y-91418519D01*
X138719500Y-94608024D01*
X138731131Y-94666501D01*
X138731132Y-94666502D01*
X138731132Y-94666503D01*
X138731134Y-94666505D01*
X138775447Y-94732824D01*
X138841765Y-94777136D01*
X138841767Y-94777138D01*
X138841770Y-94777140D01*
X138892612Y-94787253D01*
X138895337Y-94787975D01*
X138900249Y-94788772D01*
X139939750Y-94788772D01*
X139943873Y-94788772D01*
X139951732Y-94786388D01*
X139971381Y-94782480D01*
X139986258Y-94779521D01*
X139992354Y-94778920D01*
X139992386Y-94778911D01*
X140003311Y-94776174D01*
X140013515Y-94766926D01*
X140064552Y-94732824D01*
X140108867Y-94666503D01*
X140108867Y-94666501D01*
X140108868Y-94666501D01*
X140111030Y-94655627D01*
X140111166Y-94655362D01*
X140111249Y-94654528D01*
X140114912Y-94636116D01*
X140120072Y-94610168D01*
X140120500Y-94608203D01*
X140120500Y-91420998D01*
X140120500Y-91418521D01*
X140120499Y-91418519D01*
X141259500Y-91418519D01*
X141259500Y-94608024D01*
X141271131Y-94666501D01*
X141271132Y-94666502D01*
X141271132Y-94666503D01*
X141271134Y-94666505D01*
X141315447Y-94732824D01*
X141381765Y-94777136D01*
X141381767Y-94777138D01*
X141381770Y-94777140D01*
X141432612Y-94787253D01*
X141435337Y-94787975D01*
X141440249Y-94788772D01*
X142479750Y-94788772D01*
X142483873Y-94788772D01*
X142491732Y-94786388D01*
X142511381Y-94782480D01*
X142526258Y-94779521D01*
X142532354Y-94778920D01*
X142532386Y-94778911D01*
X142543311Y-94776174D01*
X142553515Y-94766926D01*
X142604552Y-94732824D01*
X142648867Y-94666503D01*
X142648867Y-94666501D01*
X142648868Y-94666501D01*
X142651030Y-94655627D01*
X142651166Y-94655362D01*
X142651249Y-94654528D01*
X142654912Y-94636116D01*
X142660072Y-94610168D01*
X142660500Y-94608203D01*
X142660500Y-93373956D01*
X142664740Y-93358279D01*
X142664134Y-93344155D01*
X142665521Y-93339029D01*
X142668707Y-93328176D01*
X142675917Y-93316954D01*
X142677406Y-93311451D01*
X142682580Y-93302586D01*
X142689118Y-93296410D01*
X142706477Y-93269395D01*
X142728245Y-93259451D01*
X142733373Y-93254609D01*
X142742673Y-93252861D01*
X142770031Y-93240366D01*
X142792234Y-93243551D01*
X142802042Y-93241709D01*
X142814428Y-93246735D01*
X142839132Y-93250279D01*
X142839695Y-93250536D01*
X142857555Y-93264237D01*
X142866784Y-93267982D01*
X142871902Y-93275242D01*
X142883881Y-93284431D01*
X142885312Y-93286165D01*
X142897060Y-93303089D01*
X142910350Y-93326106D01*
X142939511Y-93376613D01*
X143023387Y-93460489D01*
X143126114Y-93519799D01*
X143240691Y-93550500D01*
X143240694Y-93550500D01*
X143359306Y-93550500D01*
X143359309Y-93550500D01*
X143473886Y-93519799D01*
X143576613Y-93460489D01*
X143576620Y-93460481D01*
X143583059Y-93455542D01*
X143583516Y-93456137D01*
X143602650Y-93441550D01*
X143613938Y-93435387D01*
X143613947Y-93435380D01*
X143614504Y-93435077D01*
X143631915Y-93431289D01*
X143635709Y-93429217D01*
X143644799Y-93428486D01*
X143682777Y-93420224D01*
X143748242Y-93444639D01*
X143790115Y-93500571D01*
X143795097Y-93517537D01*
X143796663Y-93524732D01*
X143799500Y-93551103D01*
X143799500Y-94608024D01*
X143811131Y-94666501D01*
X143811132Y-94666502D01*
X143811132Y-94666503D01*
X143811134Y-94666505D01*
X143855447Y-94732824D01*
X143921765Y-94777136D01*
X143921767Y-94777138D01*
X143921770Y-94777140D01*
X143972612Y-94787253D01*
X143975337Y-94787975D01*
X143980249Y-94788772D01*
X145019750Y-94788772D01*
X145023873Y-94788772D01*
X145031732Y-94786388D01*
X145051381Y-94782480D01*
X145066258Y-94779521D01*
X145072354Y-94778920D01*
X145072386Y-94778911D01*
X145083311Y-94776174D01*
X145093515Y-94766926D01*
X145144552Y-94732824D01*
X145188867Y-94666503D01*
X145188867Y-94666501D01*
X145188868Y-94666501D01*
X145191030Y-94655627D01*
X145191166Y-94655362D01*
X145191249Y-94654528D01*
X145194912Y-94636116D01*
X145200072Y-94610168D01*
X145200500Y-94608203D01*
X145200500Y-91418336D01*
X145200080Y-91416405D01*
X145199066Y-91411310D01*
X145199066Y-91411306D01*
X145199064Y-91411299D01*
X145194910Y-91390418D01*
X146040000Y-91390418D01*
X146040000Y-91390427D01*
X146040000Y-92763272D01*
X146250000Y-92763272D01*
X146250000Y-93263272D01*
X146040000Y-93263272D01*
X146040000Y-94636124D01*
X146046400Y-94695642D01*
X146046402Y-94695649D01*
X146071524Y-94763004D01*
X146096645Y-94830358D01*
X146096649Y-94830365D01*
X146115465Y-94855500D01*
X146182807Y-94945457D01*
X146182813Y-94945463D01*
X146203993Y-94961318D01*
X146297906Y-95031622D01*
X146297913Y-95031626D01*
X146432620Y-95081868D01*
X146432627Y-95081870D01*
X146439468Y-95082605D01*
X146492138Y-95088270D01*
X146492155Y-95088271D01*
X146492172Y-95088272D01*
X146790000Y-95088272D01*
X146790000Y-94650000D01*
X147290000Y-94650000D01*
X147290000Y-95088272D01*
X147587828Y-95088272D01*
X147587836Y-95088272D01*
X147587847Y-95088271D01*
X147623560Y-95084430D01*
X147647372Y-95081870D01*
X147647379Y-95081868D01*
X147782086Y-95031626D01*
X147782093Y-95031622D01*
X147897187Y-94945462D01*
X147897190Y-94945459D01*
X147983350Y-94830365D01*
X147983354Y-94830358D01*
X148033596Y-94695651D01*
X148033598Y-94695644D01*
X148036732Y-94666501D01*
X148038507Y-94650000D01*
X148300000Y-94650000D01*
X148300000Y-93877973D01*
X151449500Y-93877973D01*
X151449500Y-93882165D01*
X151449500Y-94122029D01*
X151450228Y-94126621D01*
X151450227Y-94126621D01*
X151450229Y-94126630D01*
X151485978Y-94352342D01*
X151487679Y-94363077D01*
X151523978Y-94474793D01*
X151563096Y-94595185D01*
X151661733Y-94788772D01*
X151673896Y-94812642D01*
X151673899Y-94812647D01*
X151781917Y-94961321D01*
X151817339Y-95010076D01*
X151817343Y-95010081D01*
X151817348Y-95010087D01*
X151989911Y-95182650D01*
X151989915Y-95182653D01*
X151989918Y-95182656D01*
X151989923Y-95182660D01*
X152077386Y-95246205D01*
X152187361Y-95326106D01*
X152404815Y-95436904D01*
X152636924Y-95512321D01*
X152877973Y-95550500D01*
X152877974Y-95550500D01*
X153122026Y-95550500D01*
X153122027Y-95550500D01*
X153363076Y-95512321D01*
X153595185Y-95436904D01*
X153812639Y-95326106D01*
X154010083Y-95182655D01*
X154182655Y-95010083D01*
X154326106Y-94812639D01*
X154436904Y-94595185D01*
X154512321Y-94363076D01*
X154550500Y-94122027D01*
X154550500Y-93877973D01*
X154512321Y-93636924D01*
X154436904Y-93404815D01*
X154326106Y-93187361D01*
X154326103Y-93187357D01*
X154305726Y-93159311D01*
X154305725Y-93159309D01*
X154197307Y-93010083D01*
X154182660Y-92989923D01*
X154182656Y-92989918D01*
X154182653Y-92989915D01*
X154182650Y-92989911D01*
X154010087Y-92817348D01*
X154010082Y-92817344D01*
X154010081Y-92817343D01*
X154010076Y-92817339D01*
X153828011Y-92685062D01*
X153823239Y-92681595D01*
X153823237Y-92681594D01*
X153812642Y-92673896D01*
X153812641Y-92673895D01*
X153812639Y-92673894D01*
X153804948Y-92669975D01*
X153595189Y-92563097D01*
X153376603Y-92492073D01*
X153376589Y-92492069D01*
X153363076Y-92487679D01*
X153363074Y-92487678D01*
X153363072Y-92487678D01*
X153348675Y-92485397D01*
X153348668Y-92485396D01*
X153194769Y-92461021D01*
X153177905Y-92458350D01*
X153122031Y-92449500D01*
X153122027Y-92449500D01*
X152877973Y-92449500D01*
X152877969Y-92449500D01*
X152822093Y-92458350D01*
X152636930Y-92487677D01*
X152404809Y-92563098D01*
X152187353Y-92673898D01*
X151989940Y-92817326D01*
X151989911Y-92817348D01*
X151817348Y-92989911D01*
X151817326Y-92989940D01*
X151673898Y-93187353D01*
X151563098Y-93404809D01*
X151487677Y-93636930D01*
X151486950Y-93641521D01*
X151457944Y-93824659D01*
X151449500Y-93877973D01*
X148300000Y-93877973D01*
X148300000Y-91877973D01*
X172449500Y-91877973D01*
X172449500Y-92122031D01*
X172472568Y-92267674D01*
X172487679Y-92363076D01*
X172562186Y-92592384D01*
X172563097Y-92595187D01*
X172660885Y-92787108D01*
X172673893Y-92812637D01*
X172673899Y-92812648D01*
X172777847Y-92955720D01*
X172817339Y-93010076D01*
X172817343Y-93010081D01*
X172817348Y-93010087D01*
X172989911Y-93182650D01*
X172989915Y-93182653D01*
X172989918Y-93182656D01*
X172989923Y-93182660D01*
X173162136Y-93307779D01*
X173167190Y-93311451D01*
X173187359Y-93326105D01*
X173187361Y-93326106D01*
X173404815Y-93436904D01*
X173636924Y-93512321D01*
X173877973Y-93550500D01*
X173877974Y-93550500D01*
X174122026Y-93550500D01*
X174122027Y-93550500D01*
X174363076Y-93512321D01*
X174595185Y-93436904D01*
X174812639Y-93326106D01*
X175010083Y-93182655D01*
X175182655Y-93010083D01*
X175326106Y-92812639D01*
X175436904Y-92595185D01*
X175512321Y-92363076D01*
X175550500Y-92122027D01*
X175550500Y-91877973D01*
X175512321Y-91636924D01*
X175436904Y-91404815D01*
X175326106Y-91187361D01*
X175275139Y-91117211D01*
X175275138Y-91117209D01*
X175275137Y-91117207D01*
X175182674Y-90989942D01*
X175182656Y-90989918D01*
X175182648Y-90989909D01*
X175010087Y-90817348D01*
X175010082Y-90817344D01*
X175010081Y-90817343D01*
X175010076Y-90817339D01*
X174916400Y-90749280D01*
X174823239Y-90681595D01*
X174823237Y-90681594D01*
X174812642Y-90673896D01*
X174812641Y-90673895D01*
X174812639Y-90673894D01*
X174767874Y-90651085D01*
X174595189Y-90563097D01*
X174376603Y-90492073D01*
X174376589Y-90492069D01*
X174363076Y-90487679D01*
X174363074Y-90487678D01*
X174363072Y-90487678D01*
X174348675Y-90485397D01*
X174348668Y-90485396D01*
X174194769Y-90461021D01*
X174177905Y-90458350D01*
X174122031Y-90449500D01*
X174122027Y-90449500D01*
X173877973Y-90449500D01*
X173877969Y-90449500D01*
X173822093Y-90458350D01*
X173636930Y-90487677D01*
X173636927Y-90487678D01*
X173448417Y-90548929D01*
X173404809Y-90563098D01*
X173187353Y-90673898D01*
X172989940Y-90817326D01*
X172989911Y-90817348D01*
X172817348Y-90989911D01*
X172817326Y-90989940D01*
X172673898Y-91187353D01*
X172563098Y-91404807D01*
X172487678Y-91636926D01*
X172449500Y-91877973D01*
X148300000Y-91877973D01*
X148300000Y-91500000D01*
X148040000Y-91500000D01*
X148040000Y-91390444D01*
X148039999Y-91390427D01*
X148039998Y-91390418D01*
X148039998Y-91390410D01*
X148033598Y-91330900D01*
X148033596Y-91330893D01*
X148033596Y-91330892D01*
X147983354Y-91196185D01*
X147983350Y-91196178D01*
X147912727Y-91101839D01*
X147897191Y-91081085D01*
X147897185Y-91081079D01*
X147839317Y-91037759D01*
X147782093Y-90994921D01*
X147782086Y-90994917D01*
X147714732Y-90969796D01*
X147647377Y-90944674D01*
X147647370Y-90944672D01*
X147587852Y-90938272D01*
X147587844Y-90938272D01*
X147290000Y-90938272D01*
X147290000Y-91500000D01*
X146790000Y-91500000D01*
X146790000Y-90938272D01*
X146492146Y-90938272D01*
X146432628Y-90944672D01*
X146432621Y-90944674D01*
X146297910Y-90994918D01*
X146297907Y-90994920D01*
X146182813Y-91081079D01*
X146182807Y-91081085D01*
X146096648Y-91196179D01*
X146096646Y-91196182D01*
X146046402Y-91330893D01*
X146046400Y-91330900D01*
X146040000Y-91390418D01*
X145194910Y-91390418D01*
X145191250Y-91372019D01*
X145190648Y-91365912D01*
X145188867Y-91360042D01*
X145188867Y-91360041D01*
X145144552Y-91293719D01*
X145101245Y-91264782D01*
X145088385Y-91256189D01*
X145083641Y-91252296D01*
X145078230Y-91249404D01*
X145078229Y-91249403D01*
X145019752Y-91237772D01*
X145019750Y-91237772D01*
X143980249Y-91237772D01*
X143980247Y-91237772D01*
X143921770Y-91249403D01*
X143921769Y-91249403D01*
X143921768Y-91249404D01*
X143921765Y-91249405D01*
X143921759Y-91249410D01*
X143855447Y-91293719D01*
X143811138Y-91360031D01*
X143811133Y-91360037D01*
X143811132Y-91360040D01*
X143811132Y-91360041D01*
X143811131Y-91360042D01*
X143799500Y-91418519D01*
X143799500Y-91418521D01*
X143799500Y-92570938D01*
X143797631Y-92592384D01*
X143795993Y-92601712D01*
X143794592Y-92604543D01*
X143794476Y-92605876D01*
X143793193Y-92610245D01*
X143792225Y-92609960D01*
X143788111Y-92626079D01*
X143788797Y-92626335D01*
X143787734Y-92629183D01*
X143787105Y-92630022D01*
X143786659Y-92631772D01*
X143785422Y-92634481D01*
X143784189Y-92633918D01*
X143775252Y-92645859D01*
X143772406Y-92655566D01*
X143767054Y-92660206D01*
X143765011Y-92664337D01*
X143758499Y-92668241D01*
X143749399Y-92680399D01*
X143750273Y-92681409D01*
X143749217Y-92682323D01*
X143747307Y-92683194D01*
X143745910Y-92685062D01*
X143743470Y-92686890D01*
X143742385Y-92685442D01*
X143733025Y-92689715D01*
X143719619Y-92701341D01*
X143685758Y-92711296D01*
X143684322Y-92711503D01*
X143666630Y-92712772D01*
X143610999Y-92712772D01*
X143580168Y-92703719D01*
X143578927Y-92708351D01*
X143473889Y-92680202D01*
X143473890Y-92680202D01*
X143464494Y-92677684D01*
X143464492Y-92677683D01*
X143382862Y-92655811D01*
X143359309Y-92649500D01*
X143359308Y-92649500D01*
X143240691Y-92649500D01*
X143149728Y-92673873D01*
X143149723Y-92673874D01*
X143126114Y-92680201D01*
X143126112Y-92680201D01*
X143126112Y-92680202D01*
X143104947Y-92692421D01*
X143104939Y-92692425D01*
X143023386Y-92739511D01*
X143023378Y-92739517D01*
X142939517Y-92823378D01*
X142939512Y-92823385D01*
X142939508Y-92823391D01*
X142900798Y-92890436D01*
X142889282Y-92901896D01*
X142882740Y-92914437D01*
X142878986Y-92918172D01*
X142870800Y-92925977D01*
X142858937Y-92932093D01*
X142854892Y-92936120D01*
X142845980Y-92941208D01*
X142837229Y-92943286D01*
X142808700Y-92957995D01*
X142784871Y-92955720D01*
X142778001Y-92957352D01*
X142769069Y-92954212D01*
X142739147Y-92951356D01*
X142721524Y-92937498D01*
X142712085Y-92934180D01*
X142703843Y-92923594D01*
X142684224Y-92908167D01*
X142684177Y-92908101D01*
X142683820Y-92907599D01*
X142675234Y-92886851D01*
X142669161Y-92879051D01*
X142668363Y-92870247D01*
X142662588Y-92856291D01*
X142662216Y-92854078D01*
X142660500Y-92833522D01*
X142660500Y-91418335D01*
X142660069Y-91416353D01*
X142648868Y-91360042D01*
X142645975Y-91354630D01*
X142642081Y-91349885D01*
X142631725Y-91334386D01*
X142604552Y-91293719D01*
X142561245Y-91264782D01*
X142548385Y-91256189D01*
X142543641Y-91252296D01*
X142538230Y-91249404D01*
X142538229Y-91249403D01*
X142479752Y-91237772D01*
X142479750Y-91237772D01*
X141440249Y-91237772D01*
X141440247Y-91237772D01*
X141381770Y-91249403D01*
X141381769Y-91249403D01*
X141381768Y-91249404D01*
X141381765Y-91249405D01*
X141381759Y-91249410D01*
X141315447Y-91293719D01*
X141271138Y-91360031D01*
X141271133Y-91360037D01*
X141271132Y-91360040D01*
X141271132Y-91360041D01*
X141271131Y-91360042D01*
X141259500Y-91418519D01*
X140120499Y-91418519D01*
X140119361Y-91412800D01*
X140119360Y-91412789D01*
X140108868Y-91360042D01*
X140105975Y-91354630D01*
X140102081Y-91349885D01*
X140091725Y-91334386D01*
X140064552Y-91293719D01*
X140021245Y-91264782D01*
X140008385Y-91256189D01*
X140003641Y-91252296D01*
X139998230Y-91249404D01*
X139998229Y-91249403D01*
X139939752Y-91237772D01*
X139939750Y-91237772D01*
X138900249Y-91237772D01*
X138900247Y-91237772D01*
X138841770Y-91249403D01*
X138841769Y-91249403D01*
X138841768Y-91249404D01*
X138836355Y-91252296D01*
X138831614Y-91256188D01*
X138775447Y-91293718D01*
X138775446Y-91293719D01*
X138748272Y-91334386D01*
X138748270Y-91334391D01*
X138731132Y-91360041D01*
X138731131Y-91360042D01*
X138719500Y-91418519D01*
X137880000Y-91418519D01*
X137880000Y-91390444D01*
X137879999Y-91390427D01*
X137879998Y-91390418D01*
X137879998Y-91390410D01*
X137873598Y-91330900D01*
X137873596Y-91330893D01*
X137873596Y-91330892D01*
X137823354Y-91196185D01*
X137823350Y-91196178D01*
X137752727Y-91101839D01*
X137737191Y-91081085D01*
X137737185Y-91081079D01*
X137679317Y-91037759D01*
X137622093Y-90994921D01*
X137622086Y-90994917D01*
X137554732Y-90969796D01*
X137487377Y-90944674D01*
X137487370Y-90944672D01*
X137427852Y-90938272D01*
X137427844Y-90938272D01*
X137130000Y-90938272D01*
X137130000Y-91500000D01*
X136630000Y-91500000D01*
X136630000Y-90938272D01*
X136332146Y-90938272D01*
X136272628Y-90944672D01*
X136272621Y-90944674D01*
X136137910Y-90994918D01*
X136137907Y-90994920D01*
X136022813Y-91081079D01*
X136022807Y-91081085D01*
X135936648Y-91196179D01*
X135936646Y-91196182D01*
X135886402Y-91330893D01*
X135886400Y-91330900D01*
X135880000Y-91390418D01*
X135880000Y-91390427D01*
X135880000Y-91500000D01*
X135340000Y-91500000D01*
X135340000Y-91390444D01*
X135339999Y-91390427D01*
X135339998Y-91390418D01*
X135339998Y-91390410D01*
X135333598Y-91330900D01*
X135333596Y-91330893D01*
X135333596Y-91330892D01*
X135283354Y-91196185D01*
X135283350Y-91196178D01*
X135212727Y-91101839D01*
X135197191Y-91081085D01*
X135197185Y-91081079D01*
X135139317Y-91037759D01*
X135082093Y-90994921D01*
X135082086Y-90994917D01*
X135014732Y-90969796D01*
X134947377Y-90944674D01*
X134947370Y-90944672D01*
X134887852Y-90938272D01*
X134887844Y-90938272D01*
X134590000Y-90938272D01*
X134590000Y-91500000D01*
X134090000Y-91500000D01*
X134090000Y-90938272D01*
X133792146Y-90938272D01*
X133732628Y-90944672D01*
X133732621Y-90944674D01*
X133597910Y-90994918D01*
X133597907Y-90994920D01*
X133482813Y-91081079D01*
X133482807Y-91081085D01*
X133396648Y-91196179D01*
X133396646Y-91196182D01*
X133346402Y-91330893D01*
X133346400Y-91330900D01*
X133340000Y-91390418D01*
X133340000Y-91390427D01*
X133340000Y-91500000D01*
X132800000Y-91500000D01*
X132800000Y-91390444D01*
X132799999Y-91390427D01*
X132799998Y-91390418D01*
X132799998Y-91390410D01*
X132793598Y-91330900D01*
X132793596Y-91330893D01*
X132793596Y-91330892D01*
X132743354Y-91196185D01*
X132743350Y-91196178D01*
X132672727Y-91101839D01*
X132657191Y-91081085D01*
X132657185Y-91081079D01*
X132599317Y-91037759D01*
X132542093Y-90994921D01*
X132542088Y-90994918D01*
X132542089Y-90994918D01*
X132407377Y-90944674D01*
X132407370Y-90944672D01*
X132347852Y-90938272D01*
X132347844Y-90938272D01*
X132050000Y-90938272D01*
X132050000Y-91500000D01*
X131550000Y-91500000D01*
X131550000Y-90938272D01*
X131252146Y-90938272D01*
X131192628Y-90944672D01*
X131192621Y-90944674D01*
X131057910Y-90994918D01*
X131057907Y-90994920D01*
X130942813Y-91081079D01*
X130942807Y-91081085D01*
X130856648Y-91196179D01*
X130856646Y-91196182D01*
X130806402Y-91330893D01*
X130806400Y-91330900D01*
X130800000Y-91390418D01*
X130800000Y-91390427D01*
X130800000Y-91500000D01*
X130260000Y-91500000D01*
X130260000Y-91390444D01*
X130259999Y-91390427D01*
X130259998Y-91390418D01*
X130259998Y-91390410D01*
X130253598Y-91330900D01*
X130253596Y-91330893D01*
X130253596Y-91330892D01*
X130203354Y-91196185D01*
X130203350Y-91196178D01*
X130132727Y-91101839D01*
X130117191Y-91081085D01*
X130117185Y-91081079D01*
X130059317Y-91037759D01*
X130002093Y-90994921D01*
X130002088Y-90994918D01*
X130002089Y-90994918D01*
X129867377Y-90944674D01*
X129867370Y-90944672D01*
X129807852Y-90938272D01*
X129807844Y-90938272D01*
X129510000Y-90938272D01*
X129510000Y-91500000D01*
X129010000Y-91500000D01*
X129010000Y-90938272D01*
X128712146Y-90938272D01*
X128652628Y-90944672D01*
X128652621Y-90944674D01*
X128517910Y-90994918D01*
X128517907Y-90994920D01*
X128402813Y-91081079D01*
X128402811Y-91081082D01*
X128402806Y-91081087D01*
X128386450Y-91102935D01*
X128386450Y-91102937D01*
X128361493Y-91127894D01*
X128353267Y-91134052D01*
X128287803Y-91158469D01*
X128219530Y-91143618D01*
X128170124Y-91094213D01*
X128165232Y-91084210D01*
X128164564Y-91082674D01*
X128163608Y-91080473D01*
X128161548Y-91077543D01*
X128153086Y-91063648D01*
X128059698Y-90884865D01*
X128059695Y-90884861D01*
X128059694Y-90884859D01*
X128004640Y-90817341D01*
X128004637Y-90817338D01*
X127956842Y-90758722D01*
X127931109Y-90727162D01*
X127865781Y-90673895D01*
X127837807Y-90651085D01*
X127825704Y-90633439D01*
X127773404Y-90598572D01*
X127606933Y-90511615D01*
X127606931Y-90511614D01*
X127593049Y-90504363D01*
X127593048Y-90504362D01*
X127593045Y-90504361D01*
X127475829Y-90470822D01*
X127474492Y-90470439D01*
X127474481Y-90470436D01*
X127399981Y-90449119D01*
X127397825Y-90448451D01*
X127395347Y-90448049D01*
X127391936Y-90447898D01*
X127382628Y-90447070D01*
X127331102Y-90442489D01*
X127331101Y-90442488D01*
X127278039Y-90437772D01*
X127278037Y-90437772D01*
X127278032Y-90437772D01*
X126161971Y-90437772D01*
X126161965Y-90437772D01*
X126149897Y-90437772D01*
X126143042Y-90439454D01*
X126042582Y-90448385D01*
X125898137Y-90489716D01*
X125864025Y-90494500D01*
X125035973Y-90494500D01*
X125001862Y-90489716D01*
X124994739Y-90487678D01*
X124935829Y-90470822D01*
X124901576Y-90461021D01*
X124859981Y-90449119D01*
X124857825Y-90448451D01*
X124855347Y-90448049D01*
X124851936Y-90447898D01*
X124842628Y-90447070D01*
X124791102Y-90442489D01*
X124791101Y-90442488D01*
X124738039Y-90437772D01*
X124738037Y-90437772D01*
X124738032Y-90437772D01*
X123621971Y-90437772D01*
X123621965Y-90437772D01*
X123609897Y-90437772D01*
X123603042Y-90439454D01*
X123502582Y-90448385D01*
X123358137Y-90489716D01*
X123324025Y-90494500D01*
X122495973Y-90494500D01*
X122461862Y-90489716D01*
X122454739Y-90487678D01*
X122395829Y-90470822D01*
X122361576Y-90461021D01*
X122319981Y-90449119D01*
X122317825Y-90448451D01*
X122315347Y-90448049D01*
X122311936Y-90447898D01*
X122302628Y-90447070D01*
X122251102Y-90442489D01*
X122251101Y-90442488D01*
X122198039Y-90437772D01*
X122198037Y-90437772D01*
X122198032Y-90437772D01*
X121081971Y-90437772D01*
X121081965Y-90437772D01*
X121069897Y-90437772D01*
X121063042Y-90439454D01*
X120962582Y-90448385D01*
X120818137Y-90489716D01*
X120784025Y-90494500D01*
X119955973Y-90494500D01*
X119921862Y-90489716D01*
X119914739Y-90487678D01*
X119855829Y-90470822D01*
X119821576Y-90461021D01*
X119779981Y-90449119D01*
X119777825Y-90448451D01*
X119775347Y-90448049D01*
X119771936Y-90447898D01*
X119762628Y-90447070D01*
X119711102Y-90442489D01*
X119711101Y-90442488D01*
X119658039Y-90437772D01*
X119658037Y-90437772D01*
X119658032Y-90437772D01*
X118541971Y-90437772D01*
X118541965Y-90437772D01*
X118529897Y-90437772D01*
X118523042Y-90439454D01*
X118422582Y-90448385D01*
X118226952Y-90504361D01*
X118157782Y-90540493D01*
X118157780Y-90540495D01*
X118047557Y-90598070D01*
X118046646Y-90598535D01*
X118044242Y-90600268D01*
X118041716Y-90602550D01*
X117888887Y-90727164D01*
X117880989Y-90736850D01*
X117857887Y-90758722D01*
X117851663Y-90763253D01*
X117851663Y-90763254D01*
X117799632Y-90809879D01*
X117799631Y-90809880D01*
X117685227Y-90930921D01*
X117604416Y-91056177D01*
X117551531Y-91101839D01*
X117482355Y-91111659D01*
X117420888Y-91083525D01*
X117420732Y-91083735D01*
X117419767Y-91083012D01*
X117419027Y-91082674D01*
X117417197Y-91081089D01*
X117417188Y-91081082D01*
X117417187Y-91081081D01*
X117302093Y-90994921D01*
X117302088Y-90994918D01*
X117302089Y-90994918D01*
X117167377Y-90944674D01*
X117167370Y-90944672D01*
X117107852Y-90938272D01*
X117107844Y-90938272D01*
X116810000Y-90938272D01*
X116810000Y-91350000D01*
X116310000Y-91350000D01*
X116310000Y-90938272D01*
X116012146Y-90938272D01*
X115952628Y-90944672D01*
X115952621Y-90944674D01*
X115817910Y-90994918D01*
X115817907Y-90994920D01*
X115702813Y-91081079D01*
X115702807Y-91081085D01*
X115616648Y-91196179D01*
X115616646Y-91196182D01*
X115566402Y-91330893D01*
X115566400Y-91330900D01*
X115564346Y-91350000D01*
X115274000Y-91350000D01*
X115222489Y-91361206D01*
X115169685Y-91406961D01*
X115150000Y-91474000D01*
X114720500Y-91474000D01*
X114720500Y-91418336D01*
X114720080Y-91416405D01*
X114719066Y-91411310D01*
X114719066Y-91411306D01*
X114719064Y-91411299D01*
X114711250Y-91372019D01*
X114710648Y-91365912D01*
X114708867Y-91360042D01*
X114708867Y-91360041D01*
X114664552Y-91293719D01*
X114621245Y-91264782D01*
X114608385Y-91256189D01*
X114603641Y-91252296D01*
X114598230Y-91249404D01*
X114598229Y-91249403D01*
X114539752Y-91237772D01*
X114539750Y-91237772D01*
X113500249Y-91237772D01*
X113500247Y-91237772D01*
X113441770Y-91249403D01*
X113441769Y-91249403D01*
X113441768Y-91249404D01*
X113436357Y-91252295D01*
X113431615Y-91256188D01*
X113405556Y-91273601D01*
X113338879Y-91294480D01*
X113336663Y-91294500D01*
X112163336Y-91294500D01*
X112096297Y-91274815D01*
X112094445Y-91273602D01*
X112068385Y-91256189D01*
X112063641Y-91252296D01*
X112058230Y-91249404D01*
X112058229Y-91249403D01*
X111999752Y-91237772D01*
X111999750Y-91237772D01*
X110960249Y-91237772D01*
X110960247Y-91237772D01*
X110901770Y-91249403D01*
X110901769Y-91249403D01*
X110901768Y-91249404D01*
X110901767Y-91249404D01*
X110901762Y-91249408D01*
X110835447Y-91293719D01*
X110791134Y-91360037D01*
X110791130Y-91360042D01*
X110789261Y-91369440D01*
X110770496Y-91410952D01*
X110771486Y-91411506D01*
X110722512Y-91499059D01*
X110722509Y-91499064D01*
X110702826Y-91566096D01*
X110694500Y-91624003D01*
X110250000Y-91624003D01*
X110250000Y-91624000D01*
X110238794Y-91572489D01*
X110193039Y-91519685D01*
X110126000Y-91500000D01*
X109940000Y-91500000D01*
X109940000Y-91390444D01*
X109939999Y-91390427D01*
X109939998Y-91390418D01*
X109939998Y-91390410D01*
X109933598Y-91330900D01*
X109933596Y-91330893D01*
X109933596Y-91330892D01*
X109883354Y-91196185D01*
X109883350Y-91196178D01*
X109812727Y-91101839D01*
X109797191Y-91081085D01*
X109797185Y-91081079D01*
X109739317Y-91037759D01*
X109682093Y-90994921D01*
X109682088Y-90994918D01*
X109682089Y-90994918D01*
X109547377Y-90944674D01*
X109547370Y-90944672D01*
X109487852Y-90938272D01*
X109487844Y-90938272D01*
X109190000Y-90938272D01*
X109190000Y-91500000D01*
X108690000Y-91500000D01*
X108690000Y-90938272D01*
X108392146Y-90938272D01*
X108332628Y-90944672D01*
X108332621Y-90944674D01*
X108197910Y-90994918D01*
X108197907Y-90994920D01*
X108082813Y-91081079D01*
X108082807Y-91081085D01*
X107996648Y-91196179D01*
X107996646Y-91196182D01*
X107946402Y-91330893D01*
X107946400Y-91330900D01*
X107940000Y-91390418D01*
X78253974Y-91390418D01*
X78272170Y-91267752D01*
X78273209Y-91261771D01*
X78274320Y-91256189D01*
X78274387Y-91255847D01*
X78275719Y-91249916D01*
X78275847Y-91249404D01*
X78361897Y-90905875D01*
X78363508Y-90900053D01*
X78365278Y-90894221D01*
X78367182Y-90888463D01*
X78458431Y-90633439D01*
X78486648Y-90554578D01*
X78488837Y-90548903D01*
X78491148Y-90543324D01*
X78493613Y-90537762D01*
X78505980Y-90511615D01*
X78645260Y-90217129D01*
X78647973Y-90211741D01*
X78650843Y-90206370D01*
X78653811Y-90201131D01*
X78836141Y-89896934D01*
X78839381Y-89891817D01*
X78839801Y-89891187D01*
X78842757Y-89886762D01*
X78846239Y-89881816D01*
X79057530Y-89596924D01*
X79061253Y-89592156D01*
X79065128Y-89587434D01*
X79069041Y-89582898D01*
X79307249Y-89320075D01*
X79311408Y-89315707D01*
X79315707Y-89311408D01*
X79320075Y-89307249D01*
X79582898Y-89069041D01*
X79587434Y-89065128D01*
X79592165Y-89061245D01*
X79596924Y-89057530D01*
X79881816Y-88846239D01*
X79886762Y-88842757D01*
X79891817Y-88839381D01*
X79896941Y-88836137D01*
X79896946Y-88836134D01*
X80201131Y-88653811D01*
X80206370Y-88650843D01*
X80211746Y-88647970D01*
X80217129Y-88645260D01*
X80537773Y-88493607D01*
X80543313Y-88491152D01*
X80548932Y-88488825D01*
X80554574Y-88486649D01*
X80788795Y-88402842D01*
X80809357Y-88397423D01*
X80824893Y-88394727D01*
X80830105Y-88393824D01*
X80851296Y-88392000D01*
X175148704Y-88392000D01*
X175169901Y-88393825D01*
G37*
%TD.AperFunction*%
%TD*%
%TA.AperFunction,Conductor*%
%TO.N,GND*%
G36*
X148300000Y-94650000D02*
G01*
X146250000Y-94650000D01*
X146250000Y-91500000D01*
X148300000Y-91500000D01*
X148300000Y-94650000D01*
G37*
%TD.AperFunction*%
%TD*%
%TA.AperFunction,Conductor*%
%TO.N,+5V*%
G36*
X114343039Y-91519685D02*
G01*
X114388794Y-91572489D01*
X114400000Y-91624000D01*
X114400000Y-94526000D01*
X114380315Y-94593039D01*
X114327511Y-94638794D01*
X114276000Y-94650000D01*
X111024000Y-94650000D01*
X110956961Y-94630315D01*
X110911206Y-94577511D01*
X110900000Y-94526000D01*
X110900000Y-91624000D01*
X110919685Y-91556961D01*
X110972489Y-91511206D01*
X111024000Y-91500000D01*
X114276000Y-91500000D01*
X114343039Y-91519685D01*
G37*
%TD.AperFunction*%
%TD*%
%TA.AperFunction,Conductor*%
%TO.N,/Power Connector/VIN_BRD*%
G36*
X88378484Y-123462363D02*
G01*
X88424239Y-123515167D01*
X88435250Y-123573630D01*
X88432162Y-123628608D01*
X89288282Y-124484728D01*
X89170534Y-124570278D01*
X89020278Y-124720534D01*
X88934728Y-124838282D01*
X88078609Y-123982163D01*
X87967038Y-124122070D01*
X87814662Y-124364575D01*
X87690396Y-124622616D01*
X87595803Y-124892945D01*
X87595799Y-124892957D01*
X87532068Y-125172182D01*
X87532066Y-125172198D01*
X87500000Y-125456790D01*
X87500000Y-125743209D01*
X87532066Y-126027801D01*
X87532068Y-126027817D01*
X87595799Y-126307042D01*
X87595803Y-126307054D01*
X87690396Y-126577383D01*
X87814662Y-126835424D01*
X87967042Y-127077935D01*
X88078608Y-127217836D01*
X88934728Y-126361716D01*
X89020278Y-126479466D01*
X89170534Y-126629722D01*
X89288282Y-126715270D01*
X88432162Y-127571390D01*
X88572064Y-127682957D01*
X88814575Y-127835337D01*
X89072616Y-127959603D01*
X89342945Y-128054196D01*
X89342957Y-128054200D01*
X89622182Y-128117931D01*
X89622198Y-128117933D01*
X89906790Y-128149999D01*
X89906792Y-128150000D01*
X90193208Y-128150000D01*
X90193209Y-128149999D01*
X90477801Y-128117933D01*
X90477817Y-128117931D01*
X90757042Y-128054200D01*
X90757054Y-128054196D01*
X91027383Y-127959603D01*
X91285424Y-127835337D01*
X91527935Y-127682958D01*
X91667836Y-127571389D01*
X90811717Y-126715271D01*
X90929466Y-126629722D01*
X91079722Y-126479466D01*
X91165271Y-126361717D01*
X92021389Y-127217836D01*
X92132958Y-127077935D01*
X92285337Y-126835424D01*
X92409603Y-126577383D01*
X92504196Y-126307054D01*
X92504200Y-126307042D01*
X92567931Y-126027817D01*
X92567933Y-126027801D01*
X92599999Y-125743209D01*
X92600000Y-125743207D01*
X92600000Y-125456792D01*
X92599999Y-125456790D01*
X92567933Y-125172198D01*
X92567931Y-125172182D01*
X92504200Y-124892957D01*
X92504196Y-124892945D01*
X92409603Y-124622616D01*
X92285337Y-124364575D01*
X92132957Y-124122064D01*
X92021390Y-123982162D01*
X91165270Y-124838281D01*
X91079722Y-124720534D01*
X90929466Y-124570278D01*
X90811716Y-124484728D01*
X91667836Y-123628608D01*
X91664749Y-123573630D01*
X91680644Y-123505592D01*
X91730800Y-123456949D01*
X91788554Y-123442678D01*
X93228420Y-123442678D01*
X93295459Y-123462363D01*
X93341214Y-123515167D01*
X93352420Y-123566717D01*
X93350404Y-130044866D01*
X93350405Y-130044866D01*
X93350405Y-130044867D01*
X98905673Y-130046594D01*
X98972703Y-130066299D01*
X99018441Y-130119118D01*
X99028363Y-130188279D01*
X99017840Y-130220887D01*
X99018421Y-130221119D01*
X99016090Y-130226953D01*
X98960114Y-130422583D01*
X98960113Y-130422586D01*
X98949500Y-130541966D01*
X98949500Y-132658028D01*
X98949501Y-132658034D01*
X98960113Y-132777415D01*
X99016089Y-132973045D01*
X99016090Y-132973048D01*
X99016091Y-132973049D01*
X99110302Y-133153407D01*
X99110304Y-133153409D01*
X99238890Y-133311109D01*
X99332803Y-133387684D01*
X99396593Y-133439698D01*
X99576951Y-133533909D01*
X99772582Y-133589886D01*
X99891963Y-133600500D01*
X100908036Y-133600499D01*
X101027418Y-133589886D01*
X101223049Y-133533909D01*
X101403407Y-133439698D01*
X101561109Y-133311109D01*
X101689698Y-133153407D01*
X101783909Y-132973049D01*
X101806284Y-132894848D01*
X101843651Y-132835811D01*
X101907004Y-132806347D01*
X101976229Y-132815812D01*
X102029349Y-132861200D01*
X102049497Y-132928102D01*
X102049500Y-132928960D01*
X102049500Y-133658028D01*
X102049501Y-133658034D01*
X102060113Y-133777415D01*
X102116089Y-133973045D01*
X102116090Y-133973048D01*
X102116091Y-133973049D01*
X102210302Y-134153407D01*
X102210304Y-134153409D01*
X102338890Y-134311109D01*
X102432803Y-134387684D01*
X102496593Y-134439698D01*
X102676951Y-134533909D01*
X102872582Y-134589886D01*
X102991963Y-134600500D01*
X104008036Y-134600499D01*
X104127418Y-134589886D01*
X104323049Y-134533909D01*
X104503407Y-134439698D01*
X104661109Y-134311109D01*
X104789698Y-134153407D01*
X104883909Y-133973049D01*
X104939886Y-133777418D01*
X104950500Y-133658037D01*
X104950499Y-131541964D01*
X104939886Y-131422582D01*
X104883909Y-131226951D01*
X104789698Y-131046593D01*
X104737684Y-130982803D01*
X104661109Y-130888890D01*
X104503409Y-130760304D01*
X104503410Y-130760304D01*
X104503407Y-130760302D01*
X104323049Y-130666091D01*
X104323048Y-130666090D01*
X104323045Y-130666089D01*
X104205829Y-130632550D01*
X104127418Y-130610114D01*
X104127415Y-130610113D01*
X104127413Y-130610113D01*
X104061102Y-130604217D01*
X104008037Y-130599500D01*
X104008032Y-130599500D01*
X102991971Y-130599500D01*
X102991965Y-130599500D01*
X102991964Y-130599501D01*
X102980316Y-130600536D01*
X102872584Y-130610113D01*
X102676954Y-130666089D01*
X102611118Y-130700479D01*
X102496593Y-130760302D01*
X102496591Y-130760303D01*
X102496590Y-130760304D01*
X102338890Y-130888890D01*
X102210304Y-131046590D01*
X102116090Y-131226953D01*
X102093715Y-131305151D01*
X102056347Y-131364189D01*
X101992993Y-131393652D01*
X101923768Y-131384187D01*
X101870649Y-131338797D01*
X101850502Y-131271896D01*
X101850499Y-131271039D01*
X101850499Y-130541971D01*
X101850499Y-130541964D01*
X101839886Y-130422582D01*
X101783909Y-130226951D01*
X101783907Y-130226948D01*
X101783907Y-130226946D01*
X101781578Y-130221114D01*
X101783262Y-130220441D01*
X101771353Y-130160408D01*
X101796969Y-130095403D01*
X101853662Y-130054566D01*
X101894888Y-130047524D01*
X109852363Y-130050000D01*
X109852363Y-124466678D01*
X109872048Y-124399639D01*
X109924852Y-124353884D01*
X109976363Y-124342678D01*
X112236339Y-124342678D01*
X112303378Y-124362363D01*
X112349133Y-124415167D01*
X112359077Y-124484325D01*
X112330052Y-124547881D01*
X112313651Y-124563626D01*
X112232163Y-124628609D01*
X113088282Y-125484728D01*
X112970534Y-125570278D01*
X112820278Y-125720534D01*
X112734728Y-125838282D01*
X111878609Y-124982163D01*
X111767038Y-125122070D01*
X111614662Y-125364575D01*
X111490396Y-125622616D01*
X111395803Y-125892945D01*
X111395799Y-125892957D01*
X111332068Y-126172182D01*
X111332066Y-126172198D01*
X111300000Y-126456790D01*
X111300000Y-126743209D01*
X111332066Y-127027801D01*
X111332068Y-127027817D01*
X111395799Y-127307042D01*
X111395803Y-127307054D01*
X111490396Y-127577383D01*
X111614662Y-127835424D01*
X111767042Y-128077935D01*
X111878608Y-128217836D01*
X112734728Y-127361716D01*
X112820278Y-127479466D01*
X112970534Y-127629722D01*
X113088282Y-127715270D01*
X112232162Y-128571390D01*
X112372064Y-128682957D01*
X112614575Y-128835337D01*
X112872616Y-128959603D01*
X113142945Y-129054196D01*
X113142957Y-129054200D01*
X113422182Y-129117931D01*
X113422198Y-129117933D01*
X113706790Y-129149999D01*
X113706792Y-129150000D01*
X113993208Y-129150000D01*
X113993209Y-129149999D01*
X114277801Y-129117933D01*
X114277817Y-129117931D01*
X114557042Y-129054200D01*
X114557054Y-129054196D01*
X114827383Y-128959603D01*
X115085424Y-128835337D01*
X115327935Y-128682958D01*
X115467836Y-128571389D01*
X114611717Y-127715271D01*
X114729466Y-127629722D01*
X114879722Y-127479466D01*
X114965270Y-127361717D01*
X115821389Y-128217836D01*
X115932958Y-128077935D01*
X116085337Y-127835424D01*
X116209603Y-127577383D01*
X116304196Y-127307054D01*
X116304200Y-127307042D01*
X116367931Y-127027817D01*
X116367933Y-127027801D01*
X116399999Y-126743209D01*
X116400000Y-126743207D01*
X116400000Y-126456792D01*
X116399999Y-126456790D01*
X116367933Y-126172198D01*
X116367931Y-126172182D01*
X116304200Y-125892957D01*
X116304196Y-125892945D01*
X116209603Y-125622616D01*
X116085337Y-125364575D01*
X115932957Y-125122064D01*
X115821390Y-124982162D01*
X114965270Y-125838281D01*
X114879722Y-125720534D01*
X114729466Y-125570278D01*
X114611716Y-125484728D01*
X115467836Y-124628608D01*
X115386349Y-124563625D01*
X115346209Y-124506437D01*
X115343359Y-124436625D01*
X115378704Y-124376355D01*
X115441023Y-124344762D01*
X115463662Y-124342678D01*
X118028363Y-124342678D01*
X118095402Y-124362363D01*
X118141157Y-124415167D01*
X118152363Y-124466678D01*
X118152363Y-130633440D01*
X118132678Y-130700479D01*
X118079874Y-130746234D01*
X118010716Y-130756178D01*
X117970952Y-130743349D01*
X117888881Y-130700479D01*
X117823049Y-130666091D01*
X117823048Y-130666090D01*
X117823047Y-130666090D01*
X117739370Y-130642147D01*
X117627418Y-130610114D01*
X117627415Y-130610113D01*
X117627413Y-130610113D01*
X117561102Y-130604217D01*
X117508037Y-130599500D01*
X117508032Y-130599500D01*
X116491971Y-130599500D01*
X116491965Y-130599500D01*
X116491964Y-130599501D01*
X116480316Y-130600536D01*
X116372584Y-130610113D01*
X116176954Y-130666089D01*
X116111118Y-130700479D01*
X115996593Y-130760302D01*
X115996591Y-130760303D01*
X115996590Y-130760304D01*
X115838890Y-130888890D01*
X115710304Y-131046590D01*
X115616089Y-131226954D01*
X115560114Y-131422583D01*
X115560113Y-131422586D01*
X115549500Y-131541966D01*
X115549500Y-133658028D01*
X115549501Y-133658034D01*
X115560113Y-133777415D01*
X115616089Y-133973045D01*
X115616090Y-133973048D01*
X115616091Y-133973049D01*
X115710302Y-134153407D01*
X115710304Y-134153409D01*
X115838890Y-134311109D01*
X115932803Y-134387684D01*
X115996593Y-134439698D01*
X116176951Y-134533909D01*
X116372582Y-134589886D01*
X116491963Y-134600500D01*
X117312009Y-134600499D01*
X117302592Y-137799500D01*
X84976363Y-137799500D01*
X84909324Y-137779815D01*
X84863569Y-137727011D01*
X84852363Y-137675500D01*
X84852363Y-130541966D01*
X85449500Y-130541966D01*
X85449500Y-132658028D01*
X85449501Y-132658034D01*
X85460113Y-132777415D01*
X85516089Y-132973045D01*
X85516090Y-132973048D01*
X85516091Y-132973049D01*
X85610302Y-133153407D01*
X85610304Y-133153409D01*
X85738890Y-133311109D01*
X85832803Y-133387684D01*
X85896593Y-133439698D01*
X86076951Y-133533909D01*
X86272582Y-133589886D01*
X86391963Y-133600500D01*
X87408036Y-133600499D01*
X87527418Y-133589886D01*
X87723049Y-133533909D01*
X87903407Y-133439698D01*
X88061109Y-133311109D01*
X88189698Y-133153407D01*
X88283909Y-132973049D01*
X88339886Y-132777418D01*
X88350500Y-132658037D01*
X88350499Y-130541964D01*
X88339886Y-130422582D01*
X88283909Y-130226951D01*
X88189698Y-130046593D01*
X88137684Y-129982803D01*
X88061109Y-129888890D01*
X87903409Y-129760304D01*
X87903410Y-129760304D01*
X87903407Y-129760302D01*
X87723049Y-129666091D01*
X87723048Y-129666090D01*
X87723045Y-129666089D01*
X87605829Y-129632550D01*
X87527418Y-129610114D01*
X87527415Y-129610113D01*
X87527413Y-129610113D01*
X87461102Y-129604217D01*
X87408037Y-129599500D01*
X87408032Y-129599500D01*
X86391971Y-129599500D01*
X86391965Y-129599500D01*
X86391964Y-129599501D01*
X86380316Y-129600536D01*
X86272584Y-129610113D01*
X86076954Y-129666089D01*
X85986772Y-129713196D01*
X85896593Y-129760302D01*
X85896591Y-129760303D01*
X85896590Y-129760304D01*
X85738890Y-129888890D01*
X85611710Y-130044866D01*
X85610302Y-130046593D01*
X85584806Y-130095403D01*
X85516089Y-130226954D01*
X85460114Y-130422583D01*
X85460113Y-130422586D01*
X85449500Y-130541966D01*
X84852363Y-130541966D01*
X84852363Y-123566678D01*
X84872048Y-123499639D01*
X84924852Y-123453884D01*
X84976363Y-123442678D01*
X88311445Y-123442678D01*
X88378484Y-123462363D01*
G37*
%TD.AperFunction*%
%TD*%
%TA.AperFunction,Conductor*%
%TO.N,/Power Connector/VIN_BRD*%
G36*
X122056661Y-130819685D02*
G01*
X122102416Y-130872489D01*
X122112360Y-130941647D01*
X122091550Y-130994616D01*
X122045997Y-131060367D01*
X122045991Y-131060377D01*
X121952903Y-131265318D01*
X121952902Y-131265321D01*
X121897905Y-131483579D01*
X121897904Y-131483586D01*
X121887500Y-131615777D01*
X121887500Y-133194208D01*
X121887501Y-133194223D01*
X121897904Y-133326413D01*
X121897905Y-133326420D01*
X121952902Y-133544678D01*
X121952903Y-133544681D01*
X122045991Y-133749622D01*
X122045997Y-133749632D01*
X122174174Y-133934645D01*
X122174178Y-133934650D01*
X122174181Y-133934654D01*
X122333346Y-134093819D01*
X122333350Y-134093822D01*
X122333354Y-134093825D01*
X122351124Y-134106136D01*
X122518374Y-134222007D01*
X122723317Y-134315096D01*
X122723321Y-134315097D01*
X122941579Y-134370094D01*
X122941581Y-134370094D01*
X122941588Y-134370096D01*
X123073783Y-134380500D01*
X124402216Y-134380499D01*
X124534412Y-134370096D01*
X124752683Y-134315096D01*
X124957626Y-134222007D01*
X125124875Y-134106135D01*
X125191191Y-134084139D01*
X125257491Y-134100677D01*
X125417784Y-134193222D01*
X125417785Y-134193222D01*
X125417788Y-134193224D01*
X125641900Y-134286054D01*
X125876211Y-134348838D01*
X126056586Y-134372584D01*
X126116711Y-134380500D01*
X126116712Y-134380500D01*
X126359289Y-134380500D01*
X126407388Y-134374167D01*
X126599789Y-134348838D01*
X126834100Y-134286054D01*
X127058212Y-134193224D01*
X127268289Y-134071936D01*
X127460738Y-133924265D01*
X127632265Y-133752738D01*
X127734813Y-133619093D01*
X127791240Y-133577891D01*
X127860986Y-133573736D01*
X127906074Y-133594262D01*
X128030442Y-133684620D01*
X128219782Y-133781095D01*
X128421871Y-133846757D01*
X128488000Y-133857231D01*
X128488000Y-132809145D01*
X128554657Y-132847630D01*
X128675465Y-132880000D01*
X128800535Y-132880000D01*
X128921343Y-132847630D01*
X128988000Y-132809145D01*
X128988000Y-133857230D01*
X129054126Y-133846757D01*
X129054129Y-133846757D01*
X129256217Y-133781095D01*
X129445557Y-133684620D01*
X129617459Y-133559727D01*
X129617464Y-133559723D01*
X129767723Y-133409464D01*
X129767727Y-133409459D01*
X129892620Y-133237557D01*
X129989095Y-133048217D01*
X130054757Y-132846130D01*
X130054757Y-132846127D01*
X130085030Y-132655000D01*
X129142146Y-132655000D01*
X129180630Y-132588343D01*
X129213000Y-132467535D01*
X129213000Y-132342465D01*
X129180630Y-132221657D01*
X129142146Y-132155000D01*
X130085030Y-132155000D01*
X130054757Y-131963872D01*
X130054757Y-131963869D01*
X129989095Y-131761782D01*
X129892620Y-131572442D01*
X129767727Y-131400540D01*
X129767723Y-131400535D01*
X129617464Y-131250276D01*
X129617459Y-131250272D01*
X129445557Y-131125379D01*
X129267170Y-131034485D01*
X129216374Y-130986510D01*
X129199579Y-130918689D01*
X129222117Y-130852554D01*
X129276832Y-130809103D01*
X129323465Y-130800000D01*
X135060289Y-130800000D01*
X135127328Y-130819685D01*
X135173083Y-130872489D01*
X135183027Y-130941647D01*
X135162217Y-130994616D01*
X135116664Y-131060367D01*
X135116658Y-131060377D01*
X135023570Y-131265318D01*
X135023569Y-131265321D01*
X134968572Y-131483579D01*
X134968571Y-131483586D01*
X134958167Y-131615777D01*
X134958167Y-133194208D01*
X134958168Y-133194223D01*
X134968571Y-133326413D01*
X134968572Y-133326420D01*
X135023569Y-133544678D01*
X135023570Y-133544681D01*
X135116658Y-133749622D01*
X135116664Y-133749632D01*
X135244841Y-133934645D01*
X135244845Y-133934650D01*
X135244848Y-133934654D01*
X135404013Y-134093819D01*
X135404017Y-134093822D01*
X135404021Y-134093825D01*
X135421791Y-134106136D01*
X135589041Y-134222007D01*
X135793984Y-134315096D01*
X135793988Y-134315097D01*
X136012246Y-134370094D01*
X136012248Y-134370094D01*
X136012255Y-134370096D01*
X136144450Y-134380500D01*
X137472883Y-134380499D01*
X137605079Y-134370096D01*
X137823350Y-134315096D01*
X138028293Y-134222007D01*
X138195542Y-134106135D01*
X138261858Y-134084139D01*
X138328158Y-134100677D01*
X138488451Y-134193222D01*
X138488452Y-134193222D01*
X138488455Y-134193224D01*
X138712567Y-134286054D01*
X138946878Y-134348838D01*
X139127253Y-134372584D01*
X139187378Y-134380500D01*
X139187379Y-134380500D01*
X139429956Y-134380500D01*
X139478055Y-134374167D01*
X139670456Y-134348838D01*
X139904767Y-134286054D01*
X140128879Y-134193224D01*
X140338956Y-134071936D01*
X140531405Y-133924265D01*
X140702932Y-133752738D01*
X140805480Y-133619093D01*
X140861907Y-133577891D01*
X140931653Y-133573736D01*
X140976741Y-133594262D01*
X141101109Y-133684620D01*
X141290449Y-133781095D01*
X141492538Y-133846757D01*
X141558667Y-133857231D01*
X141558667Y-132809145D01*
X141625324Y-132847630D01*
X141746132Y-132880000D01*
X141871202Y-132880000D01*
X141992010Y-132847630D01*
X142058667Y-132809145D01*
X142058667Y-133857230D01*
X142124793Y-133846757D01*
X142124796Y-133846757D01*
X142326884Y-133781095D01*
X142516224Y-133684620D01*
X142688126Y-133559727D01*
X142688131Y-133559723D01*
X142838390Y-133409464D01*
X142838394Y-133409459D01*
X142963287Y-133237557D01*
X143059762Y-133048217D01*
X143125424Y-132846130D01*
X143125424Y-132846127D01*
X143155697Y-132655000D01*
X142212813Y-132655000D01*
X142251297Y-132588343D01*
X142283667Y-132467535D01*
X142283667Y-132342465D01*
X142251297Y-132221657D01*
X142212813Y-132155000D01*
X143155697Y-132155000D01*
X143125424Y-131963872D01*
X143125424Y-131963869D01*
X143059762Y-131761782D01*
X142963287Y-131572442D01*
X142838394Y-131400540D01*
X142838390Y-131400535D01*
X142688131Y-131250276D01*
X142688126Y-131250272D01*
X142516224Y-131125379D01*
X142337837Y-131034485D01*
X142287041Y-130986510D01*
X142270246Y-130918689D01*
X142292784Y-130852554D01*
X142347499Y-130809103D01*
X142394132Y-130800000D01*
X148130955Y-130800000D01*
X148197994Y-130819685D01*
X148243749Y-130872489D01*
X148253693Y-130941647D01*
X148232883Y-130994616D01*
X148187330Y-131060367D01*
X148187324Y-131060377D01*
X148094236Y-131265318D01*
X148094235Y-131265321D01*
X148039238Y-131483579D01*
X148039237Y-131483586D01*
X148028833Y-131615777D01*
X148028833Y-133194208D01*
X148028834Y-133194223D01*
X148039237Y-133326413D01*
X148039238Y-133326420D01*
X148094235Y-133544678D01*
X148094236Y-133544681D01*
X148187324Y-133749622D01*
X148187330Y-133749632D01*
X148315507Y-133934645D01*
X148315511Y-133934650D01*
X148315514Y-133934654D01*
X148474679Y-134093819D01*
X148474683Y-134093822D01*
X148474687Y-134093825D01*
X148492457Y-134106136D01*
X148659707Y-134222007D01*
X148864650Y-134315096D01*
X148864654Y-134315097D01*
X149082912Y-134370094D01*
X149082914Y-134370094D01*
X149082921Y-134370096D01*
X149215116Y-134380500D01*
X150543549Y-134380499D01*
X150675745Y-134370096D01*
X150894016Y-134315096D01*
X151098959Y-134222007D01*
X151266208Y-134106135D01*
X151332524Y-134084139D01*
X151398824Y-134100677D01*
X151559117Y-134193222D01*
X151559118Y-134193222D01*
X151559121Y-134193224D01*
X151783233Y-134286054D01*
X152017544Y-134348838D01*
X152197919Y-134372584D01*
X152258044Y-134380500D01*
X152258045Y-134380500D01*
X152500622Y-134380500D01*
X152548721Y-134374167D01*
X152741122Y-134348838D01*
X152975433Y-134286054D01*
X153199545Y-134193224D01*
X153409622Y-134071936D01*
X153602071Y-133924265D01*
X153773598Y-133752738D01*
X153876146Y-133619093D01*
X153932573Y-133577891D01*
X154002319Y-133573736D01*
X154047407Y-133594262D01*
X154171775Y-133684620D01*
X154361115Y-133781095D01*
X154563204Y-133846757D01*
X154629333Y-133857231D01*
X154629333Y-132809145D01*
X154695990Y-132847630D01*
X154816798Y-132880000D01*
X154941868Y-132880000D01*
X155062676Y-132847630D01*
X155129333Y-132809145D01*
X155129333Y-133857230D01*
X155195459Y-133846757D01*
X155195462Y-133846757D01*
X155397550Y-133781095D01*
X155586890Y-133684620D01*
X155758792Y-133559727D01*
X155758797Y-133559723D01*
X155909056Y-133409464D01*
X155909060Y-133409459D01*
X156033953Y-133237557D01*
X156130428Y-133048217D01*
X156196090Y-132846130D01*
X156196090Y-132846127D01*
X156226363Y-132655000D01*
X155283479Y-132655000D01*
X155321963Y-132588343D01*
X155354333Y-132467535D01*
X155354333Y-132342465D01*
X155321963Y-132221657D01*
X155283479Y-132155000D01*
X156226363Y-132155000D01*
X156196090Y-131963872D01*
X156196090Y-131963869D01*
X156130428Y-131761782D01*
X156033953Y-131572442D01*
X155909060Y-131400540D01*
X155909056Y-131400535D01*
X155758797Y-131250276D01*
X155758792Y-131250272D01*
X155586890Y-131125379D01*
X155408503Y-131034485D01*
X155357707Y-130986510D01*
X155340912Y-130918689D01*
X155363450Y-130852554D01*
X155418165Y-130809103D01*
X155464798Y-130800000D01*
X161201622Y-130800000D01*
X161268661Y-130819685D01*
X161314416Y-130872489D01*
X161324360Y-130941647D01*
X161303550Y-130994616D01*
X161257997Y-131060367D01*
X161257991Y-131060377D01*
X161164903Y-131265318D01*
X161164902Y-131265321D01*
X161109905Y-131483579D01*
X161109904Y-131483586D01*
X161099500Y-131615777D01*
X161099500Y-133194208D01*
X161099501Y-133194223D01*
X161109904Y-133326413D01*
X161109905Y-133326420D01*
X161164902Y-133544678D01*
X161164903Y-133544681D01*
X161257991Y-133749622D01*
X161257997Y-133749632D01*
X161386174Y-133934645D01*
X161386178Y-133934650D01*
X161386181Y-133934654D01*
X161545346Y-134093819D01*
X161545350Y-134093822D01*
X161545354Y-134093825D01*
X161563124Y-134106136D01*
X161730374Y-134222007D01*
X161935317Y-134315096D01*
X161935321Y-134315097D01*
X162153579Y-134370094D01*
X162153581Y-134370094D01*
X162153588Y-134370096D01*
X162285783Y-134380500D01*
X163614216Y-134380499D01*
X163746412Y-134370096D01*
X163964683Y-134315096D01*
X164169626Y-134222007D01*
X164336875Y-134106135D01*
X164403191Y-134084139D01*
X164469491Y-134100677D01*
X164629784Y-134193222D01*
X164629785Y-134193222D01*
X164629788Y-134193224D01*
X164853900Y-134286054D01*
X165088211Y-134348838D01*
X165268586Y-134372584D01*
X165328711Y-134380500D01*
X165328712Y-134380500D01*
X165571289Y-134380500D01*
X165619388Y-134374167D01*
X165811789Y-134348838D01*
X166046100Y-134286054D01*
X166270212Y-134193224D01*
X166480289Y-134071936D01*
X166672738Y-133924265D01*
X166844265Y-133752738D01*
X166946813Y-133619093D01*
X167003240Y-133577891D01*
X167072986Y-133573736D01*
X167118074Y-133594262D01*
X167242442Y-133684620D01*
X167431782Y-133781095D01*
X167633871Y-133846757D01*
X167700000Y-133857231D01*
X167700000Y-132809145D01*
X167766657Y-132847630D01*
X167887465Y-132880000D01*
X168012535Y-132880000D01*
X168133343Y-132847630D01*
X168200000Y-132809145D01*
X168200000Y-133857230D01*
X168266126Y-133846757D01*
X168266129Y-133846757D01*
X168468217Y-133781095D01*
X168657557Y-133684620D01*
X168829459Y-133559727D01*
X168829464Y-133559723D01*
X168979723Y-133409464D01*
X168979727Y-133409459D01*
X169104620Y-133237557D01*
X169201095Y-133048217D01*
X169266757Y-132846130D01*
X169266757Y-132846127D01*
X169297030Y-132655000D01*
X168354146Y-132655000D01*
X168392630Y-132588343D01*
X168425000Y-132467535D01*
X168425000Y-132342465D01*
X168392630Y-132221657D01*
X168354146Y-132155000D01*
X169297030Y-132155000D01*
X169266757Y-131963872D01*
X169266757Y-131963869D01*
X169201095Y-131761782D01*
X169104620Y-131572442D01*
X168979727Y-131400540D01*
X168979723Y-131400535D01*
X168829464Y-131250276D01*
X168829459Y-131250272D01*
X168657557Y-131125379D01*
X168479170Y-131034485D01*
X168428374Y-130986510D01*
X168411579Y-130918689D01*
X168434117Y-130852554D01*
X168488832Y-130809103D01*
X168535465Y-130800000D01*
X171026000Y-130800000D01*
X171093039Y-130819685D01*
X171138794Y-130872489D01*
X171150000Y-130924000D01*
X171150000Y-137675500D01*
X171130315Y-137742539D01*
X171077511Y-137788294D01*
X171026000Y-137799500D01*
X117302592Y-137799500D01*
X117312010Y-134600499D01*
X117508036Y-134600499D01*
X117627418Y-134589886D01*
X117823049Y-134533909D01*
X118003407Y-134439698D01*
X118161109Y-134311109D01*
X118289698Y-134153407D01*
X118383909Y-133973049D01*
X118439886Y-133777418D01*
X118450500Y-133658037D01*
X118450499Y-131541964D01*
X118439886Y-131422582D01*
X118390582Y-131250272D01*
X118383910Y-131226954D01*
X118383909Y-131226953D01*
X118383909Y-131226951D01*
X118289698Y-131046593D01*
X118253630Y-131002359D01*
X118226522Y-130937965D01*
X118238531Y-130869135D01*
X118285846Y-130817725D01*
X118349733Y-130800000D01*
X121989622Y-130800000D01*
X122056661Y-130819685D01*
G37*
%TD.AperFunction*%
%TD*%
M02*
