%TF.GenerationSoftware,KiCad,Pcbnew,10.0.1*%
%TF.CreationDate,2026-05-05T20:54:15+02:00*%
%TF.ProjectId,MMS3_hat_servo,4d4d5333-5f68-4617-945f-736572766f2e,R0*%
%TF.SameCoordinates,Original*%
%TF.FileFunction,Legend,Bot*%
%TF.FilePolarity,Positive*%
%FSLAX46Y46*%
G04 Gerber Fmt 4.6, Leading zero omitted, Abs format (unit mm)*
G04 Created by KiCad (PCBNEW 10.0.1) date 2026-05-05 20:54:15*
%MOMM*%
%LPD*%
G01*
G04 APERTURE LIST*
G04 Aperture macros list*
%AMRoundRect*
0 Rectangle with rounded corners*
0 $1 Rounding radius*
0 $2 $3 $4 $5 $6 $7 $8 $9 X,Y pos of 4 corners*
0 Add a 4 corners polygon primitive as box body*
4,1,4,$2,$3,$4,$5,$6,$7,$8,$9,$2,$3,0*
0 Add four circle primitives for the rounded corners*
1,1,$1+$1,$2,$3*
1,1,$1+$1,$4,$5*
1,1,$1+$1,$6,$7*
1,1,$1+$1,$8,$9*
0 Add four rect primitives between the rounded corners*
20,1,$1+$1,$2,$3,$4,$5,0*
20,1,$1+$1,$4,$5,$6,$7,0*
20,1,$1+$1,$6,$7,$8,$9,0*
20,1,$1+$1,$8,$9,$2,$3,0*%
G04 Aperture macros list end*
%ADD10C,0.100000*%
%ADD11C,0.200000*%
%ADD12C,0.150000*%
%ADD13C,0.220000*%
%ADD14C,0.300000*%
%ADD15C,0.400000*%
%ADD16C,0.120000*%
%ADD17C,0.000000*%
%ADD18C,3.100000*%
%ADD19R,0.900000X2.000000*%
%ADD20RoundRect,1.025000X1.025000X1.025000X-1.025000X1.025000X-1.025000X-1.025000X1.025000X-1.025000X0*%
%ADD21C,4.100000*%
%ADD22RoundRect,0.250000X-0.600000X-0.725000X0.600000X-0.725000X0.600000X0.725000X-0.600000X0.725000X0*%
%ADD23O,1.700000X1.950000*%
%ADD24C,2.700000*%
%ADD25R,1.700000X1.700000*%
%ADD26C,1.700000*%
%ADD27R,1.000000X3.150000*%
G04 APERTURE END LIST*
D10*
X121300000Y-106700000D02*
G75*
G02*
X111300000Y-106700000I-5000000J0D01*
G01*
X111300000Y-106700000D02*
G75*
G02*
X121300000Y-106700000I5000000J0D01*
G01*
X122100000Y-104500000D02*
X137700000Y-104500000D01*
X137700000Y-111500000D01*
X122100000Y-111500000D01*
X122100000Y-104500000D01*
X122150000Y-102050000D02*
X123250000Y-102050000D01*
X122150000Y-103500000D02*
X123250000Y-103500000D01*
X122150000Y-104000000D02*
X122150000Y-101400000D01*
X123297214Y-102800000D02*
G75*
G02*
X122402786Y-102800000I-447214J0D01*
G01*
X122402786Y-102800000D02*
G75*
G02*
X123297214Y-102800000I447214J0D01*
G01*
X123250000Y-102050000D02*
X123550000Y-102350000D01*
X123250000Y-103500000D02*
X123550000Y-103200000D01*
X123550000Y-102400000D02*
X123550000Y-104000000D01*
X123550000Y-104000000D02*
X122150000Y-104000000D01*
X123550000Y-104000000D02*
X153600000Y-104000000D01*
X123950000Y-101400000D02*
X122150000Y-101400000D01*
X123950000Y-101400000D02*
X123950000Y-102400000D01*
X123950000Y-102400000D02*
X123550000Y-102400000D01*
X124800000Y-120300000D02*
X148300000Y-120300000D01*
X129950000Y-92150000D02*
X139150000Y-92150000D01*
X129950000Y-92375000D02*
X129950000Y-91925000D01*
X138100000Y-104500000D02*
X153600000Y-111500000D01*
X138100000Y-104500000D02*
X153600000Y-104500000D01*
X153600000Y-111500000D01*
X138100000Y-111500000D01*
X138100000Y-104500000D01*
X139150000Y-92375000D02*
X139150000Y-91925000D01*
X139850000Y-92150000D02*
X149050000Y-92150000D01*
X139850000Y-92375000D02*
X139850000Y-91925000D01*
X149050000Y-92375000D02*
X149050000Y-91925000D01*
X151800000Y-101400000D02*
X123950000Y-101400000D01*
X151800000Y-101400000D02*
X151800000Y-102400000D01*
X151800000Y-101400000D02*
X153600000Y-101400000D01*
X151800000Y-102400000D02*
X152200000Y-102400000D01*
X152200000Y-102400000D02*
X152200000Y-104000000D01*
X152500000Y-102050000D02*
X152200000Y-102350000D01*
X153347214Y-102800000D02*
G75*
G02*
X152452786Y-102800000I-447214J0D01*
G01*
X152452786Y-102800000D02*
G75*
G02*
X153347214Y-102800000I447214J0D01*
G01*
X153600000Y-102050000D02*
X152500000Y-102050000D01*
X153600000Y-104000000D02*
X153600000Y-101400000D01*
X156300000Y-127400000D02*
X160400000Y-127400000D01*
D11*
X156394951Y-126720139D02*
X156407503Y-123509913D01*
X157300162Y-123154510D02*
G75*
G02*
X158403863Y-123121440I578338J-867490D01*
G01*
X157310684Y-123154323D02*
G75*
G02*
X156407503Y-123509907I-879984J910323D01*
G01*
X157330085Y-126364142D02*
G75*
G02*
X158433818Y-126331018I578415J-868058D01*
G01*
X157341646Y-126365030D02*
G75*
G02*
X156394953Y-126719506I-880946J911330D01*
G01*
X158418643Y-126330292D02*
X158435533Y-123142265D01*
X158418643Y-126330292D02*
G75*
G02*
X159522350Y-126363372I525357J-900608D01*
G01*
X158435533Y-123142265D02*
G75*
G02*
X159511834Y-123168767I516667J-885735D01*
G01*
X160399843Y-126711291D02*
G75*
G02*
X159517157Y-126357672I-8043J1258391D01*
G01*
X160399843Y-126711291D02*
X160410469Y-123527828D01*
D10*
X160400000Y-127400000D02*
X159950000Y-127850000D01*
D11*
X160410469Y-123527828D02*
G75*
G02*
X159511837Y-123168761I-10469J1277828D01*
G01*
D10*
X137077068Y-105107507D02*
X136734211Y-105107507D01*
X136905639Y-105707507D02*
X136905639Y-105107507D01*
X136534210Y-105707507D02*
X136534210Y-105107507D01*
X136277068Y-105707507D02*
X136277068Y-105393221D01*
X136277068Y-105393221D02*
X136305639Y-105336078D01*
X136305639Y-105336078D02*
X136362782Y-105307507D01*
X136362782Y-105307507D02*
X136448496Y-105307507D01*
X136448496Y-105307507D02*
X136505639Y-105336078D01*
X136505639Y-105336078D02*
X136534210Y-105364650D01*
X135991353Y-105707507D02*
X135991353Y-105307507D01*
X135991353Y-105107507D02*
X136019925Y-105136078D01*
X136019925Y-105136078D02*
X135991353Y-105164650D01*
X135991353Y-105164650D02*
X135962782Y-105136078D01*
X135962782Y-105136078D02*
X135991353Y-105107507D01*
X135991353Y-105107507D02*
X135991353Y-105164650D01*
X135734211Y-105678936D02*
X135677068Y-105707507D01*
X135677068Y-105707507D02*
X135562782Y-105707507D01*
X135562782Y-105707507D02*
X135505639Y-105678936D01*
X135505639Y-105678936D02*
X135477068Y-105621793D01*
X135477068Y-105621793D02*
X135477068Y-105593221D01*
X135477068Y-105593221D02*
X135505639Y-105536078D01*
X135505639Y-105536078D02*
X135562782Y-105507507D01*
X135562782Y-105507507D02*
X135648497Y-105507507D01*
X135648497Y-105507507D02*
X135705639Y-105478936D01*
X135705639Y-105478936D02*
X135734211Y-105421793D01*
X135734211Y-105421793D02*
X135734211Y-105393221D01*
X135734211Y-105393221D02*
X135705639Y-105336078D01*
X135705639Y-105336078D02*
X135648497Y-105307507D01*
X135648497Y-105307507D02*
X135562782Y-105307507D01*
X135562782Y-105307507D02*
X135505639Y-105336078D01*
X134762782Y-105707507D02*
X134762782Y-105307507D01*
X134762782Y-105107507D02*
X134791354Y-105136078D01*
X134791354Y-105136078D02*
X134762782Y-105164650D01*
X134762782Y-105164650D02*
X134734211Y-105136078D01*
X134734211Y-105136078D02*
X134762782Y-105107507D01*
X134762782Y-105107507D02*
X134762782Y-105164650D01*
X134505640Y-105678936D02*
X134448497Y-105707507D01*
X134448497Y-105707507D02*
X134334211Y-105707507D01*
X134334211Y-105707507D02*
X134277068Y-105678936D01*
X134277068Y-105678936D02*
X134248497Y-105621793D01*
X134248497Y-105621793D02*
X134248497Y-105593221D01*
X134248497Y-105593221D02*
X134277068Y-105536078D01*
X134277068Y-105536078D02*
X134334211Y-105507507D01*
X134334211Y-105507507D02*
X134419926Y-105507507D01*
X134419926Y-105507507D02*
X134477068Y-105478936D01*
X134477068Y-105478936D02*
X134505640Y-105421793D01*
X134505640Y-105421793D02*
X134505640Y-105393221D01*
X134505640Y-105393221D02*
X134477068Y-105336078D01*
X134477068Y-105336078D02*
X134419926Y-105307507D01*
X134419926Y-105307507D02*
X134334211Y-105307507D01*
X134334211Y-105307507D02*
X134277068Y-105336078D01*
X133534211Y-105307507D02*
X133534211Y-105907507D01*
X133534211Y-105336078D02*
X133477069Y-105307507D01*
X133477069Y-105307507D02*
X133362783Y-105307507D01*
X133362783Y-105307507D02*
X133305640Y-105336078D01*
X133305640Y-105336078D02*
X133277069Y-105364650D01*
X133277069Y-105364650D02*
X133248497Y-105421793D01*
X133248497Y-105421793D02*
X133248497Y-105593221D01*
X133248497Y-105593221D02*
X133277069Y-105650364D01*
X133277069Y-105650364D02*
X133305640Y-105678936D01*
X133305640Y-105678936D02*
X133362783Y-105707507D01*
X133362783Y-105707507D02*
X133477069Y-105707507D01*
X133477069Y-105707507D02*
X133534211Y-105678936D01*
X132991354Y-105707507D02*
X132991354Y-105307507D01*
X132991354Y-105421793D02*
X132962783Y-105364650D01*
X132962783Y-105364650D02*
X132934212Y-105336078D01*
X132934212Y-105336078D02*
X132877069Y-105307507D01*
X132877069Y-105307507D02*
X132819926Y-105307507D01*
X132534211Y-105707507D02*
X132591354Y-105678936D01*
X132591354Y-105678936D02*
X132619925Y-105650364D01*
X132619925Y-105650364D02*
X132648497Y-105593221D01*
X132648497Y-105593221D02*
X132648497Y-105421793D01*
X132648497Y-105421793D02*
X132619925Y-105364650D01*
X132619925Y-105364650D02*
X132591354Y-105336078D01*
X132591354Y-105336078D02*
X132534211Y-105307507D01*
X132534211Y-105307507D02*
X132448497Y-105307507D01*
X132448497Y-105307507D02*
X132391354Y-105336078D01*
X132391354Y-105336078D02*
X132362783Y-105364650D01*
X132362783Y-105364650D02*
X132334211Y-105421793D01*
X132334211Y-105421793D02*
X132334211Y-105593221D01*
X132334211Y-105593221D02*
X132362783Y-105650364D01*
X132362783Y-105650364D02*
X132391354Y-105678936D01*
X132391354Y-105678936D02*
X132448497Y-105707507D01*
X132448497Y-105707507D02*
X132534211Y-105707507D01*
X132162783Y-105307507D02*
X131934211Y-105307507D01*
X132077068Y-105107507D02*
X132077068Y-105621793D01*
X132077068Y-105621793D02*
X132048497Y-105678936D01*
X132048497Y-105678936D02*
X131991354Y-105707507D01*
X131991354Y-105707507D02*
X131934211Y-105707507D01*
X131648497Y-105707507D02*
X131705640Y-105678936D01*
X131705640Y-105678936D02*
X131734211Y-105650364D01*
X131734211Y-105650364D02*
X131762783Y-105593221D01*
X131762783Y-105593221D02*
X131762783Y-105421793D01*
X131762783Y-105421793D02*
X131734211Y-105364650D01*
X131734211Y-105364650D02*
X131705640Y-105336078D01*
X131705640Y-105336078D02*
X131648497Y-105307507D01*
X131648497Y-105307507D02*
X131562783Y-105307507D01*
X131562783Y-105307507D02*
X131505640Y-105336078D01*
X131505640Y-105336078D02*
X131477069Y-105364650D01*
X131477069Y-105364650D02*
X131448497Y-105421793D01*
X131448497Y-105421793D02*
X131448497Y-105593221D01*
X131448497Y-105593221D02*
X131477069Y-105650364D01*
X131477069Y-105650364D02*
X131505640Y-105678936D01*
X131505640Y-105678936D02*
X131562783Y-105707507D01*
X131562783Y-105707507D02*
X131648497Y-105707507D01*
X131277069Y-105307507D02*
X131048497Y-105307507D01*
X131191354Y-105107507D02*
X131191354Y-105621793D01*
X131191354Y-105621793D02*
X131162783Y-105678936D01*
X131162783Y-105678936D02*
X131105640Y-105707507D01*
X131105640Y-105707507D02*
X131048497Y-105707507D01*
X130905640Y-105307507D02*
X130762783Y-105707507D01*
X130619926Y-105307507D02*
X130762783Y-105707507D01*
X130762783Y-105707507D02*
X130819926Y-105850364D01*
X130819926Y-105850364D02*
X130848497Y-105878936D01*
X130848497Y-105878936D02*
X130905640Y-105907507D01*
X130391354Y-105307507D02*
X130391354Y-105907507D01*
X130391354Y-105336078D02*
X130334212Y-105307507D01*
X130334212Y-105307507D02*
X130219926Y-105307507D01*
X130219926Y-105307507D02*
X130162783Y-105336078D01*
X130162783Y-105336078D02*
X130134212Y-105364650D01*
X130134212Y-105364650D02*
X130105640Y-105421793D01*
X130105640Y-105421793D02*
X130105640Y-105593221D01*
X130105640Y-105593221D02*
X130134212Y-105650364D01*
X130134212Y-105650364D02*
X130162783Y-105678936D01*
X130162783Y-105678936D02*
X130219926Y-105707507D01*
X130219926Y-105707507D02*
X130334212Y-105707507D01*
X130334212Y-105707507D02*
X130391354Y-105678936D01*
X129619926Y-105678936D02*
X129677069Y-105707507D01*
X129677069Y-105707507D02*
X129791355Y-105707507D01*
X129791355Y-105707507D02*
X129848497Y-105678936D01*
X129848497Y-105678936D02*
X129877069Y-105621793D01*
X129877069Y-105621793D02*
X129877069Y-105393221D01*
X129877069Y-105393221D02*
X129848497Y-105336078D01*
X129848497Y-105336078D02*
X129791355Y-105307507D01*
X129791355Y-105307507D02*
X129677069Y-105307507D01*
X129677069Y-105307507D02*
X129619926Y-105336078D01*
X129619926Y-105336078D02*
X129591355Y-105393221D01*
X129591355Y-105393221D02*
X129591355Y-105450364D01*
X129591355Y-105450364D02*
X129877069Y-105507507D01*
X128619926Y-105707507D02*
X128619926Y-105107507D01*
X128619926Y-105678936D02*
X128677068Y-105707507D01*
X128677068Y-105707507D02*
X128791354Y-105707507D01*
X128791354Y-105707507D02*
X128848497Y-105678936D01*
X128848497Y-105678936D02*
X128877068Y-105650364D01*
X128877068Y-105650364D02*
X128905640Y-105593221D01*
X128905640Y-105593221D02*
X128905640Y-105421793D01*
X128905640Y-105421793D02*
X128877068Y-105364650D01*
X128877068Y-105364650D02*
X128848497Y-105336078D01*
X128848497Y-105336078D02*
X128791354Y-105307507D01*
X128791354Y-105307507D02*
X128677068Y-105307507D01*
X128677068Y-105307507D02*
X128619926Y-105336078D01*
X128105640Y-105678936D02*
X128162783Y-105707507D01*
X128162783Y-105707507D02*
X128277069Y-105707507D01*
X128277069Y-105707507D02*
X128334211Y-105678936D01*
X128334211Y-105678936D02*
X128362783Y-105621793D01*
X128362783Y-105621793D02*
X128362783Y-105393221D01*
X128362783Y-105393221D02*
X128334211Y-105336078D01*
X128334211Y-105336078D02*
X128277069Y-105307507D01*
X128277069Y-105307507D02*
X128162783Y-105307507D01*
X128162783Y-105307507D02*
X128105640Y-105336078D01*
X128105640Y-105336078D02*
X128077069Y-105393221D01*
X128077069Y-105393221D02*
X128077069Y-105450364D01*
X128077069Y-105450364D02*
X128362783Y-105507507D01*
X127877068Y-105307507D02*
X127734211Y-105707507D01*
X127734211Y-105707507D02*
X127591354Y-105307507D01*
X127362782Y-105707507D02*
X127362782Y-105307507D01*
X127362782Y-105107507D02*
X127391354Y-105136078D01*
X127391354Y-105136078D02*
X127362782Y-105164650D01*
X127362782Y-105164650D02*
X127334211Y-105136078D01*
X127334211Y-105136078D02*
X127362782Y-105107507D01*
X127362782Y-105107507D02*
X127362782Y-105164650D01*
X126819926Y-105678936D02*
X126877068Y-105707507D01*
X126877068Y-105707507D02*
X126991354Y-105707507D01*
X126991354Y-105707507D02*
X127048497Y-105678936D01*
X127048497Y-105678936D02*
X127077068Y-105650364D01*
X127077068Y-105650364D02*
X127105640Y-105593221D01*
X127105640Y-105593221D02*
X127105640Y-105421793D01*
X127105640Y-105421793D02*
X127077068Y-105364650D01*
X127077068Y-105364650D02*
X127048497Y-105336078D01*
X127048497Y-105336078D02*
X126991354Y-105307507D01*
X126991354Y-105307507D02*
X126877068Y-105307507D01*
X126877068Y-105307507D02*
X126819926Y-105336078D01*
X126334211Y-105678936D02*
X126391354Y-105707507D01*
X126391354Y-105707507D02*
X126505640Y-105707507D01*
X126505640Y-105707507D02*
X126562782Y-105678936D01*
X126562782Y-105678936D02*
X126591354Y-105621793D01*
X126591354Y-105621793D02*
X126591354Y-105393221D01*
X126591354Y-105393221D02*
X126562782Y-105336078D01*
X126562782Y-105336078D02*
X126505640Y-105307507D01*
X126505640Y-105307507D02*
X126391354Y-105307507D01*
X126391354Y-105307507D02*
X126334211Y-105336078D01*
X126334211Y-105336078D02*
X126305640Y-105393221D01*
X126305640Y-105393221D02*
X126305640Y-105450364D01*
X126305640Y-105450364D02*
X126591354Y-105507507D01*
X136991353Y-106673473D02*
X136991353Y-106073473D01*
X136791354Y-106273473D02*
X136562782Y-106273473D01*
X136705639Y-106073473D02*
X136705639Y-106587759D01*
X136705639Y-106587759D02*
X136677068Y-106644902D01*
X136677068Y-106644902D02*
X136619925Y-106673473D01*
X136619925Y-106673473D02*
X136562782Y-106673473D01*
X135905639Y-106673473D02*
X135905639Y-106273473D01*
X135905639Y-106073473D02*
X135934211Y-106102044D01*
X135934211Y-106102044D02*
X135905639Y-106130616D01*
X135905639Y-106130616D02*
X135877068Y-106102044D01*
X135877068Y-106102044D02*
X135905639Y-106073473D01*
X135905639Y-106073473D02*
X135905639Y-106130616D01*
X135648497Y-106644902D02*
X135591354Y-106673473D01*
X135591354Y-106673473D02*
X135477068Y-106673473D01*
X135477068Y-106673473D02*
X135419925Y-106644902D01*
X135419925Y-106644902D02*
X135391354Y-106587759D01*
X135391354Y-106587759D02*
X135391354Y-106559187D01*
X135391354Y-106559187D02*
X135419925Y-106502044D01*
X135419925Y-106502044D02*
X135477068Y-106473473D01*
X135477068Y-106473473D02*
X135562783Y-106473473D01*
X135562783Y-106473473D02*
X135619925Y-106444902D01*
X135619925Y-106444902D02*
X135648497Y-106387759D01*
X135648497Y-106387759D02*
X135648497Y-106359187D01*
X135648497Y-106359187D02*
X135619925Y-106302044D01*
X135619925Y-106302044D02*
X135562783Y-106273473D01*
X135562783Y-106273473D02*
X135477068Y-106273473D01*
X135477068Y-106273473D02*
X135419925Y-106302044D01*
X134677068Y-106273473D02*
X134677068Y-106673473D01*
X134677068Y-106330616D02*
X134648497Y-106302044D01*
X134648497Y-106302044D02*
X134591354Y-106273473D01*
X134591354Y-106273473D02*
X134505640Y-106273473D01*
X134505640Y-106273473D02*
X134448497Y-106302044D01*
X134448497Y-106302044D02*
X134419926Y-106359187D01*
X134419926Y-106359187D02*
X134419926Y-106673473D01*
X134048497Y-106673473D02*
X134105640Y-106644902D01*
X134105640Y-106644902D02*
X134134211Y-106616330D01*
X134134211Y-106616330D02*
X134162783Y-106559187D01*
X134162783Y-106559187D02*
X134162783Y-106387759D01*
X134162783Y-106387759D02*
X134134211Y-106330616D01*
X134134211Y-106330616D02*
X134105640Y-106302044D01*
X134105640Y-106302044D02*
X134048497Y-106273473D01*
X134048497Y-106273473D02*
X133962783Y-106273473D01*
X133962783Y-106273473D02*
X133905640Y-106302044D01*
X133905640Y-106302044D02*
X133877069Y-106330616D01*
X133877069Y-106330616D02*
X133848497Y-106387759D01*
X133848497Y-106387759D02*
X133848497Y-106559187D01*
X133848497Y-106559187D02*
X133877069Y-106616330D01*
X133877069Y-106616330D02*
X133905640Y-106644902D01*
X133905640Y-106644902D02*
X133962783Y-106673473D01*
X133962783Y-106673473D02*
X134048497Y-106673473D01*
X133677069Y-106273473D02*
X133448497Y-106273473D01*
X133591354Y-106073473D02*
X133591354Y-106587759D01*
X133591354Y-106587759D02*
X133562783Y-106644902D01*
X133562783Y-106644902D02*
X133505640Y-106673473D01*
X133505640Y-106673473D02*
X133448497Y-106673473D01*
X132534212Y-106644902D02*
X132591354Y-106673473D01*
X132591354Y-106673473D02*
X132705640Y-106673473D01*
X132705640Y-106673473D02*
X132762783Y-106644902D01*
X132762783Y-106644902D02*
X132791354Y-106616330D01*
X132791354Y-106616330D02*
X132819926Y-106559187D01*
X132819926Y-106559187D02*
X132819926Y-106387759D01*
X132819926Y-106387759D02*
X132791354Y-106330616D01*
X132791354Y-106330616D02*
X132762783Y-106302044D01*
X132762783Y-106302044D02*
X132705640Y-106273473D01*
X132705640Y-106273473D02*
X132591354Y-106273473D01*
X132591354Y-106273473D02*
X132534212Y-106302044D01*
X132048497Y-106644902D02*
X132105640Y-106673473D01*
X132105640Y-106673473D02*
X132219926Y-106673473D01*
X132219926Y-106673473D02*
X132277068Y-106644902D01*
X132277068Y-106644902D02*
X132305640Y-106587759D01*
X132305640Y-106587759D02*
X132305640Y-106359187D01*
X132305640Y-106359187D02*
X132277068Y-106302044D01*
X132277068Y-106302044D02*
X132219926Y-106273473D01*
X132219926Y-106273473D02*
X132105640Y-106273473D01*
X132105640Y-106273473D02*
X132048497Y-106302044D01*
X132048497Y-106302044D02*
X132019926Y-106359187D01*
X132019926Y-106359187D02*
X132019926Y-106416330D01*
X132019926Y-106416330D02*
X132305640Y-106473473D01*
X131762782Y-106673473D02*
X131762782Y-106273473D01*
X131762782Y-106387759D02*
X131734211Y-106330616D01*
X131734211Y-106330616D02*
X131705640Y-106302044D01*
X131705640Y-106302044D02*
X131648497Y-106273473D01*
X131648497Y-106273473D02*
X131591354Y-106273473D01*
X131477068Y-106273473D02*
X131248496Y-106273473D01*
X131391353Y-106073473D02*
X131391353Y-106587759D01*
X131391353Y-106587759D02*
X131362782Y-106644902D01*
X131362782Y-106644902D02*
X131305639Y-106673473D01*
X131305639Y-106673473D02*
X131248496Y-106673473D01*
X131048496Y-106673473D02*
X131048496Y-106273473D01*
X131048496Y-106073473D02*
X131077068Y-106102044D01*
X131077068Y-106102044D02*
X131048496Y-106130616D01*
X131048496Y-106130616D02*
X131019925Y-106102044D01*
X131019925Y-106102044D02*
X131048496Y-106073473D01*
X131048496Y-106073473D02*
X131048496Y-106130616D01*
X130848497Y-106273473D02*
X130619925Y-106273473D01*
X130762782Y-106673473D02*
X130762782Y-106159187D01*
X130762782Y-106159187D02*
X130734211Y-106102044D01*
X130734211Y-106102044D02*
X130677068Y-106073473D01*
X130677068Y-106073473D02*
X130619925Y-106073473D01*
X130419925Y-106673473D02*
X130419925Y-106273473D01*
X130419925Y-106073473D02*
X130448497Y-106102044D01*
X130448497Y-106102044D02*
X130419925Y-106130616D01*
X130419925Y-106130616D02*
X130391354Y-106102044D01*
X130391354Y-106102044D02*
X130419925Y-106073473D01*
X130419925Y-106073473D02*
X130419925Y-106130616D01*
X129905640Y-106644902D02*
X129962783Y-106673473D01*
X129962783Y-106673473D02*
X130077069Y-106673473D01*
X130077069Y-106673473D02*
X130134211Y-106644902D01*
X130134211Y-106644902D02*
X130162783Y-106587759D01*
X130162783Y-106587759D02*
X130162783Y-106359187D01*
X130162783Y-106359187D02*
X130134211Y-106302044D01*
X130134211Y-106302044D02*
X130077069Y-106273473D01*
X130077069Y-106273473D02*
X129962783Y-106273473D01*
X129962783Y-106273473D02*
X129905640Y-106302044D01*
X129905640Y-106302044D02*
X129877069Y-106359187D01*
X129877069Y-106359187D02*
X129877069Y-106416330D01*
X129877069Y-106416330D02*
X130162783Y-106473473D01*
X129362783Y-106673473D02*
X129362783Y-106073473D01*
X129362783Y-106644902D02*
X129419925Y-106673473D01*
X129419925Y-106673473D02*
X129534211Y-106673473D01*
X129534211Y-106673473D02*
X129591354Y-106644902D01*
X129591354Y-106644902D02*
X129619925Y-106616330D01*
X129619925Y-106616330D02*
X129648497Y-106559187D01*
X129648497Y-106559187D02*
X129648497Y-106387759D01*
X129648497Y-106387759D02*
X129619925Y-106330616D01*
X129619925Y-106330616D02*
X129591354Y-106302044D01*
X129591354Y-106302044D02*
X129534211Y-106273473D01*
X129534211Y-106273473D02*
X129419925Y-106273473D01*
X129419925Y-106273473D02*
X129362783Y-106302044D01*
X128362783Y-106673473D02*
X128362783Y-106359187D01*
X128362783Y-106359187D02*
X128391354Y-106302044D01*
X128391354Y-106302044D02*
X128448497Y-106273473D01*
X128448497Y-106273473D02*
X128562783Y-106273473D01*
X128562783Y-106273473D02*
X128619925Y-106302044D01*
X128362783Y-106644902D02*
X128419925Y-106673473D01*
X128419925Y-106673473D02*
X128562783Y-106673473D01*
X128562783Y-106673473D02*
X128619925Y-106644902D01*
X128619925Y-106644902D02*
X128648497Y-106587759D01*
X128648497Y-106587759D02*
X128648497Y-106530616D01*
X128648497Y-106530616D02*
X128619925Y-106473473D01*
X128619925Y-106473473D02*
X128562783Y-106444902D01*
X128562783Y-106444902D02*
X128419925Y-106444902D01*
X128419925Y-106444902D02*
X128362783Y-106416330D01*
X127819926Y-106644902D02*
X127877068Y-106673473D01*
X127877068Y-106673473D02*
X127991354Y-106673473D01*
X127991354Y-106673473D02*
X128048497Y-106644902D01*
X128048497Y-106644902D02*
X128077068Y-106616330D01*
X128077068Y-106616330D02*
X128105640Y-106559187D01*
X128105640Y-106559187D02*
X128105640Y-106387759D01*
X128105640Y-106387759D02*
X128077068Y-106330616D01*
X128077068Y-106330616D02*
X128048497Y-106302044D01*
X128048497Y-106302044D02*
X127991354Y-106273473D01*
X127991354Y-106273473D02*
X127877068Y-106273473D01*
X127877068Y-106273473D02*
X127819926Y-106302044D01*
X127305640Y-106644902D02*
X127362782Y-106673473D01*
X127362782Y-106673473D02*
X127477068Y-106673473D01*
X127477068Y-106673473D02*
X127534211Y-106644902D01*
X127534211Y-106644902D02*
X127562782Y-106616330D01*
X127562782Y-106616330D02*
X127591354Y-106559187D01*
X127591354Y-106559187D02*
X127591354Y-106387759D01*
X127591354Y-106387759D02*
X127562782Y-106330616D01*
X127562782Y-106330616D02*
X127534211Y-106302044D01*
X127534211Y-106302044D02*
X127477068Y-106273473D01*
X127477068Y-106273473D02*
X127362782Y-106273473D01*
X127362782Y-106273473D02*
X127305640Y-106302044D01*
X126962782Y-106673473D02*
X127019925Y-106644902D01*
X127019925Y-106644902D02*
X127048496Y-106616330D01*
X127048496Y-106616330D02*
X127077068Y-106559187D01*
X127077068Y-106559187D02*
X127077068Y-106387759D01*
X127077068Y-106387759D02*
X127048496Y-106330616D01*
X127048496Y-106330616D02*
X127019925Y-106302044D01*
X127019925Y-106302044D02*
X126962782Y-106273473D01*
X126962782Y-106273473D02*
X126877068Y-106273473D01*
X126877068Y-106273473D02*
X126819925Y-106302044D01*
X126819925Y-106302044D02*
X126791354Y-106330616D01*
X126791354Y-106330616D02*
X126762782Y-106387759D01*
X126762782Y-106387759D02*
X126762782Y-106559187D01*
X126762782Y-106559187D02*
X126791354Y-106616330D01*
X126791354Y-106616330D02*
X126819925Y-106644902D01*
X126819925Y-106644902D02*
X126877068Y-106673473D01*
X126877068Y-106673473D02*
X126962782Y-106673473D01*
X126505639Y-106673473D02*
X126505639Y-106273473D01*
X126505639Y-106387759D02*
X126477068Y-106330616D01*
X126477068Y-106330616D02*
X126448497Y-106302044D01*
X126448497Y-106302044D02*
X126391354Y-106273473D01*
X126391354Y-106273473D02*
X126334211Y-106273473D01*
X125877068Y-106673473D02*
X125877068Y-106073473D01*
X125877068Y-106644902D02*
X125934210Y-106673473D01*
X125934210Y-106673473D02*
X126048496Y-106673473D01*
X126048496Y-106673473D02*
X126105639Y-106644902D01*
X126105639Y-106644902D02*
X126134210Y-106616330D01*
X126134210Y-106616330D02*
X126162782Y-106559187D01*
X126162782Y-106559187D02*
X126162782Y-106387759D01*
X126162782Y-106387759D02*
X126134210Y-106330616D01*
X126134210Y-106330616D02*
X126105639Y-106302044D01*
X126105639Y-106302044D02*
X126048496Y-106273473D01*
X126048496Y-106273473D02*
X125934210Y-106273473D01*
X125934210Y-106273473D02*
X125877068Y-106302044D01*
X125591353Y-106673473D02*
X125591353Y-106273473D01*
X125591353Y-106073473D02*
X125619925Y-106102044D01*
X125619925Y-106102044D02*
X125591353Y-106130616D01*
X125591353Y-106130616D02*
X125562782Y-106102044D01*
X125562782Y-106102044D02*
X125591353Y-106073473D01*
X125591353Y-106073473D02*
X125591353Y-106130616D01*
X125305639Y-106273473D02*
X125305639Y-106673473D01*
X125305639Y-106330616D02*
X125277068Y-106302044D01*
X125277068Y-106302044D02*
X125219925Y-106273473D01*
X125219925Y-106273473D02*
X125134211Y-106273473D01*
X125134211Y-106273473D02*
X125077068Y-106302044D01*
X125077068Y-106302044D02*
X125048497Y-106359187D01*
X125048497Y-106359187D02*
X125048497Y-106673473D01*
X124505640Y-106273473D02*
X124505640Y-106759187D01*
X124505640Y-106759187D02*
X124534211Y-106816330D01*
X124534211Y-106816330D02*
X124562782Y-106844902D01*
X124562782Y-106844902D02*
X124619925Y-106873473D01*
X124619925Y-106873473D02*
X124705640Y-106873473D01*
X124705640Y-106873473D02*
X124762782Y-106844902D01*
X124505640Y-106644902D02*
X124562782Y-106673473D01*
X124562782Y-106673473D02*
X124677068Y-106673473D01*
X124677068Y-106673473D02*
X124734211Y-106644902D01*
X124734211Y-106644902D02*
X124762782Y-106616330D01*
X124762782Y-106616330D02*
X124791354Y-106559187D01*
X124791354Y-106559187D02*
X124791354Y-106387759D01*
X124791354Y-106387759D02*
X124762782Y-106330616D01*
X124762782Y-106330616D02*
X124734211Y-106302044D01*
X124734211Y-106302044D02*
X124677068Y-106273473D01*
X124677068Y-106273473D02*
X124562782Y-106273473D01*
X124562782Y-106273473D02*
X124505640Y-106302044D01*
X137077068Y-107239439D02*
X136848496Y-107239439D01*
X136991353Y-107039439D02*
X136991353Y-107553725D01*
X136991353Y-107553725D02*
X136962782Y-107610868D01*
X136962782Y-107610868D02*
X136905639Y-107639439D01*
X136905639Y-107639439D02*
X136848496Y-107639439D01*
X136562782Y-107639439D02*
X136619925Y-107610868D01*
X136619925Y-107610868D02*
X136648496Y-107582296D01*
X136648496Y-107582296D02*
X136677068Y-107525153D01*
X136677068Y-107525153D02*
X136677068Y-107353725D01*
X136677068Y-107353725D02*
X136648496Y-107296582D01*
X136648496Y-107296582D02*
X136619925Y-107268010D01*
X136619925Y-107268010D02*
X136562782Y-107239439D01*
X136562782Y-107239439D02*
X136477068Y-107239439D01*
X136477068Y-107239439D02*
X136419925Y-107268010D01*
X136419925Y-107268010D02*
X136391354Y-107296582D01*
X136391354Y-107296582D02*
X136362782Y-107353725D01*
X136362782Y-107353725D02*
X136362782Y-107525153D01*
X136362782Y-107525153D02*
X136391354Y-107582296D01*
X136391354Y-107582296D02*
X136419925Y-107610868D01*
X136419925Y-107610868D02*
X136477068Y-107639439D01*
X136477068Y-107639439D02*
X136562782Y-107639439D01*
X135391354Y-107610868D02*
X135448496Y-107639439D01*
X135448496Y-107639439D02*
X135562782Y-107639439D01*
X135562782Y-107639439D02*
X135619925Y-107610868D01*
X135619925Y-107610868D02*
X135648496Y-107582296D01*
X135648496Y-107582296D02*
X135677068Y-107525153D01*
X135677068Y-107525153D02*
X135677068Y-107353725D01*
X135677068Y-107353725D02*
X135648496Y-107296582D01*
X135648496Y-107296582D02*
X135619925Y-107268010D01*
X135619925Y-107268010D02*
X135562782Y-107239439D01*
X135562782Y-107239439D02*
X135448496Y-107239439D01*
X135448496Y-107239439D02*
X135391354Y-107268010D01*
X134877068Y-107239439D02*
X134877068Y-107639439D01*
X135134210Y-107239439D02*
X135134210Y-107553725D01*
X135134210Y-107553725D02*
X135105639Y-107610868D01*
X135105639Y-107610868D02*
X135048496Y-107639439D01*
X135048496Y-107639439D02*
X134962782Y-107639439D01*
X134962782Y-107639439D02*
X134905639Y-107610868D01*
X134905639Y-107610868D02*
X134877068Y-107582296D01*
X134591353Y-107639439D02*
X134591353Y-107239439D01*
X134591353Y-107353725D02*
X134562782Y-107296582D01*
X134562782Y-107296582D02*
X134534211Y-107268010D01*
X134534211Y-107268010D02*
X134477068Y-107239439D01*
X134477068Y-107239439D02*
X134419925Y-107239439D01*
X134219924Y-107639439D02*
X134219924Y-107239439D01*
X134219924Y-107353725D02*
X134191353Y-107296582D01*
X134191353Y-107296582D02*
X134162782Y-107268010D01*
X134162782Y-107268010D02*
X134105639Y-107239439D01*
X134105639Y-107239439D02*
X134048496Y-107239439D01*
X133619924Y-107610868D02*
X133677067Y-107639439D01*
X133677067Y-107639439D02*
X133791353Y-107639439D01*
X133791353Y-107639439D02*
X133848495Y-107610868D01*
X133848495Y-107610868D02*
X133877067Y-107553725D01*
X133877067Y-107553725D02*
X133877067Y-107325153D01*
X133877067Y-107325153D02*
X133848495Y-107268010D01*
X133848495Y-107268010D02*
X133791353Y-107239439D01*
X133791353Y-107239439D02*
X133677067Y-107239439D01*
X133677067Y-107239439D02*
X133619924Y-107268010D01*
X133619924Y-107268010D02*
X133591353Y-107325153D01*
X133591353Y-107325153D02*
X133591353Y-107382296D01*
X133591353Y-107382296D02*
X133877067Y-107439439D01*
X133334209Y-107239439D02*
X133334209Y-107639439D01*
X133334209Y-107296582D02*
X133305638Y-107268010D01*
X133305638Y-107268010D02*
X133248495Y-107239439D01*
X133248495Y-107239439D02*
X133162781Y-107239439D01*
X133162781Y-107239439D02*
X133105638Y-107268010D01*
X133105638Y-107268010D02*
X133077067Y-107325153D01*
X133077067Y-107325153D02*
X133077067Y-107639439D01*
X132877067Y-107239439D02*
X132648495Y-107239439D01*
X132791352Y-107039439D02*
X132791352Y-107553725D01*
X132791352Y-107553725D02*
X132762781Y-107610868D01*
X132762781Y-107610868D02*
X132705638Y-107639439D01*
X132705638Y-107639439D02*
X132648495Y-107639439D01*
X131991352Y-107325153D02*
X131791352Y-107325153D01*
X131705638Y-107639439D02*
X131991352Y-107639439D01*
X131991352Y-107639439D02*
X131991352Y-107039439D01*
X131991352Y-107039439D02*
X131705638Y-107039439D01*
X131448495Y-107039439D02*
X131448495Y-107525153D01*
X131448495Y-107525153D02*
X131419924Y-107582296D01*
X131419924Y-107582296D02*
X131391353Y-107610868D01*
X131391353Y-107610868D02*
X131334210Y-107639439D01*
X131334210Y-107639439D02*
X131219924Y-107639439D01*
X131219924Y-107639439D02*
X131162781Y-107610868D01*
X131162781Y-107610868D02*
X131134210Y-107582296D01*
X131134210Y-107582296D02*
X131105638Y-107525153D01*
X131105638Y-107525153D02*
X131105638Y-107039439D01*
X130277067Y-107639439D02*
X130334210Y-107610868D01*
X130334210Y-107610868D02*
X130362781Y-107553725D01*
X130362781Y-107553725D02*
X130362781Y-107039439D01*
X129791353Y-107639439D02*
X129791353Y-107325153D01*
X129791353Y-107325153D02*
X129819924Y-107268010D01*
X129819924Y-107268010D02*
X129877067Y-107239439D01*
X129877067Y-107239439D02*
X129991353Y-107239439D01*
X129991353Y-107239439D02*
X130048495Y-107268010D01*
X129791353Y-107610868D02*
X129848495Y-107639439D01*
X129848495Y-107639439D02*
X129991353Y-107639439D01*
X129991353Y-107639439D02*
X130048495Y-107610868D01*
X130048495Y-107610868D02*
X130077067Y-107553725D01*
X130077067Y-107553725D02*
X130077067Y-107496582D01*
X130077067Y-107496582D02*
X130048495Y-107439439D01*
X130048495Y-107439439D02*
X129991353Y-107410868D01*
X129991353Y-107410868D02*
X129848495Y-107410868D01*
X129848495Y-107410868D02*
X129791353Y-107382296D01*
X129562781Y-107239439D02*
X129448496Y-107639439D01*
X129448496Y-107639439D02*
X129334210Y-107353725D01*
X129334210Y-107353725D02*
X129219924Y-107639439D01*
X129219924Y-107639439D02*
X129105638Y-107239439D01*
X128905639Y-107610868D02*
X128848496Y-107639439D01*
X128848496Y-107639439D02*
X128734210Y-107639439D01*
X128734210Y-107639439D02*
X128677067Y-107610868D01*
X128677067Y-107610868D02*
X128648496Y-107553725D01*
X128648496Y-107553725D02*
X128648496Y-107525153D01*
X128648496Y-107525153D02*
X128677067Y-107468010D01*
X128677067Y-107468010D02*
X128734210Y-107439439D01*
X128734210Y-107439439D02*
X128819925Y-107439439D01*
X128819925Y-107439439D02*
X128877067Y-107410868D01*
X128877067Y-107410868D02*
X128905639Y-107353725D01*
X128905639Y-107353725D02*
X128905639Y-107325153D01*
X128905639Y-107325153D02*
X128877067Y-107268010D01*
X128877067Y-107268010D02*
X128819925Y-107239439D01*
X128819925Y-107239439D02*
X128734210Y-107239439D01*
X128734210Y-107239439D02*
X128677067Y-107268010D01*
X128391353Y-107582296D02*
X128362782Y-107610868D01*
X128362782Y-107610868D02*
X128391353Y-107639439D01*
X128391353Y-107639439D02*
X128419925Y-107610868D01*
X128419925Y-107610868D02*
X128391353Y-107582296D01*
X128391353Y-107582296D02*
X128391353Y-107639439D01*
X136991353Y-108605405D02*
X136991353Y-108005405D01*
X136991353Y-108005405D02*
X136848496Y-108005405D01*
X136848496Y-108005405D02*
X136762782Y-108033976D01*
X136762782Y-108033976D02*
X136705639Y-108091119D01*
X136705639Y-108091119D02*
X136677068Y-108148262D01*
X136677068Y-108148262D02*
X136648496Y-108262548D01*
X136648496Y-108262548D02*
X136648496Y-108348262D01*
X136648496Y-108348262D02*
X136677068Y-108462548D01*
X136677068Y-108462548D02*
X136705639Y-108519691D01*
X136705639Y-108519691D02*
X136762782Y-108576834D01*
X136762782Y-108576834D02*
X136848496Y-108605405D01*
X136848496Y-108605405D02*
X136991353Y-108605405D01*
X136305639Y-108605405D02*
X136362782Y-108576834D01*
X136362782Y-108576834D02*
X136391353Y-108548262D01*
X136391353Y-108548262D02*
X136419925Y-108491119D01*
X136419925Y-108491119D02*
X136419925Y-108319691D01*
X136419925Y-108319691D02*
X136391353Y-108262548D01*
X136391353Y-108262548D02*
X136362782Y-108233976D01*
X136362782Y-108233976D02*
X136305639Y-108205405D01*
X136305639Y-108205405D02*
X136219925Y-108205405D01*
X136219925Y-108205405D02*
X136162782Y-108233976D01*
X136162782Y-108233976D02*
X136134211Y-108262548D01*
X136134211Y-108262548D02*
X136105639Y-108319691D01*
X136105639Y-108319691D02*
X136105639Y-108491119D01*
X136105639Y-108491119D02*
X136134211Y-108548262D01*
X136134211Y-108548262D02*
X136162782Y-108576834D01*
X136162782Y-108576834D02*
X136219925Y-108605405D01*
X136219925Y-108605405D02*
X136305639Y-108605405D01*
X135391353Y-108205405D02*
X135391353Y-108605405D01*
X135391353Y-108262548D02*
X135362782Y-108233976D01*
X135362782Y-108233976D02*
X135305639Y-108205405D01*
X135305639Y-108205405D02*
X135219925Y-108205405D01*
X135219925Y-108205405D02*
X135162782Y-108233976D01*
X135162782Y-108233976D02*
X135134211Y-108291119D01*
X135134211Y-108291119D02*
X135134211Y-108605405D01*
X134762782Y-108605405D02*
X134819925Y-108576834D01*
X134819925Y-108576834D02*
X134848496Y-108548262D01*
X134848496Y-108548262D02*
X134877068Y-108491119D01*
X134877068Y-108491119D02*
X134877068Y-108319691D01*
X134877068Y-108319691D02*
X134848496Y-108262548D01*
X134848496Y-108262548D02*
X134819925Y-108233976D01*
X134819925Y-108233976D02*
X134762782Y-108205405D01*
X134762782Y-108205405D02*
X134677068Y-108205405D01*
X134677068Y-108205405D02*
X134619925Y-108233976D01*
X134619925Y-108233976D02*
X134591354Y-108262548D01*
X134591354Y-108262548D02*
X134562782Y-108319691D01*
X134562782Y-108319691D02*
X134562782Y-108491119D01*
X134562782Y-108491119D02*
X134591354Y-108548262D01*
X134591354Y-108548262D02*
X134619925Y-108576834D01*
X134619925Y-108576834D02*
X134677068Y-108605405D01*
X134677068Y-108605405D02*
X134762782Y-108605405D01*
X134391354Y-108205405D02*
X134162782Y-108205405D01*
X134305639Y-108005405D02*
X134305639Y-108519691D01*
X134305639Y-108519691D02*
X134277068Y-108576834D01*
X134277068Y-108576834D02*
X134219925Y-108605405D01*
X134219925Y-108605405D02*
X134162782Y-108605405D01*
X133534211Y-108576834D02*
X133477068Y-108605405D01*
X133477068Y-108605405D02*
X133362782Y-108605405D01*
X133362782Y-108605405D02*
X133305639Y-108576834D01*
X133305639Y-108576834D02*
X133277068Y-108519691D01*
X133277068Y-108519691D02*
X133277068Y-108491119D01*
X133277068Y-108491119D02*
X133305639Y-108433976D01*
X133305639Y-108433976D02*
X133362782Y-108405405D01*
X133362782Y-108405405D02*
X133448497Y-108405405D01*
X133448497Y-108405405D02*
X133505639Y-108376834D01*
X133505639Y-108376834D02*
X133534211Y-108319691D01*
X133534211Y-108319691D02*
X133534211Y-108291119D01*
X133534211Y-108291119D02*
X133505639Y-108233976D01*
X133505639Y-108233976D02*
X133448497Y-108205405D01*
X133448497Y-108205405D02*
X133362782Y-108205405D01*
X133362782Y-108205405D02*
X133305639Y-108233976D01*
X132791354Y-108576834D02*
X132848497Y-108605405D01*
X132848497Y-108605405D02*
X132962783Y-108605405D01*
X132962783Y-108605405D02*
X133019925Y-108576834D01*
X133019925Y-108576834D02*
X133048497Y-108519691D01*
X133048497Y-108519691D02*
X133048497Y-108291119D01*
X133048497Y-108291119D02*
X133019925Y-108233976D01*
X133019925Y-108233976D02*
X132962783Y-108205405D01*
X132962783Y-108205405D02*
X132848497Y-108205405D01*
X132848497Y-108205405D02*
X132791354Y-108233976D01*
X132791354Y-108233976D02*
X132762783Y-108291119D01*
X132762783Y-108291119D02*
X132762783Y-108348262D01*
X132762783Y-108348262D02*
X133048497Y-108405405D01*
X132419925Y-108605405D02*
X132477068Y-108576834D01*
X132477068Y-108576834D02*
X132505639Y-108519691D01*
X132505639Y-108519691D02*
X132505639Y-108005405D01*
X132105639Y-108605405D02*
X132162782Y-108576834D01*
X132162782Y-108576834D02*
X132191353Y-108519691D01*
X132191353Y-108519691D02*
X132191353Y-108005405D01*
X131334210Y-108605405D02*
X131391353Y-108576834D01*
X131391353Y-108576834D02*
X131419924Y-108548262D01*
X131419924Y-108548262D02*
X131448496Y-108491119D01*
X131448496Y-108491119D02*
X131448496Y-108319691D01*
X131448496Y-108319691D02*
X131419924Y-108262548D01*
X131419924Y-108262548D02*
X131391353Y-108233976D01*
X131391353Y-108233976D02*
X131334210Y-108205405D01*
X131334210Y-108205405D02*
X131248496Y-108205405D01*
X131248496Y-108205405D02*
X131191353Y-108233976D01*
X131191353Y-108233976D02*
X131162782Y-108262548D01*
X131162782Y-108262548D02*
X131134210Y-108319691D01*
X131134210Y-108319691D02*
X131134210Y-108491119D01*
X131134210Y-108491119D02*
X131162782Y-108548262D01*
X131162782Y-108548262D02*
X131191353Y-108576834D01*
X131191353Y-108576834D02*
X131248496Y-108605405D01*
X131248496Y-108605405D02*
X131334210Y-108605405D01*
X130877067Y-108605405D02*
X130877067Y-108205405D01*
X130877067Y-108319691D02*
X130848496Y-108262548D01*
X130848496Y-108262548D02*
X130819925Y-108233976D01*
X130819925Y-108233976D02*
X130762782Y-108205405D01*
X130762782Y-108205405D02*
X130705639Y-108205405D01*
X129791353Y-108205405D02*
X129791353Y-108605405D01*
X130048495Y-108205405D02*
X130048495Y-108519691D01*
X130048495Y-108519691D02*
X130019924Y-108576834D01*
X130019924Y-108576834D02*
X129962781Y-108605405D01*
X129962781Y-108605405D02*
X129877067Y-108605405D01*
X129877067Y-108605405D02*
X129819924Y-108576834D01*
X129819924Y-108576834D02*
X129791353Y-108548262D01*
X129534210Y-108576834D02*
X129477067Y-108605405D01*
X129477067Y-108605405D02*
X129362781Y-108605405D01*
X129362781Y-108605405D02*
X129305638Y-108576834D01*
X129305638Y-108576834D02*
X129277067Y-108519691D01*
X129277067Y-108519691D02*
X129277067Y-108491119D01*
X129277067Y-108491119D02*
X129305638Y-108433976D01*
X129305638Y-108433976D02*
X129362781Y-108405405D01*
X129362781Y-108405405D02*
X129448496Y-108405405D01*
X129448496Y-108405405D02*
X129505638Y-108376834D01*
X129505638Y-108376834D02*
X129534210Y-108319691D01*
X129534210Y-108319691D02*
X129534210Y-108291119D01*
X129534210Y-108291119D02*
X129505638Y-108233976D01*
X129505638Y-108233976D02*
X129448496Y-108205405D01*
X129448496Y-108205405D02*
X129362781Y-108205405D01*
X129362781Y-108205405D02*
X129305638Y-108233976D01*
X128791353Y-108576834D02*
X128848496Y-108605405D01*
X128848496Y-108605405D02*
X128962782Y-108605405D01*
X128962782Y-108605405D02*
X129019924Y-108576834D01*
X129019924Y-108576834D02*
X129048496Y-108519691D01*
X129048496Y-108519691D02*
X129048496Y-108291119D01*
X129048496Y-108291119D02*
X129019924Y-108233976D01*
X129019924Y-108233976D02*
X128962782Y-108205405D01*
X128962782Y-108205405D02*
X128848496Y-108205405D01*
X128848496Y-108205405D02*
X128791353Y-108233976D01*
X128791353Y-108233976D02*
X128762782Y-108291119D01*
X128762782Y-108291119D02*
X128762782Y-108348262D01*
X128762782Y-108348262D02*
X129048496Y-108405405D01*
X127962781Y-108605405D02*
X128019924Y-108576834D01*
X128019924Y-108576834D02*
X128048495Y-108548262D01*
X128048495Y-108548262D02*
X128077067Y-108491119D01*
X128077067Y-108491119D02*
X128077067Y-108319691D01*
X128077067Y-108319691D02*
X128048495Y-108262548D01*
X128048495Y-108262548D02*
X128019924Y-108233976D01*
X128019924Y-108233976D02*
X127962781Y-108205405D01*
X127962781Y-108205405D02*
X127877067Y-108205405D01*
X127877067Y-108205405D02*
X127819924Y-108233976D01*
X127819924Y-108233976D02*
X127791353Y-108262548D01*
X127791353Y-108262548D02*
X127762781Y-108319691D01*
X127762781Y-108319691D02*
X127762781Y-108491119D01*
X127762781Y-108491119D02*
X127791353Y-108548262D01*
X127791353Y-108548262D02*
X127819924Y-108576834D01*
X127819924Y-108576834D02*
X127877067Y-108605405D01*
X127877067Y-108605405D02*
X127962781Y-108605405D01*
X127248496Y-108205405D02*
X127248496Y-108605405D01*
X127505638Y-108205405D02*
X127505638Y-108519691D01*
X127505638Y-108519691D02*
X127477067Y-108576834D01*
X127477067Y-108576834D02*
X127419924Y-108605405D01*
X127419924Y-108605405D02*
X127334210Y-108605405D01*
X127334210Y-108605405D02*
X127277067Y-108576834D01*
X127277067Y-108576834D02*
X127248496Y-108548262D01*
X127048496Y-108205405D02*
X126819924Y-108205405D01*
X126962781Y-108005405D02*
X126962781Y-108519691D01*
X126962781Y-108519691D02*
X126934210Y-108576834D01*
X126934210Y-108576834D02*
X126877067Y-108605405D01*
X126877067Y-108605405D02*
X126819924Y-108605405D01*
X126648496Y-108576834D02*
X126591353Y-108605405D01*
X126591353Y-108605405D02*
X126477067Y-108605405D01*
X126477067Y-108605405D02*
X126419924Y-108576834D01*
X126419924Y-108576834D02*
X126391353Y-108519691D01*
X126391353Y-108519691D02*
X126391353Y-108491119D01*
X126391353Y-108491119D02*
X126419924Y-108433976D01*
X126419924Y-108433976D02*
X126477067Y-108405405D01*
X126477067Y-108405405D02*
X126562782Y-108405405D01*
X126562782Y-108405405D02*
X126619924Y-108376834D01*
X126619924Y-108376834D02*
X126648496Y-108319691D01*
X126648496Y-108319691D02*
X126648496Y-108291119D01*
X126648496Y-108291119D02*
X126619924Y-108233976D01*
X126619924Y-108233976D02*
X126562782Y-108205405D01*
X126562782Y-108205405D02*
X126477067Y-108205405D01*
X126477067Y-108205405D02*
X126419924Y-108233976D01*
X126134210Y-108605405D02*
X126134210Y-108205405D01*
X126134210Y-108005405D02*
X126162782Y-108033976D01*
X126162782Y-108033976D02*
X126134210Y-108062548D01*
X126134210Y-108062548D02*
X126105639Y-108033976D01*
X126105639Y-108033976D02*
X126134210Y-108005405D01*
X126134210Y-108005405D02*
X126134210Y-108062548D01*
X125591354Y-108605405D02*
X125591354Y-108005405D01*
X125591354Y-108576834D02*
X125648496Y-108605405D01*
X125648496Y-108605405D02*
X125762782Y-108605405D01*
X125762782Y-108605405D02*
X125819925Y-108576834D01*
X125819925Y-108576834D02*
X125848496Y-108548262D01*
X125848496Y-108548262D02*
X125877068Y-108491119D01*
X125877068Y-108491119D02*
X125877068Y-108319691D01*
X125877068Y-108319691D02*
X125848496Y-108262548D01*
X125848496Y-108262548D02*
X125819925Y-108233976D01*
X125819925Y-108233976D02*
X125762782Y-108205405D01*
X125762782Y-108205405D02*
X125648496Y-108205405D01*
X125648496Y-108205405D02*
X125591354Y-108233976D01*
X125077068Y-108576834D02*
X125134211Y-108605405D01*
X125134211Y-108605405D02*
X125248497Y-108605405D01*
X125248497Y-108605405D02*
X125305639Y-108576834D01*
X125305639Y-108576834D02*
X125334211Y-108519691D01*
X125334211Y-108519691D02*
X125334211Y-108291119D01*
X125334211Y-108291119D02*
X125305639Y-108233976D01*
X125305639Y-108233976D02*
X125248497Y-108205405D01*
X125248497Y-108205405D02*
X125134211Y-108205405D01*
X125134211Y-108205405D02*
X125077068Y-108233976D01*
X125077068Y-108233976D02*
X125048497Y-108291119D01*
X125048497Y-108291119D02*
X125048497Y-108348262D01*
X125048497Y-108348262D02*
X125334211Y-108405405D01*
X124248496Y-108605405D02*
X124305639Y-108576834D01*
X124305639Y-108576834D02*
X124334210Y-108548262D01*
X124334210Y-108548262D02*
X124362782Y-108491119D01*
X124362782Y-108491119D02*
X124362782Y-108319691D01*
X124362782Y-108319691D02*
X124334210Y-108262548D01*
X124334210Y-108262548D02*
X124305639Y-108233976D01*
X124305639Y-108233976D02*
X124248496Y-108205405D01*
X124248496Y-108205405D02*
X124162782Y-108205405D01*
X124162782Y-108205405D02*
X124105639Y-108233976D01*
X124105639Y-108233976D02*
X124077068Y-108262548D01*
X124077068Y-108262548D02*
X124048496Y-108319691D01*
X124048496Y-108319691D02*
X124048496Y-108491119D01*
X124048496Y-108491119D02*
X124077068Y-108548262D01*
X124077068Y-108548262D02*
X124105639Y-108576834D01*
X124105639Y-108576834D02*
X124162782Y-108605405D01*
X124162782Y-108605405D02*
X124248496Y-108605405D01*
X123877068Y-108205405D02*
X123648496Y-108205405D01*
X123791353Y-108605405D02*
X123791353Y-108091119D01*
X123791353Y-108091119D02*
X123762782Y-108033976D01*
X123762782Y-108033976D02*
X123705639Y-108005405D01*
X123705639Y-108005405D02*
X123648496Y-108005405D01*
X136991353Y-109571371D02*
X136991353Y-109171371D01*
X136991353Y-109285657D02*
X136962782Y-109228514D01*
X136962782Y-109228514D02*
X136934211Y-109199942D01*
X136934211Y-109199942D02*
X136877068Y-109171371D01*
X136877068Y-109171371D02*
X136819925Y-109171371D01*
X136391353Y-109542800D02*
X136448496Y-109571371D01*
X136448496Y-109571371D02*
X136562782Y-109571371D01*
X136562782Y-109571371D02*
X136619924Y-109542800D01*
X136619924Y-109542800D02*
X136648496Y-109485657D01*
X136648496Y-109485657D02*
X136648496Y-109257085D01*
X136648496Y-109257085D02*
X136619924Y-109199942D01*
X136619924Y-109199942D02*
X136562782Y-109171371D01*
X136562782Y-109171371D02*
X136448496Y-109171371D01*
X136448496Y-109171371D02*
X136391353Y-109199942D01*
X136391353Y-109199942D02*
X136362782Y-109257085D01*
X136362782Y-109257085D02*
X136362782Y-109314228D01*
X136362782Y-109314228D02*
X136648496Y-109371371D01*
X136134210Y-109542800D02*
X136077067Y-109571371D01*
X136077067Y-109571371D02*
X135962781Y-109571371D01*
X135962781Y-109571371D02*
X135905638Y-109542800D01*
X135905638Y-109542800D02*
X135877067Y-109485657D01*
X135877067Y-109485657D02*
X135877067Y-109457085D01*
X135877067Y-109457085D02*
X135905638Y-109399942D01*
X135905638Y-109399942D02*
X135962781Y-109371371D01*
X135962781Y-109371371D02*
X136048496Y-109371371D01*
X136048496Y-109371371D02*
X136105638Y-109342800D01*
X136105638Y-109342800D02*
X136134210Y-109285657D01*
X136134210Y-109285657D02*
X136134210Y-109257085D01*
X136134210Y-109257085D02*
X136105638Y-109199942D01*
X136105638Y-109199942D02*
X136048496Y-109171371D01*
X136048496Y-109171371D02*
X135962781Y-109171371D01*
X135962781Y-109171371D02*
X135905638Y-109199942D01*
X135391353Y-109542800D02*
X135448496Y-109571371D01*
X135448496Y-109571371D02*
X135562782Y-109571371D01*
X135562782Y-109571371D02*
X135619924Y-109542800D01*
X135619924Y-109542800D02*
X135648496Y-109485657D01*
X135648496Y-109485657D02*
X135648496Y-109257085D01*
X135648496Y-109257085D02*
X135619924Y-109199942D01*
X135619924Y-109199942D02*
X135562782Y-109171371D01*
X135562782Y-109171371D02*
X135448496Y-109171371D01*
X135448496Y-109171371D02*
X135391353Y-109199942D01*
X135391353Y-109199942D02*
X135362782Y-109257085D01*
X135362782Y-109257085D02*
X135362782Y-109314228D01*
X135362782Y-109314228D02*
X135648496Y-109371371D01*
X134848496Y-109571371D02*
X134848496Y-109257085D01*
X134848496Y-109257085D02*
X134877067Y-109199942D01*
X134877067Y-109199942D02*
X134934210Y-109171371D01*
X134934210Y-109171371D02*
X135048496Y-109171371D01*
X135048496Y-109171371D02*
X135105638Y-109199942D01*
X134848496Y-109542800D02*
X134905638Y-109571371D01*
X134905638Y-109571371D02*
X135048496Y-109571371D01*
X135048496Y-109571371D02*
X135105638Y-109542800D01*
X135105638Y-109542800D02*
X135134210Y-109485657D01*
X135134210Y-109485657D02*
X135134210Y-109428514D01*
X135134210Y-109428514D02*
X135105638Y-109371371D01*
X135105638Y-109371371D02*
X135048496Y-109342800D01*
X135048496Y-109342800D02*
X134905638Y-109342800D01*
X134905638Y-109342800D02*
X134848496Y-109314228D01*
X134562781Y-109571371D02*
X134562781Y-109171371D01*
X134562781Y-109285657D02*
X134534210Y-109228514D01*
X134534210Y-109228514D02*
X134505639Y-109199942D01*
X134505639Y-109199942D02*
X134448496Y-109171371D01*
X134448496Y-109171371D02*
X134391353Y-109171371D01*
X133934210Y-109542800D02*
X133991352Y-109571371D01*
X133991352Y-109571371D02*
X134105638Y-109571371D01*
X134105638Y-109571371D02*
X134162781Y-109542800D01*
X134162781Y-109542800D02*
X134191352Y-109514228D01*
X134191352Y-109514228D02*
X134219924Y-109457085D01*
X134219924Y-109457085D02*
X134219924Y-109285657D01*
X134219924Y-109285657D02*
X134191352Y-109228514D01*
X134191352Y-109228514D02*
X134162781Y-109199942D01*
X134162781Y-109199942D02*
X134105638Y-109171371D01*
X134105638Y-109171371D02*
X133991352Y-109171371D01*
X133991352Y-109171371D02*
X133934210Y-109199942D01*
X133677066Y-109571371D02*
X133677066Y-108971371D01*
X133419924Y-109571371D02*
X133419924Y-109257085D01*
X133419924Y-109257085D02*
X133448495Y-109199942D01*
X133448495Y-109199942D02*
X133505638Y-109171371D01*
X133505638Y-109171371D02*
X133591352Y-109171371D01*
X133591352Y-109171371D02*
X133648495Y-109199942D01*
X133648495Y-109199942D02*
X133677066Y-109228514D01*
X132677066Y-109171371D02*
X132677066Y-109771371D01*
X132677066Y-109199942D02*
X132619924Y-109171371D01*
X132619924Y-109171371D02*
X132505638Y-109171371D01*
X132505638Y-109171371D02*
X132448495Y-109199942D01*
X132448495Y-109199942D02*
X132419924Y-109228514D01*
X132419924Y-109228514D02*
X132391352Y-109285657D01*
X132391352Y-109285657D02*
X132391352Y-109457085D01*
X132391352Y-109457085D02*
X132419924Y-109514228D01*
X132419924Y-109514228D02*
X132448495Y-109542800D01*
X132448495Y-109542800D02*
X132505638Y-109571371D01*
X132505638Y-109571371D02*
X132619924Y-109571371D01*
X132619924Y-109571371D02*
X132677066Y-109542800D01*
X131877067Y-109171371D02*
X131877067Y-109571371D01*
X132134209Y-109171371D02*
X132134209Y-109485657D01*
X132134209Y-109485657D02*
X132105638Y-109542800D01*
X132105638Y-109542800D02*
X132048495Y-109571371D01*
X132048495Y-109571371D02*
X131962781Y-109571371D01*
X131962781Y-109571371D02*
X131905638Y-109542800D01*
X131905638Y-109542800D02*
X131877067Y-109514228D01*
X131591352Y-109571371D02*
X131591352Y-109171371D01*
X131591352Y-109285657D02*
X131562781Y-109228514D01*
X131562781Y-109228514D02*
X131534210Y-109199942D01*
X131534210Y-109199942D02*
X131477067Y-109171371D01*
X131477067Y-109171371D02*
X131419924Y-109171371D01*
X131219923Y-109171371D02*
X131219923Y-109771371D01*
X131219923Y-109199942D02*
X131162781Y-109171371D01*
X131162781Y-109171371D02*
X131048495Y-109171371D01*
X131048495Y-109171371D02*
X130991352Y-109199942D01*
X130991352Y-109199942D02*
X130962781Y-109228514D01*
X130962781Y-109228514D02*
X130934209Y-109285657D01*
X130934209Y-109285657D02*
X130934209Y-109457085D01*
X130934209Y-109457085D02*
X130962781Y-109514228D01*
X130962781Y-109514228D02*
X130991352Y-109542800D01*
X130991352Y-109542800D02*
X131048495Y-109571371D01*
X131048495Y-109571371D02*
X131162781Y-109571371D01*
X131162781Y-109571371D02*
X131219923Y-109542800D01*
X130591352Y-109571371D02*
X130648495Y-109542800D01*
X130648495Y-109542800D02*
X130677066Y-109514228D01*
X130677066Y-109514228D02*
X130705638Y-109457085D01*
X130705638Y-109457085D02*
X130705638Y-109285657D01*
X130705638Y-109285657D02*
X130677066Y-109228514D01*
X130677066Y-109228514D02*
X130648495Y-109199942D01*
X130648495Y-109199942D02*
X130591352Y-109171371D01*
X130591352Y-109171371D02*
X130505638Y-109171371D01*
X130505638Y-109171371D02*
X130448495Y-109199942D01*
X130448495Y-109199942D02*
X130419924Y-109228514D01*
X130419924Y-109228514D02*
X130391352Y-109285657D01*
X130391352Y-109285657D02*
X130391352Y-109457085D01*
X130391352Y-109457085D02*
X130419924Y-109514228D01*
X130419924Y-109514228D02*
X130448495Y-109542800D01*
X130448495Y-109542800D02*
X130505638Y-109571371D01*
X130505638Y-109571371D02*
X130591352Y-109571371D01*
X130162781Y-109542800D02*
X130105638Y-109571371D01*
X130105638Y-109571371D02*
X129991352Y-109571371D01*
X129991352Y-109571371D02*
X129934209Y-109542800D01*
X129934209Y-109542800D02*
X129905638Y-109485657D01*
X129905638Y-109485657D02*
X129905638Y-109457085D01*
X129905638Y-109457085D02*
X129934209Y-109399942D01*
X129934209Y-109399942D02*
X129991352Y-109371371D01*
X129991352Y-109371371D02*
X130077067Y-109371371D01*
X130077067Y-109371371D02*
X130134209Y-109342800D01*
X130134209Y-109342800D02*
X130162781Y-109285657D01*
X130162781Y-109285657D02*
X130162781Y-109257085D01*
X130162781Y-109257085D02*
X130134209Y-109199942D01*
X130134209Y-109199942D02*
X130077067Y-109171371D01*
X130077067Y-109171371D02*
X129991352Y-109171371D01*
X129991352Y-109171371D02*
X129934209Y-109199942D01*
X129419924Y-109542800D02*
X129477067Y-109571371D01*
X129477067Y-109571371D02*
X129591353Y-109571371D01*
X129591353Y-109571371D02*
X129648495Y-109542800D01*
X129648495Y-109542800D02*
X129677067Y-109485657D01*
X129677067Y-109485657D02*
X129677067Y-109257085D01*
X129677067Y-109257085D02*
X129648495Y-109199942D01*
X129648495Y-109199942D02*
X129591353Y-109171371D01*
X129591353Y-109171371D02*
X129477067Y-109171371D01*
X129477067Y-109171371D02*
X129419924Y-109199942D01*
X129419924Y-109199942D02*
X129391353Y-109257085D01*
X129391353Y-109257085D02*
X129391353Y-109314228D01*
X129391353Y-109314228D02*
X129677067Y-109371371D01*
X129162781Y-109542800D02*
X129105638Y-109571371D01*
X129105638Y-109571371D02*
X128991352Y-109571371D01*
X128991352Y-109571371D02*
X128934209Y-109542800D01*
X128934209Y-109542800D02*
X128905638Y-109485657D01*
X128905638Y-109485657D02*
X128905638Y-109457085D01*
X128905638Y-109457085D02*
X128934209Y-109399942D01*
X128934209Y-109399942D02*
X128991352Y-109371371D01*
X128991352Y-109371371D02*
X129077067Y-109371371D01*
X129077067Y-109371371D02*
X129134209Y-109342800D01*
X129134209Y-109342800D02*
X129162781Y-109285657D01*
X129162781Y-109285657D02*
X129162781Y-109257085D01*
X129162781Y-109257085D02*
X129134209Y-109199942D01*
X129134209Y-109199942D02*
X129077067Y-109171371D01*
X129077067Y-109171371D02*
X128991352Y-109171371D01*
X128991352Y-109171371D02*
X128934209Y-109199942D01*
X128648495Y-109514228D02*
X128619924Y-109542800D01*
X128619924Y-109542800D02*
X128648495Y-109571371D01*
X128648495Y-109571371D02*
X128677067Y-109542800D01*
X128677067Y-109542800D02*
X128648495Y-109514228D01*
X128648495Y-109514228D02*
X128648495Y-109571371D01*
D12*
X151192448Y-103533472D02*
X151140067Y-103114424D01*
X151140067Y-103114424D02*
X151166258Y-103038234D01*
X151166258Y-103038234D02*
X151232925Y-103000138D01*
X151232925Y-103000138D02*
X151375782Y-103000138D01*
X151375782Y-103000138D02*
X151451972Y-103038234D01*
X151187687Y-103495377D02*
X151263877Y-103533472D01*
X151263877Y-103533472D02*
X151442448Y-103533472D01*
X151442448Y-103533472D02*
X151509115Y-103495377D01*
X151509115Y-103495377D02*
X151535306Y-103419186D01*
X151535306Y-103419186D02*
X151525782Y-103342996D01*
X151525782Y-103342996D02*
X151480544Y-103266805D01*
X151480544Y-103266805D02*
X151404353Y-103228710D01*
X151404353Y-103228710D02*
X151225782Y-103228710D01*
X151225782Y-103228710D02*
X151149591Y-103190615D01*
X150835306Y-103533472D02*
X150768639Y-103000138D01*
X150787687Y-103152519D02*
X150742449Y-103076329D01*
X150742449Y-103076329D02*
X150701973Y-103038234D01*
X150701973Y-103038234D02*
X150625782Y-103000138D01*
X150625782Y-103000138D02*
X150554354Y-103000138D01*
X150411496Y-103000138D02*
X150125782Y-103000138D01*
X150271020Y-102733472D02*
X150356734Y-103419186D01*
X150356734Y-103419186D02*
X150330544Y-103495377D01*
X150330544Y-103495377D02*
X150263877Y-103533472D01*
X150263877Y-103533472D02*
X150192449Y-103533472D01*
X149942449Y-103533472D02*
X149842449Y-102733472D01*
X149621020Y-103533472D02*
X149568639Y-103114424D01*
X149568639Y-103114424D02*
X149594830Y-103038234D01*
X149594830Y-103038234D02*
X149661497Y-103000138D01*
X149661497Y-103000138D02*
X149768639Y-103000138D01*
X149768639Y-103000138D02*
X149844830Y-103038234D01*
X149844830Y-103038234D02*
X149885306Y-103076329D01*
X149156735Y-103533472D02*
X149223402Y-103495377D01*
X149223402Y-103495377D02*
X149254354Y-103457281D01*
X149254354Y-103457281D02*
X149280545Y-103381091D01*
X149280545Y-103381091D02*
X149251973Y-103152519D01*
X149251973Y-103152519D02*
X149206735Y-103076329D01*
X149206735Y-103076329D02*
X149166259Y-103038234D01*
X149166259Y-103038234D02*
X149090068Y-103000138D01*
X149090068Y-103000138D02*
X148982926Y-103000138D01*
X148982926Y-103000138D02*
X148916259Y-103038234D01*
X148916259Y-103038234D02*
X148885307Y-103076329D01*
X148885307Y-103076329D02*
X148859116Y-103152519D01*
X148859116Y-103152519D02*
X148887688Y-103381091D01*
X148887688Y-103381091D02*
X148932926Y-103457281D01*
X148932926Y-103457281D02*
X148973402Y-103495377D01*
X148973402Y-103495377D02*
X149049592Y-103533472D01*
X149049592Y-103533472D02*
X149156735Y-103533472D01*
X148585307Y-103533472D02*
X148518640Y-103000138D01*
X148537688Y-103152519D02*
X148492450Y-103076329D01*
X148492450Y-103076329D02*
X148451974Y-103038234D01*
X148451974Y-103038234D02*
X148375783Y-103000138D01*
X148375783Y-103000138D02*
X148304355Y-103000138D01*
X148121021Y-103533472D02*
X148021021Y-102733472D01*
X147799592Y-103533472D02*
X147747211Y-103114424D01*
X147747211Y-103114424D02*
X147773402Y-103038234D01*
X147773402Y-103038234D02*
X147840069Y-103000138D01*
X147840069Y-103000138D02*
X147947211Y-103000138D01*
X147947211Y-103000138D02*
X148023402Y-103038234D01*
X148023402Y-103038234D02*
X148063878Y-103076329D01*
X147432926Y-103457281D02*
X147401974Y-103495377D01*
X147401974Y-103495377D02*
X147442450Y-103533472D01*
X147442450Y-103533472D02*
X147473402Y-103495377D01*
X147473402Y-103495377D02*
X147432926Y-103457281D01*
X147432926Y-103457281D02*
X147442450Y-103533472D01*
X146697212Y-103000138D02*
X146778164Y-103647757D01*
X146778164Y-103647757D02*
X146823402Y-103723948D01*
X146823402Y-103723948D02*
X146863878Y-103762043D01*
X146863878Y-103762043D02*
X146940069Y-103800138D01*
X146940069Y-103800138D02*
X147047212Y-103800138D01*
X147047212Y-103800138D02*
X147113878Y-103762043D01*
X146759117Y-103495377D02*
X146835307Y-103533472D01*
X146835307Y-103533472D02*
X146978164Y-103533472D01*
X146978164Y-103533472D02*
X147044831Y-103495377D01*
X147044831Y-103495377D02*
X147075783Y-103457281D01*
X147075783Y-103457281D02*
X147101974Y-103381091D01*
X147101974Y-103381091D02*
X147073402Y-103152519D01*
X147073402Y-103152519D02*
X147028164Y-103076329D01*
X147028164Y-103076329D02*
X146987688Y-103038234D01*
X146987688Y-103038234D02*
X146911497Y-103000138D01*
X146911497Y-103000138D02*
X146768640Y-103000138D01*
X146768640Y-103000138D02*
X146701974Y-103038234D01*
X146406736Y-103533472D02*
X146340069Y-103000138D01*
X146306736Y-102733472D02*
X146347212Y-102771567D01*
X146347212Y-102771567D02*
X146316260Y-102809662D01*
X146316260Y-102809662D02*
X146275784Y-102771567D01*
X146275784Y-102771567D02*
X146306736Y-102733472D01*
X146306736Y-102733472D02*
X146316260Y-102809662D01*
X146090069Y-103000138D02*
X145804355Y-103000138D01*
X145949593Y-102733472D02*
X146035307Y-103419186D01*
X146035307Y-103419186D02*
X146009117Y-103495377D01*
X146009117Y-103495377D02*
X145942450Y-103533472D01*
X145942450Y-103533472D02*
X145871022Y-103533472D01*
X145621022Y-103533472D02*
X145521022Y-102733472D01*
X145299593Y-103533472D02*
X145247212Y-103114424D01*
X145247212Y-103114424D02*
X145273403Y-103038234D01*
X145273403Y-103038234D02*
X145340070Y-103000138D01*
X145340070Y-103000138D02*
X145447212Y-103000138D01*
X145447212Y-103000138D02*
X145523403Y-103038234D01*
X145523403Y-103038234D02*
X145563879Y-103076329D01*
X144554356Y-103000138D02*
X144621022Y-103533472D01*
X144875784Y-103000138D02*
X144928165Y-103419186D01*
X144928165Y-103419186D02*
X144901975Y-103495377D01*
X144901975Y-103495377D02*
X144835308Y-103533472D01*
X144835308Y-103533472D02*
X144728165Y-103533472D01*
X144728165Y-103533472D02*
X144651975Y-103495377D01*
X144651975Y-103495377D02*
X144611499Y-103457281D01*
X144263880Y-103533472D02*
X144163880Y-102733472D01*
X144201975Y-103038234D02*
X144125785Y-103000138D01*
X144125785Y-103000138D02*
X143982928Y-103000138D01*
X143982928Y-103000138D02*
X143916261Y-103038234D01*
X143916261Y-103038234D02*
X143885309Y-103076329D01*
X143885309Y-103076329D02*
X143859118Y-103152519D01*
X143859118Y-103152519D02*
X143887690Y-103381091D01*
X143887690Y-103381091D02*
X143932928Y-103457281D01*
X143932928Y-103457281D02*
X143973404Y-103495377D01*
X143973404Y-103495377D02*
X144049594Y-103533472D01*
X144049594Y-103533472D02*
X144192451Y-103533472D01*
X144192451Y-103533472D02*
X144259118Y-103495377D01*
X143575785Y-103457281D02*
X143544833Y-103495377D01*
X143544833Y-103495377D02*
X143585309Y-103533472D01*
X143585309Y-103533472D02*
X143616261Y-103495377D01*
X143616261Y-103495377D02*
X143575785Y-103457281D01*
X143575785Y-103457281D02*
X143585309Y-103533472D01*
X143228166Y-103533472D02*
X143161499Y-103000138D01*
X143128166Y-102733472D02*
X143168642Y-102771567D01*
X143168642Y-102771567D02*
X143137690Y-102809662D01*
X143137690Y-102809662D02*
X143097214Y-102771567D01*
X143097214Y-102771567D02*
X143128166Y-102733472D01*
X143128166Y-102733472D02*
X143137690Y-102809662D01*
X142763880Y-103533472D02*
X142830547Y-103495377D01*
X142830547Y-103495377D02*
X142861499Y-103457281D01*
X142861499Y-103457281D02*
X142887690Y-103381091D01*
X142887690Y-103381091D02*
X142859118Y-103152519D01*
X142859118Y-103152519D02*
X142813880Y-103076329D01*
X142813880Y-103076329D02*
X142773404Y-103038234D01*
X142773404Y-103038234D02*
X142697213Y-103000138D01*
X142697213Y-103000138D02*
X142590071Y-103000138D01*
X142590071Y-103000138D02*
X142523404Y-103038234D01*
X142523404Y-103038234D02*
X142492452Y-103076329D01*
X142492452Y-103076329D02*
X142466261Y-103152519D01*
X142466261Y-103152519D02*
X142494833Y-103381091D01*
X142494833Y-103381091D02*
X142540071Y-103457281D01*
X142540071Y-103457281D02*
X142580547Y-103495377D01*
X142580547Y-103495377D02*
X142656737Y-103533472D01*
X142656737Y-103533472D02*
X142763880Y-103533472D01*
X141551976Y-102695377D02*
X142323404Y-103723948D01*
X140968643Y-103457281D02*
X141009119Y-103495377D01*
X141009119Y-103495377D02*
X141121024Y-103533472D01*
X141121024Y-103533472D02*
X141192452Y-103533472D01*
X141192452Y-103533472D02*
X141294833Y-103495377D01*
X141294833Y-103495377D02*
X141356738Y-103419186D01*
X141356738Y-103419186D02*
X141382928Y-103342996D01*
X141382928Y-103342996D02*
X141399595Y-103190615D01*
X141399595Y-103190615D02*
X141385309Y-103076329D01*
X141385309Y-103076329D02*
X141330548Y-102923948D01*
X141330548Y-102923948D02*
X141285309Y-102847757D01*
X141285309Y-102847757D02*
X141204357Y-102771567D01*
X141204357Y-102771567D02*
X141092452Y-102733472D01*
X141092452Y-102733472D02*
X141021024Y-102733472D01*
X141021024Y-102733472D02*
X140918643Y-102771567D01*
X140918643Y-102771567D02*
X140887690Y-102809662D01*
X140656738Y-103533472D02*
X140556738Y-102733472D01*
X140335309Y-103533472D02*
X140282928Y-103114424D01*
X140282928Y-103114424D02*
X140309119Y-103038234D01*
X140309119Y-103038234D02*
X140375786Y-103000138D01*
X140375786Y-103000138D02*
X140482928Y-103000138D01*
X140482928Y-103000138D02*
X140559119Y-103038234D01*
X140559119Y-103038234D02*
X140599595Y-103076329D01*
X139656738Y-103533472D02*
X139604357Y-103114424D01*
X139604357Y-103114424D02*
X139630548Y-103038234D01*
X139630548Y-103038234D02*
X139697215Y-103000138D01*
X139697215Y-103000138D02*
X139840072Y-103000138D01*
X139840072Y-103000138D02*
X139916262Y-103038234D01*
X139651977Y-103495377D02*
X139728167Y-103533472D01*
X139728167Y-103533472D02*
X139906738Y-103533472D01*
X139906738Y-103533472D02*
X139973405Y-103495377D01*
X139973405Y-103495377D02*
X139999596Y-103419186D01*
X139999596Y-103419186D02*
X139990072Y-103342996D01*
X139990072Y-103342996D02*
X139944834Y-103266805D01*
X139944834Y-103266805D02*
X139868643Y-103228710D01*
X139868643Y-103228710D02*
X139690072Y-103228710D01*
X139690072Y-103228710D02*
X139613881Y-103190615D01*
X139299596Y-103533472D02*
X139232929Y-103000138D01*
X139199596Y-102733472D02*
X139240072Y-102771567D01*
X139240072Y-102771567D02*
X139209120Y-102809662D01*
X139209120Y-102809662D02*
X139168644Y-102771567D01*
X139168644Y-102771567D02*
X139199596Y-102733472D01*
X139199596Y-102733472D02*
X139209120Y-102809662D01*
X138875786Y-103000138D02*
X138942453Y-103533472D01*
X138885310Y-103076329D02*
X138844834Y-103038234D01*
X138844834Y-103038234D02*
X138768643Y-103000138D01*
X138768643Y-103000138D02*
X138661501Y-103000138D01*
X138661501Y-103000138D02*
X138594834Y-103038234D01*
X138594834Y-103038234D02*
X138568643Y-103114424D01*
X138568643Y-103114424D02*
X138621024Y-103533472D01*
X137961501Y-103114424D02*
X137859120Y-103152519D01*
X137859120Y-103152519D02*
X137828168Y-103190615D01*
X137828168Y-103190615D02*
X137801977Y-103266805D01*
X137801977Y-103266805D02*
X137816263Y-103381091D01*
X137816263Y-103381091D02*
X137861501Y-103457281D01*
X137861501Y-103457281D02*
X137901977Y-103495377D01*
X137901977Y-103495377D02*
X137978168Y-103533472D01*
X137978168Y-103533472D02*
X138263882Y-103533472D01*
X138263882Y-103533472D02*
X138163882Y-102733472D01*
X138163882Y-102733472D02*
X137913882Y-102733472D01*
X137913882Y-102733472D02*
X137847215Y-102771567D01*
X137847215Y-102771567D02*
X137816263Y-102809662D01*
X137816263Y-102809662D02*
X137790072Y-102885853D01*
X137790072Y-102885853D02*
X137799596Y-102962043D01*
X137799596Y-102962043D02*
X137844834Y-103038234D01*
X137844834Y-103038234D02*
X137885311Y-103076329D01*
X137885311Y-103076329D02*
X137961501Y-103114424D01*
X137961501Y-103114424D02*
X138211501Y-103114424D01*
X137125787Y-103000138D02*
X137192453Y-103533472D01*
X137447215Y-103000138D02*
X137499596Y-103419186D01*
X137499596Y-103419186D02*
X137473406Y-103495377D01*
X137473406Y-103495377D02*
X137406739Y-103533472D01*
X137406739Y-103533472D02*
X137299596Y-103533472D01*
X137299596Y-103533472D02*
X137223406Y-103495377D01*
X137223406Y-103495377D02*
X137182930Y-103457281D01*
X136866263Y-103495377D02*
X136799597Y-103533472D01*
X136799597Y-103533472D02*
X136656740Y-103533472D01*
X136656740Y-103533472D02*
X136580549Y-103495377D01*
X136580549Y-103495377D02*
X136535311Y-103419186D01*
X136535311Y-103419186D02*
X136530549Y-103381091D01*
X136530549Y-103381091D02*
X136556740Y-103304900D01*
X136556740Y-103304900D02*
X136623406Y-103266805D01*
X136623406Y-103266805D02*
X136730549Y-103266805D01*
X136730549Y-103266805D02*
X136797216Y-103228710D01*
X136797216Y-103228710D02*
X136823406Y-103152519D01*
X136823406Y-103152519D02*
X136818644Y-103114424D01*
X136818644Y-103114424D02*
X136773406Y-103038234D01*
X136773406Y-103038234D02*
X136697216Y-103000138D01*
X136697216Y-103000138D02*
X136590073Y-103000138D01*
X136590073Y-103000138D02*
X136523406Y-103038234D01*
X150767982Y-102456200D02*
X150848935Y-102494295D01*
X150848935Y-102494295D02*
X151001316Y-102494295D01*
X151001316Y-102494295D02*
X151072744Y-102456200D01*
X151072744Y-102456200D02*
X151106077Y-102418104D01*
X151106077Y-102418104D02*
X151134649Y-102341914D01*
X151134649Y-102341914D02*
X151106077Y-102113342D01*
X151106077Y-102113342D02*
X151058458Y-102037152D01*
X151058458Y-102037152D02*
X151015601Y-101999057D01*
X151015601Y-101999057D02*
X150934649Y-101960961D01*
X150934649Y-101960961D02*
X150782268Y-101960961D01*
X150782268Y-101960961D02*
X150710839Y-101999057D01*
X150315602Y-102494295D02*
X150387030Y-102456200D01*
X150387030Y-102456200D02*
X150420363Y-102418104D01*
X150420363Y-102418104D02*
X150448935Y-102341914D01*
X150448935Y-102341914D02*
X150420363Y-102113342D01*
X150420363Y-102113342D02*
X150372744Y-102037152D01*
X150372744Y-102037152D02*
X150329887Y-101999057D01*
X150329887Y-101999057D02*
X150248935Y-101960961D01*
X150248935Y-101960961D02*
X150134649Y-101960961D01*
X150134649Y-101960961D02*
X150063221Y-101999057D01*
X150063221Y-101999057D02*
X150029887Y-102037152D01*
X150029887Y-102037152D02*
X150001316Y-102113342D01*
X150001316Y-102113342D02*
X150029887Y-102341914D01*
X150029887Y-102341914D02*
X150077506Y-102418104D01*
X150077506Y-102418104D02*
X150120363Y-102456200D01*
X150120363Y-102456200D02*
X150201316Y-102494295D01*
X150201316Y-102494295D02*
X150315602Y-102494295D01*
X149639411Y-101960961D02*
X149706077Y-102494295D01*
X149648934Y-102037152D02*
X149606077Y-101999057D01*
X149606077Y-101999057D02*
X149525125Y-101960961D01*
X149525125Y-101960961D02*
X149410839Y-101960961D01*
X149410839Y-101960961D02*
X149339411Y-101999057D01*
X149339411Y-101999057D02*
X149310839Y-102075247D01*
X149310839Y-102075247D02*
X149363220Y-102494295D01*
X148915601Y-101960961D02*
X148982267Y-102494295D01*
X148925124Y-102037152D02*
X148882267Y-101999057D01*
X148882267Y-101999057D02*
X148801315Y-101960961D01*
X148801315Y-101960961D02*
X148687029Y-101960961D01*
X148687029Y-101960961D02*
X148615601Y-101999057D01*
X148615601Y-101999057D02*
X148587029Y-102075247D01*
X148587029Y-102075247D02*
X148639410Y-102494295D01*
X147948933Y-102456200D02*
X148029886Y-102494295D01*
X148029886Y-102494295D02*
X148182267Y-102494295D01*
X148182267Y-102494295D02*
X148253695Y-102456200D01*
X148253695Y-102456200D02*
X148282267Y-102380009D01*
X148282267Y-102380009D02*
X148244172Y-102075247D01*
X148244172Y-102075247D02*
X148196552Y-101999057D01*
X148196552Y-101999057D02*
X148115600Y-101960961D01*
X148115600Y-101960961D02*
X147963219Y-101960961D01*
X147963219Y-101960961D02*
X147891791Y-101999057D01*
X147891791Y-101999057D02*
X147863219Y-102075247D01*
X147863219Y-102075247D02*
X147872743Y-102151438D01*
X147872743Y-102151438D02*
X148263219Y-102227628D01*
X147225124Y-102456200D02*
X147306077Y-102494295D01*
X147306077Y-102494295D02*
X147458458Y-102494295D01*
X147458458Y-102494295D02*
X147529886Y-102456200D01*
X147529886Y-102456200D02*
X147563219Y-102418104D01*
X147563219Y-102418104D02*
X147591791Y-102341914D01*
X147591791Y-102341914D02*
X147563219Y-102113342D01*
X147563219Y-102113342D02*
X147515600Y-102037152D01*
X147515600Y-102037152D02*
X147472743Y-101999057D01*
X147472743Y-101999057D02*
X147391791Y-101960961D01*
X147391791Y-101960961D02*
X147239410Y-101960961D01*
X147239410Y-101960961D02*
X147167981Y-101999057D01*
X146934648Y-101960961D02*
X146629886Y-101960961D01*
X146787029Y-101694295D02*
X146872744Y-102380009D01*
X146872744Y-102380009D02*
X146844172Y-102456200D01*
X146844172Y-102456200D02*
X146772744Y-102494295D01*
X146772744Y-102494295D02*
X146696553Y-102494295D01*
X146315601Y-102494295D02*
X146387029Y-102456200D01*
X146387029Y-102456200D02*
X146420362Y-102418104D01*
X146420362Y-102418104D02*
X146448934Y-102341914D01*
X146448934Y-102341914D02*
X146420362Y-102113342D01*
X146420362Y-102113342D02*
X146372743Y-102037152D01*
X146372743Y-102037152D02*
X146329886Y-101999057D01*
X146329886Y-101999057D02*
X146248934Y-101960961D01*
X146248934Y-101960961D02*
X146134648Y-101960961D01*
X146134648Y-101960961D02*
X146063220Y-101999057D01*
X146063220Y-101999057D02*
X146029886Y-102037152D01*
X146029886Y-102037152D02*
X146001315Y-102113342D01*
X146001315Y-102113342D02*
X146029886Y-102341914D01*
X146029886Y-102341914D02*
X146077505Y-102418104D01*
X146077505Y-102418104D02*
X146120362Y-102456200D01*
X146120362Y-102456200D02*
X146201315Y-102494295D01*
X146201315Y-102494295D02*
X146315601Y-102494295D01*
X145706076Y-102494295D02*
X145639410Y-101960961D01*
X145658457Y-102113342D02*
X145610838Y-102037152D01*
X145610838Y-102037152D02*
X145567981Y-101999057D01*
X145567981Y-101999057D02*
X145487029Y-101960961D01*
X145487029Y-101960961D02*
X145410838Y-101960961D01*
X144534648Y-101960961D02*
X144634648Y-102760961D01*
X144539409Y-101999057D02*
X144458457Y-101960961D01*
X144458457Y-101960961D02*
X144306076Y-101960961D01*
X144306076Y-101960961D02*
X144234648Y-101999057D01*
X144234648Y-101999057D02*
X144201314Y-102037152D01*
X144201314Y-102037152D02*
X144172743Y-102113342D01*
X144172743Y-102113342D02*
X144201314Y-102341914D01*
X144201314Y-102341914D02*
X144248933Y-102418104D01*
X144248933Y-102418104D02*
X144291790Y-102456200D01*
X144291790Y-102456200D02*
X144372743Y-102494295D01*
X144372743Y-102494295D02*
X144525124Y-102494295D01*
X144525124Y-102494295D02*
X144596552Y-102456200D01*
X143763219Y-102494295D02*
X143834647Y-102456200D01*
X143834647Y-102456200D02*
X143867980Y-102418104D01*
X143867980Y-102418104D02*
X143896552Y-102341914D01*
X143896552Y-102341914D02*
X143867980Y-102113342D01*
X143867980Y-102113342D02*
X143820361Y-102037152D01*
X143820361Y-102037152D02*
X143777504Y-101999057D01*
X143777504Y-101999057D02*
X143696552Y-101960961D01*
X143696552Y-101960961D02*
X143582266Y-101960961D01*
X143582266Y-101960961D02*
X143510838Y-101999057D01*
X143510838Y-101999057D02*
X143477504Y-102037152D01*
X143477504Y-102037152D02*
X143448933Y-102113342D01*
X143448933Y-102113342D02*
X143477504Y-102341914D01*
X143477504Y-102341914D02*
X143525123Y-102418104D01*
X143525123Y-102418104D02*
X143567980Y-102456200D01*
X143567980Y-102456200D02*
X143648933Y-102494295D01*
X143648933Y-102494295D02*
X143763219Y-102494295D01*
X143163218Y-101960961D02*
X143077504Y-102494295D01*
X143077504Y-102494295D02*
X142877504Y-102113342D01*
X142877504Y-102113342D02*
X142772742Y-102494295D01*
X142772742Y-102494295D02*
X142553694Y-101960961D01*
X142006075Y-102456200D02*
X142087028Y-102494295D01*
X142087028Y-102494295D02*
X142239409Y-102494295D01*
X142239409Y-102494295D02*
X142310837Y-102456200D01*
X142310837Y-102456200D02*
X142339409Y-102380009D01*
X142339409Y-102380009D02*
X142301314Y-102075247D01*
X142301314Y-102075247D02*
X142253694Y-101999057D01*
X142253694Y-101999057D02*
X142172742Y-101960961D01*
X142172742Y-101960961D02*
X142020361Y-101960961D01*
X142020361Y-101960961D02*
X141948933Y-101999057D01*
X141948933Y-101999057D02*
X141920361Y-102075247D01*
X141920361Y-102075247D02*
X141929885Y-102151438D01*
X141929885Y-102151438D02*
X142320361Y-102227628D01*
X141629885Y-102494295D02*
X141563219Y-101960961D01*
X141582266Y-102113342D02*
X141534647Y-102037152D01*
X141534647Y-102037152D02*
X141491790Y-101999057D01*
X141491790Y-101999057D02*
X141410838Y-101960961D01*
X141410838Y-101960961D02*
X141334647Y-101960961D01*
X140825123Y-102456200D02*
X140906076Y-102494295D01*
X140906076Y-102494295D02*
X141058457Y-102494295D01*
X141058457Y-102494295D02*
X141129885Y-102456200D01*
X141129885Y-102456200D02*
X141158457Y-102380009D01*
X141158457Y-102380009D02*
X141120362Y-102075247D01*
X141120362Y-102075247D02*
X141072742Y-101999057D01*
X141072742Y-101999057D02*
X140991790Y-101960961D01*
X140991790Y-101960961D02*
X140839409Y-101960961D01*
X140839409Y-101960961D02*
X140767981Y-101999057D01*
X140767981Y-101999057D02*
X140739409Y-102075247D01*
X140739409Y-102075247D02*
X140748933Y-102151438D01*
X140748933Y-102151438D02*
X141139409Y-102227628D01*
X140106076Y-102494295D02*
X140006076Y-101694295D01*
X140101314Y-102456200D02*
X140182267Y-102494295D01*
X140182267Y-102494295D02*
X140334648Y-102494295D01*
X140334648Y-102494295D02*
X140406076Y-102456200D01*
X140406076Y-102456200D02*
X140439409Y-102418104D01*
X140439409Y-102418104D02*
X140467981Y-102341914D01*
X140467981Y-102341914D02*
X140439409Y-102113342D01*
X140439409Y-102113342D02*
X140391790Y-102037152D01*
X140391790Y-102037152D02*
X140348933Y-101999057D01*
X140348933Y-101999057D02*
X140267981Y-101960961D01*
X140267981Y-101960961D02*
X140115600Y-101960961D01*
X140115600Y-101960961D02*
X140044171Y-101999057D01*
X139115599Y-102494295D02*
X139015599Y-101694295D01*
X139053694Y-101999057D02*
X138972742Y-101960961D01*
X138972742Y-101960961D02*
X138820361Y-101960961D01*
X138820361Y-101960961D02*
X138748933Y-101999057D01*
X138748933Y-101999057D02*
X138715599Y-102037152D01*
X138715599Y-102037152D02*
X138687028Y-102113342D01*
X138687028Y-102113342D02*
X138715599Y-102341914D01*
X138715599Y-102341914D02*
X138763218Y-102418104D01*
X138763218Y-102418104D02*
X138806075Y-102456200D01*
X138806075Y-102456200D02*
X138887028Y-102494295D01*
X138887028Y-102494295D02*
X139039409Y-102494295D01*
X139039409Y-102494295D02*
X139110837Y-102456200D01*
X138401313Y-101960961D02*
X138277504Y-102494295D01*
X138020361Y-101960961D02*
X138277504Y-102494295D01*
X138277504Y-102494295D02*
X138377504Y-102684771D01*
X138377504Y-102684771D02*
X138420361Y-102722866D01*
X138420361Y-102722866D02*
X138501313Y-102760961D01*
D10*
X146934210Y-125012475D02*
X146934210Y-124012475D01*
X146934210Y-124012475D02*
X146553258Y-124012475D01*
X146553258Y-124012475D02*
X146458020Y-124060094D01*
X146458020Y-124060094D02*
X146410401Y-124107713D01*
X146410401Y-124107713D02*
X146362782Y-124202951D01*
X146362782Y-124202951D02*
X146362782Y-124345808D01*
X146362782Y-124345808D02*
X146410401Y-124441046D01*
X146410401Y-124441046D02*
X146458020Y-124488665D01*
X146458020Y-124488665D02*
X146553258Y-124536284D01*
X146553258Y-124536284D02*
X146934210Y-124536284D01*
X145934210Y-125012475D02*
X145934210Y-124012475D01*
X145458020Y-125012475D02*
X145458020Y-124012475D01*
X145458020Y-124012475D02*
X144886592Y-125012475D01*
X144886592Y-125012475D02*
X144886592Y-124012475D01*
X144219925Y-124012475D02*
X144029449Y-124012475D01*
X144029449Y-124012475D02*
X143934211Y-124060094D01*
X143934211Y-124060094D02*
X143838973Y-124155332D01*
X143838973Y-124155332D02*
X143791354Y-124345808D01*
X143791354Y-124345808D02*
X143791354Y-124679141D01*
X143791354Y-124679141D02*
X143838973Y-124869617D01*
X143838973Y-124869617D02*
X143934211Y-124964856D01*
X143934211Y-124964856D02*
X144029449Y-125012475D01*
X144029449Y-125012475D02*
X144219925Y-125012475D01*
X144219925Y-125012475D02*
X144315163Y-124964856D01*
X144315163Y-124964856D02*
X144410401Y-124869617D01*
X144410401Y-124869617D02*
X144458020Y-124679141D01*
X144458020Y-124679141D02*
X144458020Y-124345808D01*
X144458020Y-124345808D02*
X144410401Y-124155332D01*
X144410401Y-124155332D02*
X144315163Y-124060094D01*
X144315163Y-124060094D02*
X144219925Y-124012475D01*
X143362782Y-124012475D02*
X143362782Y-124821998D01*
X143362782Y-124821998D02*
X143315163Y-124917236D01*
X143315163Y-124917236D02*
X143267544Y-124964856D01*
X143267544Y-124964856D02*
X143172306Y-125012475D01*
X143172306Y-125012475D02*
X142981830Y-125012475D01*
X142981830Y-125012475D02*
X142886592Y-124964856D01*
X142886592Y-124964856D02*
X142838973Y-124917236D01*
X142838973Y-124917236D02*
X142791354Y-124821998D01*
X142791354Y-124821998D02*
X142791354Y-124012475D01*
X142458020Y-124012475D02*
X141886592Y-124012475D01*
X142172306Y-125012475D02*
X142172306Y-124012475D01*
X140838972Y-124964856D02*
X140696115Y-125012475D01*
X140696115Y-125012475D02*
X140458020Y-125012475D01*
X140458020Y-125012475D02*
X140362782Y-124964856D01*
X140362782Y-124964856D02*
X140315163Y-124917236D01*
X140315163Y-124917236D02*
X140267544Y-124821998D01*
X140267544Y-124821998D02*
X140267544Y-124726760D01*
X140267544Y-124726760D02*
X140315163Y-124631522D01*
X140315163Y-124631522D02*
X140362782Y-124583903D01*
X140362782Y-124583903D02*
X140458020Y-124536284D01*
X140458020Y-124536284D02*
X140648496Y-124488665D01*
X140648496Y-124488665D02*
X140743734Y-124441046D01*
X140743734Y-124441046D02*
X140791353Y-124393427D01*
X140791353Y-124393427D02*
X140838972Y-124298189D01*
X140838972Y-124298189D02*
X140838972Y-124202951D01*
X140838972Y-124202951D02*
X140791353Y-124107713D01*
X140791353Y-124107713D02*
X140743734Y-124060094D01*
X140743734Y-124060094D02*
X140648496Y-124012475D01*
X140648496Y-124012475D02*
X140410401Y-124012475D01*
X140410401Y-124012475D02*
X140267544Y-124060094D01*
X139838972Y-124488665D02*
X139505639Y-124488665D01*
X139362782Y-125012475D02*
X139838972Y-125012475D01*
X139838972Y-125012475D02*
X139838972Y-124012475D01*
X139838972Y-124012475D02*
X139362782Y-124012475D01*
X138362782Y-125012475D02*
X138696115Y-124536284D01*
X138934210Y-125012475D02*
X138934210Y-124012475D01*
X138934210Y-124012475D02*
X138553258Y-124012475D01*
X138553258Y-124012475D02*
X138458020Y-124060094D01*
X138458020Y-124060094D02*
X138410401Y-124107713D01*
X138410401Y-124107713D02*
X138362782Y-124202951D01*
X138362782Y-124202951D02*
X138362782Y-124345808D01*
X138362782Y-124345808D02*
X138410401Y-124441046D01*
X138410401Y-124441046D02*
X138458020Y-124488665D01*
X138458020Y-124488665D02*
X138553258Y-124536284D01*
X138553258Y-124536284D02*
X138934210Y-124536284D01*
X138077067Y-124012475D02*
X137743734Y-125012475D01*
X137743734Y-125012475D02*
X137410401Y-124012475D01*
X136886591Y-124012475D02*
X136696115Y-124012475D01*
X136696115Y-124012475D02*
X136600877Y-124060094D01*
X136600877Y-124060094D02*
X136505639Y-124155332D01*
X136505639Y-124155332D02*
X136458020Y-124345808D01*
X136458020Y-124345808D02*
X136458020Y-124679141D01*
X136458020Y-124679141D02*
X136505639Y-124869617D01*
X136505639Y-124869617D02*
X136600877Y-124964856D01*
X136600877Y-124964856D02*
X136696115Y-125012475D01*
X136696115Y-125012475D02*
X136886591Y-125012475D01*
X136886591Y-125012475D02*
X136981829Y-124964856D01*
X136981829Y-124964856D02*
X137077067Y-124869617D01*
X137077067Y-124869617D02*
X137124686Y-124679141D01*
X137124686Y-124679141D02*
X137124686Y-124345808D01*
X137124686Y-124345808D02*
X137077067Y-124155332D01*
X137077067Y-124155332D02*
X136981829Y-124060094D01*
X136981829Y-124060094D02*
X136886591Y-124012475D01*
X147410401Y-126955752D02*
X147648496Y-126955752D01*
X147648496Y-126955752D02*
X147648496Y-125527180D01*
X147648496Y-125527180D02*
X147410401Y-125527180D01*
X147172305Y-125622419D02*
X146838972Y-126622419D01*
X146838972Y-126622419D02*
X146505639Y-125622419D01*
X145743734Y-126574800D02*
X145838972Y-126622419D01*
X145838972Y-126622419D02*
X146029448Y-126622419D01*
X146029448Y-126622419D02*
X146124686Y-126574800D01*
X146124686Y-126574800D02*
X146172305Y-126527180D01*
X146172305Y-126527180D02*
X146219924Y-126431942D01*
X146219924Y-126431942D02*
X146219924Y-126146228D01*
X146219924Y-126146228D02*
X146172305Y-126050990D01*
X146172305Y-126050990D02*
X146124686Y-126003371D01*
X146124686Y-126003371D02*
X146029448Y-125955752D01*
X146029448Y-125955752D02*
X145838972Y-125955752D01*
X145838972Y-125955752D02*
X145743734Y-126003371D01*
X144886591Y-126574800D02*
X144981829Y-126622419D01*
X144981829Y-126622419D02*
X145172305Y-126622419D01*
X145172305Y-126622419D02*
X145267543Y-126574800D01*
X145267543Y-126574800D02*
X145315162Y-126527180D01*
X145315162Y-126527180D02*
X145362781Y-126431942D01*
X145362781Y-126431942D02*
X145362781Y-126146228D01*
X145362781Y-126146228D02*
X145315162Y-126050990D01*
X145315162Y-126050990D02*
X145267543Y-126003371D01*
X145267543Y-126003371D02*
X145172305Y-125955752D01*
X145172305Y-125955752D02*
X144981829Y-125955752D01*
X144981829Y-125955752D02*
X144886591Y-126003371D01*
X142981828Y-126574800D02*
X142838971Y-126622419D01*
X142838971Y-126622419D02*
X142600876Y-126622419D01*
X142600876Y-126622419D02*
X142505638Y-126574800D01*
X142505638Y-126574800D02*
X142458019Y-126527180D01*
X142458019Y-126527180D02*
X142410400Y-126431942D01*
X142410400Y-126431942D02*
X142410400Y-126336704D01*
X142410400Y-126336704D02*
X142458019Y-126241466D01*
X142458019Y-126241466D02*
X142505638Y-126193847D01*
X142505638Y-126193847D02*
X142600876Y-126146228D01*
X142600876Y-126146228D02*
X142791352Y-126098609D01*
X142791352Y-126098609D02*
X142886590Y-126050990D01*
X142886590Y-126050990D02*
X142934209Y-126003371D01*
X142934209Y-126003371D02*
X142981828Y-125908133D01*
X142981828Y-125908133D02*
X142981828Y-125812895D01*
X142981828Y-125812895D02*
X142934209Y-125717657D01*
X142934209Y-125717657D02*
X142886590Y-125670038D01*
X142886590Y-125670038D02*
X142791352Y-125622419D01*
X142791352Y-125622419D02*
X142553257Y-125622419D01*
X142553257Y-125622419D02*
X142410400Y-125670038D01*
X139934209Y-125670038D02*
X140029447Y-125622419D01*
X140029447Y-125622419D02*
X140172304Y-125622419D01*
X140172304Y-125622419D02*
X140315161Y-125670038D01*
X140315161Y-125670038D02*
X140410399Y-125765276D01*
X140410399Y-125765276D02*
X140458018Y-125860514D01*
X140458018Y-125860514D02*
X140505637Y-126050990D01*
X140505637Y-126050990D02*
X140505637Y-126193847D01*
X140505637Y-126193847D02*
X140458018Y-126384323D01*
X140458018Y-126384323D02*
X140410399Y-126479561D01*
X140410399Y-126479561D02*
X140315161Y-126574800D01*
X140315161Y-126574800D02*
X140172304Y-126622419D01*
X140172304Y-126622419D02*
X140077066Y-126622419D01*
X140077066Y-126622419D02*
X139934209Y-126574800D01*
X139934209Y-126574800D02*
X139886590Y-126527180D01*
X139886590Y-126527180D02*
X139886590Y-126193847D01*
X139886590Y-126193847D02*
X140077066Y-126193847D01*
X139458018Y-126622419D02*
X139458018Y-125622419D01*
X139458018Y-125622419D02*
X138886590Y-126622419D01*
X138886590Y-126622419D02*
X138886590Y-125622419D01*
X138410399Y-126622419D02*
X138410399Y-125622419D01*
X138410399Y-125622419D02*
X138172304Y-125622419D01*
X138172304Y-125622419D02*
X138029447Y-125670038D01*
X138029447Y-125670038D02*
X137934209Y-125765276D01*
X137934209Y-125765276D02*
X137886590Y-125860514D01*
X137886590Y-125860514D02*
X137838971Y-126050990D01*
X137838971Y-126050990D02*
X137838971Y-126193847D01*
X137838971Y-126193847D02*
X137886590Y-126384323D01*
X137886590Y-126384323D02*
X137934209Y-126479561D01*
X137934209Y-126479561D02*
X138029447Y-126574800D01*
X138029447Y-126574800D02*
X138172304Y-126622419D01*
X138172304Y-126622419D02*
X138410399Y-126622419D01*
X137505637Y-126955752D02*
X137267542Y-126955752D01*
X137267542Y-126955752D02*
X137267542Y-125527180D01*
X137267542Y-125527180D02*
X137505637Y-125527180D01*
X136886589Y-125717657D02*
X136696113Y-125574800D01*
X136696113Y-125574800D02*
X136505637Y-125717657D01*
X102535716Y-109902531D02*
X102535716Y-108902531D01*
X102535716Y-109378721D02*
X101964288Y-109378721D01*
X101964288Y-109902531D02*
X101964288Y-108902531D01*
X101059526Y-109902531D02*
X101059526Y-109378721D01*
X101059526Y-109378721D02*
X101107145Y-109283483D01*
X101107145Y-109283483D02*
X101202383Y-109235864D01*
X101202383Y-109235864D02*
X101392859Y-109235864D01*
X101392859Y-109235864D02*
X101488097Y-109283483D01*
X101059526Y-109854912D02*
X101154764Y-109902531D01*
X101154764Y-109902531D02*
X101392859Y-109902531D01*
X101392859Y-109902531D02*
X101488097Y-109854912D01*
X101488097Y-109854912D02*
X101535716Y-109759673D01*
X101535716Y-109759673D02*
X101535716Y-109664435D01*
X101535716Y-109664435D02*
X101488097Y-109569197D01*
X101488097Y-109569197D02*
X101392859Y-109521578D01*
X101392859Y-109521578D02*
X101154764Y-109521578D01*
X101154764Y-109521578D02*
X101059526Y-109473959D01*
X100726192Y-109235864D02*
X100345240Y-109235864D01*
X100583335Y-108902531D02*
X100583335Y-109759673D01*
X100583335Y-109759673D02*
X100535716Y-109854912D01*
X100535716Y-109854912D02*
X100440478Y-109902531D01*
X100440478Y-109902531D02*
X100345240Y-109902531D01*
X99297620Y-109854912D02*
X99202382Y-109902531D01*
X99202382Y-109902531D02*
X99011906Y-109902531D01*
X99011906Y-109902531D02*
X98916668Y-109854912D01*
X98916668Y-109854912D02*
X98869049Y-109759673D01*
X98869049Y-109759673D02*
X98869049Y-109712054D01*
X98869049Y-109712054D02*
X98916668Y-109616816D01*
X98916668Y-109616816D02*
X99011906Y-109569197D01*
X99011906Y-109569197D02*
X99154763Y-109569197D01*
X99154763Y-109569197D02*
X99250001Y-109521578D01*
X99250001Y-109521578D02*
X99297620Y-109426340D01*
X99297620Y-109426340D02*
X99297620Y-109378721D01*
X99297620Y-109378721D02*
X99250001Y-109283483D01*
X99250001Y-109283483D02*
X99154763Y-109235864D01*
X99154763Y-109235864D02*
X99011906Y-109235864D01*
X99011906Y-109235864D02*
X98916668Y-109283483D01*
X98059525Y-109854912D02*
X98154763Y-109902531D01*
X98154763Y-109902531D02*
X98345239Y-109902531D01*
X98345239Y-109902531D02*
X98440477Y-109854912D01*
X98440477Y-109854912D02*
X98488096Y-109759673D01*
X98488096Y-109759673D02*
X98488096Y-109378721D01*
X98488096Y-109378721D02*
X98440477Y-109283483D01*
X98440477Y-109283483D02*
X98345239Y-109235864D01*
X98345239Y-109235864D02*
X98154763Y-109235864D01*
X98154763Y-109235864D02*
X98059525Y-109283483D01*
X98059525Y-109283483D02*
X98011906Y-109378721D01*
X98011906Y-109378721D02*
X98011906Y-109473959D01*
X98011906Y-109473959D02*
X98488096Y-109569197D01*
X97583334Y-109902531D02*
X97583334Y-109235864D01*
X97583334Y-109426340D02*
X97535715Y-109331102D01*
X97535715Y-109331102D02*
X97488096Y-109283483D01*
X97488096Y-109283483D02*
X97392858Y-109235864D01*
X97392858Y-109235864D02*
X97297620Y-109235864D01*
X97059524Y-109235864D02*
X96821429Y-109902531D01*
X96821429Y-109902531D02*
X96583334Y-109235864D01*
X96059524Y-109902531D02*
X96154762Y-109854912D01*
X96154762Y-109854912D02*
X96202381Y-109807292D01*
X96202381Y-109807292D02*
X96250000Y-109712054D01*
X96250000Y-109712054D02*
X96250000Y-109426340D01*
X96250000Y-109426340D02*
X96202381Y-109331102D01*
X96202381Y-109331102D02*
X96154762Y-109283483D01*
X96154762Y-109283483D02*
X96059524Y-109235864D01*
X96059524Y-109235864D02*
X95916667Y-109235864D01*
X95916667Y-109235864D02*
X95821429Y-109283483D01*
X95821429Y-109283483D02*
X95773810Y-109331102D01*
X95773810Y-109331102D02*
X95726191Y-109426340D01*
X95726191Y-109426340D02*
X95726191Y-109712054D01*
X95726191Y-109712054D02*
X95773810Y-109807292D01*
X95773810Y-109807292D02*
X95821429Y-109854912D01*
X95821429Y-109854912D02*
X95916667Y-109902531D01*
X95916667Y-109902531D02*
X96059524Y-109902531D01*
X94107143Y-109854912D02*
X94202381Y-109902531D01*
X94202381Y-109902531D02*
X94392857Y-109902531D01*
X94392857Y-109902531D02*
X94488095Y-109854912D01*
X94488095Y-109854912D02*
X94535714Y-109807292D01*
X94535714Y-109807292D02*
X94583333Y-109712054D01*
X94583333Y-109712054D02*
X94583333Y-109426340D01*
X94583333Y-109426340D02*
X94535714Y-109331102D01*
X94535714Y-109331102D02*
X94488095Y-109283483D01*
X94488095Y-109283483D02*
X94392857Y-109235864D01*
X94392857Y-109235864D02*
X94202381Y-109235864D01*
X94202381Y-109235864D02*
X94107143Y-109283483D01*
X93535714Y-109902531D02*
X93630952Y-109854912D01*
X93630952Y-109854912D02*
X93678571Y-109807292D01*
X93678571Y-109807292D02*
X93726190Y-109712054D01*
X93726190Y-109712054D02*
X93726190Y-109426340D01*
X93726190Y-109426340D02*
X93678571Y-109331102D01*
X93678571Y-109331102D02*
X93630952Y-109283483D01*
X93630952Y-109283483D02*
X93535714Y-109235864D01*
X93535714Y-109235864D02*
X93392857Y-109235864D01*
X93392857Y-109235864D02*
X93297619Y-109283483D01*
X93297619Y-109283483D02*
X93250000Y-109331102D01*
X93250000Y-109331102D02*
X93202381Y-109426340D01*
X93202381Y-109426340D02*
X93202381Y-109712054D01*
X93202381Y-109712054D02*
X93250000Y-109807292D01*
X93250000Y-109807292D02*
X93297619Y-109854912D01*
X93297619Y-109854912D02*
X93392857Y-109902531D01*
X93392857Y-109902531D02*
X93535714Y-109902531D01*
X92773809Y-109235864D02*
X92773809Y-109902531D01*
X92773809Y-109331102D02*
X92726190Y-109283483D01*
X92726190Y-109283483D02*
X92630952Y-109235864D01*
X92630952Y-109235864D02*
X92488095Y-109235864D01*
X92488095Y-109235864D02*
X92392857Y-109283483D01*
X92392857Y-109283483D02*
X92345238Y-109378721D01*
X92345238Y-109378721D02*
X92345238Y-109902531D01*
X92011904Y-109235864D02*
X91630952Y-109235864D01*
X91869047Y-108902531D02*
X91869047Y-109759673D01*
X91869047Y-109759673D02*
X91821428Y-109854912D01*
X91821428Y-109854912D02*
X91726190Y-109902531D01*
X91726190Y-109902531D02*
X91630952Y-109902531D01*
X91297618Y-109902531D02*
X91297618Y-109235864D01*
X91297618Y-109426340D02*
X91249999Y-109331102D01*
X91249999Y-109331102D02*
X91202380Y-109283483D01*
X91202380Y-109283483D02*
X91107142Y-109235864D01*
X91107142Y-109235864D02*
X91011904Y-109235864D01*
X90535713Y-109902531D02*
X90630951Y-109854912D01*
X90630951Y-109854912D02*
X90678570Y-109807292D01*
X90678570Y-109807292D02*
X90726189Y-109712054D01*
X90726189Y-109712054D02*
X90726189Y-109426340D01*
X90726189Y-109426340D02*
X90678570Y-109331102D01*
X90678570Y-109331102D02*
X90630951Y-109283483D01*
X90630951Y-109283483D02*
X90535713Y-109235864D01*
X90535713Y-109235864D02*
X90392856Y-109235864D01*
X90392856Y-109235864D02*
X90297618Y-109283483D01*
X90297618Y-109283483D02*
X90249999Y-109331102D01*
X90249999Y-109331102D02*
X90202380Y-109426340D01*
X90202380Y-109426340D02*
X90202380Y-109712054D01*
X90202380Y-109712054D02*
X90249999Y-109807292D01*
X90249999Y-109807292D02*
X90297618Y-109854912D01*
X90297618Y-109854912D02*
X90392856Y-109902531D01*
X90392856Y-109902531D02*
X90535713Y-109902531D01*
X89630951Y-109902531D02*
X89726189Y-109854912D01*
X89726189Y-109854912D02*
X89773808Y-109759673D01*
X89773808Y-109759673D02*
X89773808Y-108902531D01*
X89107141Y-109902531D02*
X89202379Y-109854912D01*
X89202379Y-109854912D02*
X89249998Y-109759673D01*
X89249998Y-109759673D02*
X89249998Y-108902531D01*
X88345236Y-109854912D02*
X88440474Y-109902531D01*
X88440474Y-109902531D02*
X88630950Y-109902531D01*
X88630950Y-109902531D02*
X88726188Y-109854912D01*
X88726188Y-109854912D02*
X88773807Y-109759673D01*
X88773807Y-109759673D02*
X88773807Y-109378721D01*
X88773807Y-109378721D02*
X88726188Y-109283483D01*
X88726188Y-109283483D02*
X88630950Y-109235864D01*
X88630950Y-109235864D02*
X88440474Y-109235864D01*
X88440474Y-109235864D02*
X88345236Y-109283483D01*
X88345236Y-109283483D02*
X88297617Y-109378721D01*
X88297617Y-109378721D02*
X88297617Y-109473959D01*
X88297617Y-109473959D02*
X88773807Y-109569197D01*
X87869045Y-109902531D02*
X87869045Y-109235864D01*
X87869045Y-109426340D02*
X87821426Y-109331102D01*
X87821426Y-109331102D02*
X87773807Y-109283483D01*
X87773807Y-109283483D02*
X87678569Y-109235864D01*
X87678569Y-109235864D02*
X87583331Y-109235864D01*
X99226190Y-110845808D02*
X98988095Y-111512475D01*
X98988095Y-111512475D02*
X98750000Y-110845808D01*
X97988095Y-111464856D02*
X98083333Y-111512475D01*
X98083333Y-111512475D02*
X98273809Y-111512475D01*
X98273809Y-111512475D02*
X98369047Y-111464856D01*
X98369047Y-111464856D02*
X98416666Y-111369617D01*
X98416666Y-111369617D02*
X98416666Y-110988665D01*
X98416666Y-110988665D02*
X98369047Y-110893427D01*
X98369047Y-110893427D02*
X98273809Y-110845808D01*
X98273809Y-110845808D02*
X98083333Y-110845808D01*
X98083333Y-110845808D02*
X97988095Y-110893427D01*
X97988095Y-110893427D02*
X97940476Y-110988665D01*
X97940476Y-110988665D02*
X97940476Y-111083903D01*
X97940476Y-111083903D02*
X98416666Y-111179141D01*
X97511904Y-111512475D02*
X97511904Y-110845808D01*
X97511904Y-111036284D02*
X97464285Y-110941046D01*
X97464285Y-110941046D02*
X97416666Y-110893427D01*
X97416666Y-110893427D02*
X97321428Y-110845808D01*
X97321428Y-110845808D02*
X97226190Y-110845808D01*
X96940475Y-111464856D02*
X96845237Y-111512475D01*
X96845237Y-111512475D02*
X96654761Y-111512475D01*
X96654761Y-111512475D02*
X96559523Y-111464856D01*
X96559523Y-111464856D02*
X96511904Y-111369617D01*
X96511904Y-111369617D02*
X96511904Y-111321998D01*
X96511904Y-111321998D02*
X96559523Y-111226760D01*
X96559523Y-111226760D02*
X96654761Y-111179141D01*
X96654761Y-111179141D02*
X96797618Y-111179141D01*
X96797618Y-111179141D02*
X96892856Y-111131522D01*
X96892856Y-111131522D02*
X96940475Y-111036284D01*
X96940475Y-111036284D02*
X96940475Y-110988665D01*
X96940475Y-110988665D02*
X96892856Y-110893427D01*
X96892856Y-110893427D02*
X96797618Y-110845808D01*
X96797618Y-110845808D02*
X96654761Y-110845808D01*
X96654761Y-110845808D02*
X96559523Y-110893427D01*
X96083332Y-111512475D02*
X96083332Y-110845808D01*
X96083332Y-110512475D02*
X96130951Y-110560094D01*
X96130951Y-110560094D02*
X96083332Y-110607713D01*
X96083332Y-110607713D02*
X96035713Y-110560094D01*
X96035713Y-110560094D02*
X96083332Y-110512475D01*
X96083332Y-110512475D02*
X96083332Y-110607713D01*
X95464285Y-111512475D02*
X95559523Y-111464856D01*
X95559523Y-111464856D02*
X95607142Y-111417236D01*
X95607142Y-111417236D02*
X95654761Y-111321998D01*
X95654761Y-111321998D02*
X95654761Y-111036284D01*
X95654761Y-111036284D02*
X95607142Y-110941046D01*
X95607142Y-110941046D02*
X95559523Y-110893427D01*
X95559523Y-110893427D02*
X95464285Y-110845808D01*
X95464285Y-110845808D02*
X95321428Y-110845808D01*
X95321428Y-110845808D02*
X95226190Y-110893427D01*
X95226190Y-110893427D02*
X95178571Y-110941046D01*
X95178571Y-110941046D02*
X95130952Y-111036284D01*
X95130952Y-111036284D02*
X95130952Y-111321998D01*
X95130952Y-111321998D02*
X95178571Y-111417236D01*
X95178571Y-111417236D02*
X95226190Y-111464856D01*
X95226190Y-111464856D02*
X95321428Y-111512475D01*
X95321428Y-111512475D02*
X95464285Y-111512475D01*
X94702380Y-110845808D02*
X94702380Y-111512475D01*
X94702380Y-110941046D02*
X94654761Y-110893427D01*
X94654761Y-110893427D02*
X94559523Y-110845808D01*
X94559523Y-110845808D02*
X94416666Y-110845808D01*
X94416666Y-110845808D02*
X94321428Y-110893427D01*
X94321428Y-110893427D02*
X94273809Y-110988665D01*
X94273809Y-110988665D02*
X94273809Y-111512475D01*
X92511904Y-111512475D02*
X93083332Y-111512475D01*
X92797618Y-111512475D02*
X92797618Y-110512475D01*
X92797618Y-110512475D02*
X92892856Y-110655332D01*
X92892856Y-110655332D02*
X92988094Y-110750570D01*
X92988094Y-110750570D02*
X93083332Y-110798189D01*
X92083332Y-111417236D02*
X92035713Y-111464856D01*
X92035713Y-111464856D02*
X92083332Y-111512475D01*
X92083332Y-111512475D02*
X92130951Y-111464856D01*
X92130951Y-111464856D02*
X92083332Y-111417236D01*
X92083332Y-111417236D02*
X92083332Y-111512475D01*
X91416666Y-110512475D02*
X91321428Y-110512475D01*
X91321428Y-110512475D02*
X91226190Y-110560094D01*
X91226190Y-110560094D02*
X91178571Y-110607713D01*
X91178571Y-110607713D02*
X91130952Y-110702951D01*
X91130952Y-110702951D02*
X91083333Y-110893427D01*
X91083333Y-110893427D02*
X91083333Y-111131522D01*
X91083333Y-111131522D02*
X91130952Y-111321998D01*
X91130952Y-111321998D02*
X91178571Y-111417236D01*
X91178571Y-111417236D02*
X91226190Y-111464856D01*
X91226190Y-111464856D02*
X91321428Y-111512475D01*
X91321428Y-111512475D02*
X91416666Y-111512475D01*
X91416666Y-111512475D02*
X91511904Y-111464856D01*
X91511904Y-111464856D02*
X91559523Y-111417236D01*
X91559523Y-111417236D02*
X91607142Y-111321998D01*
X91607142Y-111321998D02*
X91654761Y-111131522D01*
X91654761Y-111131522D02*
X91654761Y-110893427D01*
X91654761Y-110893427D02*
X91607142Y-110702951D01*
X91607142Y-110702951D02*
X91559523Y-110607713D01*
X91559523Y-110607713D02*
X91511904Y-110560094D01*
X91511904Y-110560094D02*
X91416666Y-110512475D01*
X100559523Y-113122419D02*
X100559523Y-112122419D01*
X100559523Y-112503371D02*
X100464285Y-112455752D01*
X100464285Y-112455752D02*
X100273809Y-112455752D01*
X100273809Y-112455752D02*
X100178571Y-112503371D01*
X100178571Y-112503371D02*
X100130952Y-112550990D01*
X100130952Y-112550990D02*
X100083333Y-112646228D01*
X100083333Y-112646228D02*
X100083333Y-112931942D01*
X100083333Y-112931942D02*
X100130952Y-113027180D01*
X100130952Y-113027180D02*
X100178571Y-113074800D01*
X100178571Y-113074800D02*
X100273809Y-113122419D01*
X100273809Y-113122419D02*
X100464285Y-113122419D01*
X100464285Y-113122419D02*
X100559523Y-113074800D01*
X99749999Y-112455752D02*
X99511904Y-113122419D01*
X99273809Y-112455752D02*
X99511904Y-113122419D01*
X99511904Y-113122419D02*
X99607142Y-113360514D01*
X99607142Y-113360514D02*
X99654761Y-113408133D01*
X99654761Y-113408133D02*
X99749999Y-113455752D01*
X98178570Y-113074800D02*
X98035713Y-113122419D01*
X98035713Y-113122419D02*
X97797618Y-113122419D01*
X97797618Y-113122419D02*
X97702380Y-113074800D01*
X97702380Y-113074800D02*
X97654761Y-113027180D01*
X97654761Y-113027180D02*
X97607142Y-112931942D01*
X97607142Y-112931942D02*
X97607142Y-112836704D01*
X97607142Y-112836704D02*
X97654761Y-112741466D01*
X97654761Y-112741466D02*
X97702380Y-112693847D01*
X97702380Y-112693847D02*
X97797618Y-112646228D01*
X97797618Y-112646228D02*
X97988094Y-112598609D01*
X97988094Y-112598609D02*
X98083332Y-112550990D01*
X98083332Y-112550990D02*
X98130951Y-112503371D01*
X98130951Y-112503371D02*
X98178570Y-112408133D01*
X98178570Y-112408133D02*
X98178570Y-112312895D01*
X98178570Y-112312895D02*
X98130951Y-112217657D01*
X98130951Y-112217657D02*
X98083332Y-112170038D01*
X98083332Y-112170038D02*
X97988094Y-112122419D01*
X97988094Y-112122419D02*
X97749999Y-112122419D01*
X97749999Y-112122419D02*
X97607142Y-112170038D01*
X97273808Y-112455752D02*
X96749999Y-112455752D01*
X96749999Y-112455752D02*
X97273808Y-113122419D01*
X97273808Y-113122419D02*
X96749999Y-113122419D01*
X96464284Y-112455752D02*
X96226189Y-113122419D01*
X95988094Y-112455752D02*
X96226189Y-113122419D01*
X96226189Y-113122419D02*
X96321427Y-113360514D01*
X96321427Y-113360514D02*
X96369046Y-113408133D01*
X96369046Y-113408133D02*
X96464284Y-113455752D01*
X95607141Y-113122419D02*
X95607141Y-112455752D01*
X95607141Y-112550990D02*
X95559522Y-112503371D01*
X95559522Y-112503371D02*
X95464284Y-112455752D01*
X95464284Y-112455752D02*
X95321427Y-112455752D01*
X95321427Y-112455752D02*
X95226189Y-112503371D01*
X95226189Y-112503371D02*
X95178570Y-112598609D01*
X95178570Y-112598609D02*
X95178570Y-113122419D01*
X95178570Y-112598609D02*
X95130951Y-112503371D01*
X95130951Y-112503371D02*
X95035713Y-112455752D01*
X95035713Y-112455752D02*
X94892856Y-112455752D01*
X94892856Y-112455752D02*
X94797617Y-112503371D01*
X94797617Y-112503371D02*
X94749998Y-112598609D01*
X94749998Y-112598609D02*
X94749998Y-113122419D01*
X94130951Y-113122419D02*
X94226189Y-113074800D01*
X94226189Y-113074800D02*
X94273808Y-113027180D01*
X94273808Y-113027180D02*
X94321427Y-112931942D01*
X94321427Y-112931942D02*
X94321427Y-112646228D01*
X94321427Y-112646228D02*
X94273808Y-112550990D01*
X94273808Y-112550990D02*
X94226189Y-112503371D01*
X94226189Y-112503371D02*
X94130951Y-112455752D01*
X94130951Y-112455752D02*
X93988094Y-112455752D01*
X93988094Y-112455752D02*
X93892856Y-112503371D01*
X93892856Y-112503371D02*
X93845237Y-112550990D01*
X93845237Y-112550990D02*
X93797618Y-112646228D01*
X93797618Y-112646228D02*
X93797618Y-112931942D01*
X93797618Y-112931942D02*
X93845237Y-113027180D01*
X93845237Y-113027180D02*
X93892856Y-113074800D01*
X93892856Y-113074800D02*
X93988094Y-113122419D01*
X93988094Y-113122419D02*
X94130951Y-113122419D01*
X93369046Y-112455752D02*
X93369046Y-113122419D01*
X93369046Y-112550990D02*
X93321427Y-112503371D01*
X93321427Y-112503371D02*
X93226189Y-112455752D01*
X93226189Y-112455752D02*
X93083332Y-112455752D01*
X93083332Y-112455752D02*
X92988094Y-112503371D01*
X92988094Y-112503371D02*
X92940475Y-112598609D01*
X92940475Y-112598609D02*
X92940475Y-113122419D01*
X91369046Y-112598609D02*
X91702379Y-112598609D01*
X91702379Y-113122419D02*
X91702379Y-112122419D01*
X91702379Y-112122419D02*
X91226189Y-112122419D01*
X90845236Y-113122419D02*
X90845236Y-112455752D01*
X90845236Y-112122419D02*
X90892855Y-112170038D01*
X90892855Y-112170038D02*
X90845236Y-112217657D01*
X90845236Y-112217657D02*
X90797617Y-112170038D01*
X90797617Y-112170038D02*
X90845236Y-112122419D01*
X90845236Y-112122419D02*
X90845236Y-112217657D01*
X90226189Y-113122419D02*
X90321427Y-113074800D01*
X90321427Y-113074800D02*
X90369046Y-112979561D01*
X90369046Y-112979561D02*
X90369046Y-112122419D01*
X89845236Y-113122419D02*
X89845236Y-112455752D01*
X89845236Y-112122419D02*
X89892855Y-112170038D01*
X89892855Y-112170038D02*
X89845236Y-112217657D01*
X89845236Y-112217657D02*
X89797617Y-112170038D01*
X89797617Y-112170038D02*
X89845236Y-112122419D01*
X89845236Y-112122419D02*
X89845236Y-112217657D01*
X89369046Y-112455752D02*
X89369046Y-113455752D01*
X89369046Y-112503371D02*
X89273808Y-112455752D01*
X89273808Y-112455752D02*
X89083332Y-112455752D01*
X89083332Y-112455752D02*
X88988094Y-112503371D01*
X88988094Y-112503371D02*
X88940475Y-112550990D01*
X88940475Y-112550990D02*
X88892856Y-112646228D01*
X88892856Y-112646228D02*
X88892856Y-112931942D01*
X88892856Y-112931942D02*
X88940475Y-113027180D01*
X88940475Y-113027180D02*
X88988094Y-113074800D01*
X88988094Y-113074800D02*
X89083332Y-113122419D01*
X89083332Y-113122419D02*
X89273808Y-113122419D01*
X89273808Y-113122419D02*
X89369046Y-113074800D01*
D11*
X113630326Y-119507275D02*
X113630326Y-118507275D01*
X113630326Y-118507275D02*
X113392231Y-118507275D01*
X113392231Y-118507275D02*
X113249374Y-118554894D01*
X113249374Y-118554894D02*
X113154136Y-118650132D01*
X113154136Y-118650132D02*
X113106517Y-118745370D01*
X113106517Y-118745370D02*
X113058898Y-118935846D01*
X113058898Y-118935846D02*
X113058898Y-119078703D01*
X113058898Y-119078703D02*
X113106517Y-119269179D01*
X113106517Y-119269179D02*
X113154136Y-119364417D01*
X113154136Y-119364417D02*
X113249374Y-119459656D01*
X113249374Y-119459656D02*
X113392231Y-119507275D01*
X113392231Y-119507275D02*
X113630326Y-119507275D01*
X112630326Y-118983465D02*
X112296993Y-118983465D01*
X112154136Y-119507275D02*
X112630326Y-119507275D01*
X112630326Y-119507275D02*
X112630326Y-118507275D01*
X112630326Y-118507275D02*
X112154136Y-118507275D01*
X111868421Y-118507275D02*
X111535088Y-119507275D01*
X111535088Y-119507275D02*
X111201755Y-118507275D01*
X110868421Y-119507275D02*
X110868421Y-118507275D01*
X109820803Y-119412036D02*
X109868422Y-119459656D01*
X109868422Y-119459656D02*
X110011279Y-119507275D01*
X110011279Y-119507275D02*
X110106517Y-119507275D01*
X110106517Y-119507275D02*
X110249374Y-119459656D01*
X110249374Y-119459656D02*
X110344612Y-119364417D01*
X110344612Y-119364417D02*
X110392231Y-119269179D01*
X110392231Y-119269179D02*
X110439850Y-119078703D01*
X110439850Y-119078703D02*
X110439850Y-118935846D01*
X110439850Y-118935846D02*
X110392231Y-118745370D01*
X110392231Y-118745370D02*
X110344612Y-118650132D01*
X110344612Y-118650132D02*
X110249374Y-118554894D01*
X110249374Y-118554894D02*
X110106517Y-118507275D01*
X110106517Y-118507275D02*
X110011279Y-118507275D01*
X110011279Y-118507275D02*
X109868422Y-118554894D01*
X109868422Y-118554894D02*
X109820803Y-118602513D01*
X109392231Y-118983465D02*
X109058898Y-118983465D01*
X108916041Y-119507275D02*
X109392231Y-119507275D01*
X109392231Y-119507275D02*
X109392231Y-118507275D01*
X109392231Y-118507275D02*
X108916041Y-118507275D01*
X107725564Y-118983465D02*
X107392231Y-118983465D01*
X107249374Y-119507275D02*
X107725564Y-119507275D01*
X107725564Y-119507275D02*
X107725564Y-118507275D01*
X107725564Y-118507275D02*
X107249374Y-118507275D01*
X106868421Y-119459656D02*
X106725564Y-119507275D01*
X106725564Y-119507275D02*
X106487469Y-119507275D01*
X106487469Y-119507275D02*
X106392231Y-119459656D01*
X106392231Y-119459656D02*
X106344612Y-119412036D01*
X106344612Y-119412036D02*
X106296993Y-119316798D01*
X106296993Y-119316798D02*
X106296993Y-119221560D01*
X106296993Y-119221560D02*
X106344612Y-119126322D01*
X106344612Y-119126322D02*
X106392231Y-119078703D01*
X106392231Y-119078703D02*
X106487469Y-119031084D01*
X106487469Y-119031084D02*
X106677945Y-118983465D01*
X106677945Y-118983465D02*
X106773183Y-118935846D01*
X106773183Y-118935846D02*
X106820802Y-118888227D01*
X106820802Y-118888227D02*
X106868421Y-118792989D01*
X106868421Y-118792989D02*
X106868421Y-118697751D01*
X106868421Y-118697751D02*
X106820802Y-118602513D01*
X106820802Y-118602513D02*
X106773183Y-118554894D01*
X106773183Y-118554894D02*
X106677945Y-118507275D01*
X106677945Y-118507275D02*
X106439850Y-118507275D01*
X106439850Y-118507275D02*
X106296993Y-118554894D01*
X105868421Y-119507275D02*
X105868421Y-118507275D01*
X105868421Y-118507275D02*
X105630326Y-118507275D01*
X105630326Y-118507275D02*
X105487469Y-118554894D01*
X105487469Y-118554894D02*
X105392231Y-118650132D01*
X105392231Y-118650132D02*
X105344612Y-118745370D01*
X105344612Y-118745370D02*
X105296993Y-118935846D01*
X105296993Y-118935846D02*
X105296993Y-119078703D01*
X105296993Y-119078703D02*
X105344612Y-119269179D01*
X105344612Y-119269179D02*
X105392231Y-119364417D01*
X105392231Y-119364417D02*
X105487469Y-119459656D01*
X105487469Y-119459656D02*
X105630326Y-119507275D01*
X105630326Y-119507275D02*
X105868421Y-119507275D01*
X113677945Y-121069600D02*
X113535088Y-121117219D01*
X113535088Y-121117219D02*
X113296993Y-121117219D01*
X113296993Y-121117219D02*
X113201755Y-121069600D01*
X113201755Y-121069600D02*
X113154136Y-121021980D01*
X113154136Y-121021980D02*
X113106517Y-120926742D01*
X113106517Y-120926742D02*
X113106517Y-120831504D01*
X113106517Y-120831504D02*
X113154136Y-120736266D01*
X113154136Y-120736266D02*
X113201755Y-120688647D01*
X113201755Y-120688647D02*
X113296993Y-120641028D01*
X113296993Y-120641028D02*
X113487469Y-120593409D01*
X113487469Y-120593409D02*
X113582707Y-120545790D01*
X113582707Y-120545790D02*
X113630326Y-120498171D01*
X113630326Y-120498171D02*
X113677945Y-120402933D01*
X113677945Y-120402933D02*
X113677945Y-120307695D01*
X113677945Y-120307695D02*
X113630326Y-120212457D01*
X113630326Y-120212457D02*
X113582707Y-120164838D01*
X113582707Y-120164838D02*
X113487469Y-120117219D01*
X113487469Y-120117219D02*
X113249374Y-120117219D01*
X113249374Y-120117219D02*
X113106517Y-120164838D01*
X112677945Y-120593409D02*
X112344612Y-120593409D01*
X112201755Y-121117219D02*
X112677945Y-121117219D01*
X112677945Y-121117219D02*
X112677945Y-120117219D01*
X112677945Y-120117219D02*
X112201755Y-120117219D01*
X111773183Y-121117219D02*
X111773183Y-120117219D01*
X111773183Y-120117219D02*
X111201755Y-121117219D01*
X111201755Y-121117219D02*
X111201755Y-120117219D01*
X110773183Y-121069600D02*
X110630326Y-121117219D01*
X110630326Y-121117219D02*
X110392231Y-121117219D01*
X110392231Y-121117219D02*
X110296993Y-121069600D01*
X110296993Y-121069600D02*
X110249374Y-121021980D01*
X110249374Y-121021980D02*
X110201755Y-120926742D01*
X110201755Y-120926742D02*
X110201755Y-120831504D01*
X110201755Y-120831504D02*
X110249374Y-120736266D01*
X110249374Y-120736266D02*
X110296993Y-120688647D01*
X110296993Y-120688647D02*
X110392231Y-120641028D01*
X110392231Y-120641028D02*
X110582707Y-120593409D01*
X110582707Y-120593409D02*
X110677945Y-120545790D01*
X110677945Y-120545790D02*
X110725564Y-120498171D01*
X110725564Y-120498171D02*
X110773183Y-120402933D01*
X110773183Y-120402933D02*
X110773183Y-120307695D01*
X110773183Y-120307695D02*
X110725564Y-120212457D01*
X110725564Y-120212457D02*
X110677945Y-120164838D01*
X110677945Y-120164838D02*
X110582707Y-120117219D01*
X110582707Y-120117219D02*
X110344612Y-120117219D01*
X110344612Y-120117219D02*
X110201755Y-120164838D01*
X109773183Y-120593409D02*
X109439850Y-120593409D01*
X109296993Y-121117219D02*
X109773183Y-121117219D01*
X109773183Y-121117219D02*
X109773183Y-120117219D01*
X109773183Y-120117219D02*
X109296993Y-120117219D01*
X109011278Y-120117219D02*
X108439850Y-120117219D01*
X108725564Y-121117219D02*
X108725564Y-120117219D01*
X108106516Y-121117219D02*
X108106516Y-120117219D01*
X107773183Y-120117219D02*
X107439850Y-121117219D01*
X107439850Y-121117219D02*
X107106517Y-120117219D01*
X106773183Y-120593409D02*
X106439850Y-120593409D01*
X106296993Y-121117219D02*
X106773183Y-121117219D01*
X106773183Y-121117219D02*
X106773183Y-120117219D01*
X106773183Y-120117219D02*
X106296993Y-120117219D01*
X116363660Y-107262457D02*
X116458898Y-107214838D01*
X116458898Y-107214838D02*
X116554136Y-107119600D01*
X116554136Y-107119600D02*
X116696993Y-106976742D01*
X116696993Y-106976742D02*
X116792231Y-106929123D01*
X116792231Y-106929123D02*
X116887469Y-106929123D01*
X116839850Y-107167219D02*
X116935088Y-107119600D01*
X116935088Y-107119600D02*
X117030326Y-107024361D01*
X117030326Y-107024361D02*
X117077945Y-106833885D01*
X117077945Y-106833885D02*
X117077945Y-106500552D01*
X117077945Y-106500552D02*
X117030326Y-106310076D01*
X117030326Y-106310076D02*
X116935088Y-106214838D01*
X116935088Y-106214838D02*
X116839850Y-106167219D01*
X116839850Y-106167219D02*
X116649374Y-106167219D01*
X116649374Y-106167219D02*
X116554136Y-106214838D01*
X116554136Y-106214838D02*
X116458898Y-106310076D01*
X116458898Y-106310076D02*
X116411279Y-106500552D01*
X116411279Y-106500552D02*
X116411279Y-106833885D01*
X116411279Y-106833885D02*
X116458898Y-107024361D01*
X116458898Y-107024361D02*
X116554136Y-107119600D01*
X116554136Y-107119600D02*
X116649374Y-107167219D01*
X116649374Y-107167219D02*
X116839850Y-107167219D01*
X115411279Y-107071980D02*
X115458898Y-107119600D01*
X115458898Y-107119600D02*
X115601755Y-107167219D01*
X115601755Y-107167219D02*
X115696993Y-107167219D01*
X115696993Y-107167219D02*
X115839850Y-107119600D01*
X115839850Y-107119600D02*
X115935088Y-107024361D01*
X115935088Y-107024361D02*
X115982707Y-106929123D01*
X115982707Y-106929123D02*
X116030326Y-106738647D01*
X116030326Y-106738647D02*
X116030326Y-106595790D01*
X116030326Y-106595790D02*
X115982707Y-106405314D01*
X115982707Y-106405314D02*
X115935088Y-106310076D01*
X115935088Y-106310076D02*
X115839850Y-106214838D01*
X115839850Y-106214838D02*
X115696993Y-106167219D01*
X115696993Y-106167219D02*
X115601755Y-106167219D01*
X115601755Y-106167219D02*
X115458898Y-106214838D01*
X115458898Y-106214838D02*
X115411279Y-106262457D01*
X124277945Y-105919600D02*
X124135088Y-105967219D01*
X124135088Y-105967219D02*
X123896993Y-105967219D01*
X123896993Y-105967219D02*
X123801755Y-105919600D01*
X123801755Y-105919600D02*
X123754136Y-105871980D01*
X123754136Y-105871980D02*
X123706517Y-105776742D01*
X123706517Y-105776742D02*
X123706517Y-105681504D01*
X123706517Y-105681504D02*
X123754136Y-105586266D01*
X123754136Y-105586266D02*
X123801755Y-105538647D01*
X123801755Y-105538647D02*
X123896993Y-105491028D01*
X123896993Y-105491028D02*
X124087469Y-105443409D01*
X124087469Y-105443409D02*
X124182707Y-105395790D01*
X124182707Y-105395790D02*
X124230326Y-105348171D01*
X124230326Y-105348171D02*
X124277945Y-105252933D01*
X124277945Y-105252933D02*
X124277945Y-105157695D01*
X124277945Y-105157695D02*
X124230326Y-105062457D01*
X124230326Y-105062457D02*
X124182707Y-105014838D01*
X124182707Y-105014838D02*
X124087469Y-104967219D01*
X124087469Y-104967219D02*
X123849374Y-104967219D01*
X123849374Y-104967219D02*
X123706517Y-105014838D01*
X123277945Y-105967219D02*
X123277945Y-104967219D01*
X123277945Y-104967219D02*
X122706517Y-105967219D01*
X122706517Y-105967219D02*
X122706517Y-104967219D01*
D13*
X148145740Y-122129464D02*
X148145740Y-120829464D01*
X148145740Y-120829464D02*
X147712406Y-121758036D01*
X147712406Y-121758036D02*
X147279073Y-120829464D01*
X147279073Y-120829464D02*
X147279073Y-122129464D01*
X146660026Y-122129464D02*
X146660026Y-120829464D01*
X146040978Y-122129464D02*
X146040978Y-120829464D01*
X146040978Y-120829464D02*
X145298121Y-122129464D01*
X145298121Y-122129464D02*
X145298121Y-120829464D01*
X144679073Y-122129464D02*
X144679073Y-120829464D01*
X143069549Y-122129464D02*
X143069549Y-120829464D01*
X143069549Y-120829464D02*
X142636215Y-121758036D01*
X142636215Y-121758036D02*
X142202882Y-120829464D01*
X142202882Y-120829464D02*
X142202882Y-122129464D01*
X141336216Y-120829464D02*
X141088597Y-120829464D01*
X141088597Y-120829464D02*
X140964787Y-120891369D01*
X140964787Y-120891369D02*
X140840978Y-121015179D01*
X140840978Y-121015179D02*
X140779073Y-121262798D01*
X140779073Y-121262798D02*
X140779073Y-121696131D01*
X140779073Y-121696131D02*
X140840978Y-121943750D01*
X140840978Y-121943750D02*
X140964787Y-122067560D01*
X140964787Y-122067560D02*
X141088597Y-122129464D01*
X141088597Y-122129464D02*
X141336216Y-122129464D01*
X141336216Y-122129464D02*
X141460025Y-122067560D01*
X141460025Y-122067560D02*
X141583835Y-121943750D01*
X141583835Y-121943750D02*
X141645739Y-121696131D01*
X141645739Y-121696131D02*
X141645739Y-121262798D01*
X141645739Y-121262798D02*
X141583835Y-121015179D01*
X141583835Y-121015179D02*
X141460025Y-120891369D01*
X141460025Y-120891369D02*
X141336216Y-120829464D01*
X140221930Y-122129464D02*
X140221930Y-120829464D01*
X140221930Y-120829464D02*
X139912406Y-120829464D01*
X139912406Y-120829464D02*
X139726692Y-120891369D01*
X139726692Y-120891369D02*
X139602882Y-121015179D01*
X139602882Y-121015179D02*
X139540977Y-121138988D01*
X139540977Y-121138988D02*
X139479073Y-121386607D01*
X139479073Y-121386607D02*
X139479073Y-121572321D01*
X139479073Y-121572321D02*
X139540977Y-121819940D01*
X139540977Y-121819940D02*
X139602882Y-121943750D01*
X139602882Y-121943750D02*
X139726692Y-122067560D01*
X139726692Y-122067560D02*
X139912406Y-122129464D01*
X139912406Y-122129464D02*
X140221930Y-122129464D01*
X138921930Y-120829464D02*
X138921930Y-121881845D01*
X138921930Y-121881845D02*
X138860025Y-122005655D01*
X138860025Y-122005655D02*
X138798120Y-122067560D01*
X138798120Y-122067560D02*
X138674311Y-122129464D01*
X138674311Y-122129464D02*
X138426692Y-122129464D01*
X138426692Y-122129464D02*
X138302882Y-122067560D01*
X138302882Y-122067560D02*
X138240977Y-122005655D01*
X138240977Y-122005655D02*
X138179073Y-121881845D01*
X138179073Y-121881845D02*
X138179073Y-120829464D01*
X136817168Y-122005655D02*
X136879072Y-122067560D01*
X136879072Y-122067560D02*
X137064787Y-122129464D01*
X137064787Y-122129464D02*
X137188596Y-122129464D01*
X137188596Y-122129464D02*
X137374310Y-122067560D01*
X137374310Y-122067560D02*
X137498120Y-121943750D01*
X137498120Y-121943750D02*
X137560025Y-121819940D01*
X137560025Y-121819940D02*
X137621929Y-121572321D01*
X137621929Y-121572321D02*
X137621929Y-121386607D01*
X137621929Y-121386607D02*
X137560025Y-121138988D01*
X137560025Y-121138988D02*
X137498120Y-121015179D01*
X137498120Y-121015179D02*
X137374310Y-120891369D01*
X137374310Y-120891369D02*
X137188596Y-120829464D01*
X137188596Y-120829464D02*
X137064787Y-120829464D01*
X137064787Y-120829464D02*
X136879072Y-120891369D01*
X136879072Y-120891369D02*
X136817168Y-120953274D01*
X136321929Y-121758036D02*
X135702882Y-121758036D01*
X136445739Y-122129464D02*
X136012406Y-120829464D01*
X136012406Y-120829464D02*
X135579072Y-122129464D01*
X134402882Y-122129464D02*
X134836215Y-121510417D01*
X135145739Y-122129464D02*
X135145739Y-120829464D01*
X135145739Y-120829464D02*
X134650501Y-120829464D01*
X134650501Y-120829464D02*
X134526691Y-120891369D01*
X134526691Y-120891369D02*
X134464786Y-120953274D01*
X134464786Y-120953274D02*
X134402882Y-121077083D01*
X134402882Y-121077083D02*
X134402882Y-121262798D01*
X134402882Y-121262798D02*
X134464786Y-121386607D01*
X134464786Y-121386607D02*
X134526691Y-121448512D01*
X134526691Y-121448512D02*
X134650501Y-121510417D01*
X134650501Y-121510417D02*
X135145739Y-121510417D01*
X133845739Y-122129464D02*
X133845739Y-120829464D01*
X133845739Y-120829464D02*
X133536215Y-120829464D01*
X133536215Y-120829464D02*
X133350501Y-120891369D01*
X133350501Y-120891369D02*
X133226691Y-121015179D01*
X133226691Y-121015179D02*
X133164786Y-121138988D01*
X133164786Y-121138988D02*
X133102882Y-121386607D01*
X133102882Y-121386607D02*
X133102882Y-121572321D01*
X133102882Y-121572321D02*
X133164786Y-121819940D01*
X133164786Y-121819940D02*
X133226691Y-121943750D01*
X133226691Y-121943750D02*
X133350501Y-122067560D01*
X133350501Y-122067560D02*
X133536215Y-122129464D01*
X133536215Y-122129464D02*
X133845739Y-122129464D01*
X131617167Y-122067560D02*
X131431453Y-122129464D01*
X131431453Y-122129464D02*
X131121929Y-122129464D01*
X131121929Y-122129464D02*
X130998120Y-122067560D01*
X130998120Y-122067560D02*
X130936215Y-122005655D01*
X130936215Y-122005655D02*
X130874310Y-121881845D01*
X130874310Y-121881845D02*
X130874310Y-121758036D01*
X130874310Y-121758036D02*
X130936215Y-121634226D01*
X130936215Y-121634226D02*
X130998120Y-121572321D01*
X130998120Y-121572321D02*
X131121929Y-121510417D01*
X131121929Y-121510417D02*
X131369548Y-121448512D01*
X131369548Y-121448512D02*
X131493358Y-121386607D01*
X131493358Y-121386607D02*
X131555263Y-121324702D01*
X131555263Y-121324702D02*
X131617167Y-121200893D01*
X131617167Y-121200893D02*
X131617167Y-121077083D01*
X131617167Y-121077083D02*
X131555263Y-120953274D01*
X131555263Y-120953274D02*
X131493358Y-120891369D01*
X131493358Y-120891369D02*
X131369548Y-120829464D01*
X131369548Y-120829464D02*
X131060025Y-120829464D01*
X131060025Y-120829464D02*
X130874310Y-120891369D01*
X130069549Y-121510417D02*
X130069549Y-122129464D01*
X130502882Y-120829464D02*
X130069549Y-121510417D01*
X130069549Y-121510417D02*
X129636215Y-120829464D01*
X129264786Y-122067560D02*
X129079072Y-122129464D01*
X129079072Y-122129464D02*
X128769548Y-122129464D01*
X128769548Y-122129464D02*
X128645739Y-122067560D01*
X128645739Y-122067560D02*
X128583834Y-122005655D01*
X128583834Y-122005655D02*
X128521929Y-121881845D01*
X128521929Y-121881845D02*
X128521929Y-121758036D01*
X128521929Y-121758036D02*
X128583834Y-121634226D01*
X128583834Y-121634226D02*
X128645739Y-121572321D01*
X128645739Y-121572321D02*
X128769548Y-121510417D01*
X128769548Y-121510417D02*
X129017167Y-121448512D01*
X129017167Y-121448512D02*
X129140977Y-121386607D01*
X129140977Y-121386607D02*
X129202882Y-121324702D01*
X129202882Y-121324702D02*
X129264786Y-121200893D01*
X129264786Y-121200893D02*
X129264786Y-121077083D01*
X129264786Y-121077083D02*
X129202882Y-120953274D01*
X129202882Y-120953274D02*
X129140977Y-120891369D01*
X129140977Y-120891369D02*
X129017167Y-120829464D01*
X129017167Y-120829464D02*
X128707644Y-120829464D01*
X128707644Y-120829464D02*
X128521929Y-120891369D01*
X128150501Y-120829464D02*
X127407644Y-120829464D01*
X127779072Y-122129464D02*
X127779072Y-120829464D01*
X126974311Y-121448512D02*
X126540977Y-121448512D01*
X126355263Y-122129464D02*
X126974311Y-122129464D01*
X126974311Y-122129464D02*
X126974311Y-120829464D01*
X126974311Y-120829464D02*
X126355263Y-120829464D01*
X125798121Y-122129464D02*
X125798121Y-120829464D01*
X125798121Y-120829464D02*
X125364787Y-121758036D01*
X125364787Y-121758036D02*
X124931454Y-120829464D01*
X124931454Y-120829464D02*
X124931454Y-122129464D01*
D14*
X123865774Y-129761685D02*
X123580060Y-129547400D01*
X123580060Y-129547400D02*
X123294346Y-129761685D01*
X137073774Y-129693685D02*
X136788060Y-129479400D01*
X136788060Y-129479400D02*
X136502346Y-129693685D01*
X150027774Y-129693685D02*
X149742060Y-129479400D01*
X149742060Y-129479400D02*
X149456346Y-129693685D01*
X163159774Y-129693685D02*
X162874060Y-129479400D01*
X162874060Y-129479400D02*
X162588346Y-129693685D01*
G36*
X148281716Y-112707070D02*
G01*
X145431646Y-112707070D01*
X144331882Y-116965077D01*
X143236819Y-112707070D01*
X140396580Y-112707070D01*
X140396580Y-119710001D01*
X142165692Y-119710001D01*
X142165692Y-114363769D01*
X143538154Y-119710001D01*
X145140143Y-119710001D01*
X146507475Y-114363769D01*
X146507475Y-119710001D01*
X148281716Y-119710001D01*
X148281716Y-112707070D01*
G37*
G36*
X139035659Y-112707070D02*
G01*
X136185589Y-112707070D01*
X135085825Y-116965077D01*
X133990762Y-112707070D01*
X131150523Y-112707070D01*
X131150523Y-119710001D01*
X132919635Y-119710001D01*
X132919635Y-114363769D01*
X134292096Y-119710001D01*
X135894085Y-119710001D01*
X137261418Y-114363769D01*
X137261418Y-119710001D01*
X139035659Y-119710001D01*
X139035659Y-112707070D01*
G37*
G36*
X130143510Y-117377542D02*
G01*
X128082466Y-117248033D01*
X128016505Y-117578401D01*
X127923877Y-117828815D01*
X127809769Y-118015260D01*
X127627283Y-118199877D01*
X127412012Y-118331615D01*
X127157410Y-118413391D01*
X126853620Y-118442258D01*
X126551546Y-118415074D01*
X126318416Y-118340898D01*
X126138965Y-118225981D01*
X125995633Y-118068805D01*
X125914490Y-117903631D01*
X125887639Y-117724611D01*
X125912991Y-117554101D01*
X125990024Y-117394190D01*
X126126570Y-117239484D01*
X126306085Y-117123640D01*
X126649657Y-116988680D01*
X127236165Y-116835567D01*
X127971777Y-116640213D01*
X128536064Y-116430596D01*
X128959334Y-116212194D01*
X129268143Y-115988411D01*
X129538044Y-115703128D01*
X129726698Y-115388230D01*
X129840875Y-115037334D01*
X129880216Y-114640740D01*
X129845896Y-114291040D01*
X129742803Y-113954031D01*
X129566913Y-113623896D01*
X129330583Y-113335030D01*
X129020672Y-113084479D01*
X128624869Y-112871628D01*
X128195900Y-112729481D01*
X127631826Y-112633450D01*
X126901064Y-112597649D01*
X126214391Y-112635070D01*
X125658150Y-112737880D01*
X125210409Y-112894739D01*
X124852416Y-113098591D01*
X124545558Y-113374381D01*
X124303217Y-113722410D01*
X124123808Y-114155706D01*
X124012953Y-114692886D01*
X126054762Y-114813420D01*
X126135245Y-114507022D01*
X126250565Y-114281609D01*
X126396702Y-114119709D01*
X126582177Y-114003984D01*
X126817588Y-113929913D01*
X127116486Y-113903005D01*
X127463280Y-113947374D01*
X127685816Y-114062434D01*
X127830178Y-114240926D01*
X127876875Y-114449681D01*
X127839668Y-114603330D01*
X127719155Y-114748879D01*
X127508329Y-114864590D01*
X126992105Y-115005761D01*
X126039000Y-115235422D01*
X125384107Y-115440868D01*
X124957562Y-115622108D01*
X124570228Y-115857291D01*
X124277008Y-116115014D01*
X124063389Y-116395747D01*
X123908657Y-116713749D01*
X123815273Y-117056038D01*
X123783426Y-117428833D01*
X123824997Y-117865422D01*
X123948470Y-118275675D01*
X124156568Y-118667084D01*
X124435113Y-119011518D01*
X124779687Y-119297046D01*
X125199057Y-119526635D01*
X125654847Y-119681897D01*
X126211071Y-119782903D01*
X126886959Y-119819421D01*
X127647388Y-119783365D01*
X128249809Y-119685476D01*
X128721531Y-119538671D01*
X129086362Y-119352004D01*
X129363886Y-119129985D01*
X129668244Y-118765668D01*
X129898568Y-118357247D01*
X130057636Y-117897717D01*
X130143510Y-117377542D01*
G37*
G36*
X121643503Y-115306746D02*
G01*
X121848568Y-115159188D01*
X121969713Y-115014729D01*
X122036631Y-114830088D01*
X122064773Y-114501819D01*
X122011810Y-114193905D01*
X121847380Y-113898609D01*
X121546392Y-113604569D01*
X121182588Y-113372376D01*
X120705272Y-113162156D01*
X120090411Y-112979503D01*
X119123027Y-112813449D01*
X117995687Y-112754506D01*
X117177910Y-112813874D01*
X116571900Y-112971683D01*
X116129378Y-113206551D01*
X115785105Y-113549343D01*
X115576466Y-113983572D01*
X115502260Y-114538749D01*
X115563053Y-115036454D01*
X115738883Y-115461987D01*
X116035357Y-115832102D01*
X116515087Y-116199210D01*
X116988103Y-116400087D01*
X118167284Y-116729253D01*
X120535617Y-117240759D01*
X119539453Y-117347950D01*
X118776678Y-117505420D01*
X118110547Y-117763452D01*
X117623656Y-118114073D01*
X117388990Y-118414508D01*
X117244662Y-118780620D01*
X117193496Y-119231533D01*
X117260706Y-119718918D01*
X117471318Y-120220107D01*
X117852072Y-120749747D01*
X118327301Y-121205186D01*
X118931314Y-121618504D01*
X119685554Y-121987570D01*
X120482087Y-122252172D01*
X121348382Y-122415027D01*
X122295240Y-122471073D01*
X122978907Y-122429050D01*
X123503151Y-122316177D01*
X123900307Y-122147598D01*
X124234535Y-121896302D01*
X124415687Y-121624173D01*
X124474766Y-121318735D01*
X124431161Y-121029758D01*
X124288750Y-120705295D01*
X124083258Y-120402210D01*
X123846280Y-120147933D01*
X123588430Y-119961825D01*
X123404494Y-119912678D01*
X123305249Y-119939368D01*
X123275924Y-120010473D01*
X123356622Y-120227946D01*
X123429113Y-120383871D01*
X123361024Y-120525862D01*
X123082386Y-120680675D01*
X122707290Y-120772585D01*
X122181032Y-120807877D01*
X121426956Y-120764441D01*
X120701800Y-120635539D01*
X120009237Y-120432083D01*
X119416789Y-120184178D01*
X118889315Y-119883587D01*
X118521591Y-119593990D01*
X118262852Y-119275397D01*
X118193328Y-119031157D01*
X118261447Y-118735724D01*
X118467830Y-118505144D01*
X118860795Y-118327444D01*
X119615758Y-118193991D01*
X120895338Y-118138009D01*
X121793272Y-118207765D01*
X122211123Y-118276837D01*
X122308383Y-118246758D01*
X122347899Y-118085351D01*
X122311729Y-117766248D01*
X122181716Y-117310515D01*
X121983773Y-116894000D01*
X121787117Y-116688868D01*
X121549588Y-116603310D01*
X120714110Y-116433780D01*
X119114515Y-116130822D01*
X118418909Y-115951619D01*
X117521074Y-115652789D01*
X116993499Y-115403996D01*
X116658702Y-115148770D01*
X116433507Y-114857195D01*
X116372840Y-114635860D01*
X116434494Y-114425947D01*
X116635652Y-114255413D01*
X117055805Y-114123869D01*
X117827452Y-114067556D01*
X118539837Y-114089695D01*
X119224619Y-114155092D01*
X119864643Y-114259032D01*
X120281898Y-114366411D01*
X120598470Y-114505132D01*
X120659399Y-114588672D01*
X120584856Y-114735023D01*
X120430983Y-114821875D01*
X120169057Y-114912147D01*
X120067159Y-114983955D01*
X120016552Y-115109105D01*
X120093188Y-115198833D01*
X120490753Y-115284269D01*
X121643503Y-115306746D01*
G37*
G36*
X133384612Y-103195729D02*
G01*
X133386688Y-103253248D01*
X133392916Y-103293792D01*
X133403785Y-103322857D01*
X133425645Y-103350701D01*
X133483653Y-103391123D01*
X133588799Y-103438506D01*
X133730949Y-103476120D01*
X133812606Y-103487346D01*
X133903750Y-103491263D01*
X134023884Y-103484707D01*
X134132712Y-103465762D01*
X134231646Y-103435209D01*
X134324889Y-103391244D01*
X134407399Y-103335499D01*
X134480286Y-103267536D01*
X134541968Y-103188951D01*
X134594440Y-103096712D01*
X134637456Y-102988977D01*
X134666829Y-102876323D01*
X134685472Y-102747457D01*
X134692044Y-102600143D01*
X134684897Y-102450333D01*
X134664465Y-102317274D01*
X134631960Y-102198974D01*
X134585253Y-102085767D01*
X134529162Y-101988256D01*
X134463921Y-101904661D01*
X134387216Y-101831707D01*
X134301247Y-101771687D01*
X134205024Y-101724043D01*
X134102655Y-101690229D01*
X133992154Y-101669487D01*
X133872243Y-101662372D01*
X133730216Y-101674951D01*
X133603820Y-101707801D01*
X133499284Y-101754452D01*
X133434438Y-101799881D01*
X133409159Y-101831022D01*
X133398290Y-101862651D01*
X133392062Y-101907958D01*
X133389986Y-101972438D01*
X133392794Y-102042536D01*
X133402320Y-102089187D01*
X133418684Y-102115321D01*
X133440544Y-102123503D01*
X133461502Y-102118480D01*
X133492445Y-102099323D01*
X133573778Y-102045345D01*
X133692602Y-101991367D01*
X133765398Y-101973661D01*
X133857222Y-101967187D01*
X133958254Y-101978291D01*
X134045167Y-102010296D01*
X134121194Y-102062087D01*
X134185973Y-102133272D01*
X134236036Y-102219545D01*
X134274023Y-102326713D01*
X134296180Y-102444196D01*
X134304064Y-102582313D01*
X134295449Y-102732550D01*
X134271946Y-102852323D01*
X134231716Y-102959001D01*
X134180478Y-103040268D01*
X134114562Y-103104891D01*
X134036985Y-103150300D01*
X133949301Y-103177093D01*
X133847697Y-103186448D01*
X133755683Y-103180526D01*
X133682466Y-103164344D01*
X133562909Y-103115495D01*
X133480966Y-103067257D01*
X133449876Y-103050083D01*
X133431018Y-103045764D01*
X133409159Y-103051259D01*
X133395603Y-103072875D01*
X133387421Y-103118060D01*
X133384612Y-103195729D01*
G37*
G36*
X131982780Y-103413105D02*
G01*
X131990963Y-103437041D01*
X132018318Y-103454138D01*
X132070952Y-103464396D01*
X132153506Y-103467815D01*
X132237648Y-103464396D01*
X132290282Y-103454138D01*
X132317515Y-103437041D01*
X132325697Y-103412983D01*
X132325697Y-102715547D01*
X132329433Y-102631210D01*
X132338764Y-102575718D01*
X132355030Y-102527670D01*
X132376256Y-102488768D01*
X132404423Y-102456512D01*
X132439759Y-102432592D01*
X132480981Y-102417878D01*
X132530617Y-102412686D01*
X132594603Y-102423996D01*
X132663119Y-102460680D01*
X132728174Y-102516313D01*
X132802459Y-102600387D01*
X132802459Y-103412983D01*
X132810642Y-103437041D01*
X132838729Y-103454138D01*
X132891364Y-103464396D01*
X132974528Y-103467815D01*
X133057937Y-103464396D01*
X133110572Y-103454138D01*
X133138538Y-103437163D01*
X133146720Y-103413227D01*
X133146720Y-101619385D01*
X133138538Y-101594961D01*
X133110572Y-101576521D01*
X133057937Y-101564919D01*
X132974528Y-101560767D01*
X132891364Y-101564919D01*
X132838729Y-101576399D01*
X132810642Y-101594717D01*
X132802459Y-101619263D01*
X132802459Y-102289344D01*
X132710481Y-102211245D01*
X132621475Y-102158796D01*
X132527148Y-102126412D01*
X132429501Y-102115687D01*
X132311269Y-102126674D01*
X132219818Y-102156720D01*
X132142057Y-102205736D01*
X132081821Y-102268827D01*
X132037014Y-102344861D01*
X132005983Y-102434912D01*
X131989091Y-102535064D01*
X131982780Y-102665233D01*
X131982780Y-103413105D01*
G37*
G36*
X131300610Y-102128998D02*
G01*
X131440561Y-102163192D01*
X131552669Y-102208499D01*
X131619591Y-102252463D01*
X131645481Y-102296304D01*
X131652320Y-102362372D01*
X131648290Y-102419036D01*
X131636688Y-102462267D01*
X131617515Y-102489256D01*
X131590893Y-102498660D01*
X131568046Y-102494552D01*
X131534228Y-102479242D01*
X131447400Y-102436133D01*
X131327843Y-102393147D01*
X131257571Y-102378745D01*
X131174214Y-102373607D01*
X131111435Y-102377377D01*
X131064183Y-102387407D01*
X131023439Y-102405446D01*
X130993108Y-102430150D01*
X130970562Y-102462120D01*
X130954884Y-102502568D01*
X130943283Y-102603928D01*
X130943283Y-102678422D01*
X131062107Y-102678422D01*
X131219753Y-102685021D01*
X131347749Y-102703091D01*
X131463992Y-102735599D01*
X131553401Y-102779050D01*
X131626505Y-102837899D01*
X131677721Y-102908988D01*
X131708473Y-102992544D01*
X131719364Y-103094368D01*
X131710768Y-103188907D01*
X131686636Y-103266803D01*
X131646926Y-103335017D01*
X131594434Y-103390635D01*
X131530291Y-103433989D01*
X131453628Y-103465861D01*
X131369816Y-103484707D01*
X131275331Y-103491263D01*
X131161833Y-103479690D01*
X131061496Y-103446078D01*
X130970814Y-103392302D01*
X130890038Y-103320293D01*
X130890038Y-103417257D01*
X130878436Y-103447421D01*
X130838869Y-103463053D01*
X130749354Y-103467815D01*
X130662648Y-103463053D01*
X130619539Y-103447421D01*
X130605861Y-103417257D01*
X130605861Y-103104504D01*
X130943283Y-103104504D01*
X131007979Y-103168858D01*
X131066992Y-103212215D01*
X131130553Y-103239741D01*
X131200226Y-103248974D01*
X131279346Y-103237270D01*
X131334804Y-103205376D01*
X131370654Y-103154816D01*
X131383286Y-103085331D01*
X131378851Y-103042211D01*
X131366189Y-103005708D01*
X131344593Y-102973961D01*
X131312212Y-102946357D01*
X131271744Y-102925624D01*
X131216591Y-102909598D01*
X131154764Y-102900622D01*
X131074441Y-102897264D01*
X130943283Y-102897264D01*
X130943283Y-103104504D01*
X130605861Y-103104504D01*
X130605861Y-102596967D01*
X130613901Y-102475978D01*
X130635903Y-102379591D01*
X130675395Y-102295483D01*
X130731524Y-102229870D01*
X130804213Y-102180295D01*
X130898953Y-102143775D01*
X131006163Y-102123290D01*
X131144173Y-102115687D01*
X131300610Y-102128998D01*
G37*
G36*
X129918440Y-103413105D02*
G01*
X129926622Y-103437041D01*
X129954710Y-103454138D01*
X130007344Y-103464396D01*
X130090509Y-103467815D01*
X130173918Y-103464396D01*
X130226552Y-103454138D01*
X130254518Y-103437041D01*
X130262700Y-103413105D01*
X130262700Y-102196531D01*
X130254518Y-102172595D01*
X130226552Y-102154888D01*
X130173918Y-102143286D01*
X130090509Y-102139134D01*
X130007344Y-102143286D01*
X129954710Y-102154888D01*
X129926622Y-102172595D01*
X129918440Y-102196531D01*
X129918440Y-103413105D01*
G37*
G36*
X129892550Y-101784738D02*
G01*
X129898363Y-101852594D01*
X129913271Y-101898167D01*
X129934926Y-101927742D01*
X129988261Y-101955415D01*
X130091974Y-101967187D01*
X130196805Y-101955656D01*
X130248412Y-101929085D01*
X130276974Y-101880993D01*
X130288712Y-101791454D01*
X130276597Y-101698276D01*
X130247069Y-101647840D01*
X130216222Y-101627723D01*
X130166293Y-101613377D01*
X130089288Y-101607662D01*
X129985632Y-101619332D01*
X129933583Y-101646496D01*
X129904440Y-101695267D01*
X129892550Y-101784738D01*
G37*
G36*
X128412927Y-103413105D02*
G01*
X128421109Y-103437041D01*
X128448464Y-103454138D01*
X128501099Y-103464396D01*
X128583653Y-103467815D01*
X128667794Y-103464396D01*
X128720429Y-103454138D01*
X128747662Y-103437041D01*
X128755844Y-103412983D01*
X128755844Y-102715547D01*
X128759580Y-102631210D01*
X128768911Y-102575718D01*
X128785177Y-102527670D01*
X128806402Y-102488768D01*
X128834569Y-102456512D01*
X128869905Y-102432592D01*
X128911128Y-102417878D01*
X128960764Y-102412686D01*
X129024750Y-102423996D01*
X129093265Y-102460680D01*
X129158320Y-102516313D01*
X129232606Y-102600387D01*
X129232606Y-103412983D01*
X129240788Y-103437041D01*
X129268876Y-103454138D01*
X129321510Y-103464396D01*
X129404675Y-103467815D01*
X129488084Y-103464396D01*
X129540718Y-103454138D01*
X129568684Y-103437041D01*
X129576866Y-103413105D01*
X129576866Y-102193845D01*
X129570027Y-102169909D01*
X129545481Y-102152812D01*
X129499685Y-102142554D01*
X129429344Y-102139134D01*
X129356926Y-102142554D01*
X129312595Y-102152812D01*
X129290003Y-102169909D01*
X129283164Y-102193845D01*
X129283164Y-102334651D01*
X129178124Y-102236352D01*
X129077634Y-102170397D01*
X128970345Y-102129233D01*
X128859647Y-102115687D01*
X128741416Y-102126674D01*
X128649965Y-102156720D01*
X128572156Y-102205619D01*
X128511967Y-102268217D01*
X128467163Y-102343551D01*
X128436130Y-102432958D01*
X128419217Y-102532154D01*
X128412927Y-102659860D01*
X128412927Y-103413105D01*
G37*
G36*
X127989367Y-101700470D02*
G01*
X128023237Y-101720258D01*
X128045398Y-101752984D01*
X128053890Y-101806964D01*
X128053890Y-103346671D01*
X128045398Y-103400650D01*
X128023237Y-103433377D01*
X127989367Y-103453165D01*
X127947278Y-103460000D01*
X127477355Y-103460000D01*
X127373221Y-103456594D01*
X127284036Y-103447055D01*
X127199015Y-103430343D01*
X127120760Y-103406877D01*
X127046914Y-103375527D01*
X126980687Y-103337267D01*
X126921440Y-103290673D01*
X126871388Y-103236273D01*
X126830914Y-103173785D01*
X126799703Y-103101207D01*
X126780446Y-103021967D01*
X126774720Y-102944525D01*
X127146650Y-102944525D01*
X127152162Y-103000659D01*
X127167899Y-103048450D01*
X127193271Y-103090436D01*
X127226639Y-103124654D01*
X127267017Y-103151166D01*
X127315422Y-103170816D01*
X127369756Y-103182181D01*
X127441695Y-103186448D01*
X127701325Y-103186448D01*
X127701325Y-102686238D01*
X127488224Y-102686238D01*
X127394508Y-102691185D01*
X127328367Y-102703946D01*
X127270903Y-102726024D01*
X127227250Y-102754260D01*
X127192527Y-102790665D01*
X127167166Y-102835104D01*
X127151978Y-102885526D01*
X127146650Y-102944525D01*
X126774720Y-102944525D01*
X126773691Y-102930603D01*
X126780792Y-102843490D01*
X126801046Y-102768304D01*
X126833602Y-102700031D01*
X126875418Y-102642152D01*
X126926631Y-102593189D01*
X126986182Y-102554103D01*
X127052103Y-102525296D01*
X127124790Y-102506353D01*
X127068789Y-102480801D01*
X127020254Y-102448956D01*
X126977903Y-102410533D01*
X126943073Y-102367013D01*
X126915592Y-102318362D01*
X126895324Y-102263942D01*
X126883045Y-102206010D01*
X126881604Y-102184441D01*
X127238241Y-102184441D01*
X127253262Y-102275666D01*
X127272290Y-102316292D01*
X127299057Y-102351259D01*
X127333114Y-102379707D01*
X127376238Y-102402062D01*
X127426880Y-102415332D01*
X127500558Y-102420502D01*
X127701325Y-102420502D01*
X127701325Y-101959371D01*
X127519609Y-101959371D01*
X127440586Y-101963642D01*
X127386496Y-101974515D01*
X127339878Y-101993346D01*
X127303820Y-102017745D01*
X127275257Y-102049229D01*
X127254605Y-102088454D01*
X127242498Y-102132736D01*
X127238241Y-102184441D01*
X126881604Y-102184441D01*
X126878838Y-102143042D01*
X126889618Y-102033289D01*
X126919870Y-101943618D01*
X126969806Y-101866310D01*
X127038084Y-101803545D01*
X127121757Y-101756292D01*
X127227983Y-101720990D01*
X127347029Y-101701099D01*
X127503244Y-101693635D01*
X127947278Y-101693635D01*
X127989367Y-101700470D01*
G37*
G36*
X125349511Y-103413105D02*
G01*
X125356350Y-103437041D01*
X125380286Y-103454138D01*
X125425348Y-103464396D01*
X125495690Y-103467815D01*
X125568841Y-103464396D01*
X125613171Y-103454138D01*
X125636374Y-103437041D01*
X125643213Y-103413105D01*
X125643213Y-103272299D01*
X125748257Y-103370514D01*
X125848866Y-103436552D01*
X125955870Y-103477753D01*
X126065387Y-103491263D01*
X126184803Y-103480244D01*
X126276413Y-103450230D01*
X126354174Y-103401214D01*
X126414410Y-103338122D01*
X126459139Y-103262262D01*
X126489637Y-103173381D01*
X126505926Y-103073944D01*
X126512107Y-102940251D01*
X126512107Y-102193845D01*
X126504658Y-102169909D01*
X126477302Y-102152812D01*
X126424057Y-102142554D01*
X126341381Y-102139134D01*
X126258094Y-102142554D01*
X126205460Y-102152812D01*
X126177372Y-102170031D01*
X126169190Y-102193967D01*
X126169190Y-102884563D01*
X126165640Y-102974896D01*
X126156978Y-103031231D01*
X126141023Y-103079226D01*
X126119364Y-103118304D01*
X126090625Y-103150519D01*
X126055129Y-103174480D01*
X126013913Y-103189102D01*
X125964270Y-103194263D01*
X125900426Y-103182827D01*
X125832501Y-103145781D01*
X125767481Y-103089593D01*
X125691085Y-103004364D01*
X125691085Y-102193845D01*
X125683635Y-102169909D01*
X125656280Y-102152812D01*
X125603646Y-102142554D01*
X125520237Y-102139134D01*
X125437072Y-102142554D01*
X125385048Y-102152812D01*
X125357693Y-102169909D01*
X125349511Y-102193845D01*
X125349511Y-103413105D01*
G37*
G36*
X124144783Y-103068722D02*
G01*
X124154919Y-103168357D01*
X124183740Y-103252027D01*
X124230683Y-103324759D01*
X124293771Y-103384651D01*
X124369946Y-103430614D01*
X124461810Y-103464518D01*
X124561311Y-103484377D01*
X124672103Y-103491263D01*
X124802529Y-103481371D01*
X124913904Y-103456336D01*
X124995969Y-103425439D01*
X125043719Y-103395764D01*
X125066922Y-103350823D01*
X125075104Y-103258866D01*
X125072418Y-103194630D01*
X125064235Y-103155917D01*
X125050558Y-103136622D01*
X125030041Y-103131737D01*
X124985711Y-103148712D01*
X124912561Y-103185837D01*
X124810833Y-103223572D01*
X124750429Y-103236541D01*
X124678942Y-103241158D01*
X124596388Y-103231632D01*
X124533496Y-103204277D01*
X124509994Y-103183937D01*
X124493196Y-103159092D01*
X124479518Y-103096078D01*
X124485932Y-103057715D01*
X124504797Y-103025736D01*
X124533357Y-102998821D01*
X124571720Y-102974445D01*
X124665997Y-102933412D01*
X124773953Y-102891036D01*
X124881908Y-102837669D01*
X124931714Y-102804199D01*
X124976064Y-102763907D01*
X125013223Y-102716256D01*
X125042986Y-102658517D01*
X125061520Y-102593269D01*
X125068265Y-102510872D01*
X125059576Y-102426110D01*
X125034193Y-102350160D01*
X124992624Y-102282493D01*
X124935764Y-102225108D01*
X124866049Y-102179699D01*
X124779326Y-102144385D01*
X124683735Y-102123178D01*
X124572330Y-102115687D01*
X124461078Y-102124235D01*
X124363381Y-102145607D01*
X124289619Y-102173206D01*
X124246510Y-102198852D01*
X124228070Y-102219734D01*
X124219888Y-102244159D01*
X124215125Y-102279574D01*
X124213049Y-102331964D01*
X124215125Y-102391926D01*
X124221964Y-102428684D01*
X124234909Y-102447002D01*
X124254082Y-102451765D01*
X124292306Y-102436866D01*
X124357152Y-102404870D01*
X124447400Y-102372875D01*
X124500617Y-102361902D01*
X124564148Y-102357976D01*
X124644870Y-102367623D01*
X124700802Y-102395223D01*
X124733653Y-102437355D01*
X124744521Y-102489012D01*
X124737896Y-102528387D01*
X124718632Y-102560087D01*
X124689434Y-102586432D01*
X124650244Y-102610767D01*
X124554012Y-102651800D01*
X124444713Y-102693443D01*
X124335415Y-102746078D01*
X124284262Y-102779627D01*
X124239061Y-102819961D01*
X124201149Y-102867431D01*
X124170795Y-102924497D01*
X124151676Y-102988836D01*
X124144783Y-103068722D01*
G37*
D15*
G36*
X157492636Y-124177712D02*
G01*
X157492636Y-125191258D01*
X157482744Y-125327363D01*
X157468647Y-125369511D01*
X157450504Y-125394407D01*
X157393718Y-125417488D01*
X157302127Y-125420419D01*
X157302127Y-125479038D01*
X157924580Y-125479038D01*
X157924580Y-125420419D01*
X157819433Y-125411626D01*
X157763379Y-125377555D01*
X157739016Y-125307213D01*
X157733887Y-125190526D01*
X157733887Y-124706742D01*
X157738100Y-124518797D01*
X157752022Y-124417314D01*
X157779316Y-124376647D01*
X157826394Y-124368221D01*
X157867244Y-124373350D01*
X157921649Y-124390203D01*
X157946928Y-124332867D01*
X157561146Y-124177712D01*
X157492636Y-124177712D01*
G37*
G36*
X157613353Y-123521187D02*
G01*
X157556221Y-123531842D01*
X157509855Y-123563319D01*
X157478677Y-123610035D01*
X157468090Y-123667733D01*
X157478498Y-123723772D01*
X157509672Y-123771230D01*
X157556136Y-123803413D01*
X157613353Y-123814278D01*
X157670413Y-123803422D01*
X157716851Y-123771230D01*
X157748025Y-123723772D01*
X157758433Y-123667733D01*
X157747887Y-123610020D01*
X157716851Y-123563319D01*
X157670360Y-123531828D01*
X157613353Y-123521187D01*
G37*
D12*
X106014819Y-95204938D02*
X106729104Y-95204938D01*
X106729104Y-95204938D02*
X106871961Y-95157319D01*
X106871961Y-95157319D02*
X106967200Y-95062081D01*
X106967200Y-95062081D02*
X107014819Y-94919224D01*
X107014819Y-94919224D02*
X107014819Y-94823986D01*
X107014819Y-96204938D02*
X107014819Y-95633510D01*
X107014819Y-95919224D02*
X106014819Y-95919224D01*
X106014819Y-95919224D02*
X106157676Y-95823986D01*
X106157676Y-95823986D02*
X106252914Y-95728748D01*
X106252914Y-95728748D02*
X106300533Y-95633510D01*
%TO.C,J1*%
D16*
X107560000Y-92888272D02*
X107560000Y-98188272D01*
X107560000Y-92888272D02*
X108130000Y-92888272D01*
X107560000Y-98188272D02*
X108130000Y-98188272D01*
X108130000Y-91498272D02*
X108130000Y-92888272D01*
X109750000Y-92888272D02*
X110670000Y-92888272D01*
X109750000Y-98188272D02*
X110670000Y-98188272D01*
X112290000Y-92888272D02*
X113210000Y-92888272D01*
X112290000Y-98188272D02*
X113210000Y-98188272D01*
X114830000Y-92888272D02*
X115750000Y-92888272D01*
X114830000Y-98188272D02*
X115750000Y-98188272D01*
X117370000Y-92888272D02*
X118290000Y-92888272D01*
X117370000Y-98188272D02*
X118290000Y-98188272D01*
X119910000Y-92888272D02*
X120830000Y-92888272D01*
X119910000Y-98188272D02*
X120830000Y-98188272D01*
X122450000Y-92888272D02*
X123370000Y-92888272D01*
X122450000Y-98188272D02*
X123370000Y-98188272D01*
X124990000Y-92888272D02*
X125910000Y-92888272D01*
X124990000Y-98188272D02*
X125910000Y-98188272D01*
X127530000Y-92888272D02*
X128450000Y-92888272D01*
X127530000Y-98188272D02*
X128450000Y-98188272D01*
X130070000Y-92888272D02*
X130990000Y-92888272D01*
X130070000Y-98188272D02*
X130990000Y-98188272D01*
X132610000Y-92888272D02*
X133530000Y-92888272D01*
X132610000Y-98188272D02*
X133530000Y-98188272D01*
X135150000Y-92888272D02*
X136070000Y-92888272D01*
X135150000Y-98188272D02*
X136070000Y-98188272D01*
X137690000Y-92888272D02*
X138610000Y-92888272D01*
X137690000Y-98188272D02*
X138610000Y-98188272D01*
X140230000Y-92888272D02*
X141150000Y-92888272D01*
X140230000Y-98188272D02*
X141150000Y-98188272D01*
X142770000Y-92888272D02*
X143690000Y-92888272D01*
X142770000Y-98188272D02*
X143690000Y-98188272D01*
X145310000Y-92888272D02*
X146230000Y-92888272D01*
X145310000Y-98188272D02*
X146230000Y-98188272D01*
X147850000Y-92888272D02*
X148420000Y-92888272D01*
X147850000Y-98188272D02*
X148420000Y-98188272D01*
X148420000Y-92888272D02*
X148420000Y-98188272D01*
D17*
%TO.C,G\u002A\u002A\u002A*%
G36*
X163998675Y-120618043D02*
G01*
X163998675Y-121072674D01*
X163544045Y-121072674D01*
X163089414Y-121072674D01*
X163089414Y-120618043D01*
X163089414Y-120163413D01*
X163544045Y-120163413D01*
X163998675Y-120163413D01*
X163998675Y-120618043D01*
G37*
G36*
X164301762Y-124861260D02*
G01*
X164301762Y-125012804D01*
X164150219Y-125012804D01*
X163998675Y-125012804D01*
X163998675Y-124861260D01*
X163998675Y-124709717D01*
X164150219Y-124709717D01*
X164301762Y-124709717D01*
X164301762Y-124861260D01*
G37*
G36*
X164604849Y-126376695D02*
G01*
X164604849Y-126528238D01*
X164453305Y-126528238D01*
X164301762Y-126528238D01*
X164301762Y-126376695D01*
X164301762Y-126225151D01*
X164453305Y-126225151D01*
X164604849Y-126225151D01*
X164604849Y-126376695D01*
G37*
G36*
X164907936Y-123345826D02*
G01*
X164907936Y-123497369D01*
X164756392Y-123497369D01*
X164604849Y-123497369D01*
X164604849Y-123345826D01*
X164604849Y-123194282D01*
X164756392Y-123194282D01*
X164907936Y-123194282D01*
X164907936Y-123345826D01*
G37*
G36*
X165211023Y-119708783D02*
G01*
X165211023Y-119860326D01*
X165059479Y-119860326D01*
X164907936Y-119860326D01*
X164907936Y-119708783D01*
X164907936Y-119557239D01*
X165059479Y-119557239D01*
X165211023Y-119557239D01*
X165211023Y-119708783D01*
G37*
G36*
X166120283Y-120618043D02*
G01*
X166120283Y-120769587D01*
X165968740Y-120769587D01*
X165817196Y-120769587D01*
X165817196Y-120618043D01*
X165817196Y-120466500D01*
X165968740Y-120466500D01*
X166120283Y-120466500D01*
X166120283Y-120618043D01*
G37*
G36*
X166726457Y-120314957D02*
G01*
X166726457Y-120466500D01*
X166574914Y-120466500D01*
X166423370Y-120466500D01*
X166423370Y-120314957D01*
X166423370Y-120163413D01*
X166574914Y-120163413D01*
X166726457Y-120163413D01*
X166726457Y-120314957D01*
G37*
G36*
X166726457Y-123648912D02*
G01*
X166726457Y-123800456D01*
X166574914Y-123800456D01*
X166423370Y-123800456D01*
X166423370Y-123648912D01*
X166423370Y-123497369D01*
X166574914Y-123497369D01*
X166726457Y-123497369D01*
X166726457Y-123648912D01*
G37*
G36*
X167938805Y-123951999D02*
G01*
X167938805Y-124103543D01*
X167787261Y-124103543D01*
X167635718Y-124103543D01*
X167635718Y-123951999D01*
X167635718Y-123800456D01*
X167787261Y-123800456D01*
X167938805Y-123800456D01*
X167938805Y-123951999D01*
G37*
G36*
X168848065Y-121527304D02*
G01*
X168848065Y-121678848D01*
X168696522Y-121678848D01*
X168544979Y-121678848D01*
X168544979Y-121527304D01*
X168544979Y-121375761D01*
X168696522Y-121375761D01*
X168848065Y-121375761D01*
X168848065Y-121527304D01*
G37*
G36*
X169151152Y-123648912D02*
G01*
X169151152Y-123800456D01*
X168999609Y-123800456D01*
X168848065Y-123800456D01*
X168848065Y-123648912D01*
X168848065Y-123497369D01*
X168999609Y-123497369D01*
X169151152Y-123497369D01*
X169151152Y-123648912D01*
G37*
G36*
X169454239Y-123345826D02*
G01*
X169454239Y-123497369D01*
X169302696Y-123497369D01*
X169151152Y-123497369D01*
X169151152Y-123345826D01*
X169151152Y-123194282D01*
X169302696Y-123194282D01*
X169454239Y-123194282D01*
X169454239Y-123345826D01*
G37*
G36*
X170666587Y-120618043D02*
G01*
X170666587Y-121072674D01*
X170211957Y-121072674D01*
X169757326Y-121072674D01*
X169757326Y-120618043D01*
X169757326Y-120163413D01*
X170211957Y-120163413D01*
X170666587Y-120163413D01*
X170666587Y-120618043D01*
G37*
G36*
X170666587Y-127285955D02*
G01*
X170666587Y-127740586D01*
X170211957Y-127740586D01*
X169757326Y-127740586D01*
X169757326Y-127285955D01*
X169757326Y-126831325D01*
X170211957Y-126831325D01*
X170666587Y-126831325D01*
X170666587Y-127285955D01*
G37*
G36*
X170363500Y-125618977D02*
G01*
X170363500Y-125922064D01*
X170211957Y-125922064D01*
X170060413Y-125922064D01*
X170060413Y-125618977D01*
X170060413Y-125315890D01*
X170211957Y-125315890D01*
X170363500Y-125315890D01*
X170363500Y-125618977D01*
G37*
G36*
X170969674Y-125770521D02*
G01*
X170969674Y-125922064D01*
X170818130Y-125922064D01*
X170666587Y-125922064D01*
X170666587Y-125770521D01*
X170666587Y-125618977D01*
X170818130Y-125618977D01*
X170969674Y-125618977D01*
X170969674Y-125770521D01*
G37*
G36*
X165817196Y-119708783D02*
G01*
X165817196Y-119860326D01*
X165968740Y-119860326D01*
X166120283Y-119860326D01*
X166120283Y-120011870D01*
X166120283Y-120163413D01*
X165817196Y-120163413D01*
X165514110Y-120163413D01*
X165514110Y-119860326D01*
X165514110Y-119557239D01*
X165665653Y-119557239D01*
X165817196Y-119557239D01*
X165817196Y-119708783D01*
G37*
G36*
X162937871Y-127740586D02*
G01*
X163089414Y-127740586D01*
X163089414Y-128043673D01*
X163089414Y-128346759D01*
X162937871Y-128346759D01*
X162786327Y-128346759D01*
X162786327Y-128043673D01*
X162786327Y-127740586D01*
X162937871Y-127740586D01*
G37*
G36*
X162786327Y-127589042D02*
G01*
X162786327Y-127740586D01*
X162634784Y-127740586D01*
X162483241Y-127740586D01*
X162483241Y-127589042D01*
X162483241Y-127437499D01*
X162634784Y-127437499D01*
X162786327Y-127437499D01*
X162786327Y-127589042D01*
G37*
G36*
X167029544Y-127589042D02*
G01*
X167029544Y-127740586D01*
X167181088Y-127740586D01*
X167332631Y-127740586D01*
X167332631Y-128043673D01*
X167332631Y-128346759D01*
X167181088Y-128346759D01*
X167029544Y-128346759D01*
X167029544Y-128195216D01*
X167029544Y-128043673D01*
X166878001Y-128043673D01*
X166726457Y-128043673D01*
X166726457Y-127740586D01*
X166726457Y-127437499D01*
X166878001Y-127437499D01*
X167029544Y-127437499D01*
X167029544Y-127589042D01*
G37*
G36*
X164604849Y-121678848D02*
G01*
X163544045Y-121678848D01*
X162483241Y-121678848D01*
X162483241Y-120618043D01*
X162483241Y-119860326D01*
X162786327Y-119860326D01*
X162786327Y-120618043D01*
X162786327Y-121375761D01*
X163544045Y-121375761D01*
X164301762Y-121375761D01*
X164301762Y-120618043D01*
X164301762Y-119860326D01*
X163544045Y-119860326D01*
X162786327Y-119860326D01*
X162483241Y-119860326D01*
X162483241Y-119557239D01*
X163544045Y-119557239D01*
X164604849Y-119557239D01*
X164604849Y-120618043D01*
X164604849Y-121678848D01*
G37*
G36*
X171272761Y-121678848D02*
G01*
X170211957Y-121678848D01*
X169151152Y-121678848D01*
X169151152Y-120618043D01*
X169151152Y-119860326D01*
X169454239Y-119860326D01*
X169454239Y-120618043D01*
X169454239Y-121375761D01*
X170211957Y-121375761D01*
X170969674Y-121375761D01*
X170969674Y-120618043D01*
X170969674Y-119860326D01*
X170211957Y-119860326D01*
X169454239Y-119860326D01*
X169151152Y-119860326D01*
X169151152Y-119557239D01*
X170211957Y-119557239D01*
X171272761Y-119557239D01*
X171272761Y-120618043D01*
X171272761Y-121678848D01*
G37*
G36*
X171272761Y-128346759D02*
G01*
X170211957Y-128346759D01*
X169151152Y-128346759D01*
X169151152Y-127285955D01*
X169151152Y-126528238D01*
X169454239Y-126528238D01*
X169454239Y-127285955D01*
X169454239Y-128043673D01*
X170211957Y-128043673D01*
X170969674Y-128043673D01*
X170969674Y-127285955D01*
X170969674Y-126528238D01*
X170211957Y-126528238D01*
X169454239Y-126528238D01*
X169151152Y-126528238D01*
X169151152Y-126225151D01*
X170211957Y-126225151D01*
X171272761Y-126225151D01*
X171272761Y-127285955D01*
X171272761Y-128346759D01*
G37*
G36*
X170363500Y-124558173D02*
G01*
X170363500Y-124709717D01*
X170515043Y-124709717D01*
X170666587Y-124709717D01*
X170666587Y-124558173D01*
X170666587Y-124406630D01*
X170969674Y-124406630D01*
X171272761Y-124406630D01*
X171272761Y-124558173D01*
X171272761Y-124709717D01*
X171121217Y-124709717D01*
X170969674Y-124709717D01*
X170969674Y-124861260D01*
X170969674Y-125012804D01*
X170818130Y-125012804D01*
X170666587Y-125012804D01*
X170666587Y-125164347D01*
X170666587Y-125315890D01*
X170515043Y-125315890D01*
X170363500Y-125315890D01*
X170363500Y-125164347D01*
X170363500Y-125012804D01*
X170211957Y-125012804D01*
X170060413Y-125012804D01*
X170060413Y-124709717D01*
X170060413Y-124406630D01*
X170211957Y-124406630D01*
X170363500Y-124406630D01*
X170363500Y-124558173D01*
G37*
G36*
X171121217Y-125012804D02*
G01*
X171272761Y-125012804D01*
X171272761Y-125164347D01*
X171272761Y-125315890D01*
X171121217Y-125315890D01*
X170969674Y-125315890D01*
X170969674Y-125164347D01*
X170969674Y-125012804D01*
X171121217Y-125012804D01*
G37*
G36*
X169757326Y-122285021D02*
G01*
X169757326Y-122588108D01*
X170060413Y-122588108D01*
X170363500Y-122588108D01*
X170363500Y-122436565D01*
X170363500Y-122285021D01*
X170211957Y-122285021D01*
X170060413Y-122285021D01*
X170060413Y-122133478D01*
X170060413Y-121981935D01*
X170515043Y-121981935D01*
X170969674Y-121981935D01*
X170969674Y-122436565D01*
X170969674Y-122891195D01*
X170666587Y-122891195D01*
X170363500Y-122891195D01*
X170363500Y-123042739D01*
X170363500Y-123194282D01*
X170211957Y-123194282D01*
X170060413Y-123194282D01*
X170060413Y-123042739D01*
X170060413Y-122891195D01*
X169908870Y-122891195D01*
X169757326Y-122891195D01*
X169757326Y-122739652D01*
X169757326Y-122588108D01*
X169605783Y-122588108D01*
X169454239Y-122588108D01*
X169454239Y-122436565D01*
X169454239Y-122285021D01*
X169302696Y-122285021D01*
X169151152Y-122285021D01*
X169151152Y-122133478D01*
X169151152Y-121981935D01*
X169454239Y-121981935D01*
X169757326Y-121981935D01*
X169757326Y-122285021D01*
G37*
G36*
X171121217Y-122891195D02*
G01*
X171272761Y-122891195D01*
X171272761Y-123042739D01*
X171272761Y-123194282D01*
X171121217Y-123194282D01*
X170969674Y-123194282D01*
X170969674Y-123042739D01*
X170969674Y-122891195D01*
X171121217Y-122891195D01*
G37*
G36*
X166120283Y-124709717D02*
G01*
X165968740Y-124709717D01*
X165817196Y-124709717D01*
X165817196Y-124861260D01*
X165817196Y-125012804D01*
X165362566Y-125012804D01*
X164907936Y-125012804D01*
X164907936Y-124861260D01*
X164907936Y-124709717D01*
X164756392Y-124709717D01*
X164604849Y-124709717D01*
X164604849Y-124406630D01*
X165211023Y-124406630D01*
X165211023Y-124558173D01*
X165211023Y-124709717D01*
X165362566Y-124709717D01*
X165514110Y-124709717D01*
X165514110Y-124558173D01*
X165514110Y-124406630D01*
X165362566Y-124406630D01*
X165211023Y-124406630D01*
X164604849Y-124406630D01*
X164604849Y-124103543D01*
X164756392Y-124103543D01*
X164907936Y-124103543D01*
X164907936Y-123951999D01*
X164907936Y-123800456D01*
X165059479Y-123800456D01*
X165211023Y-123800456D01*
X165211023Y-123345826D01*
X165211023Y-122891195D01*
X165362566Y-122891195D01*
X165514110Y-122891195D01*
X165514110Y-123194282D01*
X165514110Y-123497369D01*
X165665653Y-123497369D01*
X165817196Y-123497369D01*
X165817196Y-123345826D01*
X165817196Y-123194282D01*
X165968740Y-123194282D01*
X166120283Y-123194282D01*
X166120283Y-123345826D01*
X166120283Y-123497369D01*
X165968740Y-123497369D01*
X165817196Y-123497369D01*
X165817196Y-123800456D01*
X165817196Y-124103543D01*
X165665653Y-124103543D01*
X165514110Y-124103543D01*
X165514110Y-124255086D01*
X165514110Y-124406630D01*
X165817196Y-124406630D01*
X166120283Y-124406630D01*
X166120283Y-124103543D01*
X166120283Y-123800456D01*
X166271827Y-123800456D01*
X166423370Y-123800456D01*
X166423370Y-124103543D01*
X166423370Y-124406630D01*
X166574914Y-124406630D01*
X166726457Y-124406630D01*
X166726457Y-124255086D01*
X166726457Y-124103543D01*
X166878001Y-124103543D01*
X167029544Y-124103543D01*
X167029544Y-124255086D01*
X167029544Y-124406630D01*
X166878001Y-124406630D01*
X166726457Y-124406630D01*
X166726457Y-124558173D01*
X166726457Y-124709717D01*
X166574914Y-124709717D01*
X166423370Y-124709717D01*
X166423370Y-124558173D01*
X166423370Y-124406630D01*
X166271827Y-124406630D01*
X166120283Y-124406630D01*
X166120283Y-124558173D01*
X166120283Y-124709717D01*
G37*
G36*
X165817196Y-126225151D02*
G01*
X165665653Y-126225151D01*
X165514110Y-126225151D01*
X165514110Y-126376695D01*
X165514110Y-126528238D01*
X165362566Y-126528238D01*
X165211023Y-126528238D01*
X165211023Y-126831325D01*
X165211023Y-127134412D01*
X165362566Y-127134412D01*
X165514110Y-127134412D01*
X165514110Y-126831325D01*
X165514110Y-126528238D01*
X165665653Y-126528238D01*
X165817196Y-126528238D01*
X165817196Y-126679781D01*
X165817196Y-126831325D01*
X165968740Y-126831325D01*
X166120283Y-126831325D01*
X166120283Y-127285955D01*
X166120283Y-127437499D01*
X166120283Y-127740586D01*
X165968740Y-127740586D01*
X165817196Y-127740586D01*
X165817196Y-127892129D01*
X165817196Y-128043673D01*
X165665653Y-128043673D01*
X165514110Y-128043673D01*
X165514110Y-128195216D01*
X165514110Y-128346759D01*
X164756392Y-128346759D01*
X163998675Y-128346759D01*
X163998675Y-128195216D01*
X163998675Y-128043673D01*
X163847132Y-128043673D01*
X163695588Y-128043673D01*
X163695588Y-128195216D01*
X163695588Y-128346759D01*
X163544045Y-128346759D01*
X163392501Y-128346759D01*
X163392501Y-128043673D01*
X163392501Y-127740586D01*
X163695588Y-127740586D01*
X163998675Y-127740586D01*
X163998675Y-127892129D01*
X163998675Y-128043673D01*
X164150219Y-128043673D01*
X164301762Y-128043673D01*
X164301762Y-127892129D01*
X164301762Y-127740586D01*
X164453305Y-127740586D01*
X164604849Y-127740586D01*
X164604849Y-127892129D01*
X164604849Y-128043673D01*
X164756392Y-128043673D01*
X164907936Y-128043673D01*
X164907936Y-127740586D01*
X164907936Y-127437499D01*
X165059479Y-127437499D01*
X165211023Y-127437499D01*
X165211023Y-127589042D01*
X165211023Y-127740586D01*
X165514110Y-127740586D01*
X165817196Y-127740586D01*
X165817196Y-127589042D01*
X165817196Y-127437499D01*
X165514110Y-127437499D01*
X165211023Y-127437499D01*
X165211023Y-127285955D01*
X165211023Y-127134412D01*
X164604849Y-127134412D01*
X163998675Y-127134412D01*
X163998675Y-127285955D01*
X163998675Y-127437499D01*
X163847132Y-127437499D01*
X163695588Y-127437499D01*
X163695588Y-127285955D01*
X163695588Y-127134412D01*
X163544045Y-127134412D01*
X163392501Y-127134412D01*
X163392501Y-127285955D01*
X163392501Y-127437499D01*
X163089414Y-127437499D01*
X162786327Y-127437499D01*
X162786327Y-126831325D01*
X162786327Y-126225151D01*
X162634784Y-126225151D01*
X162483241Y-126225151D01*
X162483241Y-126073608D01*
X162483241Y-125922064D01*
X162634784Y-125922064D01*
X162786327Y-125922064D01*
X162786327Y-125770521D01*
X162786327Y-125618977D01*
X163089414Y-125618977D01*
X163089414Y-125922064D01*
X163089414Y-126225151D01*
X163240958Y-126225151D01*
X163392501Y-126225151D01*
X163392501Y-126376695D01*
X163392501Y-126528238D01*
X163240958Y-126528238D01*
X163089414Y-126528238D01*
X163089414Y-126679781D01*
X163089414Y-126831325D01*
X163392501Y-126831325D01*
X163695588Y-126831325D01*
X163695588Y-126528238D01*
X163695588Y-126376695D01*
X163998675Y-126376695D01*
X163998675Y-126831325D01*
X164453305Y-126831325D01*
X164907936Y-126831325D01*
X164907936Y-126376695D01*
X164907936Y-125922064D01*
X165211023Y-125922064D01*
X165211023Y-126073608D01*
X165211023Y-126225151D01*
X165362566Y-126225151D01*
X165514110Y-126225151D01*
X165514110Y-126073608D01*
X165514110Y-125922064D01*
X165362566Y-125922064D01*
X165211023Y-125922064D01*
X164907936Y-125922064D01*
X164453305Y-125922064D01*
X163998675Y-125922064D01*
X163998675Y-126225151D01*
X163998675Y-126376695D01*
X163695588Y-126376695D01*
X163695588Y-126225151D01*
X163544045Y-126225151D01*
X163392501Y-126225151D01*
X163392501Y-125922064D01*
X163392501Y-125618977D01*
X163240958Y-125618977D01*
X163089414Y-125618977D01*
X162786327Y-125618977D01*
X162634784Y-125618977D01*
X162483241Y-125618977D01*
X162483241Y-125467434D01*
X162483241Y-125315890D01*
X162786327Y-125315890D01*
X163089414Y-125315890D01*
X163089414Y-125012804D01*
X163089414Y-124709717D01*
X163240958Y-124709717D01*
X163392501Y-124709717D01*
X163392501Y-124861260D01*
X163392501Y-125012804D01*
X163544045Y-125012804D01*
X163695588Y-125012804D01*
X163695588Y-125315890D01*
X163695588Y-125618977D01*
X163847132Y-125618977D01*
X163998675Y-125618977D01*
X163998675Y-125467434D01*
X163998675Y-125315890D01*
X164150219Y-125315890D01*
X164301762Y-125315890D01*
X164301762Y-125164347D01*
X164301762Y-125012804D01*
X164453305Y-125012804D01*
X164604849Y-125012804D01*
X164604849Y-125164347D01*
X164604849Y-125315890D01*
X165665653Y-125315890D01*
X166726457Y-125315890D01*
X166726457Y-125164347D01*
X166726457Y-125012804D01*
X166878001Y-125012804D01*
X167029544Y-125012804D01*
X167029544Y-125315890D01*
X167029544Y-125618977D01*
X166878001Y-125618977D01*
X166726457Y-125618977D01*
X166726457Y-125770521D01*
X166726457Y-125922064D01*
X166878001Y-125922064D01*
X167029544Y-125922064D01*
X167029544Y-125770521D01*
X167029544Y-125618977D01*
X167181088Y-125618977D01*
X167332631Y-125618977D01*
X167332631Y-125770521D01*
X167332631Y-125922064D01*
X167635718Y-125922064D01*
X167938805Y-125922064D01*
X167938805Y-125770521D01*
X167938805Y-125618977D01*
X167787261Y-125618977D01*
X167635718Y-125618977D01*
X167635718Y-125467434D01*
X167635718Y-125315890D01*
X167484174Y-125315890D01*
X167332631Y-125315890D01*
X167332631Y-125164347D01*
X167332631Y-125012804D01*
X167181088Y-125012804D01*
X167029544Y-125012804D01*
X167029544Y-124861260D01*
X167029544Y-124709717D01*
X167332631Y-124709717D01*
X167635718Y-124709717D01*
X167635718Y-124558173D01*
X167635718Y-124406630D01*
X167787261Y-124406630D01*
X167938805Y-124406630D01*
X167938805Y-124255086D01*
X167938805Y-124103543D01*
X168090348Y-124103543D01*
X168241892Y-124103543D01*
X168241892Y-124255086D01*
X168241892Y-124406630D01*
X168393435Y-124406630D01*
X168544979Y-124406630D01*
X168544979Y-124861260D01*
X168544979Y-125315890D01*
X168393435Y-125315890D01*
X168241892Y-125315890D01*
X168241892Y-125012804D01*
X168241892Y-124709717D01*
X168090348Y-124709717D01*
X167938805Y-124709717D01*
X167938805Y-125012804D01*
X167938805Y-125315890D01*
X168090348Y-125315890D01*
X168241892Y-125315890D01*
X168241892Y-125618977D01*
X168241892Y-125922064D01*
X168393435Y-125922064D01*
X168544979Y-125922064D01*
X168544979Y-125770521D01*
X168544979Y-125618977D01*
X168696522Y-125618977D01*
X168848065Y-125618977D01*
X168848065Y-125467434D01*
X168848065Y-125315890D01*
X168999609Y-125315890D01*
X169151152Y-125315890D01*
X169151152Y-125467434D01*
X169151152Y-125618977D01*
X169302696Y-125618977D01*
X169454239Y-125618977D01*
X169454239Y-125467434D01*
X169454239Y-125315890D01*
X169302696Y-125315890D01*
X169151152Y-125315890D01*
X169151152Y-125164347D01*
X169151152Y-125012804D01*
X169302696Y-125012804D01*
X169454239Y-125012804D01*
X169454239Y-124861260D01*
X169454239Y-124709717D01*
X169302696Y-124709717D01*
X169151152Y-124709717D01*
X169151152Y-124558173D01*
X169151152Y-124406630D01*
X169302696Y-124406630D01*
X169454239Y-124406630D01*
X169454239Y-124255086D01*
X169454239Y-124103543D01*
X169302696Y-124103543D01*
X169151152Y-124103543D01*
X169151152Y-123951999D01*
X169151152Y-123800456D01*
X169302696Y-123800456D01*
X169454239Y-123800456D01*
X169454239Y-123648912D01*
X169454239Y-123497369D01*
X169605783Y-123497369D01*
X169757326Y-123497369D01*
X169757326Y-123345826D01*
X169757326Y-123194282D01*
X169908870Y-123194282D01*
X170060413Y-123194282D01*
X170060413Y-123497369D01*
X170060413Y-123800456D01*
X170363500Y-123800456D01*
X170666587Y-123800456D01*
X170666587Y-123497369D01*
X170666587Y-123194282D01*
X170818130Y-123194282D01*
X170969674Y-123194282D01*
X170969674Y-123345826D01*
X170969674Y-123497369D01*
X171121217Y-123497369D01*
X171272761Y-123497369D01*
X171272761Y-123800456D01*
X171272761Y-124103543D01*
X171121217Y-124103543D01*
X170969674Y-124103543D01*
X170969674Y-123951999D01*
X170969674Y-123800456D01*
X170818130Y-123800456D01*
X170666587Y-123800456D01*
X170666587Y-123951999D01*
X170666587Y-124103543D01*
X170363500Y-124103543D01*
X170060413Y-124103543D01*
X170060413Y-123951999D01*
X170060413Y-123800456D01*
X169908870Y-123800456D01*
X169757326Y-123800456D01*
X169757326Y-124709717D01*
X169757326Y-125618977D01*
X169605783Y-125618977D01*
X169454239Y-125618977D01*
X169454239Y-125770521D01*
X169454239Y-125922064D01*
X169151152Y-125922064D01*
X168848065Y-125922064D01*
X168848065Y-126073608D01*
X168848065Y-126225151D01*
X168393435Y-126225151D01*
X167938805Y-126225151D01*
X167938805Y-126376695D01*
X167938805Y-126528238D01*
X168393435Y-126528238D01*
X168848065Y-126528238D01*
X168848065Y-126679781D01*
X168848065Y-126831325D01*
X168696522Y-126831325D01*
X168544979Y-126831325D01*
X168544979Y-126982868D01*
X168544979Y-127134412D01*
X168696522Y-127134412D01*
X168848065Y-127134412D01*
X168848065Y-127589042D01*
X168848065Y-128043673D01*
X168696522Y-128043673D01*
X168544979Y-128043673D01*
X168544979Y-128195216D01*
X168544979Y-128346759D01*
X168393435Y-128346759D01*
X168241892Y-128346759D01*
X168241892Y-128195216D01*
X168241892Y-128043673D01*
X168090348Y-128043673D01*
X167938805Y-128043673D01*
X167938805Y-127437499D01*
X167938805Y-126831325D01*
X167635718Y-126831325D01*
X167332631Y-126831325D01*
X167332631Y-126982868D01*
X167332631Y-127134412D01*
X167484174Y-127134412D01*
X167635718Y-127134412D01*
X167635718Y-127285955D01*
X167635718Y-127437499D01*
X167332631Y-127437499D01*
X167029544Y-127437499D01*
X167029544Y-127285955D01*
X167029544Y-127134412D01*
X166878001Y-127134412D01*
X166726457Y-127134412D01*
X166726457Y-126982868D01*
X166726457Y-126831325D01*
X166574914Y-126831325D01*
X166423370Y-126831325D01*
X166423370Y-126679781D01*
X166423370Y-126528238D01*
X166574914Y-126528238D01*
X166726457Y-126528238D01*
X166726457Y-126225151D01*
X166726457Y-125922064D01*
X166574914Y-125922064D01*
X166423370Y-125922064D01*
X166423370Y-126073608D01*
X166423370Y-126225151D01*
X166271827Y-126225151D01*
X166120283Y-126225151D01*
X166120283Y-126073608D01*
X166120283Y-125922064D01*
X165968740Y-125922064D01*
X165817196Y-125922064D01*
X165817196Y-126073608D01*
X165817196Y-126225151D01*
G37*
G36*
X164150219Y-127437499D02*
G01*
X164301762Y-127437499D01*
X164301762Y-127589042D01*
X164301762Y-127740586D01*
X164150219Y-127740586D01*
X163998675Y-127740586D01*
X163998675Y-127589042D01*
X163998675Y-127437499D01*
X164150219Y-127437499D01*
G37*
G36*
X168241892Y-122588108D02*
G01*
X168090348Y-122588108D01*
X167938805Y-122588108D01*
X167938805Y-122739652D01*
X167938805Y-122891195D01*
X168090348Y-122891195D01*
X168241892Y-122891195D01*
X168241892Y-123042739D01*
X168241892Y-123194282D01*
X168393435Y-123194282D01*
X168544979Y-123194282D01*
X168544979Y-122891195D01*
X168544979Y-122588108D01*
X168999609Y-122588108D01*
X169454239Y-122588108D01*
X169454239Y-122739652D01*
X169454239Y-122891195D01*
X169151152Y-122891195D01*
X168848065Y-122891195D01*
X168848065Y-123194282D01*
X168848065Y-123497369D01*
X168696522Y-123497369D01*
X168544979Y-123497369D01*
X168544979Y-123800456D01*
X168544979Y-124103543D01*
X168393435Y-124103543D01*
X168241892Y-124103543D01*
X168241892Y-123648912D01*
X168241892Y-123194282D01*
X167938805Y-123194282D01*
X167635718Y-123194282D01*
X167635718Y-123497369D01*
X167635718Y-123800456D01*
X167332631Y-123800456D01*
X167029544Y-123800456D01*
X167029544Y-123497369D01*
X167029544Y-123194282D01*
X166574914Y-123194282D01*
X166120283Y-123194282D01*
X166120283Y-123042739D01*
X167332631Y-123042739D01*
X167332631Y-123194282D01*
X167484174Y-123194282D01*
X167635718Y-123194282D01*
X167635718Y-123042739D01*
X167635718Y-122891195D01*
X167484174Y-122891195D01*
X167332631Y-122891195D01*
X167332631Y-123042739D01*
X166120283Y-123042739D01*
X166120283Y-122891195D01*
X165968740Y-122891195D01*
X165817196Y-122891195D01*
X165817196Y-122739652D01*
X167029544Y-122739652D01*
X167029544Y-122891195D01*
X167181088Y-122891195D01*
X167332631Y-122891195D01*
X167332631Y-122739652D01*
X167332631Y-122588108D01*
X167181088Y-122588108D01*
X167029544Y-122588108D01*
X167029544Y-122739652D01*
X165817196Y-122739652D01*
X165817196Y-122588108D01*
X165514110Y-122588108D01*
X165211023Y-122588108D01*
X165211023Y-122739652D01*
X165211023Y-122891195D01*
X165059479Y-122891195D01*
X164907936Y-122891195D01*
X164907936Y-122739652D01*
X164907936Y-122588108D01*
X164756392Y-122588108D01*
X164604849Y-122588108D01*
X164604849Y-122739652D01*
X164604849Y-122891195D01*
X164453305Y-122891195D01*
X164301762Y-122891195D01*
X164301762Y-123194282D01*
X164301762Y-123497369D01*
X164453305Y-123497369D01*
X164604849Y-123497369D01*
X164604849Y-123648912D01*
X164604849Y-123800456D01*
X164453305Y-123800456D01*
X164301762Y-123800456D01*
X164301762Y-123951999D01*
X164301762Y-124103543D01*
X164150219Y-124103543D01*
X163998675Y-124103543D01*
X163998675Y-124406630D01*
X163998675Y-124709717D01*
X163695588Y-124709717D01*
X163392501Y-124709717D01*
X163392501Y-124255086D01*
X163392501Y-123800456D01*
X163240958Y-123800456D01*
X163089414Y-123800456D01*
X163089414Y-123951999D01*
X163089414Y-124103543D01*
X162937871Y-124103543D01*
X162786327Y-124103543D01*
X162786327Y-124255086D01*
X162786327Y-124406630D01*
X162937871Y-124406630D01*
X163089414Y-124406630D01*
X163089414Y-124558173D01*
X163089414Y-124709717D01*
X162786327Y-124709717D01*
X162483241Y-124709717D01*
X162483241Y-123800456D01*
X162483241Y-123648912D01*
X162786327Y-123648912D01*
X162786327Y-123800456D01*
X162937871Y-123800456D01*
X163089414Y-123800456D01*
X163089414Y-123648912D01*
X163089414Y-123497369D01*
X162937871Y-123497369D01*
X162786327Y-123497369D01*
X162786327Y-123648912D01*
X162483241Y-123648912D01*
X162483241Y-122891195D01*
X162634784Y-122891195D01*
X162786327Y-122891195D01*
X162786327Y-123042739D01*
X162786327Y-123194282D01*
X163089414Y-123194282D01*
X163392501Y-123194282D01*
X163392501Y-123345826D01*
X163392501Y-123497369D01*
X163544045Y-123497369D01*
X163695588Y-123497369D01*
X163695588Y-123648912D01*
X163695588Y-123800456D01*
X163847132Y-123800456D01*
X163998675Y-123800456D01*
X163998675Y-123194282D01*
X163998675Y-122588108D01*
X163847132Y-122588108D01*
X163695588Y-122588108D01*
X163695588Y-122891195D01*
X163695588Y-123194282D01*
X163544045Y-123194282D01*
X163392501Y-123194282D01*
X163392501Y-123042739D01*
X163392501Y-122891195D01*
X163089414Y-122891195D01*
X162786327Y-122891195D01*
X162786327Y-122739652D01*
X162786327Y-122588108D01*
X162634784Y-122588108D01*
X162483241Y-122588108D01*
X162483241Y-122436565D01*
X162483241Y-122285021D01*
X162634784Y-122285021D01*
X162786327Y-122285021D01*
X162786327Y-122436565D01*
X162786327Y-122588108D01*
X162937871Y-122588108D01*
X163089414Y-122588108D01*
X163089414Y-122436565D01*
X163089414Y-122285021D01*
X162937871Y-122285021D01*
X162786327Y-122285021D01*
X162786327Y-122133478D01*
X162786327Y-121981935D01*
X163089414Y-121981935D01*
X163392501Y-121981935D01*
X163392501Y-122133478D01*
X163392501Y-122285021D01*
X164150219Y-122285021D01*
X164907936Y-122285021D01*
X164907936Y-122436565D01*
X164907936Y-122588108D01*
X165059479Y-122588108D01*
X165211023Y-122588108D01*
X165211023Y-122436565D01*
X165211023Y-122285021D01*
X165362566Y-122285021D01*
X165514110Y-122285021D01*
X165514110Y-121830391D01*
X165514110Y-121375761D01*
X165362566Y-121375761D01*
X165211023Y-121375761D01*
X165211023Y-121678848D01*
X165211023Y-121981935D01*
X165059479Y-121981935D01*
X164907936Y-121981935D01*
X164907936Y-121527304D01*
X164907936Y-121072674D01*
X165059479Y-121072674D01*
X165211023Y-121072674D01*
X165211023Y-120921130D01*
X165211023Y-120769587D01*
X165059479Y-120769587D01*
X164907936Y-120769587D01*
X164907936Y-120466500D01*
X164907936Y-120163413D01*
X165059479Y-120163413D01*
X165211023Y-120163413D01*
X165211023Y-120314957D01*
X165211023Y-120466500D01*
X165362566Y-120466500D01*
X165514110Y-120466500D01*
X165514110Y-120769587D01*
X165514110Y-121072674D01*
X165665653Y-121072674D01*
X165817196Y-121072674D01*
X165817196Y-121375761D01*
X165817196Y-121678848D01*
X165968740Y-121678848D01*
X166120283Y-121678848D01*
X166120283Y-121375761D01*
X166120283Y-121072674D01*
X166423370Y-121072674D01*
X166726457Y-121072674D01*
X166726457Y-120921130D01*
X166726457Y-120769587D01*
X166878001Y-120769587D01*
X167029544Y-120769587D01*
X167029544Y-120921130D01*
X167029544Y-121072674D01*
X167181088Y-121072674D01*
X167332631Y-121072674D01*
X167332631Y-120921130D01*
X167332631Y-120769587D01*
X167181088Y-120769587D01*
X167029544Y-120769587D01*
X167029544Y-120314957D01*
X167029544Y-119860326D01*
X166726457Y-119860326D01*
X166423370Y-119860326D01*
X166423370Y-119708783D01*
X166423370Y-119557239D01*
X166726457Y-119557239D01*
X167029544Y-119557239D01*
X167029544Y-119708783D01*
X167029544Y-119860326D01*
X167181088Y-119860326D01*
X167332631Y-119860326D01*
X167332631Y-119708783D01*
X167332631Y-119557239D01*
X167484174Y-119557239D01*
X167635718Y-119557239D01*
X167635718Y-119708783D01*
X167635718Y-119860326D01*
X167484174Y-119860326D01*
X167332631Y-119860326D01*
X167332631Y-120314957D01*
X167332631Y-120769587D01*
X167635718Y-120769587D01*
X167938805Y-120769587D01*
X167938805Y-120618043D01*
X167938805Y-120466500D01*
X167787261Y-120466500D01*
X167635718Y-120466500D01*
X167635718Y-120163413D01*
X167635718Y-119860326D01*
X167938805Y-119860326D01*
X168241892Y-119860326D01*
X168241892Y-120011870D01*
X168241892Y-120163413D01*
X168393435Y-120163413D01*
X168544979Y-120163413D01*
X168544979Y-120011870D01*
X168544979Y-119860326D01*
X168696522Y-119860326D01*
X168848065Y-119860326D01*
X168848065Y-120163413D01*
X168848065Y-120466500D01*
X168696522Y-120466500D01*
X168544979Y-120466500D01*
X168544979Y-120618043D01*
X168544979Y-120769587D01*
X168393435Y-120769587D01*
X168241892Y-120769587D01*
X168241892Y-120921130D01*
X168241892Y-121072674D01*
X167787261Y-121072674D01*
X167332631Y-121072674D01*
X167332631Y-121224217D01*
X167332631Y-121375761D01*
X167181088Y-121375761D01*
X167029544Y-121375761D01*
X167029544Y-121527304D01*
X167029544Y-121678848D01*
X166878001Y-121678848D01*
X166726457Y-121678848D01*
X166726457Y-121527304D01*
X166726457Y-121375761D01*
X166574914Y-121375761D01*
X166423370Y-121375761D01*
X166423370Y-121678848D01*
X166423370Y-121981935D01*
X166120283Y-121981935D01*
X165817196Y-121981935D01*
X165817196Y-122133478D01*
X165817196Y-122285021D01*
X165968740Y-122285021D01*
X166120283Y-122285021D01*
X166120283Y-122436565D01*
X166120283Y-122588108D01*
X166271827Y-122588108D01*
X166423370Y-122588108D01*
X166423370Y-122436565D01*
X166726457Y-122436565D01*
X166726457Y-122588108D01*
X166878001Y-122588108D01*
X167029544Y-122588108D01*
X167029544Y-122436565D01*
X167029544Y-122285021D01*
X166878001Y-122285021D01*
X166726457Y-122285021D01*
X166726457Y-122436565D01*
X166423370Y-122436565D01*
X166423370Y-122285021D01*
X166423370Y-121981935D01*
X166726457Y-121981935D01*
X167029544Y-121981935D01*
X167029544Y-122133478D01*
X167029544Y-122285021D01*
X167181088Y-122285021D01*
X167332631Y-122285021D01*
X167635718Y-122285021D01*
X167635718Y-122436565D01*
X167635718Y-122588108D01*
X167787261Y-122588108D01*
X167938805Y-122588108D01*
X167938805Y-122436565D01*
X167938805Y-122285021D01*
X167787261Y-122285021D01*
X167635718Y-122285021D01*
X167332631Y-122285021D01*
X167332631Y-122133478D01*
X167332631Y-121981935D01*
X167484174Y-121981935D01*
X167635718Y-121981935D01*
X167635718Y-121830391D01*
X167635718Y-121678848D01*
X167787261Y-121678848D01*
X167938805Y-121678848D01*
X167938805Y-121527304D01*
X167938805Y-121375761D01*
X168090348Y-121375761D01*
X168241892Y-121375761D01*
X168241892Y-121527304D01*
X168241892Y-121678848D01*
X168090348Y-121678848D01*
X167938805Y-121678848D01*
X167938805Y-121981935D01*
X167938805Y-122285021D01*
X168090348Y-122285021D01*
X168241892Y-122285021D01*
X168241892Y-122133478D01*
X168241892Y-121981935D01*
X168393435Y-121981935D01*
X168544979Y-121981935D01*
X168544979Y-122133478D01*
X168544979Y-122285021D01*
X168393435Y-122285021D01*
X168241892Y-122285021D01*
X168241892Y-122436565D01*
X168241892Y-122588108D01*
G37*
G36*
X167484174Y-121375761D02*
G01*
X167635718Y-121375761D01*
X167635718Y-121527304D01*
X167635718Y-121678848D01*
X167484174Y-121678848D01*
X167332631Y-121678848D01*
X167332631Y-121527304D01*
X167332631Y-121375761D01*
X167484174Y-121375761D01*
G37*
%TD*%
%LPC*%
D18*
%TO.C,H1*%
X82000000Y-92000000D03*
%TD*%
D19*
%TO.C,J4*%
X100400000Y-131600000D03*
X86900000Y-131600000D03*
D20*
X97250000Y-125600000D03*
D21*
X90050000Y-125600000D03*
%TD*%
D22*
%TO.C,J10*%
X123738000Y-132405000D03*
D23*
X126238000Y-132405000D03*
X128738000Y-132405000D03*
%TD*%
D19*
%TO.C,J5*%
X117000000Y-132600000D03*
X103500000Y-132600000D03*
D20*
X106650000Y-126600000D03*
D21*
X113850000Y-126600000D03*
%TD*%
D22*
%TO.C,J7*%
X162950000Y-132405000D03*
D23*
X165450000Y-132405000D03*
X167950000Y-132405000D03*
%TD*%
D24*
%TO.C,H6*%
X153000000Y-94000000D03*
%TD*%
%TO.C,H5*%
X103016621Y-94004594D03*
%TD*%
D22*
%TO.C,J9*%
X136808667Y-132405000D03*
D23*
X139308667Y-132405000D03*
X141808667Y-132405000D03*
%TD*%
D24*
%TO.C,H2*%
X174000000Y-134000000D03*
%TD*%
%TO.C,H4*%
X174000000Y-92000000D03*
%TD*%
D25*
%TO.C,J3*%
X176100000Y-108800000D03*
D26*
X176100000Y-106260000D03*
X176100000Y-103720000D03*
X176100000Y-101180000D03*
%TD*%
D24*
%TO.C,H3*%
X82000000Y-134000000D03*
%TD*%
D22*
%TO.C,J8*%
X149879333Y-132405000D03*
D23*
X152379333Y-132405000D03*
X154879333Y-132405000D03*
%TD*%
D27*
%TO.C,J1*%
X108940000Y-93013272D03*
X108940000Y-98063272D03*
X111480000Y-93013272D03*
X111480000Y-98063272D03*
X114020000Y-93013272D03*
X114020000Y-98063272D03*
X116560000Y-93013272D03*
X116560000Y-98063272D03*
X119100000Y-93013272D03*
X119100000Y-98063272D03*
X121640000Y-93013272D03*
X121640000Y-98063272D03*
X124180000Y-93013272D03*
X124180000Y-98063272D03*
X126720000Y-93013272D03*
X126720000Y-98063272D03*
X129260000Y-93013272D03*
X129260000Y-98063272D03*
X131800000Y-93013272D03*
X131800000Y-98063272D03*
X134340000Y-93013272D03*
X134340000Y-98063272D03*
X136880000Y-93013272D03*
X136880000Y-98063272D03*
X139420000Y-93013272D03*
X139420000Y-98063272D03*
X141960000Y-93013272D03*
X141960000Y-98063272D03*
X144500000Y-93013272D03*
X144500000Y-98063272D03*
X147040000Y-93013272D03*
X147040000Y-98063272D03*
%TD*%
%LPD*%
M02*
