M48
; DRILL file KiCad 10.0.1 date 2026-05-05T20:54:15
; FORMAT={-:-/ absolute / inch / decimal}
; #@! TF.CreationDate,2026-05-05T20:54:15+02:00
; #@! TF.GenerationSoftware,Kicad,Pcbnew,10.0.1
; #@! TF.FileFunction,Plated,1,2,PTH
FMAT,2
INCH
; #@! TA.AperFunction,Plated,PTH,ViaDrill
T1C0.0118
; #@! TA.AperFunction,Plated,PTH,ComponentDrill
T2C0.0118
; #@! TA.AperFunction,Plated,PTH,ComponentDrill
T3C0.0236
; #@! TA.AperFunction,Plated,PTH,ComponentDrill
T4C0.0374
; #@! TA.AperFunction,Plated,PTH,ComponentDrill
T5C0.0394
; #@! TA.AperFunction,Plated,PTH,ComponentDrill
T6C0.1063
%
G90
G05
T1
X4.3307Y-3.622
X4.3307Y-3.6614
X4.3307Y-3.7028
X4.3366Y-3.8602
X4.3504Y-4.2421
X4.3504Y-4.2717
X4.3799Y-4.2421
X4.3799Y-4.2717
X4.4094Y-4.2421
X4.4094Y-4.2717
X4.435Y-3.6673
X4.435Y-3.8602
X4.4354Y-3.7081
X4.4385Y-3.6213
X4.5335Y-3.8602
X4.5492Y-3.6142
X4.5492Y-3.6535
X4.5492Y-3.6949
X4.5866Y-4.124
X4.6319Y-3.8602
X4.6457Y-4.311
X4.6654Y-4.5079
X4.6949Y-4.252
X4.7303Y-3.8602
X4.7343Y-4.0551
X4.7343Y-4.1043
X4.7394Y-3.6598
X4.7395Y-3.6202
X4.7399Y-3.6968
X4.7835Y-4.7343
X4.8346Y-3.6614
X4.8346Y-3.7008
X4.8411Y-3.8627
X4.8425Y-3.622
X4.8524Y-4.1437
X4.8524Y-4.1929
X4.8622Y-4.3406
X4.935Y-3.622
X4.935Y-3.6614
X4.9393Y-3.6964
X4.9395Y-3.8627
X4.9508Y-4.3504
X4.9606Y-4.5472
X5.0098Y-4.0563
X5.0197Y-4.3602
X5.126Y-3.8642
X5.128Y-4.5079
X5.1339Y-3.622
X5.1339Y-3.6614
X5.1339Y-3.7028
X5.1476Y-4.3209
X5.1476Y-4.5472
X5.1673Y-4.8917
X5.1772Y-4.1437
X5.187Y-4.4587
X5.187Y-4.5079
X5.2067Y-4.0846
X5.2264Y-3.8622
X5.232Y-4.3197
X5.2323Y-4.4587
X5.2343Y-3.626
X5.2343Y-3.6831
X5.2343Y-3.7067
X5.2559Y-4.6063
X5.2657Y-4.5571
X5.3051Y-4.5374
X5.315Y-4.2224
X5.3268Y-3.8622
X5.3346Y-3.624
X5.3346Y-3.6634
X5.3346Y-3.7047
X5.3543Y-4.6063
X5.3839Y-4.5374
X5.4035Y-4.685
X5.4134Y-4.4685
X5.4232Y-3.8622
X5.4331Y-4.7736
X5.4368Y-4.32
X5.4408Y-4.8929
X5.5Y-4.47
X5.5256Y-3.8602
X5.58Y-4.31
X5.5906Y-4.7835
X5.6Y-4.25
X5.6201Y-4.9803
X5.626Y-3.8602
X5.63Y-4.12
X5.6417Y-3.6654
X5.6791Y-4.3898
X5.7183Y-4.5103
X5.7208Y-4.8919
X5.7303Y-3.8583
X5.75Y-4.25
X5.7972Y-4.439
X5.8169Y-4.5866
X5.8287Y-3.622
X5.8287Y-3.6614
X5.8287Y-3.7028
X5.8307Y-3.8622
X5.87Y-4.98
X5.9138Y-4.4291
X5.935Y-4.2421
X5.9646Y-4.065
X5.9744Y-4.5079
X5.98Y-4.98
X6.0138Y-4.252
X6.0138Y-4.5079
X6.06Y-4.98
X6.063Y-4.3209
X6.0827Y-4.1437
X6.1312Y-3.9053
X6.14Y-4.98
X6.1999Y-4.9821
X6.2205Y-4.0157
X6.2205Y-4.2421
X6.2303Y-4.3209
X6.25Y-4.6752
X6.9291Y-4.6654
X6.939Y-4.5571
T2
X4.2524Y-4.126
X4.2524Y-4.1654
X4.2524Y-4.2047
T4
X4.8716Y-5.2128
X4.97Y-5.2128
X5.0684Y-5.2128
X5.3862Y-5.2128
X5.4846Y-5.2128
X5.583Y-5.2128
X5.9008Y-5.2128
X5.9992Y-5.2128
X6.0976Y-5.2128
X6.4154Y-5.2128
X6.5138Y-5.2128
X6.6122Y-5.2128
T5
X6.9331Y-3.9835
X6.9331Y-4.0835
X6.9331Y-4.1835
X6.9331Y-4.2835
T6
X3.2283Y-3.622
X3.5453Y-4.9449
X3.8287Y-4.9449
X4.1988Y-4.9843
X4.4823Y-4.9843
T3
G00X3.4213Y-5.2028
M15
G01X3.4213Y-5.1594
M16
G05
G00X3.9528Y-5.2028
M15
G01X3.9528Y-5.1594
M16
G05
G00X4.0748Y-5.2421
M15
G01X4.0748Y-5.1988
M16
G05
G00X4.6063Y-5.2421
M15
G01X4.6063Y-5.1988
M16
G05
M30
