%TF.GenerationSoftware,KiCad,Pcbnew,10.0.1*%
%TF.CreationDate,2026-06-25T11:38:18+02:00*%
%TF.ProjectId,MMS3_hat_servo,4d4d5333-5f68-4617-945f-736572766f2e,V1.0*%
%TF.SameCoordinates,Original*%
%TF.FileFunction,Soldermask,Top*%
%TF.FilePolarity,Negative*%
%FSLAX46Y46*%
G04 Gerber Fmt 4.6, Leading zero omitted, Abs format (unit mm)*
G04 Created by KiCad (PCBNEW 10.0.1) date 2026-06-25 11:38:18*
%MOMM*%
%LPD*%
G01*
G04 APERTURE LIST*
G04 Aperture macros list*
%AMRoundRect*
0 Rectangle with rounded corners*
0 $1 Rounding radius*
0 $2 $3 $4 $5 $6 $7 $8 $9 X,Y pos of 4 corners*
0 Add a 4 corners polygon primitive as box body*
4,1,4,$2,$3,$4,$5,$6,$7,$8,$9,$2,$3,0*
0 Add four circle primitives for the rounded corners*
1,1,$1+$1,$2,$3*
1,1,$1+$1,$4,$5*
1,1,$1+$1,$6,$7*
1,1,$1+$1,$8,$9*
0 Add four rect primitives between the rounded corners*
20,1,$1+$1,$2,$3,$4,$5,0*
20,1,$1+$1,$4,$5,$6,$7,0*
20,1,$1+$1,$6,$7,$8,$9,0*
20,1,$1+$1,$8,$9,$2,$3,0*%
G04 Aperture macros list end*
%ADD10RoundRect,0.159000X0.189000X-0.159000X0.189000X0.159000X-0.189000X0.159000X-0.189000X-0.159000X0*%
%ADD11RoundRect,0.239000X-0.239000X-0.274000X0.239000X-0.274000X0.239000X0.274000X-0.239000X0.274000X0*%
%ADD12C,3.100000*%
%ADD13C,4.700000*%
%ADD14R,0.900000X2.000000*%
%ADD15RoundRect,1.025000X1.025000X1.025000X-1.025000X1.025000X-1.025000X-1.025000X1.025000X-1.025000X0*%
%ADD16C,4.100000*%
%ADD17RoundRect,0.159000X0.159000X0.189000X-0.159000X0.189000X-0.159000X-0.189000X0.159000X-0.189000X0*%
%ADD18RoundRect,0.250000X-0.600000X-0.725000X0.600000X-0.725000X0.600000X0.725000X-0.600000X0.725000X0*%
%ADD19O,1.700000X1.950000*%
%ADD20RoundRect,0.159000X-0.189000X0.159000X-0.189000X-0.159000X0.189000X-0.159000X0.189000X0.159000X0*%
%ADD21RoundRect,0.150000X-0.150000X0.590000X-0.150000X-0.590000X0.150000X-0.590000X0.150000X0.590000X0*%
%ADD22RoundRect,0.244000X-0.269000X0.244000X-0.269000X-0.244000X0.269000X-0.244000X0.269000X0.244000X0*%
%ADD23RoundRect,0.159000X-0.159000X-0.189000X0.159000X-0.189000X0.159000X0.189000X-0.159000X0.189000X0*%
%ADD24RoundRect,0.260556X-0.677444X1.027444X-0.677444X-1.027444X0.677444X-1.027444X0.677444X1.027444X0*%
%ADD25RoundRect,0.239000X0.239000X0.274000X-0.239000X0.274000X-0.239000X-0.274000X0.239000X-0.274000X0*%
%ADD26R,1.000000X3.000000*%
%ADD27O,0.406000X1.803000*%
%ADD28RoundRect,0.244000X-0.244000X-0.269000X0.244000X-0.269000X0.244000X0.269000X-0.244000X0.269000X0*%
%ADD29RoundRect,0.250000X-1.000000X-0.300000X1.000000X-0.300000X1.000000X0.300000X-1.000000X0.300000X0*%
%ADD30C,0.500000*%
%ADD31RoundRect,0.250000X-0.920000X-1.550000X0.920000X-1.550000X0.920000X1.550000X-0.920000X1.550000X0*%
%ADD32RoundRect,0.244000X0.269000X-0.244000X0.269000X0.244000X-0.269000X0.244000X-0.269000X-0.244000X0*%
%ADD33O,0.364000X1.742000*%
%ADD34R,1.700000X1.700000*%
%ADD35C,1.700000*%
%ADD36O,1.950000X0.570000*%
G04 APERTURE END LIST*
D10*
%TO.C,R29*%
X159000000Y-125500000D03*
X159000000Y-124500000D03*
%TD*%
%TO.C,R2*%
X135750000Y-115750000D03*
X135750000Y-114750000D03*
%TD*%
D11*
%TO.C,D5*%
X175300000Y-97900000D03*
X176880000Y-97900000D03*
%TD*%
D12*
%TO.C,H1*%
X82000000Y-92000000D03*
D13*
X82000000Y-92000000D03*
%TD*%
D10*
%TO.C,R5*%
X139825000Y-115700000D03*
X139825000Y-114700000D03*
%TD*%
D14*
%TO.C,J4*%
X100400000Y-131600000D03*
X86900000Y-131600000D03*
D15*
X97250000Y-125600000D03*
D16*
X90050000Y-125600000D03*
%TD*%
D17*
%TO.C,R8*%
X142000000Y-112500000D03*
X141000000Y-112500000D03*
%TD*%
D18*
%TO.C,J10*%
X123738000Y-132405000D03*
D19*
X126238000Y-132405000D03*
X128738000Y-132405000D03*
%TD*%
D20*
%TO.C,R34*%
X150709092Y-124500000D03*
X150709092Y-125500000D03*
%TD*%
D14*
%TO.C,J5*%
X117000000Y-132600000D03*
X103500000Y-132600000D03*
D15*
X106650000Y-126600000D03*
D16*
X113850000Y-126600000D03*
%TD*%
D21*
%TO.C,Q5*%
X129450000Y-118120000D03*
X127550000Y-118120000D03*
X128500000Y-120000000D03*
%TD*%
D22*
%TO.C,C16*%
X117450000Y-103540000D03*
X117450000Y-105100000D03*
%TD*%
D20*
%TO.C,R26*%
X153818183Y-124500000D03*
X153818183Y-125500000D03*
%TD*%
D23*
%TO.C,R19*%
X131900000Y-111500000D03*
X132900000Y-111500000D03*
%TD*%
D24*
%TO.C,D1*%
X96500000Y-97500000D03*
X96500000Y-101500000D03*
%TD*%
D18*
%TO.C,J7*%
X162950000Y-132405000D03*
D19*
X165450000Y-132405000D03*
X167950000Y-132405000D03*
%TD*%
D23*
%TO.C,R20*%
X135800000Y-112500000D03*
X136800000Y-112500000D03*
%TD*%
D10*
%TO.C,R31*%
X154854546Y-125500000D03*
X154854546Y-124500000D03*
%TD*%
%TO.C,R7*%
X141862500Y-115650000D03*
X141862500Y-114650000D03*
%TD*%
D23*
%TO.C,R9*%
X138500000Y-112500000D03*
X139500000Y-112500000D03*
%TD*%
D20*
%TO.C,R23*%
X155890910Y-124500000D03*
X155890910Y-125500000D03*
%TD*%
%TO.C,R21*%
X145750000Y-105750000D03*
X145750000Y-106750000D03*
%TD*%
D22*
%TO.C,C18*%
X117450000Y-106600000D03*
X117450000Y-108160000D03*
%TD*%
D25*
%TO.C,D6*%
X176430000Y-117000000D03*
X174850000Y-117000000D03*
%TD*%
D23*
%TO.C,R1*%
X172750000Y-97900000D03*
X173750000Y-97900000D03*
%TD*%
D10*
%TO.C,R3*%
X137787500Y-115700000D03*
X137787500Y-114700000D03*
%TD*%
D26*
%TO.C,J2*%
X108950000Y-93038272D03*
X108950000Y-98078272D03*
X111490000Y-93038272D03*
X111490000Y-98078272D03*
X114030000Y-93038272D03*
X114030000Y-98078272D03*
X116570000Y-93038272D03*
X116570000Y-98078272D03*
X119110000Y-93038272D03*
X119110000Y-98078272D03*
X121650000Y-93038272D03*
X121650000Y-98078272D03*
X124190000Y-93038272D03*
X124190000Y-98078272D03*
X126730000Y-93038272D03*
X126730000Y-98078272D03*
X129270000Y-93038272D03*
X129270000Y-98078272D03*
X131810000Y-93038272D03*
X131810000Y-98078272D03*
X134350000Y-93038272D03*
X134350000Y-98078272D03*
X136890000Y-93038272D03*
X136890000Y-98078272D03*
X139430000Y-93038272D03*
X139430000Y-98078272D03*
X141970000Y-93038272D03*
X141970000Y-98078272D03*
X144510000Y-93038272D03*
X144510000Y-98078272D03*
X147050000Y-93038272D03*
X147050000Y-98078272D03*
%TD*%
D20*
%TO.C,R27*%
X151745456Y-124500000D03*
X151745456Y-125500000D03*
%TD*%
D10*
%TO.C,R32*%
X152781819Y-125500000D03*
X152781819Y-124500000D03*
%TD*%
D18*
%TO.C,J9*%
X136808667Y-132405000D03*
D19*
X139308667Y-132405000D03*
X141808667Y-132405000D03*
%TD*%
D20*
%TO.C,R24*%
X157963637Y-124500000D03*
X157963637Y-125500000D03*
%TD*%
D10*
%TO.C,R28*%
X156927273Y-125500000D03*
X156927273Y-124500000D03*
%TD*%
D27*
%TO.C,U1*%
X149550000Y-118900000D03*
X150200000Y-118900000D03*
X150860000Y-118900000D03*
X151510000Y-118900000D03*
X152160000Y-118900000D03*
X152810000Y-118900000D03*
X153460000Y-118900000D03*
X154100000Y-118900000D03*
X154750000Y-118900000D03*
X155400000Y-118900000D03*
X156050000Y-118900000D03*
X156700000Y-118900000D03*
X157350000Y-118900000D03*
X158010000Y-118900000D03*
X158010000Y-112500000D03*
X157350000Y-112500000D03*
X156700000Y-112500000D03*
X156050000Y-112500000D03*
X155400000Y-112500000D03*
X154750000Y-112500000D03*
X154100000Y-112500000D03*
X153460000Y-112500000D03*
X152810000Y-112500000D03*
X152160000Y-112500000D03*
X151510000Y-112500000D03*
X150860000Y-112500000D03*
X150210000Y-112500000D03*
X149560000Y-112500000D03*
%TD*%
D28*
%TO.C,C2*%
X129014000Y-104648000D03*
X130574000Y-104648000D03*
%TD*%
D29*
%TO.C,U4*%
X113980000Y-108100000D03*
X113980000Y-105800000D03*
X113980000Y-103500000D03*
D30*
X108010000Y-104800000D03*
X108010000Y-105800000D03*
D31*
X108010000Y-105800000D03*
D30*
X108010000Y-106800000D03*
%TD*%
D20*
%TO.C,R30*%
X151466667Y-109000000D03*
X151466667Y-110000000D03*
%TD*%
D25*
%TO.C,D7*%
X176600000Y-114250000D03*
X175020000Y-114250000D03*
%TD*%
D23*
%TO.C,R11*%
X172230000Y-117100000D03*
X173230000Y-117100000D03*
%TD*%
D32*
%TO.C,C30*%
X149500000Y-109280000D03*
X149500000Y-107720000D03*
%TD*%
%TO.C,C29*%
X120250000Y-128280000D03*
X120250000Y-126720000D03*
%TD*%
D10*
%TO.C,R25*%
X152750000Y-110000000D03*
X152750000Y-109000000D03*
%TD*%
D21*
%TO.C,Q4*%
X129450000Y-112250000D03*
X127550000Y-112250000D03*
X128500000Y-114130000D03*
%TD*%
D10*
%TO.C,R33*%
X149700000Y-125500000D03*
X149700000Y-124500000D03*
%TD*%
%TO.C,R6*%
X133712500Y-115750000D03*
X133712500Y-114750000D03*
%TD*%
D32*
%TO.C,C1*%
X140500000Y-109560000D03*
X140500000Y-108000000D03*
%TD*%
D33*
%TO.C,U3*%
X138752500Y-103980000D03*
X138102500Y-103980000D03*
X137452500Y-103980000D03*
X136802500Y-103980000D03*
X136142500Y-103980000D03*
X135492500Y-103980000D03*
X134842500Y-103980000D03*
X134192500Y-103980000D03*
X133542500Y-103980000D03*
X132892500Y-103980000D03*
X132892500Y-109720000D03*
X133542500Y-109720000D03*
X134192500Y-109720000D03*
X134842500Y-109720000D03*
X135492500Y-109720000D03*
X136142500Y-109720000D03*
X136802500Y-109720000D03*
X137452500Y-109720000D03*
X138102500Y-109720000D03*
X138752500Y-109720000D03*
%TD*%
D23*
%TO.C,R10*%
X172400000Y-114200000D03*
X173400000Y-114200000D03*
%TD*%
D34*
%TO.C,J3*%
X176100000Y-108800000D03*
D35*
X176100000Y-106260000D03*
X176100000Y-103720000D03*
X176100000Y-101180000D03*
%TD*%
D10*
%TO.C,R22*%
X147750000Y-109000000D03*
X147750000Y-108000000D03*
%TD*%
D36*
%TO.C,U2*%
X121830000Y-103030000D03*
X121830000Y-104300000D03*
X121830000Y-105580000D03*
X121830000Y-106850000D03*
X127250000Y-106850000D03*
X127250000Y-105580000D03*
X127250000Y-104300000D03*
X127250000Y-103030000D03*
%TD*%
D18*
%TO.C,J8*%
X149879333Y-132405000D03*
D19*
X152379333Y-132405000D03*
X154879333Y-132405000D03*
%TD*%
D20*
%TO.C,R12*%
X147750000Y-115500000D03*
X147750000Y-116500000D03*
%TD*%
M02*
