%TF.GenerationSoftware,KiCad,Pcbnew,10.0.1*%
%TF.CreationDate,2026-05-05T20:54:15+02:00*%
%TF.ProjectId,MMS3_hat_servo,4d4d5333-5f68-4617-945f-736572766f2e,R0*%
%TF.SameCoordinates,Original*%
%TF.FileFunction,Legend,Top*%
%TF.FilePolarity,Positive*%
%FSLAX46Y46*%
G04 Gerber Fmt 4.6, Leading zero omitted, Abs format (unit mm)*
G04 Created by KiCad (PCBNEW 10.0.1) date 2026-05-05 20:54:15*
%MOMM*%
%LPD*%
G01*
G04 APERTURE LIST*
G04 Aperture macros list*
%AMRoundRect*
0 Rectangle with rounded corners*
0 $1 Rounding radius*
0 $2 $3 $4 $5 $6 $7 $8 $9 X,Y pos of 4 corners*
0 Add a 4 corners polygon primitive as box body*
4,1,4,$2,$3,$4,$5,$6,$7,$8,$9,$2,$3,0*
0 Add four circle primitives for the rounded corners*
1,1,$1+$1,$2,$3*
1,1,$1+$1,$4,$5*
1,1,$1+$1,$6,$7*
1,1,$1+$1,$8,$9*
0 Add four rect primitives between the rounded corners*
20,1,$1+$1,$2,$3,$4,$5,0*
20,1,$1+$1,$4,$5,$6,$7,0*
20,1,$1+$1,$6,$7,$8,$9,0*
20,1,$1+$1,$8,$9,$2,$3,0*%
G04 Aperture macros list end*
%ADD10C,0.100000*%
%ADD11C,0.150000*%
%ADD12C,0.120000*%
%ADD13C,0.250000*%
%ADD14C,0.060000*%
%ADD15C,0.300000*%
%ADD16RoundRect,0.150000X-0.150000X0.590000X-0.150000X-0.590000X0.150000X-0.590000X0.150000X0.590000X0*%
%ADD17RoundRect,0.159000X0.189000X-0.159000X0.189000X0.159000X-0.189000X0.159000X-0.189000X-0.159000X0*%
%ADD18RoundRect,0.239000X-0.239000X-0.274000X0.239000X-0.274000X0.239000X0.274000X-0.239000X0.274000X0*%
%ADD19C,3.100000*%
%ADD20C,4.700000*%
%ADD21R,0.900000X2.000000*%
%ADD22RoundRect,1.025000X1.025000X1.025000X-1.025000X1.025000X-1.025000X-1.025000X1.025000X-1.025000X0*%
%ADD23C,4.100000*%
%ADD24RoundRect,0.159000X0.159000X0.189000X-0.159000X0.189000X-0.159000X-0.189000X0.159000X-0.189000X0*%
%ADD25RoundRect,0.250000X-0.600000X-0.725000X0.600000X-0.725000X0.600000X0.725000X-0.600000X0.725000X0*%
%ADD26O,1.700000X1.950000*%
%ADD27RoundRect,0.159000X-0.189000X0.159000X-0.189000X-0.159000X0.189000X-0.159000X0.189000X0.159000X0*%
%ADD28RoundRect,0.244000X-0.269000X0.244000X-0.269000X-0.244000X0.269000X-0.244000X0.269000X0.244000X0*%
%ADD29RoundRect,0.159000X-0.159000X-0.189000X0.159000X-0.189000X0.159000X0.189000X-0.159000X0.189000X0*%
%ADD30RoundRect,0.260556X-0.677444X1.027444X-0.677444X-1.027444X0.677444X-1.027444X0.677444X1.027444X0*%
%ADD31C,2.700000*%
%ADD32RoundRect,0.239000X0.239000X0.274000X-0.239000X0.274000X-0.239000X-0.274000X0.239000X-0.274000X0*%
%ADD33R,1.000000X3.000000*%
%ADD34O,0.406000X1.803000*%
%ADD35RoundRect,0.244000X-0.244000X-0.269000X0.244000X-0.269000X0.244000X0.269000X-0.244000X0.269000X0*%
%ADD36RoundRect,0.250000X-1.000000X-0.300000X1.000000X-0.300000X1.000000X0.300000X-1.000000X0.300000X0*%
%ADD37C,0.500000*%
%ADD38RoundRect,0.250000X-0.920000X-1.550000X0.920000X-1.550000X0.920000X1.550000X-0.920000X1.550000X0*%
%ADD39RoundRect,0.244000X0.269000X-0.244000X0.269000X0.244000X-0.269000X0.244000X-0.269000X-0.244000X0*%
%ADD40O,0.364000X1.742000*%
%ADD41R,1.700000X1.700000*%
%ADD42C,1.700000*%
%ADD43O,1.950000X0.570000*%
G04 APERTURE END LIST*
D10*
X171288000Y-113900000D02*
X169488000Y-113900000D01*
X171288000Y-113900000D02*
X170688000Y-113500000D01*
X171288000Y-113900000D02*
X170688000Y-114300000D01*
X171475000Y-97800000D02*
X169675000Y-97800000D01*
X171475000Y-97800000D02*
X170875000Y-97400000D01*
X171475000Y-97800000D02*
X170875000Y-98200000D01*
X171542000Y-116948000D02*
X169742000Y-116948000D01*
X171542000Y-116948000D02*
X170942000Y-116548000D01*
X171542000Y-116948000D02*
X170942000Y-117348000D01*
D11*
X120218200Y-136870839D02*
X120265819Y-136727982D01*
X120265819Y-136727982D02*
X120265819Y-136489887D01*
X120265819Y-136489887D02*
X120218200Y-136394649D01*
X120218200Y-136394649D02*
X120170580Y-136347030D01*
X120170580Y-136347030D02*
X120075342Y-136299411D01*
X120075342Y-136299411D02*
X119980104Y-136299411D01*
X119980104Y-136299411D02*
X119884866Y-136347030D01*
X119884866Y-136347030D02*
X119837247Y-136394649D01*
X119837247Y-136394649D02*
X119789628Y-136489887D01*
X119789628Y-136489887D02*
X119742009Y-136680363D01*
X119742009Y-136680363D02*
X119694390Y-136775601D01*
X119694390Y-136775601D02*
X119646771Y-136823220D01*
X119646771Y-136823220D02*
X119551533Y-136870839D01*
X119551533Y-136870839D02*
X119456295Y-136870839D01*
X119456295Y-136870839D02*
X119361057Y-136823220D01*
X119361057Y-136823220D02*
X119313438Y-136775601D01*
X119313438Y-136775601D02*
X119265819Y-136680363D01*
X119265819Y-136680363D02*
X119265819Y-136442268D01*
X119265819Y-136442268D02*
X119313438Y-136299411D01*
X119742009Y-135870839D02*
X119742009Y-135537506D01*
X120265819Y-135394649D02*
X120265819Y-135870839D01*
X120265819Y-135870839D02*
X119265819Y-135870839D01*
X119265819Y-135870839D02*
X119265819Y-135394649D01*
X120265819Y-134394649D02*
X119789628Y-134727982D01*
X120265819Y-134966077D02*
X119265819Y-134966077D01*
X119265819Y-134966077D02*
X119265819Y-134585125D01*
X119265819Y-134585125D02*
X119313438Y-134489887D01*
X119313438Y-134489887D02*
X119361057Y-134442268D01*
X119361057Y-134442268D02*
X119456295Y-134394649D01*
X119456295Y-134394649D02*
X119599152Y-134394649D01*
X119599152Y-134394649D02*
X119694390Y-134442268D01*
X119694390Y-134442268D02*
X119742009Y-134489887D01*
X119742009Y-134489887D02*
X119789628Y-134585125D01*
X119789628Y-134585125D02*
X119789628Y-134966077D01*
X119265819Y-134108934D02*
X120265819Y-133775601D01*
X120265819Y-133775601D02*
X119265819Y-133442268D01*
X119265819Y-132918458D02*
X119265819Y-132727982D01*
X119265819Y-132727982D02*
X119313438Y-132632744D01*
X119313438Y-132632744D02*
X119408676Y-132537506D01*
X119408676Y-132537506D02*
X119599152Y-132489887D01*
X119599152Y-132489887D02*
X119932485Y-132489887D01*
X119932485Y-132489887D02*
X120122961Y-132537506D01*
X120122961Y-132537506D02*
X120218200Y-132632744D01*
X120218200Y-132632744D02*
X120265819Y-132727982D01*
X120265819Y-132727982D02*
X120265819Y-132918458D01*
X120265819Y-132918458D02*
X120218200Y-133013696D01*
X120218200Y-133013696D02*
X120122961Y-133108934D01*
X120122961Y-133108934D02*
X119932485Y-133156553D01*
X119932485Y-133156553D02*
X119599152Y-133156553D01*
X119599152Y-133156553D02*
X119408676Y-133108934D01*
X119408676Y-133108934D02*
X119313438Y-133013696D01*
X119313438Y-133013696D02*
X119265819Y-132918458D01*
X120265819Y-130775601D02*
X120265819Y-131347029D01*
X120265819Y-131061315D02*
X119265819Y-131061315D01*
X119265819Y-131061315D02*
X119408676Y-131156553D01*
X119408676Y-131156553D02*
X119503914Y-131251791D01*
X119503914Y-131251791D02*
X119551533Y-131347029D01*
X133172200Y-136870839D02*
X133219819Y-136727982D01*
X133219819Y-136727982D02*
X133219819Y-136489887D01*
X133219819Y-136489887D02*
X133172200Y-136394649D01*
X133172200Y-136394649D02*
X133124580Y-136347030D01*
X133124580Y-136347030D02*
X133029342Y-136299411D01*
X133029342Y-136299411D02*
X132934104Y-136299411D01*
X132934104Y-136299411D02*
X132838866Y-136347030D01*
X132838866Y-136347030D02*
X132791247Y-136394649D01*
X132791247Y-136394649D02*
X132743628Y-136489887D01*
X132743628Y-136489887D02*
X132696009Y-136680363D01*
X132696009Y-136680363D02*
X132648390Y-136775601D01*
X132648390Y-136775601D02*
X132600771Y-136823220D01*
X132600771Y-136823220D02*
X132505533Y-136870839D01*
X132505533Y-136870839D02*
X132410295Y-136870839D01*
X132410295Y-136870839D02*
X132315057Y-136823220D01*
X132315057Y-136823220D02*
X132267438Y-136775601D01*
X132267438Y-136775601D02*
X132219819Y-136680363D01*
X132219819Y-136680363D02*
X132219819Y-136442268D01*
X132219819Y-136442268D02*
X132267438Y-136299411D01*
X132696009Y-135870839D02*
X132696009Y-135537506D01*
X133219819Y-135394649D02*
X133219819Y-135870839D01*
X133219819Y-135870839D02*
X132219819Y-135870839D01*
X132219819Y-135870839D02*
X132219819Y-135394649D01*
X133219819Y-134394649D02*
X132743628Y-134727982D01*
X133219819Y-134966077D02*
X132219819Y-134966077D01*
X132219819Y-134966077D02*
X132219819Y-134585125D01*
X132219819Y-134585125D02*
X132267438Y-134489887D01*
X132267438Y-134489887D02*
X132315057Y-134442268D01*
X132315057Y-134442268D02*
X132410295Y-134394649D01*
X132410295Y-134394649D02*
X132553152Y-134394649D01*
X132553152Y-134394649D02*
X132648390Y-134442268D01*
X132648390Y-134442268D02*
X132696009Y-134489887D01*
X132696009Y-134489887D02*
X132743628Y-134585125D01*
X132743628Y-134585125D02*
X132743628Y-134966077D01*
X132219819Y-134108934D02*
X133219819Y-133775601D01*
X133219819Y-133775601D02*
X132219819Y-133442268D01*
X132219819Y-132918458D02*
X132219819Y-132727982D01*
X132219819Y-132727982D02*
X132267438Y-132632744D01*
X132267438Y-132632744D02*
X132362676Y-132537506D01*
X132362676Y-132537506D02*
X132553152Y-132489887D01*
X132553152Y-132489887D02*
X132886485Y-132489887D01*
X132886485Y-132489887D02*
X133076961Y-132537506D01*
X133076961Y-132537506D02*
X133172200Y-132632744D01*
X133172200Y-132632744D02*
X133219819Y-132727982D01*
X133219819Y-132727982D02*
X133219819Y-132918458D01*
X133219819Y-132918458D02*
X133172200Y-133013696D01*
X133172200Y-133013696D02*
X133076961Y-133108934D01*
X133076961Y-133108934D02*
X132886485Y-133156553D01*
X132886485Y-133156553D02*
X132553152Y-133156553D01*
X132553152Y-133156553D02*
X132362676Y-133108934D01*
X132362676Y-133108934D02*
X132267438Y-133013696D01*
X132267438Y-133013696D02*
X132219819Y-132918458D01*
X132315057Y-131347029D02*
X132267438Y-131299410D01*
X132267438Y-131299410D02*
X132219819Y-131204172D01*
X132219819Y-131204172D02*
X132219819Y-130966077D01*
X132219819Y-130966077D02*
X132267438Y-130870839D01*
X132267438Y-130870839D02*
X132315057Y-130823220D01*
X132315057Y-130823220D02*
X132410295Y-130775601D01*
X132410295Y-130775601D02*
X132505533Y-130775601D01*
X132505533Y-130775601D02*
X132648390Y-130823220D01*
X132648390Y-130823220D02*
X133219819Y-131394648D01*
X133219819Y-131394648D02*
X133219819Y-130775601D01*
X146380200Y-136870839D02*
X146427819Y-136727982D01*
X146427819Y-136727982D02*
X146427819Y-136489887D01*
X146427819Y-136489887D02*
X146380200Y-136394649D01*
X146380200Y-136394649D02*
X146332580Y-136347030D01*
X146332580Y-136347030D02*
X146237342Y-136299411D01*
X146237342Y-136299411D02*
X146142104Y-136299411D01*
X146142104Y-136299411D02*
X146046866Y-136347030D01*
X146046866Y-136347030D02*
X145999247Y-136394649D01*
X145999247Y-136394649D02*
X145951628Y-136489887D01*
X145951628Y-136489887D02*
X145904009Y-136680363D01*
X145904009Y-136680363D02*
X145856390Y-136775601D01*
X145856390Y-136775601D02*
X145808771Y-136823220D01*
X145808771Y-136823220D02*
X145713533Y-136870839D01*
X145713533Y-136870839D02*
X145618295Y-136870839D01*
X145618295Y-136870839D02*
X145523057Y-136823220D01*
X145523057Y-136823220D02*
X145475438Y-136775601D01*
X145475438Y-136775601D02*
X145427819Y-136680363D01*
X145427819Y-136680363D02*
X145427819Y-136442268D01*
X145427819Y-136442268D02*
X145475438Y-136299411D01*
X145904009Y-135870839D02*
X145904009Y-135537506D01*
X146427819Y-135394649D02*
X146427819Y-135870839D01*
X146427819Y-135870839D02*
X145427819Y-135870839D01*
X145427819Y-135870839D02*
X145427819Y-135394649D01*
X146427819Y-134394649D02*
X145951628Y-134727982D01*
X146427819Y-134966077D02*
X145427819Y-134966077D01*
X145427819Y-134966077D02*
X145427819Y-134585125D01*
X145427819Y-134585125D02*
X145475438Y-134489887D01*
X145475438Y-134489887D02*
X145523057Y-134442268D01*
X145523057Y-134442268D02*
X145618295Y-134394649D01*
X145618295Y-134394649D02*
X145761152Y-134394649D01*
X145761152Y-134394649D02*
X145856390Y-134442268D01*
X145856390Y-134442268D02*
X145904009Y-134489887D01*
X145904009Y-134489887D02*
X145951628Y-134585125D01*
X145951628Y-134585125D02*
X145951628Y-134966077D01*
X145427819Y-134108934D02*
X146427819Y-133775601D01*
X146427819Y-133775601D02*
X145427819Y-133442268D01*
X145427819Y-132918458D02*
X145427819Y-132727982D01*
X145427819Y-132727982D02*
X145475438Y-132632744D01*
X145475438Y-132632744D02*
X145570676Y-132537506D01*
X145570676Y-132537506D02*
X145761152Y-132489887D01*
X145761152Y-132489887D02*
X146094485Y-132489887D01*
X146094485Y-132489887D02*
X146284961Y-132537506D01*
X146284961Y-132537506D02*
X146380200Y-132632744D01*
X146380200Y-132632744D02*
X146427819Y-132727982D01*
X146427819Y-132727982D02*
X146427819Y-132918458D01*
X146427819Y-132918458D02*
X146380200Y-133013696D01*
X146380200Y-133013696D02*
X146284961Y-133108934D01*
X146284961Y-133108934D02*
X146094485Y-133156553D01*
X146094485Y-133156553D02*
X145761152Y-133156553D01*
X145761152Y-133156553D02*
X145570676Y-133108934D01*
X145570676Y-133108934D02*
X145475438Y-133013696D01*
X145475438Y-133013696D02*
X145427819Y-132918458D01*
X145427819Y-131394648D02*
X145427819Y-130775601D01*
X145427819Y-130775601D02*
X145808771Y-131108934D01*
X145808771Y-131108934D02*
X145808771Y-130966077D01*
X145808771Y-130966077D02*
X145856390Y-130870839D01*
X145856390Y-130870839D02*
X145904009Y-130823220D01*
X145904009Y-130823220D02*
X145999247Y-130775601D01*
X145999247Y-130775601D02*
X146237342Y-130775601D01*
X146237342Y-130775601D02*
X146332580Y-130823220D01*
X146332580Y-130823220D02*
X146380200Y-130870839D01*
X146380200Y-130870839D02*
X146427819Y-130966077D01*
X146427819Y-130966077D02*
X146427819Y-131251791D01*
X146427819Y-131251791D02*
X146380200Y-131347029D01*
X146380200Y-131347029D02*
X146332580Y-131394648D01*
X159588200Y-136870839D02*
X159635819Y-136727982D01*
X159635819Y-136727982D02*
X159635819Y-136489887D01*
X159635819Y-136489887D02*
X159588200Y-136394649D01*
X159588200Y-136394649D02*
X159540580Y-136347030D01*
X159540580Y-136347030D02*
X159445342Y-136299411D01*
X159445342Y-136299411D02*
X159350104Y-136299411D01*
X159350104Y-136299411D02*
X159254866Y-136347030D01*
X159254866Y-136347030D02*
X159207247Y-136394649D01*
X159207247Y-136394649D02*
X159159628Y-136489887D01*
X159159628Y-136489887D02*
X159112009Y-136680363D01*
X159112009Y-136680363D02*
X159064390Y-136775601D01*
X159064390Y-136775601D02*
X159016771Y-136823220D01*
X159016771Y-136823220D02*
X158921533Y-136870839D01*
X158921533Y-136870839D02*
X158826295Y-136870839D01*
X158826295Y-136870839D02*
X158731057Y-136823220D01*
X158731057Y-136823220D02*
X158683438Y-136775601D01*
X158683438Y-136775601D02*
X158635819Y-136680363D01*
X158635819Y-136680363D02*
X158635819Y-136442268D01*
X158635819Y-136442268D02*
X158683438Y-136299411D01*
X159112009Y-135870839D02*
X159112009Y-135537506D01*
X159635819Y-135394649D02*
X159635819Y-135870839D01*
X159635819Y-135870839D02*
X158635819Y-135870839D01*
X158635819Y-135870839D02*
X158635819Y-135394649D01*
X159635819Y-134394649D02*
X159159628Y-134727982D01*
X159635819Y-134966077D02*
X158635819Y-134966077D01*
X158635819Y-134966077D02*
X158635819Y-134585125D01*
X158635819Y-134585125D02*
X158683438Y-134489887D01*
X158683438Y-134489887D02*
X158731057Y-134442268D01*
X158731057Y-134442268D02*
X158826295Y-134394649D01*
X158826295Y-134394649D02*
X158969152Y-134394649D01*
X158969152Y-134394649D02*
X159064390Y-134442268D01*
X159064390Y-134442268D02*
X159112009Y-134489887D01*
X159112009Y-134489887D02*
X159159628Y-134585125D01*
X159159628Y-134585125D02*
X159159628Y-134966077D01*
X158635819Y-134108934D02*
X159635819Y-133775601D01*
X159635819Y-133775601D02*
X158635819Y-133442268D01*
X158635819Y-132918458D02*
X158635819Y-132727982D01*
X158635819Y-132727982D02*
X158683438Y-132632744D01*
X158683438Y-132632744D02*
X158778676Y-132537506D01*
X158778676Y-132537506D02*
X158969152Y-132489887D01*
X158969152Y-132489887D02*
X159302485Y-132489887D01*
X159302485Y-132489887D02*
X159492961Y-132537506D01*
X159492961Y-132537506D02*
X159588200Y-132632744D01*
X159588200Y-132632744D02*
X159635819Y-132727982D01*
X159635819Y-132727982D02*
X159635819Y-132918458D01*
X159635819Y-132918458D02*
X159588200Y-133013696D01*
X159588200Y-133013696D02*
X159492961Y-133108934D01*
X159492961Y-133108934D02*
X159302485Y-133156553D01*
X159302485Y-133156553D02*
X158969152Y-133156553D01*
X158969152Y-133156553D02*
X158778676Y-133108934D01*
X158778676Y-133108934D02*
X158683438Y-133013696D01*
X158683438Y-133013696D02*
X158635819Y-132918458D01*
X158969152Y-130870839D02*
X159635819Y-130870839D01*
X158588200Y-131108934D02*
X159302485Y-131347029D01*
X159302485Y-131347029D02*
X159302485Y-130727982D01*
X167002228Y-98367856D02*
X167049847Y-98224999D01*
X167049847Y-98224999D02*
X167049847Y-97986904D01*
X167049847Y-97986904D02*
X167002228Y-97891666D01*
X167002228Y-97891666D02*
X166954608Y-97844047D01*
X166954608Y-97844047D02*
X166859370Y-97796428D01*
X166859370Y-97796428D02*
X166764132Y-97796428D01*
X166764132Y-97796428D02*
X166668894Y-97844047D01*
X166668894Y-97844047D02*
X166621275Y-97891666D01*
X166621275Y-97891666D02*
X166573656Y-97986904D01*
X166573656Y-97986904D02*
X166526037Y-98177380D01*
X166526037Y-98177380D02*
X166478418Y-98272618D01*
X166478418Y-98272618D02*
X166430799Y-98320237D01*
X166430799Y-98320237D02*
X166335561Y-98367856D01*
X166335561Y-98367856D02*
X166240323Y-98367856D01*
X166240323Y-98367856D02*
X166145085Y-98320237D01*
X166145085Y-98320237D02*
X166097466Y-98272618D01*
X166097466Y-98272618D02*
X166049847Y-98177380D01*
X166049847Y-98177380D02*
X166049847Y-97939285D01*
X166049847Y-97939285D02*
X166097466Y-97796428D01*
X166526037Y-97367856D02*
X166526037Y-97034523D01*
X167049847Y-96891666D02*
X167049847Y-97367856D01*
X167049847Y-97367856D02*
X166049847Y-97367856D01*
X166049847Y-97367856D02*
X166049847Y-96891666D01*
X167049847Y-95986904D02*
X167049847Y-96463094D01*
X167049847Y-96463094D02*
X166049847Y-96463094D01*
X168659791Y-97867857D02*
X168659791Y-98344047D01*
X168659791Y-98344047D02*
X167659791Y-98344047D01*
X168135981Y-97534523D02*
X168135981Y-97201190D01*
X168659791Y-97058333D02*
X168659791Y-97534523D01*
X168659791Y-97534523D02*
X167659791Y-97534523D01*
X167659791Y-97534523D02*
X167659791Y-97058333D01*
X168659791Y-96629761D02*
X167659791Y-96629761D01*
X167659791Y-96629761D02*
X167659791Y-96391666D01*
X167659791Y-96391666D02*
X167707410Y-96248809D01*
X167707410Y-96248809D02*
X167802648Y-96153571D01*
X167802648Y-96153571D02*
X167897886Y-96105952D01*
X167897886Y-96105952D02*
X168088362Y-96058333D01*
X168088362Y-96058333D02*
X168231219Y-96058333D01*
X168231219Y-96058333D02*
X168421695Y-96105952D01*
X168421695Y-96105952D02*
X168516933Y-96153571D01*
X168516933Y-96153571D02*
X168612172Y-96248809D01*
X168612172Y-96248809D02*
X168659791Y-96391666D01*
X168659791Y-96391666D02*
X168659791Y-96629761D01*
X167242228Y-115030094D02*
X167289847Y-114887237D01*
X167289847Y-114887237D02*
X167289847Y-114649142D01*
X167289847Y-114649142D02*
X167242228Y-114553904D01*
X167242228Y-114553904D02*
X167194608Y-114506285D01*
X167194608Y-114506285D02*
X167099370Y-114458666D01*
X167099370Y-114458666D02*
X167004132Y-114458666D01*
X167004132Y-114458666D02*
X166908894Y-114506285D01*
X166908894Y-114506285D02*
X166861275Y-114553904D01*
X166861275Y-114553904D02*
X166813656Y-114649142D01*
X166813656Y-114649142D02*
X166766037Y-114839618D01*
X166766037Y-114839618D02*
X166718418Y-114934856D01*
X166718418Y-114934856D02*
X166670799Y-114982475D01*
X166670799Y-114982475D02*
X166575561Y-115030094D01*
X166575561Y-115030094D02*
X166480323Y-115030094D01*
X166480323Y-115030094D02*
X166385085Y-114982475D01*
X166385085Y-114982475D02*
X166337466Y-114934856D01*
X166337466Y-114934856D02*
X166289847Y-114839618D01*
X166289847Y-114839618D02*
X166289847Y-114601523D01*
X166289847Y-114601523D02*
X166337466Y-114458666D01*
X167289847Y-113506285D02*
X167289847Y-114077713D01*
X167289847Y-113791999D02*
X166289847Y-113791999D01*
X166289847Y-113791999D02*
X166432704Y-113887237D01*
X166432704Y-113887237D02*
X166527942Y-113982475D01*
X166527942Y-113982475D02*
X166575561Y-114077713D01*
X166289847Y-112649142D02*
X166289847Y-112839618D01*
X166289847Y-112839618D02*
X166337466Y-112934856D01*
X166337466Y-112934856D02*
X166385085Y-112982475D01*
X166385085Y-112982475D02*
X166527942Y-113077713D01*
X166527942Y-113077713D02*
X166718418Y-113125332D01*
X166718418Y-113125332D02*
X167099370Y-113125332D01*
X167099370Y-113125332D02*
X167194608Y-113077713D01*
X167194608Y-113077713D02*
X167242228Y-113030094D01*
X167242228Y-113030094D02*
X167289847Y-112934856D01*
X167289847Y-112934856D02*
X167289847Y-112744380D01*
X167289847Y-112744380D02*
X167242228Y-112649142D01*
X167242228Y-112649142D02*
X167194608Y-112601523D01*
X167194608Y-112601523D02*
X167099370Y-112553904D01*
X167099370Y-112553904D02*
X166861275Y-112553904D01*
X166861275Y-112553904D02*
X166766037Y-112601523D01*
X166766037Y-112601523D02*
X166718418Y-112649142D01*
X166718418Y-112649142D02*
X166670799Y-112744380D01*
X166670799Y-112744380D02*
X166670799Y-112934856D01*
X166670799Y-112934856D02*
X166718418Y-113030094D01*
X166718418Y-113030094D02*
X166766037Y-113077713D01*
X166766037Y-113077713D02*
X166861275Y-113125332D01*
X168899791Y-114434857D02*
X168899791Y-114911047D01*
X168899791Y-114911047D02*
X167899791Y-114911047D01*
X168375981Y-114101523D02*
X168375981Y-113768190D01*
X168899791Y-113625333D02*
X168899791Y-114101523D01*
X168899791Y-114101523D02*
X167899791Y-114101523D01*
X167899791Y-114101523D02*
X167899791Y-113625333D01*
X168899791Y-113196761D02*
X167899791Y-113196761D01*
X167899791Y-113196761D02*
X167899791Y-112958666D01*
X167899791Y-112958666D02*
X167947410Y-112815809D01*
X167947410Y-112815809D02*
X168042648Y-112720571D01*
X168042648Y-112720571D02*
X168137886Y-112672952D01*
X168137886Y-112672952D02*
X168328362Y-112625333D01*
X168328362Y-112625333D02*
X168471219Y-112625333D01*
X168471219Y-112625333D02*
X168661695Y-112672952D01*
X168661695Y-112672952D02*
X168756933Y-112720571D01*
X168756933Y-112720571D02*
X168852172Y-112815809D01*
X168852172Y-112815809D02*
X168899791Y-112958666D01*
X168899791Y-112958666D02*
X168899791Y-113196761D01*
X167496228Y-118078094D02*
X167543847Y-117935237D01*
X167543847Y-117935237D02*
X167543847Y-117697142D01*
X167543847Y-117697142D02*
X167496228Y-117601904D01*
X167496228Y-117601904D02*
X167448608Y-117554285D01*
X167448608Y-117554285D02*
X167353370Y-117506666D01*
X167353370Y-117506666D02*
X167258132Y-117506666D01*
X167258132Y-117506666D02*
X167162894Y-117554285D01*
X167162894Y-117554285D02*
X167115275Y-117601904D01*
X167115275Y-117601904D02*
X167067656Y-117697142D01*
X167067656Y-117697142D02*
X167020037Y-117887618D01*
X167020037Y-117887618D02*
X166972418Y-117982856D01*
X166972418Y-117982856D02*
X166924799Y-118030475D01*
X166924799Y-118030475D02*
X166829561Y-118078094D01*
X166829561Y-118078094D02*
X166734323Y-118078094D01*
X166734323Y-118078094D02*
X166639085Y-118030475D01*
X166639085Y-118030475D02*
X166591466Y-117982856D01*
X166591466Y-117982856D02*
X166543847Y-117887618D01*
X166543847Y-117887618D02*
X166543847Y-117649523D01*
X166543847Y-117649523D02*
X166591466Y-117506666D01*
X167543847Y-116554285D02*
X167543847Y-117125713D01*
X167543847Y-116839999D02*
X166543847Y-116839999D01*
X166543847Y-116839999D02*
X166686704Y-116935237D01*
X166686704Y-116935237D02*
X166781942Y-117030475D01*
X166781942Y-117030475D02*
X166829561Y-117125713D01*
X166543847Y-115649523D02*
X166543847Y-116125713D01*
X166543847Y-116125713D02*
X167020037Y-116173332D01*
X167020037Y-116173332D02*
X166972418Y-116125713D01*
X166972418Y-116125713D02*
X166924799Y-116030475D01*
X166924799Y-116030475D02*
X166924799Y-115792380D01*
X166924799Y-115792380D02*
X166972418Y-115697142D01*
X166972418Y-115697142D02*
X167020037Y-115649523D01*
X167020037Y-115649523D02*
X167115275Y-115601904D01*
X167115275Y-115601904D02*
X167353370Y-115601904D01*
X167353370Y-115601904D02*
X167448608Y-115649523D01*
X167448608Y-115649523D02*
X167496228Y-115697142D01*
X167496228Y-115697142D02*
X167543847Y-115792380D01*
X167543847Y-115792380D02*
X167543847Y-116030475D01*
X167543847Y-116030475D02*
X167496228Y-116125713D01*
X167496228Y-116125713D02*
X167448608Y-116173332D01*
X169153791Y-117482857D02*
X169153791Y-117959047D01*
X169153791Y-117959047D02*
X168153791Y-117959047D01*
X168629981Y-117149523D02*
X168629981Y-116816190D01*
X169153791Y-116673333D02*
X169153791Y-117149523D01*
X169153791Y-117149523D02*
X168153791Y-117149523D01*
X168153791Y-117149523D02*
X168153791Y-116673333D01*
X169153791Y-116244761D02*
X168153791Y-116244761D01*
X168153791Y-116244761D02*
X168153791Y-116006666D01*
X168153791Y-116006666D02*
X168201410Y-115863809D01*
X168201410Y-115863809D02*
X168296648Y-115768571D01*
X168296648Y-115768571D02*
X168391886Y-115720952D01*
X168391886Y-115720952D02*
X168582362Y-115673333D01*
X168582362Y-115673333D02*
X168725219Y-115673333D01*
X168725219Y-115673333D02*
X168915695Y-115720952D01*
X168915695Y-115720952D02*
X169010933Y-115768571D01*
X169010933Y-115768571D02*
X169106172Y-115863809D01*
X169106172Y-115863809D02*
X169153791Y-116006666D01*
X169153791Y-116006666D02*
X169153791Y-116244761D01*
X172132200Y-110159285D02*
X172179819Y-110016428D01*
X172179819Y-110016428D02*
X172179819Y-109778333D01*
X172179819Y-109778333D02*
X172132200Y-109683095D01*
X172132200Y-109683095D02*
X172084580Y-109635476D01*
X172084580Y-109635476D02*
X171989342Y-109587857D01*
X171989342Y-109587857D02*
X171894104Y-109587857D01*
X171894104Y-109587857D02*
X171798866Y-109635476D01*
X171798866Y-109635476D02*
X171751247Y-109683095D01*
X171751247Y-109683095D02*
X171703628Y-109778333D01*
X171703628Y-109778333D02*
X171656009Y-109968809D01*
X171656009Y-109968809D02*
X171608390Y-110064047D01*
X171608390Y-110064047D02*
X171560771Y-110111666D01*
X171560771Y-110111666D02*
X171465533Y-110159285D01*
X171465533Y-110159285D02*
X171370295Y-110159285D01*
X171370295Y-110159285D02*
X171275057Y-110111666D01*
X171275057Y-110111666D02*
X171227438Y-110064047D01*
X171227438Y-110064047D02*
X171179819Y-109968809D01*
X171179819Y-109968809D02*
X171179819Y-109730714D01*
X171179819Y-109730714D02*
X171227438Y-109587857D01*
X172179819Y-109159285D02*
X171179819Y-109159285D01*
X171179819Y-109159285D02*
X171179819Y-108921190D01*
X171179819Y-108921190D02*
X171227438Y-108778333D01*
X171227438Y-108778333D02*
X171322676Y-108683095D01*
X171322676Y-108683095D02*
X171417914Y-108635476D01*
X171417914Y-108635476D02*
X171608390Y-108587857D01*
X171608390Y-108587857D02*
X171751247Y-108587857D01*
X171751247Y-108587857D02*
X171941723Y-108635476D01*
X171941723Y-108635476D02*
X172036961Y-108683095D01*
X172036961Y-108683095D02*
X172132200Y-108778333D01*
X172132200Y-108778333D02*
X172179819Y-108921190D01*
X172179819Y-108921190D02*
X172179819Y-109159285D01*
X171894104Y-108206904D02*
X171894104Y-107730714D01*
X172179819Y-108302142D02*
X171179819Y-107968809D01*
X171179819Y-107968809D02*
X172179819Y-107635476D01*
X171377438Y-104106904D02*
X171329819Y-104202142D01*
X171329819Y-104202142D02*
X171329819Y-104344999D01*
X171329819Y-104344999D02*
X171377438Y-104487856D01*
X171377438Y-104487856D02*
X171472676Y-104583094D01*
X171472676Y-104583094D02*
X171567914Y-104630713D01*
X171567914Y-104630713D02*
X171758390Y-104678332D01*
X171758390Y-104678332D02*
X171901247Y-104678332D01*
X171901247Y-104678332D02*
X172091723Y-104630713D01*
X172091723Y-104630713D02*
X172186961Y-104583094D01*
X172186961Y-104583094D02*
X172282200Y-104487856D01*
X172282200Y-104487856D02*
X172329819Y-104344999D01*
X172329819Y-104344999D02*
X172329819Y-104249761D01*
X172329819Y-104249761D02*
X172282200Y-104106904D01*
X172282200Y-104106904D02*
X172234580Y-104059285D01*
X172234580Y-104059285D02*
X171901247Y-104059285D01*
X171901247Y-104059285D02*
X171901247Y-104249761D01*
X172329819Y-103630713D02*
X171329819Y-103630713D01*
X171329819Y-103630713D02*
X172329819Y-103059285D01*
X172329819Y-103059285D02*
X171329819Y-103059285D01*
X172329819Y-102583094D02*
X171329819Y-102583094D01*
X171329819Y-102583094D02*
X171329819Y-102344999D01*
X171329819Y-102344999D02*
X171377438Y-102202142D01*
X171377438Y-102202142D02*
X171472676Y-102106904D01*
X171472676Y-102106904D02*
X171567914Y-102059285D01*
X171567914Y-102059285D02*
X171758390Y-102011666D01*
X171758390Y-102011666D02*
X171901247Y-102011666D01*
X171901247Y-102011666D02*
X172091723Y-102059285D01*
X172091723Y-102059285D02*
X172186961Y-102106904D01*
X172186961Y-102106904D02*
X172282200Y-102202142D01*
X172282200Y-102202142D02*
X172329819Y-102344999D01*
X172329819Y-102344999D02*
X172329819Y-102583094D01*
X173657200Y-107285475D02*
X173704819Y-107142618D01*
X173704819Y-107142618D02*
X173704819Y-106904523D01*
X173704819Y-106904523D02*
X173657200Y-106809285D01*
X173657200Y-106809285D02*
X173609580Y-106761666D01*
X173609580Y-106761666D02*
X173514342Y-106714047D01*
X173514342Y-106714047D02*
X173419104Y-106714047D01*
X173419104Y-106714047D02*
X173323866Y-106761666D01*
X173323866Y-106761666D02*
X173276247Y-106809285D01*
X173276247Y-106809285D02*
X173228628Y-106904523D01*
X173228628Y-106904523D02*
X173181009Y-107094999D01*
X173181009Y-107094999D02*
X173133390Y-107190237D01*
X173133390Y-107190237D02*
X173085771Y-107237856D01*
X173085771Y-107237856D02*
X172990533Y-107285475D01*
X172990533Y-107285475D02*
X172895295Y-107285475D01*
X172895295Y-107285475D02*
X172800057Y-107237856D01*
X172800057Y-107237856D02*
X172752438Y-107190237D01*
X172752438Y-107190237D02*
X172704819Y-107094999D01*
X172704819Y-107094999D02*
X172704819Y-106856904D01*
X172704819Y-106856904D02*
X172752438Y-106714047D01*
X173609580Y-105714047D02*
X173657200Y-105761666D01*
X173657200Y-105761666D02*
X173704819Y-105904523D01*
X173704819Y-105904523D02*
X173704819Y-105999761D01*
X173704819Y-105999761D02*
X173657200Y-106142618D01*
X173657200Y-106142618D02*
X173561961Y-106237856D01*
X173561961Y-106237856D02*
X173466723Y-106285475D01*
X173466723Y-106285475D02*
X173276247Y-106333094D01*
X173276247Y-106333094D02*
X173133390Y-106333094D01*
X173133390Y-106333094D02*
X172942914Y-106285475D01*
X172942914Y-106285475D02*
X172847676Y-106237856D01*
X172847676Y-106237856D02*
X172752438Y-106142618D01*
X172752438Y-106142618D02*
X172704819Y-105999761D01*
X172704819Y-105999761D02*
X172704819Y-105904523D01*
X172704819Y-105904523D02*
X172752438Y-105761666D01*
X172752438Y-105761666D02*
X172800057Y-105714047D01*
X173704819Y-104809285D02*
X173704819Y-105285475D01*
X173704819Y-105285475D02*
X172704819Y-105285475D01*
X172904819Y-102483094D02*
X172904819Y-101864047D01*
X172904819Y-101864047D02*
X173285771Y-102197380D01*
X173285771Y-102197380D02*
X173285771Y-102054523D01*
X173285771Y-102054523D02*
X173333390Y-101959285D01*
X173333390Y-101959285D02*
X173381009Y-101911666D01*
X173381009Y-101911666D02*
X173476247Y-101864047D01*
X173476247Y-101864047D02*
X173714342Y-101864047D01*
X173714342Y-101864047D02*
X173809580Y-101911666D01*
X173809580Y-101911666D02*
X173857200Y-101959285D01*
X173857200Y-101959285D02*
X173904819Y-102054523D01*
X173904819Y-102054523D02*
X173904819Y-102340237D01*
X173904819Y-102340237D02*
X173857200Y-102435475D01*
X173857200Y-102435475D02*
X173809580Y-102483094D01*
X172904819Y-101578332D02*
X173904819Y-101244999D01*
X173904819Y-101244999D02*
X172904819Y-100911666D01*
X172904819Y-100673570D02*
X172904819Y-100054523D01*
X172904819Y-100054523D02*
X173285771Y-100387856D01*
X173285771Y-100387856D02*
X173285771Y-100244999D01*
X173285771Y-100244999D02*
X173333390Y-100149761D01*
X173333390Y-100149761D02*
X173381009Y-100102142D01*
X173381009Y-100102142D02*
X173476247Y-100054523D01*
X173476247Y-100054523D02*
X173714342Y-100054523D01*
X173714342Y-100054523D02*
X173809580Y-100102142D01*
X173809580Y-100102142D02*
X173857200Y-100149761D01*
X173857200Y-100149761D02*
X173904819Y-100244999D01*
X173904819Y-100244999D02*
X173904819Y-100530713D01*
X173904819Y-100530713D02*
X173857200Y-100625951D01*
X173857200Y-100625951D02*
X173809580Y-100673570D01*
X81238095Y-89154819D02*
X81238095Y-88154819D01*
X81238095Y-88631009D02*
X81809523Y-88631009D01*
X81809523Y-89154819D02*
X81809523Y-88154819D01*
X82809523Y-89154819D02*
X82238095Y-89154819D01*
X82523809Y-89154819D02*
X82523809Y-88154819D01*
X82523809Y-88154819D02*
X82428571Y-88297676D01*
X82428571Y-88297676D02*
X82333333Y-88392914D01*
X82333333Y-88392914D02*
X82238095Y-88440533D01*
X93316666Y-142554819D02*
X93316666Y-143269104D01*
X93316666Y-143269104D02*
X93269047Y-143411961D01*
X93269047Y-143411961D02*
X93173809Y-143507200D01*
X93173809Y-143507200D02*
X93030952Y-143554819D01*
X93030952Y-143554819D02*
X92935714Y-143554819D01*
X94221428Y-142888152D02*
X94221428Y-143554819D01*
X93983333Y-142507200D02*
X93745238Y-143221485D01*
X93745238Y-143221485D02*
X94364285Y-143221485D01*
X87178571Y-123214700D02*
X88321429Y-123214700D01*
X87750000Y-123786128D02*
X87750000Y-122643271D01*
X99478571Y-123214700D02*
X100621429Y-123214700D01*
X125428476Y-128349819D02*
X125428476Y-129064104D01*
X125428476Y-129064104D02*
X125380857Y-129206961D01*
X125380857Y-129206961D02*
X125285619Y-129302200D01*
X125285619Y-129302200D02*
X125142762Y-129349819D01*
X125142762Y-129349819D02*
X125047524Y-129349819D01*
X126428476Y-129349819D02*
X125857048Y-129349819D01*
X126142762Y-129349819D02*
X126142762Y-128349819D01*
X126142762Y-128349819D02*
X126047524Y-128492676D01*
X126047524Y-128492676D02*
X125952286Y-128587914D01*
X125952286Y-128587914D02*
X125857048Y-128635533D01*
X127047524Y-128349819D02*
X127142762Y-128349819D01*
X127142762Y-128349819D02*
X127238000Y-128397438D01*
X127238000Y-128397438D02*
X127285619Y-128445057D01*
X127285619Y-128445057D02*
X127333238Y-128540295D01*
X127333238Y-128540295D02*
X127380857Y-128730771D01*
X127380857Y-128730771D02*
X127380857Y-128968866D01*
X127380857Y-128968866D02*
X127333238Y-129159342D01*
X127333238Y-129159342D02*
X127285619Y-129254580D01*
X127285619Y-129254580D02*
X127238000Y-129302200D01*
X127238000Y-129302200D02*
X127142762Y-129349819D01*
X127142762Y-129349819D02*
X127047524Y-129349819D01*
X127047524Y-129349819D02*
X126952286Y-129302200D01*
X126952286Y-129302200D02*
X126904667Y-129254580D01*
X126904667Y-129254580D02*
X126857048Y-129159342D01*
X126857048Y-129159342D02*
X126809429Y-128968866D01*
X126809429Y-128968866D02*
X126809429Y-128730771D01*
X126809429Y-128730771D02*
X126857048Y-128540295D01*
X126857048Y-128540295D02*
X126904667Y-128445057D01*
X126904667Y-128445057D02*
X126952286Y-128397438D01*
X126952286Y-128397438D02*
X127047524Y-128349819D01*
X109916666Y-142554819D02*
X109916666Y-143269104D01*
X109916666Y-143269104D02*
X109869047Y-143411961D01*
X109869047Y-143411961D02*
X109773809Y-143507200D01*
X109773809Y-143507200D02*
X109630952Y-143554819D01*
X109630952Y-143554819D02*
X109535714Y-143554819D01*
X110869047Y-142554819D02*
X110392857Y-142554819D01*
X110392857Y-142554819D02*
X110345238Y-143031009D01*
X110345238Y-143031009D02*
X110392857Y-142983390D01*
X110392857Y-142983390D02*
X110488095Y-142935771D01*
X110488095Y-142935771D02*
X110726190Y-142935771D01*
X110726190Y-142935771D02*
X110821428Y-142983390D01*
X110821428Y-142983390D02*
X110869047Y-143031009D01*
X110869047Y-143031009D02*
X110916666Y-143126247D01*
X110916666Y-143126247D02*
X110916666Y-143364342D01*
X110916666Y-143364342D02*
X110869047Y-143459580D01*
X110869047Y-143459580D02*
X110821428Y-143507200D01*
X110821428Y-143507200D02*
X110726190Y-143554819D01*
X110726190Y-143554819D02*
X110488095Y-143554819D01*
X110488095Y-143554819D02*
X110392857Y-143507200D01*
X110392857Y-143507200D02*
X110345238Y-143459580D01*
X103469048Y-124173866D02*
X104230953Y-124173866D01*
X115578571Y-124214700D02*
X116721429Y-124214700D01*
X116150000Y-124786128D02*
X116150000Y-123643271D01*
X165116666Y-128349819D02*
X165116666Y-129064104D01*
X165116666Y-129064104D02*
X165069047Y-129206961D01*
X165069047Y-129206961D02*
X164973809Y-129302200D01*
X164973809Y-129302200D02*
X164830952Y-129349819D01*
X164830952Y-129349819D02*
X164735714Y-129349819D01*
X165497619Y-128349819D02*
X166164285Y-128349819D01*
X166164285Y-128349819D02*
X165735714Y-129349819D01*
X152238095Y-90804819D02*
X152238095Y-89804819D01*
X152238095Y-90281009D02*
X152809523Y-90281009D01*
X152809523Y-90804819D02*
X152809523Y-89804819D01*
X153714285Y-89804819D02*
X153523809Y-89804819D01*
X153523809Y-89804819D02*
X153428571Y-89852438D01*
X153428571Y-89852438D02*
X153380952Y-89900057D01*
X153380952Y-89900057D02*
X153285714Y-90042914D01*
X153285714Y-90042914D02*
X153238095Y-90233390D01*
X153238095Y-90233390D02*
X153238095Y-90614342D01*
X153238095Y-90614342D02*
X153285714Y-90709580D01*
X153285714Y-90709580D02*
X153333333Y-90757200D01*
X153333333Y-90757200D02*
X153428571Y-90804819D01*
X153428571Y-90804819D02*
X153619047Y-90804819D01*
X153619047Y-90804819D02*
X153714285Y-90757200D01*
X153714285Y-90757200D02*
X153761904Y-90709580D01*
X153761904Y-90709580D02*
X153809523Y-90614342D01*
X153809523Y-90614342D02*
X153809523Y-90376247D01*
X153809523Y-90376247D02*
X153761904Y-90281009D01*
X153761904Y-90281009D02*
X153714285Y-90233390D01*
X153714285Y-90233390D02*
X153619047Y-90185771D01*
X153619047Y-90185771D02*
X153428571Y-90185771D01*
X153428571Y-90185771D02*
X153333333Y-90233390D01*
X153333333Y-90233390D02*
X153285714Y-90281009D01*
X153285714Y-90281009D02*
X153238095Y-90376247D01*
X102254716Y-90809413D02*
X102254716Y-89809413D01*
X102254716Y-90285603D02*
X102826144Y-90285603D01*
X102826144Y-90809413D02*
X102826144Y-89809413D01*
X103778525Y-89809413D02*
X103302335Y-89809413D01*
X103302335Y-89809413D02*
X103254716Y-90285603D01*
X103254716Y-90285603D02*
X103302335Y-90237984D01*
X103302335Y-90237984D02*
X103397573Y-90190365D01*
X103397573Y-90190365D02*
X103635668Y-90190365D01*
X103635668Y-90190365D02*
X103730906Y-90237984D01*
X103730906Y-90237984D02*
X103778525Y-90285603D01*
X103778525Y-90285603D02*
X103826144Y-90380841D01*
X103826144Y-90380841D02*
X103826144Y-90618936D01*
X103826144Y-90618936D02*
X103778525Y-90714174D01*
X103778525Y-90714174D02*
X103730906Y-90761794D01*
X103730906Y-90761794D02*
X103635668Y-90809413D01*
X103635668Y-90809413D02*
X103397573Y-90809413D01*
X103397573Y-90809413D02*
X103302335Y-90761794D01*
X103302335Y-90761794D02*
X103254716Y-90714174D01*
X105634819Y-95891605D02*
X106349104Y-95891605D01*
X106349104Y-95891605D02*
X106491961Y-95939224D01*
X106491961Y-95939224D02*
X106587200Y-96034462D01*
X106587200Y-96034462D02*
X106634819Y-96177319D01*
X106634819Y-96177319D02*
X106634819Y-96272557D01*
X105730057Y-95463033D02*
X105682438Y-95415414D01*
X105682438Y-95415414D02*
X105634819Y-95320176D01*
X105634819Y-95320176D02*
X105634819Y-95082081D01*
X105634819Y-95082081D02*
X105682438Y-94986843D01*
X105682438Y-94986843D02*
X105730057Y-94939224D01*
X105730057Y-94939224D02*
X105825295Y-94891605D01*
X105825295Y-94891605D02*
X105920533Y-94891605D01*
X105920533Y-94891605D02*
X106063390Y-94939224D01*
X106063390Y-94939224D02*
X106634819Y-95510652D01*
X106634819Y-95510652D02*
X106634819Y-94891605D01*
X138975333Y-128349819D02*
X138975333Y-129064104D01*
X138975333Y-129064104D02*
X138927714Y-129206961D01*
X138927714Y-129206961D02*
X138832476Y-129302200D01*
X138832476Y-129302200D02*
X138689619Y-129349819D01*
X138689619Y-129349819D02*
X138594381Y-129349819D01*
X139499143Y-129349819D02*
X139689619Y-129349819D01*
X139689619Y-129349819D02*
X139784857Y-129302200D01*
X139784857Y-129302200D02*
X139832476Y-129254580D01*
X139832476Y-129254580D02*
X139927714Y-129111723D01*
X139927714Y-129111723D02*
X139975333Y-128921247D01*
X139975333Y-128921247D02*
X139975333Y-128540295D01*
X139975333Y-128540295D02*
X139927714Y-128445057D01*
X139927714Y-128445057D02*
X139880095Y-128397438D01*
X139880095Y-128397438D02*
X139784857Y-128349819D01*
X139784857Y-128349819D02*
X139594381Y-128349819D01*
X139594381Y-128349819D02*
X139499143Y-128397438D01*
X139499143Y-128397438D02*
X139451524Y-128445057D01*
X139451524Y-128445057D02*
X139403905Y-128540295D01*
X139403905Y-128540295D02*
X139403905Y-128778390D01*
X139403905Y-128778390D02*
X139451524Y-128873628D01*
X139451524Y-128873628D02*
X139499143Y-128921247D01*
X139499143Y-128921247D02*
X139594381Y-128968866D01*
X139594381Y-128968866D02*
X139784857Y-128968866D01*
X139784857Y-128968866D02*
X139880095Y-128921247D01*
X139880095Y-128921247D02*
X139927714Y-128873628D01*
X139927714Y-128873628D02*
X139975333Y-128778390D01*
X173238095Y-130804819D02*
X173238095Y-129804819D01*
X173238095Y-130281009D02*
X173809523Y-130281009D01*
X173809523Y-130804819D02*
X173809523Y-129804819D01*
X174238095Y-129900057D02*
X174285714Y-129852438D01*
X174285714Y-129852438D02*
X174380952Y-129804819D01*
X174380952Y-129804819D02*
X174619047Y-129804819D01*
X174619047Y-129804819D02*
X174714285Y-129852438D01*
X174714285Y-129852438D02*
X174761904Y-129900057D01*
X174761904Y-129900057D02*
X174809523Y-129995295D01*
X174809523Y-129995295D02*
X174809523Y-130090533D01*
X174809523Y-130090533D02*
X174761904Y-130233390D01*
X174761904Y-130233390D02*
X174190476Y-130804819D01*
X174190476Y-130804819D02*
X174809523Y-130804819D01*
X145009819Y-116461904D02*
X145819342Y-116461904D01*
X145819342Y-116461904D02*
X145914580Y-116414285D01*
X145914580Y-116414285D02*
X145962200Y-116366666D01*
X145962200Y-116366666D02*
X146009819Y-116271428D01*
X146009819Y-116271428D02*
X146009819Y-116080952D01*
X146009819Y-116080952D02*
X145962200Y-115985714D01*
X145962200Y-115985714D02*
X145914580Y-115938095D01*
X145914580Y-115938095D02*
X145819342Y-115890476D01*
X145819342Y-115890476D02*
X145009819Y-115890476D01*
X146009819Y-114890476D02*
X146009819Y-115461904D01*
X146009819Y-115176190D02*
X145009819Y-115176190D01*
X145009819Y-115176190D02*
X145152676Y-115271428D01*
X145152676Y-115271428D02*
X145247914Y-115366666D01*
X145247914Y-115366666D02*
X145295533Y-115461904D01*
X173238095Y-88804819D02*
X173238095Y-87804819D01*
X173238095Y-88281009D02*
X173809523Y-88281009D01*
X173809523Y-88804819D02*
X173809523Y-87804819D01*
X174714285Y-88138152D02*
X174714285Y-88804819D01*
X174476190Y-87757200D02*
X174238095Y-88471485D01*
X174238095Y-88471485D02*
X174857142Y-88471485D01*
X135060595Y-113175819D02*
X135060595Y-113985342D01*
X135060595Y-113985342D02*
X135108214Y-114080580D01*
X135108214Y-114080580D02*
X135155833Y-114128200D01*
X135155833Y-114128200D02*
X135251071Y-114175819D01*
X135251071Y-114175819D02*
X135441547Y-114175819D01*
X135441547Y-114175819D02*
X135536785Y-114128200D01*
X135536785Y-114128200D02*
X135584404Y-114080580D01*
X135584404Y-114080580D02*
X135632023Y-113985342D01*
X135632023Y-113985342D02*
X135632023Y-113175819D01*
X136012976Y-113175819D02*
X136632023Y-113175819D01*
X136632023Y-113175819D02*
X136298690Y-113556771D01*
X136298690Y-113556771D02*
X136441547Y-113556771D01*
X136441547Y-113556771D02*
X136536785Y-113604390D01*
X136536785Y-113604390D02*
X136584404Y-113652009D01*
X136584404Y-113652009D02*
X136632023Y-113747247D01*
X136632023Y-113747247D02*
X136632023Y-113985342D01*
X136632023Y-113985342D02*
X136584404Y-114080580D01*
X136584404Y-114080580D02*
X136536785Y-114128200D01*
X136536785Y-114128200D02*
X136441547Y-114175819D01*
X136441547Y-114175819D02*
X136155833Y-114175819D01*
X136155833Y-114175819D02*
X136060595Y-114128200D01*
X136060595Y-114128200D02*
X136012976Y-114080580D01*
X175766666Y-110634819D02*
X175766666Y-111349104D01*
X175766666Y-111349104D02*
X175719047Y-111491961D01*
X175719047Y-111491961D02*
X175623809Y-111587200D01*
X175623809Y-111587200D02*
X175480952Y-111634819D01*
X175480952Y-111634819D02*
X175385714Y-111634819D01*
X176147619Y-110634819D02*
X176766666Y-110634819D01*
X176766666Y-110634819D02*
X176433333Y-111015771D01*
X176433333Y-111015771D02*
X176576190Y-111015771D01*
X176576190Y-111015771D02*
X176671428Y-111063390D01*
X176671428Y-111063390D02*
X176719047Y-111111009D01*
X176719047Y-111111009D02*
X176766666Y-111206247D01*
X176766666Y-111206247D02*
X176766666Y-111444342D01*
X176766666Y-111444342D02*
X176719047Y-111539580D01*
X176719047Y-111539580D02*
X176671428Y-111587200D01*
X176671428Y-111587200D02*
X176576190Y-111634819D01*
X176576190Y-111634819D02*
X176290476Y-111634819D01*
X176290476Y-111634819D02*
X176195238Y-111587200D01*
X176195238Y-111587200D02*
X176147619Y-111539580D01*
X81238095Y-130804819D02*
X81238095Y-129804819D01*
X81238095Y-130281009D02*
X81809523Y-130281009D01*
X81809523Y-130804819D02*
X81809523Y-129804819D01*
X82190476Y-129804819D02*
X82809523Y-129804819D01*
X82809523Y-129804819D02*
X82476190Y-130185771D01*
X82476190Y-130185771D02*
X82619047Y-130185771D01*
X82619047Y-130185771D02*
X82714285Y-130233390D01*
X82714285Y-130233390D02*
X82761904Y-130281009D01*
X82761904Y-130281009D02*
X82809523Y-130376247D01*
X82809523Y-130376247D02*
X82809523Y-130614342D01*
X82809523Y-130614342D02*
X82761904Y-130709580D01*
X82761904Y-130709580D02*
X82714285Y-130757200D01*
X82714285Y-130757200D02*
X82619047Y-130804819D01*
X82619047Y-130804819D02*
X82333333Y-130804819D01*
X82333333Y-130804819D02*
X82238095Y-130757200D01*
X82238095Y-130757200D02*
X82190476Y-130709580D01*
X152045999Y-128349819D02*
X152045999Y-129064104D01*
X152045999Y-129064104D02*
X151998380Y-129206961D01*
X151998380Y-129206961D02*
X151903142Y-129302200D01*
X151903142Y-129302200D02*
X151760285Y-129349819D01*
X151760285Y-129349819D02*
X151665047Y-129349819D01*
X152665047Y-128778390D02*
X152569809Y-128730771D01*
X152569809Y-128730771D02*
X152522190Y-128683152D01*
X152522190Y-128683152D02*
X152474571Y-128587914D01*
X152474571Y-128587914D02*
X152474571Y-128540295D01*
X152474571Y-128540295D02*
X152522190Y-128445057D01*
X152522190Y-128445057D02*
X152569809Y-128397438D01*
X152569809Y-128397438D02*
X152665047Y-128349819D01*
X152665047Y-128349819D02*
X152855523Y-128349819D01*
X152855523Y-128349819D02*
X152950761Y-128397438D01*
X152950761Y-128397438D02*
X152998380Y-128445057D01*
X152998380Y-128445057D02*
X153045999Y-128540295D01*
X153045999Y-128540295D02*
X153045999Y-128587914D01*
X153045999Y-128587914D02*
X152998380Y-128683152D01*
X152998380Y-128683152D02*
X152950761Y-128730771D01*
X152950761Y-128730771D02*
X152855523Y-128778390D01*
X152855523Y-128778390D02*
X152665047Y-128778390D01*
X152665047Y-128778390D02*
X152569809Y-128826009D01*
X152569809Y-128826009D02*
X152522190Y-128873628D01*
X152522190Y-128873628D02*
X152474571Y-128968866D01*
X152474571Y-128968866D02*
X152474571Y-129159342D01*
X152474571Y-129159342D02*
X152522190Y-129254580D01*
X152522190Y-129254580D02*
X152569809Y-129302200D01*
X152569809Y-129302200D02*
X152665047Y-129349819D01*
X152665047Y-129349819D02*
X152855523Y-129349819D01*
X152855523Y-129349819D02*
X152950761Y-129302200D01*
X152950761Y-129302200D02*
X152998380Y-129254580D01*
X152998380Y-129254580D02*
X153045999Y-129159342D01*
X153045999Y-129159342D02*
X153045999Y-128968866D01*
X153045999Y-128968866D02*
X152998380Y-128873628D01*
X152998380Y-128873628D02*
X152950761Y-128826009D01*
X152950761Y-128826009D02*
X152855523Y-128778390D01*
%TO.C,Q5*%
X130060000Y-119060000D02*
X130060000Y-118410000D01*
X130060000Y-119060000D02*
X130060000Y-119710000D01*
X126940000Y-119060000D02*
X126940000Y-118410000D01*
X126940000Y-119060000D02*
X126940000Y-119710000D01*
D12*
X130340000Y-118137500D02*
X130010000Y-117897500D01*
X130340000Y-117657500D01*
X130340000Y-118137500D01*
G36*
X130340000Y-118137500D02*
G01*
X130010000Y-117897500D01*
X130340000Y-117657500D01*
X130340000Y-118137500D01*
G37*
%TO.C,Q4*%
D11*
X130060000Y-113190000D02*
X130060000Y-112540000D01*
X130060000Y-113190000D02*
X130060000Y-113840000D01*
X126940000Y-113190000D02*
X126940000Y-112540000D01*
X126940000Y-113190000D02*
X126940000Y-113840000D01*
D12*
X130340000Y-112267500D02*
X130010000Y-112027500D01*
X130340000Y-111787500D01*
X130340000Y-112267500D01*
G36*
X130340000Y-112267500D02*
G01*
X130010000Y-112027500D01*
X130340000Y-111787500D01*
X130340000Y-112267500D01*
G37*
%TO.C,D5*%
D11*
X174600000Y-97170000D02*
X174600000Y-98630000D01*
X174600000Y-98630000D02*
X176890000Y-98630000D01*
X176890000Y-97170000D02*
X174600000Y-97170000D01*
%TO.C,J4*%
D12*
X85790000Y-142060000D02*
X85790000Y-127750000D01*
X94940000Y-123640000D02*
X91200000Y-123640000D01*
X101510000Y-142060000D02*
X85790000Y-142060000D01*
X101510000Y-142060000D02*
X101510000Y-127750000D01*
X85790000Y-127750000D02*
G75*
G02*
X88698352Y-123819587I4110000J0D01*
G01*
X99516806Y-124227042D02*
G75*
G02*
X101510000Y-127750000I-2116805J-3522957D01*
G01*
%TO.C,J10*%
X121178000Y-129995000D02*
X122598000Y-129995000D01*
X121178000Y-141715000D02*
X121178000Y-129995000D01*
X122598000Y-129995000D02*
X122598000Y-134495000D01*
X122598000Y-134495000D02*
X126238000Y-134495000D01*
X123438000Y-130305000D02*
X124038000Y-130305000D01*
X123738000Y-130905000D02*
X123438000Y-130305000D01*
X124038000Y-130305000D02*
X123738000Y-130905000D01*
X126238000Y-141715000D02*
X121178000Y-141715000D01*
X126238000Y-141715000D02*
X131298000Y-141715000D01*
X129878000Y-129995000D02*
X129878000Y-134495000D01*
X129878000Y-134495000D02*
X126238000Y-134495000D01*
X131298000Y-129995000D02*
X129878000Y-129995000D01*
X131298000Y-141715000D02*
X131298000Y-129995000D01*
X123488000Y-135605000D02*
X123988000Y-135605000D01*
X123988000Y-141105000D01*
X123488000Y-141105000D01*
X123488000Y-135605000D01*
X125988000Y-135605000D02*
X126488000Y-135605000D01*
X126488000Y-141105000D01*
X125988000Y-141105000D01*
X125988000Y-135605000D01*
X128488000Y-135605000D02*
X128988000Y-135605000D01*
X128988000Y-141105000D01*
X128488000Y-141105000D01*
X128488000Y-135605000D01*
%TO.C,J5*%
X102390000Y-134360000D02*
X102390000Y-128750000D01*
X103240000Y-134360000D02*
X102390000Y-134360000D01*
X103240000Y-142060000D02*
X103240000Y-134360000D01*
X112700000Y-124640000D02*
X108960000Y-124640000D01*
X117260000Y-142060000D02*
X103240000Y-142060000D01*
X117260000Y-142060000D02*
X117260000Y-134360000D01*
X118110000Y-134360000D02*
X117260000Y-134360000D01*
X118110000Y-134360000D02*
X118110000Y-128750000D01*
X102390000Y-128750000D02*
G75*
G02*
X104383194Y-125227042I4110000J0D01*
G01*
X115239900Y-124791282D02*
G75*
G02*
X118110000Y-128750000I-1239898J-3918716D01*
G01*
%TO.C,D1*%
D11*
X94850000Y-95990000D02*
X94850000Y-101500000D01*
X98150000Y-95990000D02*
X94850000Y-95990000D01*
X98150000Y-95990000D02*
X98150000Y-101500000D01*
%TO.C,J7*%
D12*
X160390000Y-129995000D02*
X161810000Y-129995000D01*
X160390000Y-141715000D02*
X160390000Y-129995000D01*
X161810000Y-129995000D02*
X161810000Y-134495000D01*
X161810000Y-134495000D02*
X165450000Y-134495000D01*
X162650000Y-130305000D02*
X163250000Y-130305000D01*
X162950000Y-130905000D02*
X162650000Y-130305000D01*
X163250000Y-130305000D02*
X162950000Y-130905000D01*
X165450000Y-141715000D02*
X160390000Y-141715000D01*
X165450000Y-141715000D02*
X170510000Y-141715000D01*
X169090000Y-129995000D02*
X169090000Y-134495000D01*
X169090000Y-134495000D02*
X165450000Y-134495000D01*
X170510000Y-129995000D02*
X169090000Y-129995000D01*
X170510000Y-141715000D02*
X170510000Y-129995000D01*
X162700000Y-135605000D02*
X163200000Y-135605000D01*
X163200000Y-141105000D01*
X162700000Y-141105000D01*
X162700000Y-135605000D01*
X165200000Y-135605000D02*
X165700000Y-135605000D01*
X165700000Y-141105000D01*
X165200000Y-141105000D01*
X165200000Y-135605000D01*
X167700000Y-135605000D02*
X168200000Y-135605000D01*
X168200000Y-141105000D01*
X167700000Y-141105000D01*
X167700000Y-135605000D01*
%TO.C,D6*%
D11*
X174840000Y-117730000D02*
X177130000Y-117730000D01*
X177130000Y-116270000D02*
X174840000Y-116270000D01*
X177130000Y-117730000D02*
X177130000Y-116270000D01*
%TO.C,J2*%
D12*
X107620000Y-92958272D02*
X108190000Y-92958272D01*
X107620000Y-98158272D02*
X107620000Y-92958272D01*
X107620000Y-98158272D02*
X108190000Y-98158272D01*
X108190000Y-92958272D02*
X108190000Y-91598272D01*
X109710000Y-92958272D02*
X110730000Y-92958272D01*
X109710000Y-98158272D02*
X110730000Y-98158272D01*
X112250000Y-92958272D02*
X113270000Y-92958272D01*
X112250000Y-98158272D02*
X113270000Y-98158272D01*
X114790000Y-92958272D02*
X115810000Y-92958272D01*
X114790000Y-98158272D02*
X115810000Y-98158272D01*
X117330000Y-92958272D02*
X118350000Y-92958272D01*
X117330000Y-98158272D02*
X118350000Y-98158272D01*
X119870000Y-92958272D02*
X120890000Y-92958272D01*
X119870000Y-98158272D02*
X120890000Y-98158272D01*
X122410000Y-92958272D02*
X123430000Y-92958272D01*
X122410000Y-98158272D02*
X123430000Y-98158272D01*
X124950000Y-92958272D02*
X125970000Y-92958272D01*
X124950000Y-98158272D02*
X125970000Y-98158272D01*
X127490000Y-92958272D02*
X128510000Y-92958272D01*
X127490000Y-98158272D02*
X128510000Y-98158272D01*
X130030000Y-92958272D02*
X131050000Y-92958272D01*
X130030000Y-98158272D02*
X131050000Y-98158272D01*
X132570000Y-92958272D02*
X133590000Y-92958272D01*
X132570000Y-98158272D02*
X133590000Y-98158272D01*
X135110000Y-92958272D02*
X136130000Y-92958272D01*
X135110000Y-98158272D02*
X136130000Y-98158272D01*
X137650000Y-92958272D02*
X138670000Y-92958272D01*
X137650000Y-98158272D02*
X138670000Y-98158272D01*
X140190000Y-92958272D02*
X141210000Y-92958272D01*
X140190000Y-98158272D02*
X141210000Y-98158272D01*
X142730000Y-92958272D02*
X143750000Y-92958272D01*
X142730000Y-98158272D02*
X143750000Y-98158272D01*
X145270000Y-92958272D02*
X146290000Y-92958272D01*
X145270000Y-98158272D02*
X146290000Y-98158272D01*
X147810000Y-92958272D02*
X148380000Y-92958272D01*
X147810000Y-98158272D02*
X148380000Y-98158272D01*
X148380000Y-98158272D02*
X148380000Y-92958272D01*
%TO.C,J9*%
X134248667Y-129995000D02*
X135668667Y-129995000D01*
X134248667Y-141715000D02*
X134248667Y-129995000D01*
X135668667Y-129995000D02*
X135668667Y-134495000D01*
X135668667Y-134495000D02*
X139308667Y-134495000D01*
X136508667Y-130305000D02*
X137108667Y-130305000D01*
X136808667Y-130905000D02*
X136508667Y-130305000D01*
X137108667Y-130305000D02*
X136808667Y-130905000D01*
X139308667Y-141715000D02*
X134248667Y-141715000D01*
X139308667Y-141715000D02*
X144368667Y-141715000D01*
X142948667Y-129995000D02*
X142948667Y-134495000D01*
X142948667Y-134495000D02*
X139308667Y-134495000D01*
X144368667Y-129995000D02*
X142948667Y-129995000D01*
X144368667Y-141715000D02*
X144368667Y-129995000D01*
X136558667Y-135605000D02*
X137058667Y-135605000D01*
X137058667Y-141105000D01*
X136558667Y-141105000D01*
X136558667Y-135605000D01*
X139058667Y-135605000D02*
X139558667Y-135605000D01*
X139558667Y-141105000D01*
X139058667Y-141105000D01*
X139058667Y-135605000D01*
X141558667Y-135605000D02*
X142058667Y-135605000D01*
X142058667Y-141105000D01*
X141558667Y-141105000D01*
X141558667Y-135605000D01*
%TO.C,U1*%
D13*
X149030000Y-113500000D02*
X149030000Y-114700000D01*
X149030000Y-113500000D02*
X149130000Y-113500000D01*
X149030000Y-117900000D02*
X149030000Y-116700000D01*
X149030000Y-117900000D02*
X149130000Y-117900000D01*
X158420000Y-113500000D02*
X158530000Y-113500000D01*
X158420000Y-117900000D02*
X158530000Y-117900000D01*
X158530000Y-117900000D02*
X158530000Y-113500000D01*
X149020000Y-114780000D02*
G75*
G02*
X149030916Y-116695036I-430000J-960000D01*
G01*
D14*
X148960000Y-118900000D02*
G75*
G02*
X148900000Y-118900000I-30000J0D01*
G01*
X148900000Y-118900000D02*
G75*
G02*
X148960000Y-118900000I30000J0D01*
G01*
D13*
X149580000Y-117500000D02*
G75*
G02*
X149380000Y-117500000I-100000J0D01*
G01*
X149380000Y-117500000D02*
G75*
G02*
X149580000Y-117500000I100000J0D01*
G01*
%TO.C,U4*%
D11*
X109440000Y-102470000D02*
X112380000Y-102470000D01*
X109440000Y-109130000D02*
X109440000Y-102470000D01*
X112380000Y-102470000D02*
X112380000Y-109130000D01*
X112380000Y-109130000D02*
X109440000Y-109130000D01*
X112790000Y-108800000D02*
G75*
G02*
X112730000Y-108800000I-30000J0D01*
G01*
X112730000Y-108800000D02*
G75*
G02*
X112790000Y-108800000I30000J0D01*
G01*
%TO.C,D7*%
X175010000Y-114980000D02*
X177300000Y-114980000D01*
X177300000Y-113520000D02*
X175010000Y-113520000D01*
X177300000Y-114980000D02*
X177300000Y-113520000D01*
%TO.C,U3*%
X132492500Y-105080000D02*
X139152500Y-105080000D01*
X132492500Y-108620000D02*
X132492500Y-105080000D01*
X139152500Y-105080000D02*
X139152500Y-108620000D01*
X139152500Y-108620000D02*
X132492500Y-108620000D01*
D15*
X138912500Y-105830000D02*
G75*
G02*
X138592500Y-105830000I-160000J0D01*
G01*
X138592500Y-105830000D02*
G75*
G02*
X138912500Y-105830000I160000J0D01*
G01*
D14*
X139102500Y-103650000D02*
G75*
G02*
X139042500Y-103650000I-30000J0D01*
G01*
X139042500Y-103650000D02*
G75*
G02*
X139102500Y-103650000I30000J0D01*
G01*
D15*
X139532500Y-103980000D02*
G75*
G02*
X139232500Y-103980000I-150000J0D01*
G01*
X139232500Y-103980000D02*
G75*
G02*
X139532500Y-103980000I150000J0D01*
G01*
%TO.C,J3*%
D12*
X174720000Y-107530000D02*
X174720000Y-99800000D01*
X177480000Y-99800000D02*
X174720000Y-99800000D01*
X177480000Y-107530000D02*
X174720000Y-107530000D01*
X177480000Y-107530000D02*
X177480000Y-99800000D01*
X177480000Y-108800000D02*
X177480000Y-110180000D01*
X177480000Y-110180000D02*
X176100000Y-110180000D01*
%TO.C,U2*%
D11*
X122630000Y-102440000D02*
X122630000Y-102530000D01*
X122630000Y-102440000D02*
X126450000Y-102440000D01*
X122630000Y-107440000D02*
X122630000Y-107350000D01*
X126450000Y-102440000D02*
X126450000Y-102530000D01*
X126450000Y-107440000D02*
X122630000Y-107440000D01*
X126450000Y-107440000D02*
X126450000Y-107350000D01*
X122320000Y-102440000D02*
G75*
G02*
X122260000Y-102440000I-30000J0D01*
G01*
X122260000Y-102440000D02*
G75*
G02*
X122320000Y-102440000I30000J0D01*
G01*
%TO.C,J8*%
D12*
X147319333Y-129995000D02*
X148739333Y-129995000D01*
X147319333Y-141715000D02*
X147319333Y-129995000D01*
X148739333Y-129995000D02*
X148739333Y-134495000D01*
X148739333Y-134495000D02*
X152379333Y-134495000D01*
X149579333Y-130305000D02*
X150179333Y-130305000D01*
X149879333Y-130905000D02*
X149579333Y-130305000D01*
X150179333Y-130305000D02*
X149879333Y-130905000D01*
X152379333Y-141715000D02*
X147319333Y-141715000D01*
X152379333Y-141715000D02*
X157439333Y-141715000D01*
X156019333Y-129995000D02*
X156019333Y-134495000D01*
X156019333Y-134495000D02*
X152379333Y-134495000D01*
X157439333Y-129995000D02*
X156019333Y-129995000D01*
X157439333Y-141715000D02*
X157439333Y-129995000D01*
X149629333Y-135605000D02*
X150129333Y-135605000D01*
X150129333Y-141105000D01*
X149629333Y-141105000D01*
X149629333Y-135605000D01*
X152129333Y-135605000D02*
X152629333Y-135605000D01*
X152629333Y-141105000D01*
X152129333Y-141105000D01*
X152129333Y-135605000D01*
X154629333Y-135605000D02*
X155129333Y-135605000D01*
X155129333Y-141105000D01*
X154629333Y-141105000D01*
X154629333Y-135605000D01*
%TD*%
%LPC*%
D16*
%TO.C,Q5*%
X129450000Y-118120000D03*
X127550000Y-118120000D03*
X128500000Y-120000000D03*
%TD*%
%TO.C,Q4*%
X129450000Y-112250000D03*
X127550000Y-112250000D03*
X128500000Y-114130000D03*
%TD*%
D17*
%TO.C,R29*%
X159000000Y-125500000D03*
X159000000Y-124500000D03*
%TD*%
%TO.C,R2*%
X135750000Y-115750000D03*
X135750000Y-114750000D03*
%TD*%
D18*
%TO.C,D5*%
X175300000Y-97900000D03*
X176880000Y-97900000D03*
%TD*%
D19*
%TO.C,H1*%
X82000000Y-92000000D03*
D20*
X82000000Y-92000000D03*
%TD*%
D17*
%TO.C,R5*%
X139825000Y-115700000D03*
X139825000Y-114700000D03*
%TD*%
D21*
%TO.C,J4*%
X100400000Y-131600000D03*
X86900000Y-131600000D03*
D22*
X97250000Y-125600000D03*
D23*
X90050000Y-125600000D03*
%TD*%
D24*
%TO.C,R8*%
X142000000Y-112500000D03*
X141000000Y-112500000D03*
%TD*%
D25*
%TO.C,J10*%
X123738000Y-132405000D03*
D26*
X126238000Y-132405000D03*
X128738000Y-132405000D03*
%TD*%
D27*
%TO.C,R34*%
X150709092Y-124500000D03*
X150709092Y-125500000D03*
%TD*%
D21*
%TO.C,J5*%
X117000000Y-132600000D03*
X103500000Y-132600000D03*
D22*
X106650000Y-126600000D03*
D23*
X113850000Y-126600000D03*
%TD*%
D28*
%TO.C,C16*%
X117450000Y-103540000D03*
X117450000Y-105100000D03*
%TD*%
D27*
%TO.C,R26*%
X153818183Y-124500000D03*
X153818183Y-125500000D03*
%TD*%
D29*
%TO.C,R19*%
X131900000Y-111500000D03*
X132900000Y-111500000D03*
%TD*%
D30*
%TO.C,D1*%
X96500000Y-97500000D03*
X96500000Y-101500000D03*
%TD*%
D25*
%TO.C,J7*%
X162950000Y-132405000D03*
D26*
X165450000Y-132405000D03*
X167950000Y-132405000D03*
%TD*%
D29*
%TO.C,R20*%
X135800000Y-112500000D03*
X136800000Y-112500000D03*
%TD*%
D17*
%TO.C,R31*%
X154854546Y-125500000D03*
X154854546Y-124500000D03*
%TD*%
%TO.C,R7*%
X141862500Y-115650000D03*
X141862500Y-114650000D03*
%TD*%
D29*
%TO.C,R9*%
X138500000Y-112500000D03*
X139500000Y-112500000D03*
%TD*%
D27*
%TO.C,R23*%
X155890910Y-124500000D03*
X155890910Y-125500000D03*
%TD*%
%TO.C,R21*%
X145750000Y-105750000D03*
X145750000Y-106750000D03*
%TD*%
D31*
%TO.C,H6*%
X153000000Y-94000000D03*
%TD*%
D28*
%TO.C,C18*%
X117450000Y-106600000D03*
X117450000Y-108160000D03*
%TD*%
D32*
%TO.C,D6*%
X176430000Y-117000000D03*
X174850000Y-117000000D03*
%TD*%
D31*
%TO.C,H5*%
X103016621Y-94004594D03*
%TD*%
D29*
%TO.C,R1*%
X172750000Y-97900000D03*
X173750000Y-97900000D03*
%TD*%
D17*
%TO.C,R3*%
X137787500Y-115700000D03*
X137787500Y-114700000D03*
%TD*%
D33*
%TO.C,J2*%
X108950000Y-93038272D03*
X108950000Y-98078272D03*
X111490000Y-93038272D03*
X111490000Y-98078272D03*
X114030000Y-93038272D03*
X114030000Y-98078272D03*
X116570000Y-93038272D03*
X116570000Y-98078272D03*
X119110000Y-93038272D03*
X119110000Y-98078272D03*
X121650000Y-93038272D03*
X121650000Y-98078272D03*
X124190000Y-93038272D03*
X124190000Y-98078272D03*
X126730000Y-93038272D03*
X126730000Y-98078272D03*
X129270000Y-93038272D03*
X129270000Y-98078272D03*
X131810000Y-93038272D03*
X131810000Y-98078272D03*
X134350000Y-93038272D03*
X134350000Y-98078272D03*
X136890000Y-93038272D03*
X136890000Y-98078272D03*
X139430000Y-93038272D03*
X139430000Y-98078272D03*
X141970000Y-93038272D03*
X141970000Y-98078272D03*
X144510000Y-93038272D03*
X144510000Y-98078272D03*
X147050000Y-93038272D03*
X147050000Y-98078272D03*
%TD*%
D27*
%TO.C,R27*%
X151745456Y-124500000D03*
X151745456Y-125500000D03*
%TD*%
D17*
%TO.C,R32*%
X152781819Y-125500000D03*
X152781819Y-124500000D03*
%TD*%
D25*
%TO.C,J9*%
X136808667Y-132405000D03*
D26*
X139308667Y-132405000D03*
X141808667Y-132405000D03*
%TD*%
D31*
%TO.C,H2*%
X174000000Y-134000000D03*
%TD*%
D27*
%TO.C,R24*%
X157963637Y-124500000D03*
X157963637Y-125500000D03*
%TD*%
D17*
%TO.C,R28*%
X156927273Y-125500000D03*
X156927273Y-124500000D03*
%TD*%
D34*
%TO.C,U1*%
X149550000Y-118900000D03*
X150200000Y-118900000D03*
X150860000Y-118900000D03*
X151510000Y-118900000D03*
X152160000Y-118900000D03*
X152810000Y-118900000D03*
X153460000Y-118900000D03*
X154100000Y-118900000D03*
X154750000Y-118900000D03*
X155400000Y-118900000D03*
X156050000Y-118900000D03*
X156700000Y-118900000D03*
X157350000Y-118900000D03*
X158010000Y-118900000D03*
X158010000Y-112500000D03*
X157350000Y-112500000D03*
X156700000Y-112500000D03*
X156050000Y-112500000D03*
X155400000Y-112500000D03*
X154750000Y-112500000D03*
X154100000Y-112500000D03*
X153460000Y-112500000D03*
X152810000Y-112500000D03*
X152160000Y-112500000D03*
X151510000Y-112500000D03*
X150860000Y-112500000D03*
X150210000Y-112500000D03*
X149560000Y-112500000D03*
%TD*%
D35*
%TO.C,C2*%
X129014000Y-104648000D03*
X130574000Y-104648000D03*
%TD*%
D36*
%TO.C,U4*%
X113980000Y-108100000D03*
X113980000Y-105800000D03*
X113980000Y-103500000D03*
D37*
X108010000Y-104800000D03*
X108010000Y-105800000D03*
D38*
X108010000Y-105800000D03*
D37*
X108010000Y-106800000D03*
%TD*%
D27*
%TO.C,R30*%
X151466667Y-109000000D03*
X151466667Y-110000000D03*
%TD*%
D32*
%TO.C,D7*%
X176600000Y-114250000D03*
X175020000Y-114250000D03*
%TD*%
D29*
%TO.C,R11*%
X172230000Y-117100000D03*
X173230000Y-117100000D03*
%TD*%
D39*
%TO.C,C30*%
X149606000Y-109238000D03*
X149606000Y-107678000D03*
%TD*%
D31*
%TO.C,H4*%
X174000000Y-92000000D03*
%TD*%
D39*
%TO.C,C29*%
X120250000Y-128280000D03*
X120250000Y-126720000D03*
%TD*%
D17*
%TO.C,R25*%
X152750000Y-110000000D03*
X152750000Y-109000000D03*
%TD*%
%TO.C,R33*%
X149700000Y-125500000D03*
X149700000Y-124500000D03*
%TD*%
%TO.C,R6*%
X133712500Y-115750000D03*
X133712500Y-114750000D03*
%TD*%
D39*
%TO.C,C1*%
X140500000Y-109560000D03*
X140500000Y-108000000D03*
%TD*%
D40*
%TO.C,U3*%
X138752500Y-103980000D03*
X138102500Y-103980000D03*
X137452500Y-103980000D03*
X136802500Y-103980000D03*
X136142500Y-103980000D03*
X135492500Y-103980000D03*
X134842500Y-103980000D03*
X134192500Y-103980000D03*
X133542500Y-103980000D03*
X132892500Y-103980000D03*
X132892500Y-109720000D03*
X133542500Y-109720000D03*
X134192500Y-109720000D03*
X134842500Y-109720000D03*
X135492500Y-109720000D03*
X136142500Y-109720000D03*
X136802500Y-109720000D03*
X137452500Y-109720000D03*
X138102500Y-109720000D03*
X138752500Y-109720000D03*
%TD*%
D29*
%TO.C,R10*%
X172400000Y-114200000D03*
X173400000Y-114200000D03*
%TD*%
D41*
%TO.C,J3*%
X176100000Y-108800000D03*
D42*
X176100000Y-106260000D03*
X176100000Y-103720000D03*
X176100000Y-101180000D03*
%TD*%
D17*
%TO.C,R22*%
X147750000Y-109000000D03*
X147750000Y-108000000D03*
%TD*%
D31*
%TO.C,H3*%
X82000000Y-134000000D03*
%TD*%
D43*
%TO.C,U2*%
X121830000Y-103030000D03*
X121830000Y-104300000D03*
X121830000Y-105580000D03*
X121830000Y-106850000D03*
X127250000Y-106850000D03*
X127250000Y-105580000D03*
X127250000Y-104300000D03*
X127250000Y-103030000D03*
%TD*%
D25*
%TO.C,J8*%
X149879333Y-132405000D03*
D26*
X152379333Y-132405000D03*
X154879333Y-132405000D03*
%TD*%
D27*
%TO.C,R12*%
X147750000Y-115500000D03*
X147750000Y-116500000D03*
%TD*%
%LPD*%
M02*
